%
M48
M72
T01C0.0130
T02C0.0236
T03C0.0315
T04C0.0320
T05C0.0360
T06C0.0400
T07C0.0787
T08C0.1260
%
T01
X6580Y10180
X16780Y8680
T02
X18293Y2055
X6680Y12330
X10180Y20330
X18318Y23680
X19730Y20430
X4395Y3805
T03
X20930Y4730
T04
X2430Y2180
X3430Y2180
X4430Y2180
X5430Y2180
X6430Y2180
X7430Y2180
X8430Y2180
X9430Y2180
X10430Y2180
X11430Y2180
X12430Y2180
X13430Y2180
X14430Y2180
X15430Y2180
X16880Y3580
X16880Y4580
X15430Y5180
X14430Y5180
X13430Y5180
X12430Y5180
X11430Y5180
X10430Y5180
X9430Y5180
X8430Y5180
X7430Y5180
X6430Y5180
X5430Y5180
X4430Y5180
X3430Y5180
X2430Y5180
X5430Y6680
X5430Y8680
X4430Y10430
X3930Y11180
X4930Y11180
X4930Y12555
X4430Y13305
X4430Y14180
X3930Y14930
X4930Y14930
X6180Y14930
X7180Y14930
X7180Y16430
X6180Y16430
X4930Y16305
X4430Y17055
X3930Y16305
X4430Y17930
X3930Y18680
X4930Y18680
X6180Y17930
X7180Y17930
X7180Y19430
X6180Y19430
X4930Y20055
X4430Y20805
X3930Y20055
X3930Y21930
X4430Y22680
X4930Y21930
X6180Y22430
X7180Y22430
X7180Y20930
X6180Y20930
X8930Y21180
X8930Y20180
X8930Y19180
X8930Y18180
X8930Y17180
X8930Y16180
X8930Y15180
X8930Y14180
X7180Y13430
X6180Y13430
X3930Y12555
X10930Y8680
X13180Y8680
X13180Y7680
X14680Y7430
X14680Y6430
X14680Y8430
X14680Y9430
X13930Y10430
X13430Y11180
X14430Y11180
X15930Y11430
X15930Y10430
X17430Y10430
X17430Y11430
X19680Y11680
X19680Y12680
X18430Y14180
X18430Y15180
X18430Y16180
X18430Y17180
X18430Y18180
X18430Y19180
X18430Y20180
X18430Y21180
X19443Y22400
X20443Y22400
X21430Y21180
X21430Y20180
X21430Y19180
X21430Y18180
X21430Y17180
X21430Y16180
X21430Y15180
X21430Y14180
X19680Y10680
X19180Y9430
X19180Y8430
X17680Y8430
X17680Y9430
X17680Y7430
X17680Y6430
X10930Y6680
X13430Y12555
X13930Y13305
X13930Y14180
X13430Y14930
X14430Y14930
X15680Y14930
X16680Y14930
X16680Y16430
X15680Y16430
X14430Y16305
X13930Y17055
X13430Y16305
X11930Y16180
X11930Y15180
X11930Y14180
X14430Y12555
X15680Y13430
X16680Y13430
X11930Y17180
X11930Y18180
X11930Y19180
X11930Y20180
X11930Y21180
X10880Y22380
X9880Y22380
X13430Y21930
X13930Y22680
X14430Y21930
X15680Y22430
X16680Y22430
X16680Y20930
X15680Y20930
X14430Y20055
X13930Y20805
X13430Y20055
X13430Y18680
X13930Y17930
X14430Y18680
X15680Y19430
X16680Y19430
X16680Y17930
X15680Y17930
T05
X2680Y7680
X2680Y6680
T06
X2180Y9180
X2180Y10180
X2180Y11180
X2180Y12180
X2180Y13180
X2180Y14180
X2180Y15180
X2180Y16180
X2180Y17180
X2180Y18180
X2180Y19180
X2180Y20180
X2180Y21180
X2180Y22180
X7930Y8930
X7930Y7930
X7930Y6930
T07
X20930Y7330
X20930Y2130
T08
X16930Y2180
X21680Y11180
X22180Y23680
X2680Y23680
M30
