G75*
G70*
%OFA0B0*%
%FSLAX24Y24*%
%IPPOS*%
%LPD*%
%AMOC8*
5,1,8,0,0,1.08239X$1,22.5*
%
%ADD10OC8,0.0480*%
%ADD11C,0.0480*%
%ADD12R,0.1560X0.1560*%
%ADD13C,0.1250*%
%ADD14C,0.0480*%
%ADD15C,0.0660*%
%ADD16C,0.0600*%
%ADD17OC8,0.0560*%
%ADD18C,0.0540*%
%ADD19C,0.0160*%
%ADD20C,0.0060*%
%ADD21C,0.0270*%
%ADD22C,0.0376*%
D10*
X005430Y006680D03*
X005430Y008680D03*
X004430Y010430D03*
X003930Y011180D03*
X004930Y011180D03*
X004930Y012555D03*
X004430Y013305D03*
X004430Y014180D03*
X003930Y014930D03*
X004930Y014930D03*
X006180Y014930D03*
X007180Y014930D03*
X007180Y016430D03*
X006180Y016430D03*
X004930Y016305D03*
X004430Y017055D03*
X003930Y016305D03*
X004430Y017930D03*
X003930Y018680D03*
X004930Y018680D03*
X006180Y017930D03*
X007180Y017930D03*
X007180Y019430D03*
X006180Y019430D03*
X004930Y020055D03*
X004430Y020805D03*
X003930Y020055D03*
X003930Y021930D03*
X004430Y022680D03*
X004930Y021930D03*
X006180Y022430D03*
X007180Y022430D03*
X007180Y020930D03*
X006180Y020930D03*
X013430Y020055D03*
X013930Y020805D03*
X014430Y020055D03*
X015680Y019430D03*
X016680Y019430D03*
X016680Y017930D03*
X015680Y017930D03*
X014430Y018680D03*
X013930Y017930D03*
X013430Y018680D03*
X013930Y017055D03*
X013430Y016305D03*
X014430Y016305D03*
X015680Y016430D03*
X016680Y016430D03*
X016680Y014930D03*
X015680Y014930D03*
X014430Y014930D03*
X013930Y014180D03*
X013930Y013305D03*
X013430Y012555D03*
X014430Y012555D03*
X015680Y013430D03*
X016680Y013430D03*
X015930Y011430D03*
X015930Y010430D03*
X014430Y011180D03*
X013930Y010430D03*
X013430Y011180D03*
X010930Y008680D03*
X010930Y006680D03*
X017430Y010430D03*
X017430Y011430D03*
X013430Y014930D03*
X007180Y013430D03*
X006180Y013430D03*
X003930Y012555D03*
X013430Y021930D03*
X013930Y022680D03*
X014430Y021930D03*
X015680Y022430D03*
X016680Y022430D03*
X016680Y020930D03*
X015680Y020930D03*
D11*
X018190Y021180D02*
X018670Y021180D01*
X018670Y020180D02*
X018190Y020180D01*
X018190Y019180D02*
X018670Y019180D01*
X018670Y018180D02*
X018190Y018180D01*
X018190Y017180D02*
X018670Y017180D01*
X018670Y016180D02*
X018190Y016180D01*
X018190Y015180D02*
X018670Y015180D01*
X018670Y014180D02*
X018190Y014180D01*
X021190Y014180D02*
X021670Y014180D01*
X021670Y015180D02*
X021190Y015180D01*
X021190Y016180D02*
X021670Y016180D01*
X021670Y017180D02*
X021190Y017180D01*
X021190Y018180D02*
X021670Y018180D01*
X021670Y019180D02*
X021190Y019180D01*
X021190Y020180D02*
X021670Y020180D01*
X021670Y021180D02*
X021190Y021180D01*
X012170Y021180D02*
X011690Y021180D01*
X011690Y020180D02*
X012170Y020180D01*
X012170Y019180D02*
X011690Y019180D01*
X011690Y018180D02*
X012170Y018180D01*
X012170Y017180D02*
X011690Y017180D01*
X011690Y016180D02*
X012170Y016180D01*
X012170Y015180D02*
X011690Y015180D01*
X011690Y014180D02*
X012170Y014180D01*
X009170Y014180D02*
X008690Y014180D01*
X008690Y015180D02*
X009170Y015180D01*
X009170Y016180D02*
X008690Y016180D01*
X008690Y017180D02*
X009170Y017180D01*
X009170Y018180D02*
X008690Y018180D01*
X008690Y019180D02*
X009170Y019180D01*
X009170Y020180D02*
X008690Y020180D01*
X008690Y021180D02*
X009170Y021180D01*
X014440Y009430D02*
X014920Y009430D01*
X014920Y008430D02*
X014440Y008430D01*
X014440Y007430D02*
X014920Y007430D01*
X014920Y006430D02*
X014440Y006430D01*
X014430Y005420D02*
X014430Y004940D01*
X013430Y004940D02*
X013430Y005420D01*
X012430Y005420D02*
X012430Y004940D01*
X011430Y004940D02*
X011430Y005420D01*
X010430Y005420D02*
X010430Y004940D01*
X009430Y004940D02*
X009430Y005420D01*
X008430Y005420D02*
X008430Y004940D01*
X007430Y004940D02*
X007430Y005420D01*
X006430Y005420D02*
X006430Y004940D01*
X005430Y004940D02*
X005430Y005420D01*
X004430Y005420D02*
X004430Y004940D01*
X003430Y004940D02*
X003430Y005420D01*
X002430Y005420D02*
X002430Y004940D01*
X002430Y002420D02*
X002430Y001940D01*
X003430Y001940D02*
X003430Y002420D01*
X004430Y002420D02*
X004430Y001940D01*
X005430Y001940D02*
X005430Y002420D01*
X006430Y002420D02*
X006430Y001940D01*
X007430Y001940D02*
X007430Y002420D01*
X008430Y002420D02*
X008430Y001940D01*
X009430Y001940D02*
X009430Y002420D01*
X010430Y002420D02*
X010430Y001940D01*
X011430Y001940D02*
X011430Y002420D01*
X012430Y002420D02*
X012430Y001940D01*
X013430Y001940D02*
X013430Y002420D01*
X014430Y002420D02*
X014430Y001940D01*
X015430Y001940D02*
X015430Y002420D01*
X015430Y004940D02*
X015430Y005420D01*
X017440Y006430D02*
X017920Y006430D01*
X017920Y007430D02*
X017440Y007430D01*
X017440Y008430D02*
X017920Y008430D01*
X017920Y009430D02*
X017440Y009430D01*
D12*
X020930Y004730D03*
D13*
X020930Y002130D03*
X020930Y007330D03*
D14*
X019180Y008430D03*
X019180Y009430D03*
D15*
X019680Y010680D03*
X019680Y011680D03*
X019680Y012680D03*
D16*
X008230Y008930D02*
X007630Y008930D01*
X007630Y007930D02*
X008230Y007930D01*
X008230Y006930D02*
X007630Y006930D01*
X002480Y009180D02*
X001880Y009180D01*
X001880Y010180D02*
X002480Y010180D01*
X002480Y011180D02*
X001880Y011180D01*
X001880Y012180D02*
X002480Y012180D01*
X002480Y013180D02*
X001880Y013180D01*
X001880Y014180D02*
X002480Y014180D01*
X002480Y015180D02*
X001880Y015180D01*
X001880Y016180D02*
X002480Y016180D01*
X002480Y017180D02*
X001880Y017180D01*
X001880Y018180D02*
X002480Y018180D01*
X002480Y019180D02*
X001880Y019180D01*
X001880Y020180D02*
X002480Y020180D01*
X002480Y021180D02*
X001880Y021180D01*
X001880Y022180D02*
X002480Y022180D01*
D17*
X009880Y022380D03*
X010880Y022380D03*
X019443Y022400D03*
X020443Y022400D03*
X013180Y008680D03*
X013180Y007680D03*
X016880Y004580D03*
X016880Y003580D03*
D18*
X002950Y006680D02*
X002410Y006680D01*
X002410Y007680D02*
X002950Y007680D01*
D19*
X001490Y008863D02*
X001490Y001490D01*
X016404Y001490D01*
X016201Y001693D01*
X016070Y002009D01*
X016070Y002351D01*
X016201Y002667D01*
X016443Y002909D01*
X016759Y003040D01*
X017101Y003040D01*
X017417Y002909D01*
X017659Y002667D01*
X017790Y002351D01*
X017790Y002009D01*
X017659Y001693D01*
X017456Y001490D01*
X020403Y001490D01*
X020231Y001663D01*
X020105Y001966D01*
X020105Y002294D01*
X020231Y002597D01*
X020463Y002829D01*
X020766Y002955D01*
X021094Y002955D01*
X021397Y002829D01*
X021629Y002597D01*
X021755Y002294D01*
X021755Y001966D01*
X021629Y001663D01*
X021457Y001490D01*
X023120Y001490D01*
X023120Y024370D01*
X022706Y024370D01*
X022909Y024167D01*
X023040Y023851D01*
X023040Y023509D01*
X022909Y023193D01*
X022667Y022951D01*
X022351Y022820D01*
X022009Y022820D01*
X021693Y022951D01*
X021451Y023193D01*
X021320Y023509D01*
X021320Y023851D01*
X021451Y024167D01*
X021654Y024370D01*
X003206Y024370D01*
X003409Y024167D01*
X003540Y023851D01*
X003540Y023509D01*
X003409Y023193D01*
X003167Y022951D01*
X002851Y022820D01*
X002509Y022820D01*
X002193Y022951D01*
X001951Y023193D01*
X001820Y023509D01*
X001820Y023851D01*
X001951Y024167D01*
X002154Y024370D01*
X001490Y024370D01*
X001490Y022497D01*
X001597Y022604D01*
X001781Y022680D01*
X002579Y022680D01*
X002763Y022604D01*
X002771Y022596D01*
X002885Y022710D01*
X003325Y022710D01*
X003415Y022714D01*
X003419Y022710D01*
X003425Y022710D01*
X003489Y022646D01*
X003790Y022370D01*
X004112Y022370D01*
X004370Y022112D01*
X004370Y021748D01*
X004112Y021490D01*
X003748Y021490D01*
X003490Y021748D01*
X003490Y022021D01*
X003241Y022250D01*
X003075Y022250D01*
X002980Y022155D01*
X002980Y022081D01*
X002904Y021897D01*
X002763Y021756D01*
X002579Y021680D01*
X001781Y021680D01*
X001597Y021756D01*
X001490Y021863D01*
X001490Y021497D01*
X001597Y021604D01*
X001781Y021680D01*
X002579Y021680D01*
X002763Y021604D01*
X002904Y021463D01*
X002980Y021279D01*
X002980Y021217D01*
X003768Y020495D01*
X004112Y020495D01*
X004370Y020237D01*
X004370Y019873D01*
X004207Y019710D01*
X004653Y019710D01*
X004490Y019873D01*
X004490Y020237D01*
X004748Y020495D01*
X005112Y020495D01*
X005370Y020237D01*
X005370Y019873D01*
X005116Y019619D01*
X005160Y019575D01*
X005160Y019072D01*
X005352Y018880D01*
X005740Y019296D01*
X005740Y019612D01*
X005998Y019870D01*
X006362Y019870D01*
X006620Y019612D01*
X006620Y019248D01*
X006362Y018990D01*
X006084Y018990D01*
X005312Y018163D01*
X005385Y018160D01*
X005788Y018160D01*
X005998Y018370D01*
X006362Y018370D01*
X006620Y018112D01*
X006620Y017748D01*
X006362Y017490D01*
X005998Y017490D01*
X005788Y017700D01*
X005469Y017700D01*
X004936Y017211D01*
X004870Y017150D01*
X004870Y016873D01*
X004612Y016615D01*
X004248Y016615D01*
X003990Y016873D01*
X003990Y017237D01*
X004245Y017493D01*
X003990Y017748D01*
X003990Y018112D01*
X004248Y018370D01*
X004612Y018370D01*
X004749Y018234D01*
X004755Y018240D01*
X004748Y018240D01*
X004490Y018498D01*
X004490Y018862D01*
X004700Y019072D01*
X004700Y019250D01*
X003365Y019250D01*
X003357Y019243D01*
X003271Y019250D01*
X003185Y019250D01*
X003178Y019257D01*
X003167Y019258D01*
X003111Y019324D01*
X003050Y019385D01*
X003050Y019395D01*
X002746Y019749D01*
X002579Y019680D01*
X001781Y019680D01*
X001597Y019756D01*
X001490Y019863D01*
X001490Y019497D01*
X001597Y019604D01*
X001781Y019680D01*
X002579Y019680D01*
X002763Y019604D01*
X002904Y019463D01*
X002980Y019279D01*
X002980Y019205D01*
X003075Y019110D01*
X003375Y019110D01*
X003510Y018975D01*
X003510Y018882D01*
X003748Y019120D01*
X004112Y019120D01*
X004370Y018862D01*
X004370Y018498D01*
X004112Y018240D01*
X003748Y018240D01*
X003510Y018478D01*
X003510Y017181D01*
X003982Y016745D01*
X004112Y016745D01*
X004370Y016487D01*
X004370Y016123D01*
X004166Y015919D01*
X004275Y015810D01*
X007385Y015810D01*
X008411Y016837D01*
X008317Y016931D01*
X008250Y017092D01*
X008250Y017268D01*
X008317Y017429D01*
X008441Y017553D01*
X008602Y017620D01*
X009258Y017620D01*
X009419Y017553D01*
X009543Y017429D01*
X009561Y017386D01*
X010985Y018810D01*
X011438Y018810D01*
X011317Y018931D01*
X011250Y019092D01*
X011250Y019268D01*
X011317Y019429D01*
X011441Y019553D01*
X011602Y019620D01*
X012258Y019620D01*
X012419Y019553D01*
X012543Y019429D01*
X012610Y019268D01*
X012610Y019235D01*
X012785Y019410D01*
X014175Y019410D01*
X014310Y019275D01*
X014465Y019120D01*
X014612Y019120D01*
X014870Y018862D01*
X014870Y018510D01*
X014885Y018510D01*
X015185Y018810D01*
X016985Y018810D01*
X017425Y019250D01*
X017120Y019250D01*
X017120Y019248D01*
X016862Y018990D01*
X016498Y018990D01*
X016240Y019248D01*
X016240Y019612D01*
X016498Y019870D01*
X016862Y019870D01*
X017022Y019710D01*
X017285Y019710D01*
X017750Y020175D01*
X017750Y020268D01*
X017817Y020429D01*
X017941Y020553D01*
X018102Y020620D01*
X018758Y020620D01*
X018919Y020553D01*
X019043Y020429D01*
X019110Y020268D01*
X019110Y020092D01*
X019043Y019931D01*
X018919Y019807D01*
X018890Y019795D01*
X021075Y017610D01*
X021078Y017610D01*
X021102Y017620D01*
X021217Y017620D01*
X021218Y017621D01*
X021226Y017620D01*
X021758Y017620D01*
X021919Y017553D01*
X022043Y017429D01*
X022110Y017268D01*
X022110Y017092D01*
X022043Y016931D01*
X021919Y016807D01*
X021758Y016740D01*
X021102Y016740D01*
X020941Y016807D01*
X020817Y016931D01*
X020750Y017092D01*
X020750Y017268D01*
X020755Y017280D01*
X019061Y018974D01*
X019043Y018931D01*
X018919Y018807D01*
X018758Y018740D01*
X018102Y018740D01*
X017941Y018807D01*
X017817Y018931D01*
X017799Y018974D01*
X017310Y018485D01*
X017175Y018350D01*
X016882Y018350D01*
X017120Y018112D01*
X017120Y017748D01*
X016862Y017490D01*
X016498Y017490D01*
X016240Y017748D01*
X016240Y018112D01*
X016478Y018350D01*
X015882Y018350D01*
X016120Y018112D01*
X016120Y017748D01*
X015862Y017490D01*
X015498Y017490D01*
X015240Y017748D01*
X015240Y017750D01*
X015075Y017750D01*
X014370Y017045D01*
X014370Y016873D01*
X014112Y016615D01*
X013748Y016615D01*
X013490Y016873D01*
X013490Y017237D01*
X013745Y017493D01*
X013532Y017706D01*
X012835Y017010D01*
X013275Y017010D01*
X013410Y016875D01*
X013540Y016745D01*
X013612Y016745D01*
X013870Y016487D01*
X013870Y016123D01*
X013857Y016110D01*
X014003Y016110D01*
X013990Y016123D01*
X013990Y016487D01*
X014248Y016745D01*
X014612Y016745D01*
X014870Y016487D01*
X014870Y016123D01*
X014857Y016110D01*
X015378Y016110D01*
X015240Y016248D01*
X015240Y016612D01*
X015498Y016870D01*
X015862Y016870D01*
X016120Y016612D01*
X016120Y016248D01*
X015982Y016110D01*
X016378Y016110D01*
X016240Y016248D01*
X016240Y016612D01*
X016498Y016870D01*
X016862Y016870D01*
X017120Y016612D01*
X017120Y016248D01*
X016982Y016110D01*
X017750Y016110D01*
X017750Y016268D01*
X017817Y016429D01*
X017941Y016553D01*
X018102Y016620D01*
X018758Y016620D01*
X018919Y016553D01*
X019043Y016429D01*
X019061Y016386D01*
X019085Y016410D01*
X020809Y016410D01*
X020817Y016429D01*
X020941Y016553D01*
X021102Y016620D01*
X021758Y016620D01*
X021919Y016553D01*
X022043Y016429D01*
X022110Y016268D01*
X022110Y016092D01*
X022043Y015931D01*
X021919Y015807D01*
X021758Y015740D01*
X021102Y015740D01*
X020941Y015807D01*
X020817Y015931D01*
X020809Y015950D01*
X019275Y015950D01*
X018890Y015565D01*
X018919Y015553D01*
X019043Y015429D01*
X019110Y015268D01*
X019110Y015092D01*
X019043Y014931D01*
X018919Y014807D01*
X018758Y014740D01*
X018102Y014740D01*
X017941Y014807D01*
X017817Y014931D01*
X017750Y015092D01*
X017750Y015268D01*
X017817Y015429D01*
X017941Y015553D01*
X017970Y015565D01*
X017885Y015650D01*
X012485Y015650D01*
X012355Y015780D01*
X012258Y015740D01*
X011602Y015740D01*
X011441Y015807D01*
X011317Y015931D01*
X011270Y016045D01*
X010110Y014885D01*
X010110Y011775D01*
X010110Y011610D01*
X010385Y011610D01*
X012785Y014010D01*
X013490Y014010D01*
X013490Y014362D01*
X013748Y014620D01*
X014112Y014620D01*
X014200Y014532D01*
X014200Y014538D01*
X013990Y014748D01*
X013990Y015112D01*
X014248Y015370D01*
X014612Y015370D01*
X014870Y015112D01*
X014870Y014748D01*
X014660Y014538D01*
X014660Y014137D01*
X015240Y014784D01*
X015240Y015112D01*
X015498Y015370D01*
X015862Y015370D01*
X016120Y015112D01*
X016120Y014748D01*
X015862Y014490D01*
X015594Y014490D01*
X014610Y013392D01*
X014610Y013385D01*
X014547Y013322D01*
X014488Y013256D01*
X014480Y013255D01*
X014475Y013250D01*
X014386Y013250D01*
X014370Y013249D01*
X014370Y013123D01*
X014112Y012865D01*
X013748Y012865D01*
X013490Y013123D01*
X013490Y013487D01*
X013553Y013550D01*
X012975Y013550D01*
X010735Y011310D01*
X011890Y011310D01*
X013010Y012353D01*
X012990Y012373D01*
X012990Y012737D01*
X013248Y012995D01*
X013612Y012995D01*
X013870Y012737D01*
X013870Y012373D01*
X013707Y012210D01*
X014153Y012210D01*
X013990Y012373D01*
X013990Y012737D01*
X014248Y012995D01*
X014612Y012995D01*
X014870Y012737D01*
X014870Y012373D01*
X014707Y012210D01*
X015185Y012210D01*
X015650Y012675D01*
X015785Y012810D01*
X019160Y012810D01*
X019231Y012980D01*
X019380Y013129D01*
X019575Y013210D01*
X019785Y013210D01*
X019980Y013129D01*
X020129Y012980D01*
X020210Y012785D01*
X020210Y012575D01*
X020129Y012380D01*
X019980Y012231D01*
X019858Y012180D01*
X019980Y012129D01*
X020129Y011980D01*
X020210Y011785D01*
X020210Y011575D01*
X020129Y011380D01*
X019980Y011231D01*
X019858Y011180D01*
X019980Y011129D01*
X020129Y010980D01*
X020210Y010785D01*
X020210Y010575D01*
X020129Y010380D01*
X019980Y010231D01*
X019785Y010150D01*
X019575Y010150D01*
X019380Y010231D01*
X019231Y010380D01*
X019150Y010575D01*
X019150Y010785D01*
X019085Y010850D01*
X015675Y010850D01*
X014695Y009870D01*
X015008Y009870D01*
X015169Y009803D01*
X015293Y009679D01*
X015360Y009518D01*
X015360Y009342D01*
X015293Y009181D01*
X015169Y009057D01*
X015008Y008990D01*
X014352Y008990D01*
X014191Y009057D01*
X014067Y009181D01*
X014000Y009342D01*
X014000Y009350D01*
X012510Y009350D01*
X012510Y007385D01*
X012375Y007250D01*
X011175Y006050D01*
X008468Y006050D01*
X007868Y005513D01*
X007870Y005508D01*
X007870Y004852D01*
X007803Y004691D01*
X007679Y004567D01*
X007518Y004500D01*
X007342Y004500D01*
X007181Y004567D01*
X007057Y004691D01*
X006990Y004852D01*
X006990Y005508D01*
X007057Y005669D01*
X007181Y005793D01*
X007342Y005860D01*
X007518Y005860D01*
X007550Y005846D01*
X008203Y006430D01*
X007531Y006430D01*
X007347Y006506D01*
X007206Y006647D01*
X007205Y006650D01*
X006258Y006650D01*
X005870Y006553D01*
X005870Y006498D01*
X005612Y006240D01*
X005248Y006240D01*
X005038Y006450D01*
X003363Y006450D01*
X003348Y006414D01*
X003216Y006282D01*
X003043Y006210D01*
X002317Y006210D01*
X002144Y006282D01*
X002012Y006414D01*
X001940Y006587D01*
X001940Y006773D01*
X002012Y006946D01*
X002144Y007078D01*
X002317Y007150D01*
X003043Y007150D01*
X003216Y007078D01*
X003348Y006946D01*
X003363Y006910D01*
X005038Y006910D01*
X005248Y007120D01*
X005612Y007120D01*
X005738Y006994D01*
X006112Y007088D01*
X006135Y007110D01*
X006202Y007110D01*
X006267Y007126D01*
X006294Y007110D01*
X007163Y007110D01*
X007206Y007213D01*
X007347Y007354D01*
X007531Y007430D01*
X008329Y007430D01*
X008513Y007354D01*
X008654Y007213D01*
X008730Y007029D01*
X008730Y006831D01*
X008654Y006647D01*
X008517Y006510D01*
X010490Y006510D01*
X010490Y006545D01*
X009485Y007550D01*
X008557Y007550D01*
X008513Y007506D01*
X008329Y007430D01*
X007531Y007430D01*
X007347Y007506D01*
X007206Y007647D01*
X007130Y007831D01*
X007130Y007850D01*
X006069Y007850D01*
X006065Y007846D01*
X005975Y007850D01*
X005885Y007850D01*
X005881Y007854D01*
X005875Y007854D01*
X005814Y007921D01*
X005750Y007985D01*
X005750Y007991D01*
X005521Y008240D01*
X005248Y008240D01*
X004990Y008498D01*
X004990Y008862D01*
X005248Y009120D01*
X005612Y009120D01*
X005870Y008862D01*
X005870Y008540D01*
X006081Y008310D01*
X007303Y008310D01*
X007347Y008354D01*
X007531Y008430D01*
X008329Y008430D01*
X008513Y008354D01*
X008654Y008213D01*
X008730Y008029D01*
X008730Y008010D01*
X009675Y008010D01*
X009810Y007875D01*
X010657Y007029D01*
X010748Y007120D01*
X011112Y007120D01*
X011353Y006879D01*
X012050Y007575D01*
X012050Y009650D01*
X005475Y009650D01*
X004710Y008885D01*
X004575Y008750D01*
X002748Y008750D01*
X002579Y008680D01*
X001781Y008680D01*
X001597Y008756D01*
X001490Y008863D01*
X001490Y008788D02*
X001565Y008788D01*
X001490Y008630D02*
X004990Y008630D01*
X004990Y008788D02*
X004613Y008788D01*
X004772Y008947D02*
X005074Y008947D01*
X004930Y009105D02*
X005233Y009105D01*
X005089Y009264D02*
X007285Y009264D01*
X007264Y009243D02*
X007219Y009182D01*
X007185Y009114D01*
X007162Y009042D01*
X007150Y008968D01*
X007150Y008950D01*
X007910Y008950D01*
X007910Y009410D01*
X007592Y009410D01*
X007518Y009398D01*
X007446Y009375D01*
X007378Y009341D01*
X007317Y009296D01*
X007264Y009243D01*
X007182Y009105D02*
X005627Y009105D01*
X005786Y008947D02*
X007910Y008947D01*
X007910Y008950D02*
X007910Y008910D01*
X007950Y008910D01*
X007950Y008950D01*
X007910Y008950D01*
X007950Y008950D02*
X007950Y009410D01*
X008268Y009410D01*
X008342Y009398D01*
X008414Y009375D01*
X008482Y009341D01*
X008543Y009296D01*
X008596Y009243D01*
X008641Y009182D01*
X008675Y009114D01*
X008698Y009042D01*
X008710Y008968D01*
X008710Y008950D01*
X007950Y008950D01*
X007950Y008947D02*
X010603Y008947D01*
X010510Y008854D02*
X010756Y009100D01*
X010930Y009100D01*
X010930Y008680D01*
X010930Y008680D01*
X011350Y008680D01*
X011350Y008854D01*
X011104Y009100D01*
X010930Y009100D01*
X010930Y008680D01*
X010930Y008680D01*
X010930Y008680D01*
X010510Y008680D01*
X010510Y008854D01*
X010510Y008788D02*
X008689Y008788D01*
X008698Y008818D02*
X008710Y008892D01*
X008710Y008910D01*
X007950Y008910D01*
X007950Y008450D01*
X008268Y008450D01*
X008342Y008462D01*
X008414Y008485D01*
X008482Y008519D01*
X008543Y008564D01*
X008596Y008617D01*
X008641Y008678D01*
X008675Y008746D01*
X008698Y008818D01*
X008605Y008630D02*
X010510Y008630D01*
X010510Y008680D02*
X010510Y008506D01*
X010756Y008260D01*
X010930Y008260D01*
X011104Y008260D01*
X011350Y008506D01*
X011350Y008680D01*
X010930Y008680D01*
X010930Y008260D01*
X010930Y008680D01*
X010930Y008680D01*
X010510Y008680D01*
X010545Y008471D02*
X008371Y008471D01*
X008555Y008313D02*
X010704Y008313D01*
X010930Y008313D02*
X010930Y008313D01*
X010930Y008471D02*
X010930Y008471D01*
X010930Y008630D02*
X010930Y008630D01*
X010930Y008788D02*
X010930Y008788D01*
X010930Y008947D02*
X010930Y008947D01*
X011257Y008947D02*
X012050Y008947D01*
X012050Y009105D02*
X008678Y009105D01*
X008575Y009264D02*
X012050Y009264D01*
X012050Y009422D02*
X005247Y009422D01*
X005406Y009581D02*
X012050Y009581D01*
X012510Y009264D02*
X014033Y009264D01*
X014143Y009105D02*
X013434Y009105D01*
X013379Y009160D02*
X012981Y009160D01*
X012700Y008879D01*
X012700Y008481D01*
X012981Y008200D01*
X013379Y008200D01*
X013660Y008481D01*
X013660Y008879D01*
X013379Y009160D01*
X013592Y008947D02*
X016573Y008947D01*
X016590Y008964D02*
X016496Y008870D01*
X016445Y008747D01*
X016445Y008670D01*
X016085Y008310D01*
X015375Y008310D01*
X015355Y008330D01*
X015360Y008342D01*
X015360Y008518D01*
X015293Y008679D01*
X015169Y008803D01*
X015008Y008870D01*
X014352Y008870D01*
X014191Y008803D01*
X014067Y008679D01*
X014000Y008518D01*
X014000Y008342D01*
X014067Y008181D01*
X014191Y008057D01*
X014352Y007990D01*
X015008Y007990D01*
X015034Y008001D01*
X015185Y007850D01*
X015950Y007850D01*
X015950Y005175D01*
X015870Y005095D01*
X015870Y005508D01*
X015803Y005669D01*
X015679Y005793D01*
X015518Y005860D01*
X015342Y005860D01*
X015181Y005793D01*
X015057Y005669D01*
X014990Y005508D01*
X014990Y004852D01*
X015057Y004691D01*
X015181Y004567D01*
X015342Y004500D01*
X015350Y004500D01*
X015350Y002860D01*
X015342Y002860D01*
X015181Y002793D01*
X015057Y002669D01*
X014990Y002508D01*
X014990Y001852D01*
X015057Y001691D01*
X015181Y001567D01*
X015342Y001500D01*
X015518Y001500D01*
X015679Y001567D01*
X015803Y001691D01*
X015870Y001852D01*
X015870Y002508D01*
X015803Y002669D01*
X015799Y002673D01*
X015810Y002685D01*
X015810Y002752D01*
X015826Y002817D01*
X015810Y002844D01*
X015810Y004385D01*
X016275Y004850D01*
X016275Y004850D01*
X016410Y004985D01*
X016410Y007985D01*
X016770Y008345D01*
X016847Y008345D01*
X016970Y008396D01*
X017000Y008426D01*
X017000Y008342D01*
X017067Y008181D01*
X017191Y008057D01*
X017352Y007990D01*
X018008Y007990D01*
X018169Y008057D01*
X018293Y008181D01*
X018360Y008342D01*
X018360Y008518D01*
X018293Y008679D01*
X018169Y008803D01*
X018008Y008870D01*
X017352Y008870D01*
X017191Y008803D01*
X017115Y008727D01*
X017115Y008747D01*
X017064Y008870D01*
X016970Y008964D01*
X016847Y009015D01*
X016713Y009015D01*
X016590Y008964D01*
X016462Y008788D02*
X015184Y008788D01*
X015314Y008630D02*
X016404Y008630D01*
X016246Y008471D02*
X015360Y008471D01*
X015373Y008313D02*
X016087Y008313D01*
X016421Y007996D02*
X017339Y007996D01*
X017352Y007870D02*
X017191Y007803D01*
X017067Y007679D01*
X017000Y007518D01*
X017000Y007342D01*
X017067Y007181D01*
X017191Y007057D01*
X017352Y006990D01*
X018008Y006990D01*
X018169Y007057D01*
X018293Y007181D01*
X018360Y007342D01*
X018360Y007518D01*
X018293Y007679D01*
X018169Y007803D01*
X018008Y007870D01*
X017352Y007870D01*
X017273Y007837D02*
X016410Y007837D01*
X016410Y007679D02*
X017067Y007679D01*
X017001Y007520D02*
X016410Y007520D01*
X016410Y007362D02*
X017000Y007362D01*
X017058Y007203D02*
X016410Y007203D01*
X016410Y007045D02*
X017221Y007045D01*
X017352Y006870D02*
X017191Y006803D01*
X017067Y006679D01*
X017000Y006518D01*
X017000Y006342D01*
X017067Y006181D01*
X017191Y006057D01*
X017352Y005990D01*
X018008Y005990D01*
X018169Y006057D01*
X018293Y006181D01*
X018360Y006342D01*
X018360Y006518D01*
X018293Y006679D01*
X018169Y006803D01*
X018008Y006870D01*
X017352Y006870D01*
X017115Y006728D02*
X016410Y006728D01*
X016410Y006886D02*
X020221Y006886D01*
X020231Y006863D02*
X020463Y006631D01*
X020766Y006505D01*
X021094Y006505D01*
X021397Y006631D01*
X021629Y006863D01*
X021755Y007166D01*
X021755Y007494D01*
X021629Y007797D01*
X021397Y008029D01*
X021094Y008155D01*
X020766Y008155D01*
X020463Y008029D01*
X020231Y007797D01*
X020105Y007494D01*
X020105Y007166D01*
X020231Y006863D01*
X020366Y006728D02*
X018245Y006728D01*
X018339Y006569D02*
X020611Y006569D01*
X020155Y007045D02*
X018139Y007045D01*
X018302Y007203D02*
X020105Y007203D01*
X020105Y007362D02*
X018360Y007362D01*
X018359Y007520D02*
X020116Y007520D01*
X020181Y007679D02*
X018293Y007679D01*
X018087Y007837D02*
X020270Y007837D01*
X020429Y007996D02*
X019281Y007996D01*
X019268Y007990D02*
X019429Y008057D01*
X019553Y008181D01*
X019620Y008342D01*
X019620Y008518D01*
X019553Y008679D01*
X019429Y008803D01*
X019268Y008870D01*
X019092Y008870D01*
X018931Y008803D01*
X018807Y008679D01*
X018740Y008518D01*
X018740Y008342D01*
X018807Y008181D01*
X018931Y008057D01*
X019092Y007990D01*
X019268Y007990D01*
X019079Y007996D02*
X018021Y007996D01*
X018266Y008154D02*
X018834Y008154D01*
X018752Y008313D02*
X018348Y008313D01*
X018360Y008471D02*
X018740Y008471D01*
X018786Y008630D02*
X018314Y008630D01*
X018184Y008788D02*
X018916Y008788D01*
X019092Y008990D02*
X019268Y008990D01*
X019429Y009057D01*
X019553Y009181D01*
X019620Y009342D01*
X019620Y009518D01*
X019553Y009679D01*
X019429Y009803D01*
X019268Y009870D01*
X019092Y009870D01*
X018931Y009803D01*
X018807Y009679D01*
X018740Y009518D01*
X018740Y009342D01*
X018807Y009181D01*
X018931Y009057D01*
X019092Y008990D01*
X018883Y009105D02*
X018217Y009105D01*
X018169Y009057D02*
X018293Y009181D01*
X018360Y009342D01*
X018360Y009518D01*
X018293Y009679D01*
X018169Y009803D01*
X018008Y009870D01*
X017352Y009870D01*
X017191Y009803D01*
X017067Y009679D01*
X017000Y009518D01*
X017000Y009342D01*
X017067Y009181D01*
X017191Y009057D01*
X017352Y008990D01*
X018008Y008990D01*
X018169Y009057D01*
X018327Y009264D02*
X018773Y009264D01*
X018740Y009422D02*
X018360Y009422D01*
X018334Y009581D02*
X018766Y009581D01*
X018867Y009739D02*
X018233Y009739D01*
X017808Y010215D02*
X019419Y010215D01*
X019237Y010373D02*
X017850Y010373D01*
X017850Y010430D02*
X017430Y010430D01*
X017430Y010430D01*
X017430Y010850D01*
X017604Y010850D01*
X017850Y010604D01*
X017850Y010430D01*
X017430Y010430D01*
X017430Y010430D01*
X017430Y010430D01*
X017010Y010430D01*
X017010Y010604D01*
X017256Y010850D01*
X017430Y010850D01*
X017430Y010430D01*
X017430Y010010D01*
X017604Y010010D01*
X017850Y010256D01*
X017850Y010430D01*
X017850Y010532D02*
X019168Y010532D01*
X019150Y010690D02*
X017764Y010690D01*
X017605Y010849D02*
X019086Y010849D01*
X019893Y011166D02*
X020820Y011166D01*
X020820Y011009D02*
X020820Y011351D01*
X020951Y011667D01*
X021193Y011909D01*
X021509Y012040D01*
X021851Y012040D01*
X022167Y011909D01*
X022409Y011667D01*
X022540Y011351D01*
X022540Y011009D01*
X022409Y010693D01*
X022167Y010451D01*
X021851Y010320D01*
X021509Y010320D01*
X021193Y010451D01*
X020951Y010693D01*
X020820Y011009D01*
X020821Y011007D02*
X020103Y011007D01*
X020184Y010849D02*
X020887Y010849D01*
X020954Y010690D02*
X020210Y010690D01*
X020192Y010532D02*
X021112Y010532D01*
X021381Y010373D02*
X020123Y010373D01*
X019941Y010215D02*
X023120Y010215D01*
X023120Y010373D02*
X021979Y010373D01*
X022248Y010532D02*
X023120Y010532D01*
X023120Y010690D02*
X022406Y010690D01*
X022473Y010849D02*
X023120Y010849D01*
X023120Y011007D02*
X022539Y011007D01*
X022540Y011166D02*
X023120Y011166D01*
X023120Y011324D02*
X022540Y011324D01*
X022485Y011483D02*
X023120Y011483D01*
X023120Y011641D02*
X022420Y011641D01*
X022277Y011800D02*
X023120Y011800D01*
X023120Y011958D02*
X022049Y011958D01*
X021311Y011958D02*
X020139Y011958D01*
X020204Y011800D02*
X021083Y011800D01*
X020940Y011641D02*
X020210Y011641D01*
X020172Y011483D02*
X020875Y011483D01*
X020820Y011324D02*
X020074Y011324D01*
X019993Y012117D02*
X023120Y012117D01*
X023120Y012275D02*
X020025Y012275D01*
X020152Y012434D02*
X023120Y012434D01*
X023120Y012592D02*
X020210Y012592D01*
X020210Y012751D02*
X023120Y012751D01*
X023120Y012909D02*
X020159Y012909D01*
X020042Y013068D02*
X023120Y013068D01*
X023120Y013226D02*
X017098Y013226D01*
X017120Y013248D02*
X016862Y012990D01*
X016498Y012990D01*
X016240Y013248D01*
X016240Y013612D01*
X016498Y013870D01*
X016862Y013870D01*
X017120Y013612D01*
X017120Y013248D01*
X017120Y013385D02*
X023120Y013385D01*
X023120Y013543D02*
X017120Y013543D01*
X017031Y013702D02*
X023120Y013702D01*
X023120Y013860D02*
X021972Y013860D01*
X021919Y013807D02*
X022043Y013931D01*
X022110Y014092D01*
X022110Y014268D01*
X022043Y014429D01*
X021919Y014553D01*
X021758Y014620D01*
X021102Y014620D01*
X020941Y014553D01*
X020817Y014429D01*
X020750Y014268D01*
X020750Y014092D01*
X020817Y013931D01*
X020941Y013807D01*
X021102Y013740D01*
X021758Y013740D01*
X021919Y013807D01*
X022079Y014019D02*
X023120Y014019D01*
X023120Y014177D02*
X022110Y014177D01*
X022082Y014336D02*
X023120Y014336D01*
X023120Y014494D02*
X021978Y014494D01*
X021831Y014791D02*
X021768Y014770D01*
X021703Y014760D01*
X021430Y014760D01*
X021430Y015180D01*
X021430Y015180D01*
X021430Y015600D01*
X021703Y015600D01*
X021768Y015590D01*
X021831Y015569D01*
X021890Y015539D01*
X021944Y015500D01*
X021990Y015454D01*
X022029Y015400D01*
X022059Y015341D01*
X022080Y015278D01*
X022090Y015213D01*
X022090Y015180D01*
X021430Y015180D01*
X021430Y015180D01*
X021430Y015180D01*
X021430Y015180D01*
X020770Y015180D01*
X020770Y015213D01*
X020780Y015278D01*
X020801Y015341D01*
X020831Y015400D01*
X020870Y015454D01*
X020916Y015500D01*
X020970Y015539D01*
X021029Y015569D01*
X021092Y015590D01*
X021157Y015600D01*
X021430Y015600D01*
X021430Y015180D01*
X022090Y015180D01*
X022090Y015147D01*
X022080Y015082D01*
X022059Y015019D01*
X022029Y014960D01*
X021990Y014906D01*
X021944Y014860D01*
X021890Y014821D01*
X021831Y014791D01*
X021871Y014811D02*
X023120Y014811D01*
X023120Y014653D02*
X017025Y014653D01*
X017120Y014748D02*
X016862Y014490D01*
X016498Y014490D01*
X016240Y014748D01*
X016240Y015112D01*
X016498Y015370D01*
X016862Y015370D01*
X017120Y015112D01*
X017120Y014748D01*
X017120Y014811D02*
X017937Y014811D01*
X017801Y014970D02*
X017120Y014970D01*
X017104Y015128D02*
X017750Y015128D01*
X017758Y015287D02*
X016946Y015287D01*
X016414Y015287D02*
X015946Y015287D01*
X016104Y015128D02*
X016256Y015128D01*
X016240Y014970D02*
X016120Y014970D01*
X016120Y014811D02*
X016240Y014811D01*
X016335Y014653D02*
X016025Y014653D01*
X015866Y014494D02*
X016494Y014494D01*
X016866Y014494D02*
X017882Y014494D01*
X017941Y014553D02*
X017817Y014429D01*
X017750Y014268D01*
X017750Y014092D01*
X017817Y013931D01*
X017941Y013807D01*
X018102Y013740D01*
X018758Y013740D01*
X018919Y013807D01*
X019043Y013931D01*
X019110Y014092D01*
X019110Y014268D01*
X019043Y014429D01*
X018919Y014553D01*
X018758Y014620D01*
X018102Y014620D01*
X017941Y014553D01*
X017778Y014336D02*
X015456Y014336D01*
X015314Y014177D02*
X017750Y014177D01*
X017781Y014019D02*
X015172Y014019D01*
X015030Y013860D02*
X015488Y013860D01*
X015498Y013870D02*
X015240Y013612D01*
X015240Y013248D01*
X015498Y012990D01*
X015862Y012990D01*
X016120Y013248D01*
X016120Y013612D01*
X015862Y013870D01*
X015498Y013870D01*
X015329Y013702D02*
X014888Y013702D01*
X014745Y013543D02*
X015240Y013543D01*
X015240Y013385D02*
X014610Y013385D01*
X014370Y013226D02*
X015262Y013226D01*
X015420Y013068D02*
X014315Y013068D01*
X014162Y012909D02*
X014156Y012909D01*
X014003Y012751D02*
X013857Y012751D01*
X013870Y012592D02*
X013990Y012592D01*
X013990Y012434D02*
X013870Y012434D01*
X013772Y012275D02*
X014088Y012275D01*
X014772Y012275D02*
X015250Y012275D01*
X015408Y012434D02*
X014870Y012434D01*
X014870Y012592D02*
X015567Y012592D01*
X015725Y012751D02*
X014857Y012751D01*
X014698Y012909D02*
X019201Y012909D01*
X019318Y013068D02*
X016940Y013068D01*
X016420Y013068D02*
X015940Y013068D01*
X016098Y013226D02*
X016262Y013226D01*
X016240Y013385D02*
X016120Y013385D01*
X016120Y013543D02*
X016240Y013543D01*
X016329Y013702D02*
X016031Y013702D01*
X015872Y013860D02*
X016488Y013860D01*
X016872Y013860D02*
X017888Y013860D01*
X018972Y013860D02*
X020888Y013860D01*
X020781Y014019D02*
X019079Y014019D01*
X019110Y014177D02*
X020750Y014177D01*
X020778Y014336D02*
X019082Y014336D01*
X018978Y014494D02*
X020882Y014494D01*
X021029Y014791D02*
X021092Y014770D01*
X021157Y014760D01*
X021430Y014760D01*
X021430Y015180D01*
X020770Y015180D01*
X020770Y015147D01*
X020780Y015082D01*
X020801Y015019D01*
X020831Y014960D01*
X020870Y014906D01*
X020916Y014860D01*
X020970Y014821D01*
X021029Y014791D01*
X020989Y014811D02*
X018923Y014811D01*
X019059Y014970D02*
X020826Y014970D01*
X020773Y015128D02*
X019110Y015128D01*
X019102Y015287D02*
X020783Y015287D01*
X020863Y015445D02*
X019027Y015445D01*
X018929Y015604D02*
X023120Y015604D01*
X023120Y015762D02*
X021811Y015762D01*
X022033Y015921D02*
X023120Y015921D01*
X023120Y016079D02*
X022104Y016079D01*
X022110Y016238D02*
X023120Y016238D01*
X023120Y016396D02*
X022057Y016396D01*
X021916Y016555D02*
X023120Y016555D01*
X023120Y016713D02*
X017019Y016713D01*
X017120Y016555D02*
X017944Y016555D01*
X017803Y016396D02*
X017120Y016396D01*
X017110Y016238D02*
X017750Y016238D01*
X017941Y016807D02*
X018102Y016740D01*
X018758Y016740D01*
X018919Y016807D01*
X019043Y016931D01*
X019110Y017092D01*
X019110Y017268D01*
X019043Y017429D01*
X018919Y017553D01*
X018758Y017620D01*
X018102Y017620D01*
X017941Y017553D01*
X017817Y017429D01*
X017750Y017268D01*
X017750Y017092D01*
X017817Y016931D01*
X017941Y016807D01*
X017876Y016872D02*
X014369Y016872D01*
X014370Y017030D02*
X017776Y017030D01*
X017750Y017189D02*
X014514Y017189D01*
X014672Y017347D02*
X017783Y017347D01*
X017893Y017506D02*
X016878Y017506D01*
X017036Y017664D02*
X020371Y017664D01*
X020529Y017506D02*
X018967Y017506D01*
X019077Y017347D02*
X020688Y017347D01*
X020750Y017189D02*
X019110Y017189D01*
X019084Y017030D02*
X020776Y017030D01*
X020876Y016872D02*
X018984Y016872D01*
X018916Y016555D02*
X020944Y016555D01*
X020827Y015921D02*
X019246Y015921D01*
X019087Y015762D02*
X021049Y015762D01*
X021430Y015445D02*
X021430Y015445D01*
X021430Y015287D02*
X021430Y015287D01*
X021430Y015128D02*
X021430Y015128D01*
X021430Y014970D02*
X021430Y014970D01*
X021430Y014811D02*
X021430Y014811D01*
X022034Y014970D02*
X023120Y014970D01*
X023120Y015128D02*
X022087Y015128D01*
X022077Y015287D02*
X023120Y015287D01*
X023120Y015445D02*
X021997Y015445D01*
X021984Y016872D02*
X023120Y016872D01*
X023120Y017030D02*
X022084Y017030D01*
X022110Y017189D02*
X023120Y017189D01*
X023120Y017347D02*
X022077Y017347D01*
X021967Y017506D02*
X023120Y017506D01*
X023120Y017664D02*
X021021Y017664D01*
X021102Y017740D02*
X021758Y017740D01*
X021919Y017807D01*
X022043Y017931D01*
X022110Y018092D01*
X022110Y018268D01*
X022043Y018429D01*
X021919Y018553D01*
X021758Y018620D01*
X021102Y018620D01*
X020941Y018553D01*
X020817Y018429D01*
X020750Y018268D01*
X020750Y018092D01*
X020817Y017931D01*
X020941Y017807D01*
X021102Y017740D01*
X020925Y017823D02*
X020863Y017823D01*
X020796Y017981D02*
X020704Y017981D01*
X020750Y018140D02*
X020546Y018140D01*
X020387Y018298D02*
X020763Y018298D01*
X020844Y018457D02*
X020229Y018457D01*
X020070Y018615D02*
X021090Y018615D01*
X021102Y018740D02*
X021758Y018740D01*
X021919Y018807D01*
X022043Y018931D01*
X022110Y019092D01*
X022110Y019268D01*
X022043Y019429D01*
X021919Y019553D01*
X021758Y019620D01*
X021102Y019620D01*
X020941Y019553D01*
X020817Y019429D01*
X020750Y019268D01*
X020750Y019092D01*
X020817Y018931D01*
X020941Y018807D01*
X021102Y018740D01*
X021022Y018774D02*
X019912Y018774D01*
X019753Y018932D02*
X020816Y018932D01*
X020751Y019091D02*
X019595Y019091D01*
X019436Y019249D02*
X020750Y019249D01*
X020808Y019408D02*
X019278Y019408D01*
X019119Y019566D02*
X020972Y019566D01*
X021102Y019740D02*
X021758Y019740D01*
X021919Y019807D01*
X022043Y019931D01*
X022110Y020092D01*
X022110Y020268D01*
X022043Y020429D01*
X021919Y020553D01*
X021758Y020620D01*
X021102Y020620D01*
X020941Y020553D01*
X020887Y020499D01*
X019465Y021920D01*
X019641Y021920D01*
X019922Y022201D01*
X019922Y022599D01*
X019641Y022880D01*
X019244Y022880D01*
X018963Y022599D01*
X018963Y022201D01*
X019054Y022110D01*
X017460Y022110D01*
X017120Y022377D01*
X017120Y022612D01*
X016862Y022870D01*
X016498Y022870D01*
X016240Y022612D01*
X016240Y022248D01*
X016498Y021990D01*
X016862Y021990D01*
X016865Y021992D01*
X017227Y021708D01*
X017285Y021650D01*
X017300Y021650D01*
X017313Y021640D01*
X017394Y021650D01*
X019085Y021650D01*
X020750Y019985D01*
X020885Y019850D01*
X020898Y019850D01*
X020941Y019807D01*
X021102Y019740D01*
X020852Y019883D02*
X018995Y019883D01*
X018961Y019725D02*
X023120Y019725D01*
X023120Y019883D02*
X021995Y019883D01*
X022089Y020042D02*
X023120Y020042D01*
X023120Y020200D02*
X022110Y020200D01*
X022072Y020359D02*
X023120Y020359D01*
X023120Y020517D02*
X021955Y020517D01*
X021831Y020791D02*
X021768Y020770D01*
X021703Y020760D01*
X021430Y020760D01*
X021430Y021180D01*
X021430Y021180D01*
X021430Y021600D01*
X021703Y021600D01*
X021768Y021590D01*
X021831Y021569D01*
X021890Y021539D01*
X021944Y021500D01*
X021990Y021454D01*
X022029Y021400D01*
X022059Y021341D01*
X022080Y021278D01*
X022090Y021213D01*
X022090Y021180D01*
X021430Y021180D01*
X021430Y021180D01*
X021430Y021180D01*
X021430Y021180D01*
X020770Y021180D01*
X020770Y021213D01*
X020780Y021278D01*
X020801Y021341D01*
X020831Y021400D01*
X020870Y021454D01*
X020916Y021500D01*
X020970Y021539D01*
X021029Y021569D01*
X021092Y021590D01*
X021157Y021600D01*
X021430Y021600D01*
X021430Y021180D01*
X022090Y021180D01*
X022090Y021147D01*
X022080Y021082D01*
X022059Y021019D01*
X022029Y020960D01*
X021990Y020906D01*
X021944Y020860D01*
X021890Y020821D01*
X021831Y020791D01*
X021908Y020834D02*
X023120Y020834D01*
X023120Y020676D02*
X020710Y020676D01*
X020551Y020834D02*
X020952Y020834D01*
X020970Y020821D02*
X021029Y020791D01*
X021092Y020770D01*
X021157Y020760D01*
X021430Y020760D01*
X021430Y021180D01*
X020770Y021180D01*
X020770Y021147D01*
X020780Y021082D01*
X020801Y021019D01*
X020831Y020960D01*
X020870Y020906D01*
X020916Y020860D01*
X020970Y020821D01*
X020814Y020993D02*
X020393Y020993D01*
X020234Y021151D02*
X020770Y021151D01*
X020790Y021310D02*
X020076Y021310D01*
X019917Y021468D02*
X020884Y021468D01*
X020633Y021940D02*
X020902Y022209D01*
X020902Y022400D01*
X020902Y022591D01*
X020633Y022860D01*
X020443Y022860D01*
X020443Y022400D01*
X020902Y022400D01*
X020443Y022400D01*
X020443Y022400D01*
X020443Y021940D01*
X020633Y021940D01*
X020637Y021944D02*
X023120Y021944D01*
X023120Y022102D02*
X020795Y022102D01*
X020902Y022261D02*
X023120Y022261D01*
X023120Y022419D02*
X020902Y022419D01*
X020902Y022578D02*
X023120Y022578D01*
X023120Y022736D02*
X020757Y022736D01*
X020443Y022736D02*
X020442Y022736D01*
X020442Y022860D02*
X020442Y022400D01*
X019983Y022400D01*
X019983Y022209D01*
X020252Y021940D01*
X020442Y021940D01*
X020442Y022400D01*
X020442Y022400D01*
X019982Y022400D01*
X019983Y022591D01*
X020252Y022860D01*
X020442Y022860D01*
X020442Y022578D02*
X020443Y022578D01*
X020442Y022419D02*
X020443Y022419D01*
X020443Y022400D02*
X020442Y022400D01*
X020443Y022400D01*
X020442Y022261D02*
X020443Y022261D01*
X020442Y022102D02*
X020443Y022102D01*
X020442Y021944D02*
X020443Y021944D01*
X020248Y021944D02*
X019665Y021944D01*
X019600Y021785D02*
X023120Y021785D01*
X023120Y021627D02*
X019759Y021627D01*
X019425Y021310D02*
X019093Y021310D01*
X019110Y021268D02*
X019043Y021429D01*
X018919Y021553D01*
X018758Y021620D01*
X018102Y021620D01*
X017941Y021553D01*
X017817Y021429D01*
X017750Y021268D01*
X017750Y021092D01*
X017817Y020931D01*
X017941Y020807D01*
X018102Y020740D01*
X018758Y020740D01*
X018919Y020807D01*
X019043Y020931D01*
X019110Y021092D01*
X019110Y021268D01*
X019110Y021151D02*
X019584Y021151D01*
X019742Y020993D02*
X019069Y020993D01*
X018946Y020834D02*
X019901Y020834D01*
X019950Y020759D02*
X019807Y020818D01*
X019653Y020818D01*
X019510Y020759D01*
X019401Y020650D01*
X019342Y020507D01*
X019342Y020353D01*
X019401Y020210D01*
X019510Y020101D01*
X019653Y020042D01*
X019807Y020042D01*
X019950Y020101D01*
X020059Y020210D01*
X020118Y020353D01*
X020118Y020507D01*
X020059Y020650D01*
X019950Y020759D01*
X020033Y020676D02*
X020059Y020676D01*
X020114Y020517D02*
X020218Y020517D01*
X020118Y020359D02*
X020376Y020359D01*
X020535Y020200D02*
X020049Y020200D01*
X019411Y020200D02*
X019110Y020200D01*
X019089Y020042D02*
X020693Y020042D01*
X020868Y020517D02*
X020905Y020517D01*
X021430Y020834D02*
X021430Y020834D01*
X021430Y020993D02*
X021430Y020993D01*
X021430Y021151D02*
X021430Y021151D01*
X021430Y021310D02*
X021430Y021310D01*
X021430Y021468D02*
X021430Y021468D01*
X021976Y021468D02*
X023120Y021468D01*
X023120Y021310D02*
X022070Y021310D01*
X022090Y021151D02*
X023120Y021151D01*
X023120Y020993D02*
X022046Y020993D01*
X021888Y019566D02*
X023120Y019566D01*
X023120Y019408D02*
X022052Y019408D01*
X022110Y019249D02*
X023120Y019249D01*
X023120Y019091D02*
X022109Y019091D01*
X022044Y018932D02*
X023120Y018932D01*
X023120Y018774D02*
X021838Y018774D01*
X021770Y018615D02*
X023120Y018615D01*
X023120Y018457D02*
X022016Y018457D01*
X022097Y018298D02*
X023120Y018298D01*
X023120Y018140D02*
X022110Y018140D01*
X022064Y017981D02*
X023120Y017981D01*
X023120Y017823D02*
X021935Y017823D01*
X020212Y017823D02*
X018935Y017823D01*
X018919Y017807D02*
X019043Y017931D01*
X019110Y018092D01*
X019110Y018268D01*
X019043Y018429D01*
X018919Y018553D01*
X018758Y018620D01*
X018102Y018620D01*
X017941Y018553D01*
X017817Y018429D01*
X017750Y018268D01*
X017750Y018092D01*
X017817Y017931D01*
X017941Y017807D01*
X018102Y017740D01*
X018758Y017740D01*
X018919Y017807D01*
X019064Y017981D02*
X020054Y017981D01*
X019895Y018140D02*
X019110Y018140D01*
X019097Y018298D02*
X019737Y018298D01*
X019578Y018457D02*
X019016Y018457D01*
X018770Y018615D02*
X019420Y018615D01*
X019261Y018774D02*
X018838Y018774D01*
X019044Y018932D02*
X019103Y018932D01*
X018090Y018615D02*
X017440Y018615D01*
X017282Y018457D02*
X017844Y018457D01*
X017763Y018298D02*
X016934Y018298D01*
X017093Y018140D02*
X017750Y018140D01*
X017796Y017981D02*
X017120Y017981D01*
X017120Y017823D02*
X017925Y017823D01*
X018022Y018774D02*
X017599Y018774D01*
X017757Y018932D02*
X017816Y018932D01*
X017424Y019249D02*
X017120Y019249D01*
X017265Y019091D02*
X016963Y019091D01*
X017107Y018932D02*
X014800Y018932D01*
X014870Y018774D02*
X015148Y018774D01*
X014990Y018615D02*
X014870Y018615D01*
X014642Y019091D02*
X015397Y019091D01*
X015498Y018990D02*
X015862Y018990D01*
X016120Y019248D01*
X016120Y019612D01*
X015862Y019870D01*
X015498Y019870D01*
X015240Y019612D01*
X015240Y019248D01*
X015498Y018990D01*
X015240Y019249D02*
X014336Y019249D01*
X014178Y019408D02*
X015240Y019408D01*
X015240Y019566D02*
X012388Y019566D01*
X012258Y019740D02*
X012419Y019807D01*
X012543Y019931D01*
X012610Y020092D01*
X012610Y020268D01*
X012543Y020429D01*
X012419Y020553D01*
X012258Y020620D01*
X011602Y020620D01*
X011578Y020610D01*
X011175Y020610D01*
X009885Y021900D01*
X010079Y021900D01*
X010360Y022181D01*
X010360Y022579D01*
X010079Y022860D01*
X009681Y022860D01*
X009400Y022579D01*
X009400Y022181D01*
X009471Y022110D01*
X007869Y022110D01*
X007620Y022339D01*
X007620Y022612D01*
X007362Y022870D01*
X006998Y022870D01*
X006740Y022612D01*
X006740Y022248D01*
X006998Y021990D01*
X007320Y021990D01*
X007621Y021714D01*
X007685Y021650D01*
X007691Y021650D01*
X007695Y021646D01*
X007785Y021650D01*
X009485Y021650D01*
X010850Y020285D01*
X010985Y020150D01*
X011250Y020150D01*
X011250Y020092D01*
X011317Y019931D01*
X011441Y019807D01*
X011602Y019740D01*
X012258Y019740D01*
X012495Y019883D02*
X012990Y019883D01*
X012990Y019873D02*
X013248Y019615D01*
X013612Y019615D01*
X013870Y019873D01*
X013870Y020237D01*
X013612Y020495D01*
X013248Y020495D01*
X012990Y020237D01*
X012990Y019873D01*
X012990Y020042D02*
X012589Y020042D01*
X012610Y020200D02*
X012990Y020200D01*
X013111Y020359D02*
X012572Y020359D01*
X012455Y020517D02*
X013596Y020517D01*
X013490Y020623D02*
X013748Y020365D01*
X014112Y020365D01*
X014370Y020623D01*
X014370Y020987D01*
X014112Y021245D01*
X013748Y021245D01*
X013490Y020987D01*
X013490Y020623D01*
X013490Y020676D02*
X011110Y020676D01*
X010951Y020834D02*
X011452Y020834D01*
X011470Y020821D02*
X011529Y020791D01*
X011592Y020770D01*
X011657Y020760D01*
X011930Y020760D01*
X012203Y020760D01*
X012268Y020770D01*
X012331Y020791D01*
X012390Y020821D01*
X012444Y020860D01*
X012490Y020906D01*
X012529Y020960D01*
X012559Y021019D01*
X012580Y021082D01*
X012590Y021147D01*
X012590Y021180D01*
X012590Y021213D01*
X012580Y021278D01*
X012559Y021341D01*
X012529Y021400D01*
X012490Y021454D01*
X012444Y021500D01*
X012390Y021539D01*
X012331Y021569D01*
X012268Y021590D01*
X012203Y021600D01*
X011930Y021600D01*
X011930Y021180D01*
X011930Y021180D01*
X012590Y021180D01*
X011930Y021180D01*
X011930Y021180D01*
X011930Y020760D01*
X011930Y021180D01*
X011930Y021180D01*
X011930Y021180D01*
X011270Y021180D01*
X011270Y021213D01*
X011280Y021278D01*
X011301Y021341D01*
X011331Y021400D01*
X011370Y021454D01*
X011416Y021500D01*
X011470Y021539D01*
X011529Y021569D01*
X011592Y021590D01*
X011657Y021600D01*
X011930Y021600D01*
X011930Y021180D01*
X011270Y021180D01*
X011270Y021147D01*
X011280Y021082D01*
X011301Y021019D01*
X011331Y020960D01*
X011370Y020906D01*
X011416Y020860D01*
X011470Y020821D01*
X011314Y020993D02*
X010793Y020993D01*
X010634Y021151D02*
X011270Y021151D01*
X011290Y021310D02*
X010476Y021310D01*
X010317Y021468D02*
X011384Y021468D01*
X011930Y021468D02*
X011930Y021468D01*
X011930Y021310D02*
X011930Y021310D01*
X011930Y021151D02*
X011930Y021151D01*
X011930Y020993D02*
X011930Y020993D01*
X011930Y020834D02*
X011930Y020834D01*
X012408Y020834D02*
X013490Y020834D01*
X013495Y020993D02*
X012546Y020993D01*
X012590Y021151D02*
X013654Y021151D01*
X013612Y021490D02*
X013870Y021748D01*
X013870Y022112D01*
X013612Y022370D01*
X013248Y022370D01*
X012990Y022112D01*
X012990Y021748D01*
X013248Y021490D01*
X013612Y021490D01*
X013749Y021627D02*
X014111Y021627D01*
X013990Y021748D02*
X014248Y021490D01*
X014612Y021490D01*
X014870Y021748D01*
X014870Y022112D01*
X014612Y022370D01*
X014248Y022370D01*
X013990Y022112D01*
X013990Y021748D01*
X013990Y021785D02*
X013870Y021785D01*
X013870Y021944D02*
X013990Y021944D01*
X013990Y022102D02*
X013870Y022102D01*
X013748Y022240D02*
X013490Y022498D01*
X013490Y022862D01*
X013748Y023120D01*
X014112Y023120D01*
X014370Y022862D01*
X014370Y022498D01*
X014112Y022240D01*
X013748Y022240D01*
X013727Y022261D02*
X013722Y022261D01*
X013569Y022419D02*
X011340Y022419D01*
X011340Y022380D02*
X011340Y022571D01*
X011071Y022840D01*
X010880Y022840D01*
X010880Y022380D01*
X011340Y022380D01*
X010880Y022380D01*
X010880Y022380D01*
X010880Y022380D01*
X010880Y021920D01*
X011071Y021920D01*
X011340Y022189D01*
X011340Y022380D01*
X011340Y022261D02*
X013138Y022261D01*
X012990Y022102D02*
X011253Y022102D01*
X011094Y021944D02*
X012990Y021944D01*
X012990Y021785D02*
X010000Y021785D01*
X010122Y021944D02*
X010666Y021944D01*
X010689Y021920D02*
X010880Y021920D01*
X010880Y022380D01*
X010880Y022380D01*
X010880Y022380D01*
X010420Y022380D01*
X010420Y022571D01*
X010689Y022840D01*
X010880Y022840D01*
X010880Y022380D01*
X010420Y022380D01*
X010420Y022189D01*
X010689Y021920D01*
X010880Y021944D02*
X010880Y021944D01*
X010880Y022102D02*
X010880Y022102D01*
X010880Y022261D02*
X010880Y022261D01*
X010880Y022419D02*
X010880Y022419D01*
X010880Y022578D02*
X010880Y022578D01*
X010880Y022736D02*
X010880Y022736D01*
X011175Y022736D02*
X013490Y022736D01*
X013490Y022578D02*
X011333Y022578D01*
X010585Y022736D02*
X010203Y022736D01*
X010360Y022578D02*
X010427Y022578D01*
X010420Y022419D02*
X010360Y022419D01*
X010360Y022261D02*
X010420Y022261D01*
X010507Y022102D02*
X010281Y022102D01*
X010159Y021627D02*
X013111Y021627D01*
X012570Y021310D02*
X015437Y021310D01*
X015498Y021370D02*
X015240Y021112D01*
X015240Y020748D01*
X015498Y020490D01*
X015862Y020490D01*
X016120Y020748D01*
X016120Y021112D01*
X015862Y021370D01*
X015498Y021370D01*
X015279Y021151D02*
X014206Y021151D01*
X014365Y020993D02*
X015240Y020993D01*
X015240Y020834D02*
X014370Y020834D01*
X014370Y020676D02*
X015312Y020676D01*
X015471Y020517D02*
X014264Y020517D01*
X014248Y020495D02*
X013990Y020237D01*
X013990Y019873D01*
X014248Y019615D01*
X014612Y019615D01*
X014870Y019873D01*
X014870Y020237D01*
X014612Y020495D01*
X014248Y020495D01*
X014111Y020359D02*
X013749Y020359D01*
X013870Y020200D02*
X013990Y020200D01*
X013990Y020042D02*
X013870Y020042D01*
X013870Y019883D02*
X013990Y019883D01*
X014138Y019725D02*
X013722Y019725D01*
X013138Y019725D02*
X007508Y019725D01*
X007410Y019822D02*
X007620Y019612D01*
X007620Y019248D01*
X007362Y018990D01*
X006998Y018990D01*
X006740Y019248D01*
X006740Y019612D01*
X006950Y019822D01*
X006950Y020175D01*
X007085Y020310D01*
X008268Y020310D01*
X008317Y020429D01*
X008441Y020553D01*
X008602Y020620D01*
X009258Y020620D01*
X009419Y020553D01*
X009543Y020429D01*
X009610Y020268D01*
X009610Y020092D01*
X009543Y019931D01*
X009419Y019807D01*
X009258Y019740D01*
X008602Y019740D01*
X008441Y019807D01*
X008398Y019850D01*
X007410Y019850D01*
X007410Y019822D01*
X007620Y019566D02*
X008472Y019566D01*
X008441Y019553D02*
X008317Y019429D01*
X008250Y019268D01*
X008250Y019092D01*
X008317Y018931D01*
X008441Y018807D01*
X008602Y018740D01*
X009258Y018740D01*
X009419Y018807D01*
X009543Y018931D01*
X009610Y019092D01*
X009610Y019268D01*
X009543Y019429D01*
X009419Y019553D01*
X009258Y019620D01*
X008602Y019620D01*
X008441Y019553D01*
X008308Y019408D02*
X007620Y019408D01*
X007620Y019249D02*
X008250Y019249D01*
X008251Y019091D02*
X007463Y019091D01*
X006897Y019091D02*
X006463Y019091D01*
X006620Y019249D02*
X006740Y019249D01*
X006740Y019408D02*
X006620Y019408D01*
X006620Y019566D02*
X006740Y019566D01*
X006852Y019725D02*
X006508Y019725D01*
X006950Y019883D02*
X005370Y019883D01*
X005370Y020042D02*
X006950Y020042D01*
X006975Y020200D02*
X005370Y020200D01*
X005249Y020359D02*
X008288Y020359D01*
X008405Y020517D02*
X007389Y020517D01*
X007362Y020490D02*
X007620Y020748D01*
X007620Y021112D01*
X007362Y021370D01*
X006998Y021370D01*
X006740Y021112D01*
X006740Y020748D01*
X006998Y020490D01*
X007362Y020490D01*
X007548Y020676D02*
X010000Y020676D01*
X009960Y020659D02*
X009851Y020550D01*
X009792Y020407D01*
X009792Y020253D01*
X009851Y020110D01*
X009960Y020001D01*
X010103Y019942D01*
X010257Y019942D01*
X010400Y020001D01*
X010509Y020110D01*
X010568Y020253D01*
X010568Y020407D01*
X010509Y020550D01*
X010400Y020659D01*
X010257Y020718D01*
X010103Y020718D01*
X009960Y020659D01*
X009837Y020517D02*
X009455Y020517D01*
X009572Y020359D02*
X009792Y020359D01*
X009814Y020200D02*
X009610Y020200D01*
X009589Y020042D02*
X009920Y020042D01*
X010440Y020042D02*
X011271Y020042D01*
X011365Y019883D02*
X009495Y019883D01*
X009388Y019566D02*
X011472Y019566D01*
X011308Y019408D02*
X009552Y019408D01*
X009610Y019249D02*
X011250Y019249D01*
X011251Y019091D02*
X009609Y019091D01*
X009544Y018932D02*
X011316Y018932D01*
X010948Y018774D02*
X009338Y018774D01*
X009270Y018615D02*
X010790Y018615D01*
X010631Y018457D02*
X009516Y018457D01*
X009543Y018429D02*
X009419Y018553D01*
X009258Y018620D01*
X008602Y018620D01*
X008441Y018553D01*
X008317Y018429D01*
X008250Y018268D01*
X008250Y018175D01*
X008150Y018075D01*
X007385Y017310D01*
X007085Y017310D01*
X006950Y017175D01*
X006950Y016822D01*
X006740Y016612D01*
X006740Y016248D01*
X006998Y015990D01*
X007362Y015990D01*
X007620Y016248D01*
X007620Y016612D01*
X007410Y016822D01*
X007410Y016850D01*
X007575Y016850D01*
X008475Y017750D01*
X008578Y017750D01*
X008602Y017740D01*
X009258Y017740D01*
X009419Y017807D01*
X009543Y017931D01*
X009610Y018092D01*
X009610Y018268D01*
X009543Y018429D01*
X009597Y018298D02*
X010473Y018298D01*
X010314Y018140D02*
X009610Y018140D01*
X009564Y017981D02*
X010156Y017981D01*
X009997Y017823D02*
X009435Y017823D01*
X009467Y017506D02*
X009680Y017506D01*
X009839Y017664D02*
X008389Y017664D01*
X008393Y017506D02*
X008231Y017506D01*
X008283Y017347D02*
X008072Y017347D01*
X007914Y017189D02*
X008250Y017189D01*
X008276Y017030D02*
X007755Y017030D01*
X007597Y016872D02*
X008376Y016872D01*
X008288Y016713D02*
X007519Y016713D01*
X007620Y016555D02*
X008129Y016555D01*
X007971Y016396D02*
X007620Y016396D01*
X007610Y016238D02*
X007812Y016238D01*
X007654Y016079D02*
X007451Y016079D01*
X007495Y015921D02*
X005168Y015921D01*
X005112Y015865D02*
X005370Y016123D01*
X005370Y016487D01*
X005112Y016745D01*
X004748Y016745D01*
X004490Y016487D01*
X004490Y016123D01*
X004748Y015865D01*
X005112Y015865D01*
X005326Y016079D02*
X005909Y016079D01*
X005998Y015990D02*
X006362Y015990D01*
X006620Y016248D01*
X006620Y016612D01*
X006362Y016870D01*
X005998Y016870D01*
X005740Y016612D01*
X005740Y016248D01*
X005998Y015990D01*
X005750Y016238D02*
X005370Y016238D01*
X005370Y016396D02*
X005740Y016396D01*
X005740Y016555D02*
X005303Y016555D01*
X005144Y016713D02*
X005841Y016713D01*
X006519Y016713D02*
X006841Y016713D01*
X006740Y016555D02*
X006620Y016555D01*
X006620Y016396D02*
X006740Y016396D01*
X006750Y016238D02*
X006610Y016238D01*
X006451Y016079D02*
X006909Y016079D01*
X006950Y016872D02*
X004869Y016872D01*
X004870Y017030D02*
X006950Y017030D01*
X006963Y017189D02*
X004912Y017189D01*
X005084Y017347D02*
X007422Y017347D01*
X007362Y017490D02*
X006998Y017490D01*
X006740Y017748D01*
X006740Y018112D01*
X006998Y018370D01*
X007362Y018370D01*
X007620Y018112D01*
X007620Y017748D01*
X007362Y017490D01*
X007378Y017506D02*
X007580Y017506D01*
X007536Y017664D02*
X007739Y017664D01*
X007620Y017823D02*
X007897Y017823D01*
X008056Y017981D02*
X007620Y017981D01*
X007593Y018140D02*
X008214Y018140D01*
X008263Y018298D02*
X007434Y018298D01*
X006926Y018298D02*
X006434Y018298D01*
X006593Y018140D02*
X006767Y018140D01*
X006740Y017981D02*
X006620Y017981D01*
X006620Y017823D02*
X006740Y017823D01*
X006824Y017664D02*
X006536Y017664D01*
X006378Y017506D02*
X006982Y017506D01*
X005982Y017506D02*
X005257Y017506D01*
X005430Y017664D02*
X005824Y017664D01*
X005926Y018298D02*
X005438Y018298D01*
X005586Y018457D02*
X008344Y018457D01*
X008590Y018615D02*
X005734Y018615D01*
X005882Y018774D02*
X008522Y018774D01*
X008316Y018932D02*
X006030Y018932D01*
X005549Y019091D02*
X005160Y019091D01*
X005160Y019249D02*
X005696Y019249D01*
X005740Y019408D02*
X005160Y019408D01*
X005160Y019566D02*
X005740Y019566D01*
X005852Y019725D02*
X005222Y019725D01*
X004638Y019725D02*
X004222Y019725D01*
X004370Y019883D02*
X004490Y019883D01*
X004490Y020042D02*
X004370Y020042D01*
X004370Y020200D02*
X004490Y020200D01*
X004611Y020359D02*
X004249Y020359D01*
X004248Y020365D02*
X004612Y020365D01*
X004870Y020623D01*
X004870Y020987D01*
X004612Y021245D01*
X004248Y021245D01*
X003990Y020987D01*
X003990Y020623D01*
X004248Y020365D01*
X004096Y020517D02*
X003744Y020517D01*
X003571Y020676D02*
X003990Y020676D01*
X003990Y020834D02*
X003398Y020834D01*
X003225Y020993D02*
X003995Y020993D01*
X004154Y021151D02*
X003052Y021151D01*
X002968Y021310D02*
X005937Y021310D01*
X005998Y021370D02*
X005740Y021112D01*
X005740Y020748D01*
X005998Y020490D01*
X006362Y020490D01*
X006620Y020748D01*
X006620Y021112D01*
X006362Y021370D01*
X005998Y021370D01*
X005779Y021151D02*
X004706Y021151D01*
X004865Y020993D02*
X005740Y020993D01*
X005740Y020834D02*
X004870Y020834D01*
X004870Y020676D02*
X005812Y020676D01*
X005971Y020517D02*
X004764Y020517D01*
X004748Y021490D02*
X005112Y021490D01*
X005370Y021748D01*
X005370Y022112D01*
X005112Y022370D01*
X004748Y022370D01*
X004490Y022112D01*
X004490Y021748D01*
X004748Y021490D01*
X004611Y021627D02*
X004249Y021627D01*
X004370Y021785D02*
X004490Y021785D01*
X004490Y021944D02*
X004370Y021944D01*
X004370Y022102D02*
X004490Y022102D01*
X004612Y022240D02*
X004248Y022240D01*
X003990Y022498D01*
X003990Y022862D01*
X004248Y023120D01*
X004612Y023120D01*
X004870Y022862D01*
X004870Y022498D01*
X004612Y022240D01*
X004633Y022261D02*
X004638Y022261D01*
X004791Y022419D02*
X005740Y022419D01*
X005740Y022261D02*
X005222Y022261D01*
X005370Y022102D02*
X005886Y022102D01*
X005998Y021990D02*
X006362Y021990D01*
X006620Y022248D01*
X006620Y022612D01*
X006362Y022870D01*
X005998Y022870D01*
X005740Y022612D01*
X005740Y022248D01*
X005998Y021990D01*
X006474Y022102D02*
X006886Y022102D01*
X006740Y022261D02*
X006620Y022261D01*
X006620Y022419D02*
X006740Y022419D01*
X006740Y022578D02*
X006620Y022578D01*
X006496Y022736D02*
X006864Y022736D01*
X007496Y022736D02*
X009557Y022736D01*
X009400Y022578D02*
X007620Y022578D01*
X007620Y022419D02*
X009400Y022419D01*
X009400Y022261D02*
X007705Y022261D01*
X007370Y021944D02*
X005370Y021944D01*
X005370Y021785D02*
X007543Y021785D01*
X007423Y021310D02*
X008267Y021310D01*
X008250Y021268D02*
X008250Y021092D01*
X008317Y020931D01*
X008441Y020807D01*
X008602Y020740D01*
X009258Y020740D01*
X009419Y020807D01*
X009543Y020931D01*
X009610Y021092D01*
X009610Y021268D01*
X009543Y021429D01*
X009419Y021553D01*
X009258Y021620D01*
X008602Y021620D01*
X008441Y021553D01*
X008317Y021429D01*
X008250Y021268D01*
X008250Y021151D02*
X007581Y021151D01*
X007620Y020993D02*
X008291Y020993D01*
X008414Y020834D02*
X007620Y020834D01*
X006971Y020517D02*
X006389Y020517D01*
X006548Y020676D02*
X006812Y020676D01*
X006740Y020834D02*
X006620Y020834D01*
X006620Y020993D02*
X006740Y020993D01*
X006779Y021151D02*
X006581Y021151D01*
X006423Y021310D02*
X006937Y021310D01*
X008356Y021468D02*
X002899Y021468D01*
X002709Y021627D02*
X003611Y021627D01*
X003490Y021785D02*
X002792Y021785D01*
X002923Y021944D02*
X003490Y021944D01*
X003402Y022102D02*
X002980Y022102D01*
X003564Y022578D02*
X003990Y022578D01*
X003990Y022736D02*
X001490Y022736D01*
X001490Y022578D02*
X001570Y022578D01*
X001490Y022895D02*
X002329Y022895D01*
X002091Y023053D02*
X001490Y023053D01*
X001490Y023212D02*
X001943Y023212D01*
X001878Y023370D02*
X001490Y023370D01*
X001490Y023529D02*
X001820Y023529D01*
X001820Y023687D02*
X001490Y023687D01*
X001490Y023846D02*
X001820Y023846D01*
X001883Y024004D02*
X001490Y024004D01*
X001490Y024163D02*
X001949Y024163D01*
X002105Y024321D02*
X001490Y024321D01*
X003255Y024321D02*
X021605Y024321D01*
X021449Y024163D02*
X003411Y024163D01*
X003477Y024004D02*
X018093Y024004D01*
X018098Y024009D02*
X017988Y023900D01*
X017929Y023757D01*
X017929Y023603D01*
X017988Y023460D01*
X018098Y023351D01*
X018240Y023292D01*
X018395Y023292D01*
X018537Y023351D01*
X018647Y023460D01*
X018706Y023603D01*
X018706Y023757D01*
X018647Y023900D01*
X018537Y024009D01*
X018395Y024068D01*
X018240Y024068D01*
X018098Y024009D01*
X017966Y023846D02*
X003540Y023846D01*
X003540Y023687D02*
X017929Y023687D01*
X017960Y023529D02*
X003540Y023529D01*
X003482Y023370D02*
X018079Y023370D01*
X018556Y023370D02*
X021378Y023370D01*
X021320Y023529D02*
X018675Y023529D01*
X018706Y023687D02*
X021320Y023687D01*
X021320Y023846D02*
X018669Y023846D01*
X018542Y024004D02*
X021383Y024004D01*
X021443Y023212D02*
X003417Y023212D01*
X003269Y023053D02*
X004181Y023053D01*
X004022Y022895D02*
X003031Y022895D01*
X003737Y022419D02*
X004069Y022419D01*
X004222Y022261D02*
X004227Y022261D01*
X004870Y022578D02*
X005740Y022578D01*
X005864Y022736D02*
X004870Y022736D01*
X004838Y022895D02*
X013522Y022895D01*
X013681Y023053D02*
X004679Y023053D01*
X005249Y021627D02*
X009508Y021627D01*
X009504Y021468D02*
X009667Y021468D01*
X009593Y021310D02*
X009825Y021310D01*
X009984Y021151D02*
X009610Y021151D01*
X009569Y020993D02*
X010142Y020993D01*
X010301Y020834D02*
X009446Y020834D01*
X010360Y020676D02*
X010459Y020676D01*
X010523Y020517D02*
X010618Y020517D01*
X010568Y020359D02*
X010776Y020359D01*
X010935Y020200D02*
X010546Y020200D01*
X012552Y019408D02*
X012782Y019408D01*
X012624Y019249D02*
X012610Y019249D01*
X013489Y017664D02*
X013574Y017664D01*
X013732Y017506D02*
X013331Y017506D01*
X013172Y017347D02*
X013600Y017347D01*
X013490Y017189D02*
X013014Y017189D01*
X012855Y017030D02*
X013490Y017030D01*
X013491Y016872D02*
X013414Y016872D01*
X013644Y016713D02*
X013650Y016713D01*
X013803Y016555D02*
X014057Y016555D01*
X013990Y016396D02*
X013870Y016396D01*
X013870Y016238D02*
X013990Y016238D01*
X014210Y016713D02*
X014216Y016713D01*
X014644Y016713D02*
X015341Y016713D01*
X015240Y016555D02*
X014803Y016555D01*
X014870Y016396D02*
X015240Y016396D01*
X015250Y016238D02*
X014870Y016238D01*
X014696Y015287D02*
X015414Y015287D01*
X015256Y015128D02*
X014854Y015128D01*
X014870Y014970D02*
X015240Y014970D01*
X015240Y014811D02*
X014870Y014811D01*
X014775Y014653D02*
X015122Y014653D01*
X014980Y014494D02*
X014660Y014494D01*
X014660Y014336D02*
X014838Y014336D01*
X014696Y014177D02*
X014660Y014177D01*
X014085Y014653D02*
X013775Y014653D01*
X013870Y014748D02*
X013612Y014490D01*
X013248Y014490D01*
X012990Y014748D01*
X012990Y015112D01*
X013248Y015370D01*
X013612Y015370D01*
X013870Y015112D01*
X013870Y014748D01*
X013870Y014811D02*
X013990Y014811D01*
X013990Y014970D02*
X013870Y014970D01*
X013854Y015128D02*
X014006Y015128D01*
X014164Y015287D02*
X013696Y015287D01*
X013164Y015287D02*
X012577Y015287D01*
X012580Y015278D02*
X012559Y015341D01*
X012529Y015400D01*
X012490Y015454D01*
X012444Y015500D01*
X012390Y015539D01*
X012331Y015569D01*
X012268Y015590D01*
X012203Y015600D01*
X011930Y015600D01*
X011930Y015180D01*
X011930Y015180D01*
X012590Y015180D01*
X012590Y015213D01*
X012580Y015278D01*
X012590Y015180D02*
X011930Y015180D01*
X011930Y015180D01*
X011930Y014760D01*
X012203Y014760D01*
X012268Y014770D01*
X012331Y014791D01*
X012390Y014821D01*
X012444Y014860D01*
X012490Y014906D01*
X012529Y014960D01*
X012559Y015019D01*
X012580Y015082D01*
X012590Y015147D01*
X012590Y015180D01*
X012587Y015128D02*
X013006Y015128D01*
X012990Y014970D02*
X012534Y014970D01*
X012371Y014811D02*
X012990Y014811D01*
X013085Y014653D02*
X010110Y014653D01*
X010110Y014811D02*
X011489Y014811D01*
X011470Y014821D02*
X011529Y014791D01*
X011592Y014770D01*
X011657Y014760D01*
X011930Y014760D01*
X011930Y015180D01*
X011930Y015180D01*
X011930Y015180D01*
X011270Y015180D01*
X011270Y015213D01*
X011280Y015278D01*
X011301Y015341D01*
X011331Y015400D01*
X011370Y015454D01*
X011416Y015500D01*
X011470Y015539D01*
X011529Y015569D01*
X011592Y015590D01*
X011657Y015600D01*
X011930Y015600D01*
X011930Y015180D01*
X011270Y015180D01*
X011270Y015147D01*
X011280Y015082D01*
X011301Y015019D01*
X011331Y014960D01*
X011370Y014906D01*
X011416Y014860D01*
X011470Y014821D01*
X011326Y014970D02*
X010195Y014970D01*
X010353Y015128D02*
X011273Y015128D01*
X011283Y015287D02*
X010512Y015287D01*
X010670Y015445D02*
X011363Y015445D01*
X011930Y015445D02*
X011930Y015445D01*
X011930Y015287D02*
X011930Y015287D01*
X011930Y015128D02*
X011930Y015128D01*
X011930Y014970D02*
X011930Y014970D01*
X011930Y014811D02*
X011930Y014811D01*
X012258Y014620D02*
X011602Y014620D01*
X011441Y014553D01*
X011317Y014429D01*
X011250Y014268D01*
X011250Y014092D01*
X011317Y013931D01*
X011441Y013807D01*
X011602Y013740D01*
X012258Y013740D01*
X012419Y013807D01*
X012543Y013931D01*
X012610Y014092D01*
X012610Y014268D01*
X012543Y014429D01*
X012419Y014553D01*
X012258Y014620D01*
X012478Y014494D02*
X013244Y014494D01*
X013490Y014336D02*
X012582Y014336D01*
X012610Y014177D02*
X013490Y014177D01*
X013490Y014019D02*
X012579Y014019D01*
X012635Y013860D02*
X012472Y013860D01*
X012476Y013702D02*
X010110Y013702D01*
X010110Y013860D02*
X011388Y013860D01*
X011281Y014019D02*
X010110Y014019D01*
X010110Y014177D02*
X011250Y014177D01*
X011278Y014336D02*
X010110Y014336D01*
X010110Y014494D02*
X011382Y014494D01*
X012497Y015445D02*
X017833Y015445D01*
X017931Y015604D02*
X010829Y015604D01*
X010987Y015762D02*
X011549Y015762D01*
X011327Y015921D02*
X011146Y015921D01*
X012311Y015762D02*
X012373Y015762D01*
X013616Y014494D02*
X013622Y014494D01*
X013546Y013543D02*
X012968Y013543D01*
X012810Y013385D02*
X013490Y013385D01*
X013490Y013226D02*
X012651Y013226D01*
X012493Y013068D02*
X013545Y013068D01*
X013698Y012909D02*
X013704Y012909D01*
X013162Y012909D02*
X012334Y012909D01*
X012176Y012751D02*
X013003Y012751D01*
X012990Y012592D02*
X012017Y012592D01*
X011859Y012434D02*
X012990Y012434D01*
X012926Y012275D02*
X011700Y012275D01*
X011542Y012117D02*
X012756Y012117D01*
X012586Y011958D02*
X011383Y011958D01*
X011225Y011800D02*
X012415Y011800D01*
X012245Y011641D02*
X011066Y011641D01*
X010908Y011483D02*
X012075Y011483D01*
X011905Y011324D02*
X010749Y011324D01*
X010416Y011641D02*
X010110Y011641D01*
X010110Y011800D02*
X010574Y011800D01*
X010733Y011958D02*
X010110Y011958D01*
X010110Y012117D02*
X010891Y012117D01*
X011050Y012275D02*
X010110Y012275D01*
X010110Y012434D02*
X011208Y012434D01*
X011367Y012592D02*
X010110Y012592D01*
X010110Y012751D02*
X011525Y012751D01*
X011684Y012909D02*
X010110Y012909D01*
X010110Y013068D02*
X011842Y013068D01*
X012001Y013226D02*
X010110Y013226D01*
X010110Y013385D02*
X012159Y013385D01*
X012318Y013543D02*
X010110Y013543D01*
X014723Y009898D02*
X023120Y009898D01*
X023120Y010056D02*
X017650Y010056D01*
X017430Y010056D02*
X017430Y010056D01*
X017430Y010010D02*
X017256Y010010D01*
X017010Y010256D01*
X017010Y010430D01*
X017430Y010430D01*
X017430Y010430D01*
X017430Y010010D01*
X017430Y010215D02*
X017430Y010215D01*
X017430Y010373D02*
X017430Y010373D01*
X017430Y010532D02*
X017430Y010532D01*
X017430Y010690D02*
X017430Y010690D01*
X017430Y010849D02*
X017430Y010849D01*
X017255Y010849D02*
X016105Y010849D01*
X016104Y010850D02*
X015930Y010850D01*
X015930Y010430D01*
X015930Y010430D01*
X016350Y010430D01*
X016350Y010604D01*
X016104Y010850D01*
X015930Y010849D02*
X015930Y010849D01*
X015930Y010850D02*
X015756Y010850D01*
X015510Y010604D01*
X015510Y010430D01*
X015930Y010430D01*
X015930Y010430D01*
X015930Y010430D01*
X015930Y010850D01*
X015930Y010690D02*
X015930Y010690D01*
X015930Y010532D02*
X015930Y010532D01*
X015930Y010430D02*
X015510Y010430D01*
X015510Y010256D01*
X015756Y010010D01*
X015930Y010010D01*
X016104Y010010D01*
X016350Y010256D01*
X016350Y010430D01*
X015930Y010430D01*
X015930Y010010D01*
X015930Y010430D01*
X015930Y010430D01*
X015930Y010373D02*
X015930Y010373D01*
X015930Y010215D02*
X015930Y010215D01*
X015930Y010056D02*
X015930Y010056D01*
X016150Y010056D02*
X017210Y010056D01*
X017052Y010215D02*
X016308Y010215D01*
X016350Y010373D02*
X017010Y010373D01*
X017010Y010532D02*
X016350Y010532D01*
X016264Y010690D02*
X017096Y010690D01*
X017127Y009739D02*
X015233Y009739D01*
X015334Y009581D02*
X017026Y009581D01*
X017000Y009422D02*
X015360Y009422D01*
X015327Y009264D02*
X017033Y009264D01*
X017143Y009105D02*
X015217Y009105D01*
X014176Y008788D02*
X013660Y008788D01*
X013660Y008630D02*
X014046Y008630D01*
X014000Y008471D02*
X013650Y008471D01*
X013491Y008313D02*
X014012Y008313D01*
X014094Y008154D02*
X012510Y008154D01*
X012510Y007996D02*
X012845Y007996D01*
X012720Y007871D02*
X012720Y007680D01*
X013180Y007680D01*
X013180Y007680D01*
X013180Y008140D01*
X013371Y008140D01*
X013640Y007871D01*
X013640Y007680D01*
X013180Y007680D01*
X013180Y007680D01*
X013180Y007680D01*
X013180Y008140D01*
X012989Y008140D01*
X012720Y007871D01*
X012720Y007837D02*
X012510Y007837D01*
X012510Y007679D02*
X012720Y007679D01*
X012720Y007680D02*
X012720Y007489D01*
X012989Y007220D01*
X013180Y007220D01*
X013371Y007220D01*
X013640Y007489D01*
X013640Y007680D01*
X013180Y007680D01*
X013180Y007220D01*
X013180Y007680D01*
X013180Y007680D01*
X012720Y007680D01*
X012720Y007520D02*
X012510Y007520D01*
X012487Y007362D02*
X012848Y007362D01*
X013180Y007362D02*
X013180Y007362D01*
X013180Y007520D02*
X013180Y007520D01*
X013180Y007679D02*
X013180Y007679D01*
X013180Y007837D02*
X013180Y007837D01*
X013180Y007996D02*
X013180Y007996D01*
X013515Y007996D02*
X014339Y007996D01*
X014352Y007870D02*
X014191Y007803D01*
X014067Y007679D01*
X014000Y007518D01*
X014000Y007342D01*
X014067Y007181D01*
X014191Y007057D01*
X014352Y006990D01*
X015008Y006990D01*
X015169Y007057D01*
X015293Y007181D01*
X015360Y007342D01*
X015360Y007518D01*
X015293Y007679D01*
X015169Y007803D01*
X015008Y007870D01*
X014352Y007870D01*
X014273Y007837D02*
X013640Y007837D01*
X013640Y007679D02*
X014067Y007679D01*
X014001Y007520D02*
X013640Y007520D01*
X013512Y007362D02*
X014000Y007362D01*
X014058Y007203D02*
X012328Y007203D01*
X012170Y007045D02*
X014221Y007045D01*
X014279Y006819D02*
X014220Y006789D01*
X014166Y006750D01*
X014120Y006704D01*
X014081Y006650D01*
X014051Y006591D01*
X014030Y006528D01*
X014020Y006463D01*
X014020Y006430D01*
X014680Y006430D01*
X014680Y006430D01*
X014680Y006850D01*
X014953Y006850D01*
X015018Y006840D01*
X015081Y006819D01*
X015140Y006789D01*
X015194Y006750D01*
X015240Y006704D01*
X015279Y006650D01*
X015309Y006591D01*
X015330Y006528D01*
X015340Y006463D01*
X015340Y006430D01*
X014680Y006430D01*
X014680Y006430D01*
X014680Y006850D01*
X014407Y006850D01*
X014342Y006840D01*
X014279Y006819D01*
X014144Y006728D02*
X011853Y006728D01*
X012011Y006886D02*
X015950Y006886D01*
X015950Y006728D02*
X015216Y006728D01*
X015316Y006569D02*
X015950Y006569D01*
X015950Y006411D02*
X015340Y006411D01*
X015340Y006397D02*
X015340Y006430D01*
X014680Y006430D01*
X014680Y006010D01*
X014953Y006010D01*
X015018Y006020D01*
X015081Y006041D01*
X015140Y006071D01*
X015194Y006110D01*
X015240Y006156D01*
X015279Y006210D01*
X015309Y006269D01*
X015330Y006332D01*
X015340Y006397D01*
X015301Y006252D02*
X015950Y006252D01*
X015950Y006094D02*
X015171Y006094D01*
X015164Y005777D02*
X014696Y005777D01*
X014679Y005793D02*
X014518Y005860D01*
X014342Y005860D01*
X014181Y005793D01*
X014057Y005669D01*
X013990Y005508D01*
X013990Y004852D01*
X014057Y004691D01*
X014181Y004567D01*
X014342Y004500D01*
X014518Y004500D01*
X014679Y004567D01*
X014803Y004691D01*
X014870Y004852D01*
X014870Y005508D01*
X014803Y005669D01*
X014679Y005793D01*
X014680Y006010D02*
X014407Y006010D01*
X014342Y006020D01*
X014279Y006041D01*
X014220Y006071D01*
X014166Y006110D01*
X014120Y006156D01*
X014081Y006210D01*
X014051Y006269D01*
X014030Y006332D01*
X014020Y006397D01*
X014020Y006430D01*
X014680Y006430D01*
X014680Y006430D01*
X014680Y006430D01*
X014680Y006010D01*
X014680Y006094D02*
X014680Y006094D01*
X014680Y006252D02*
X014680Y006252D01*
X014680Y006411D02*
X014680Y006411D01*
X014680Y006569D02*
X014680Y006569D01*
X014680Y006728D02*
X014680Y006728D01*
X015139Y007045D02*
X015950Y007045D01*
X015950Y007203D02*
X015302Y007203D01*
X015360Y007362D02*
X015950Y007362D01*
X015950Y007520D02*
X015359Y007520D01*
X015293Y007679D02*
X015950Y007679D01*
X015950Y007837D02*
X015087Y007837D01*
X015039Y007996D02*
X015021Y007996D01*
X016579Y008154D02*
X017094Y008154D01*
X017012Y008313D02*
X016738Y008313D01*
X017098Y008788D02*
X017176Y008788D01*
X016987Y008947D02*
X023120Y008947D01*
X023120Y009105D02*
X019477Y009105D01*
X019587Y009264D02*
X023120Y009264D01*
X023120Y009422D02*
X019620Y009422D01*
X019594Y009581D02*
X023120Y009581D01*
X023120Y009739D02*
X019493Y009739D01*
X019444Y008788D02*
X023120Y008788D01*
X023120Y008630D02*
X019574Y008630D01*
X019620Y008471D02*
X023120Y008471D01*
X023120Y008313D02*
X019608Y008313D01*
X019526Y008154D02*
X020764Y008154D01*
X021096Y008154D02*
X023120Y008154D01*
X023120Y007996D02*
X021431Y007996D01*
X021590Y007837D02*
X023120Y007837D01*
X023120Y007679D02*
X021679Y007679D01*
X021744Y007520D02*
X023120Y007520D01*
X023120Y007362D02*
X021755Y007362D01*
X021755Y007203D02*
X023120Y007203D01*
X023120Y007045D02*
X021705Y007045D01*
X021639Y006886D02*
X023120Y006886D01*
X023120Y006728D02*
X021494Y006728D01*
X021249Y006569D02*
X023120Y006569D01*
X023120Y006411D02*
X018360Y006411D01*
X018323Y006252D02*
X023120Y006252D01*
X023120Y006094D02*
X018206Y006094D01*
X017154Y006094D02*
X016410Y006094D01*
X016410Y006252D02*
X017037Y006252D01*
X017000Y006411D02*
X016410Y006411D01*
X016410Y006569D02*
X017021Y006569D01*
X016410Y005935D02*
X023120Y005935D01*
X023120Y005777D02*
X016410Y005777D01*
X016410Y005618D02*
X019975Y005618D01*
X019950Y005593D02*
X019950Y003867D01*
X020067Y003750D01*
X021793Y003750D01*
X021910Y003867D01*
X021910Y005593D01*
X021793Y005710D01*
X020067Y005710D01*
X019950Y005593D01*
X019950Y005460D02*
X016410Y005460D01*
X016410Y005301D02*
X019950Y005301D01*
X019950Y005143D02*
X016410Y005143D01*
X016409Y004984D02*
X016633Y004984D01*
X016689Y005040D02*
X016420Y004771D01*
X016420Y004580D01*
X016880Y004580D01*
X016880Y004580D01*
X016880Y005040D01*
X017071Y005040D01*
X017340Y004771D01*
X017340Y004580D01*
X016880Y004580D01*
X016880Y004580D01*
X016880Y004580D01*
X016880Y005040D01*
X016689Y005040D01*
X016880Y004984D02*
X016880Y004984D01*
X016880Y004826D02*
X016880Y004826D01*
X016880Y004667D02*
X016880Y004667D01*
X016880Y004580D02*
X016420Y004580D01*
X016420Y004389D01*
X016689Y004120D01*
X016880Y004120D01*
X017071Y004120D01*
X017340Y004389D01*
X017340Y004580D01*
X016880Y004580D01*
X016880Y004120D01*
X016880Y004580D01*
X016880Y004580D01*
X016880Y004509D02*
X016880Y004509D01*
X016880Y004350D02*
X016880Y004350D01*
X016880Y004192D02*
X016880Y004192D01*
X017079Y004060D02*
X016681Y004060D01*
X016400Y003779D01*
X016400Y003381D01*
X016681Y003100D01*
X017079Y003100D01*
X017360Y003381D01*
X017360Y003779D01*
X017079Y004060D01*
X017106Y004033D02*
X019950Y004033D01*
X019950Y003875D02*
X017264Y003875D01*
X017360Y003716D02*
X023120Y003716D01*
X023120Y003558D02*
X017360Y003558D01*
X017360Y003399D02*
X023120Y003399D01*
X023120Y003241D02*
X017219Y003241D01*
X017382Y002924D02*
X020690Y002924D01*
X020398Y002765D02*
X017561Y002765D01*
X017684Y002607D02*
X020240Y002607D01*
X020169Y002448D02*
X017750Y002448D01*
X017790Y002290D02*
X017978Y002290D01*
X017963Y002275D02*
X017904Y002132D01*
X017904Y001978D01*
X017963Y001835D01*
X018073Y001726D01*
X018215Y001667D01*
X018370Y001667D01*
X018512Y001726D01*
X018622Y001835D01*
X018681Y001978D01*
X018681Y002132D01*
X018622Y002275D01*
X018512Y002384D01*
X018370Y002443D01*
X018215Y002443D01*
X018073Y002384D01*
X017963Y002275D01*
X017904Y002131D02*
X017790Y002131D01*
X017775Y001973D02*
X017907Y001973D01*
X017985Y001814D02*
X017709Y001814D01*
X017622Y001656D02*
X020238Y001656D01*
X020168Y001814D02*
X018600Y001814D01*
X018678Y001973D02*
X020105Y001973D01*
X020105Y002131D02*
X018681Y002131D01*
X018607Y002290D02*
X020105Y002290D01*
X020396Y001497D02*
X017463Y001497D01*
X016397Y001497D02*
X001490Y001497D01*
X001490Y001656D02*
X002092Y001656D01*
X002057Y001691D02*
X002181Y001567D01*
X002342Y001500D01*
X002518Y001500D01*
X002679Y001567D01*
X002803Y001691D01*
X002870Y001852D01*
X002870Y002508D01*
X002803Y002669D01*
X002679Y002793D01*
X002518Y002860D01*
X002342Y002860D01*
X002181Y002793D01*
X002057Y002669D01*
X001990Y002508D01*
X001990Y001852D01*
X002057Y001691D01*
X002006Y001814D02*
X001490Y001814D01*
X001490Y001973D02*
X001990Y001973D01*
X001990Y002131D02*
X001490Y002131D01*
X001490Y002290D02*
X001990Y002290D01*
X001990Y002448D02*
X001490Y002448D01*
X001490Y002607D02*
X002031Y002607D01*
X002153Y002765D02*
X001490Y002765D01*
X001490Y002924D02*
X015350Y002924D01*
X015350Y003082D02*
X001490Y003082D01*
X001490Y003241D02*
X015350Y003241D01*
X015350Y003399D02*
X001490Y003399D01*
X001490Y003558D02*
X004094Y003558D01*
X004066Y003585D02*
X004175Y003476D01*
X004318Y003417D01*
X004472Y003417D01*
X004615Y003476D01*
X004724Y003585D01*
X004783Y003728D01*
X004783Y003882D01*
X004724Y004025D01*
X004615Y004134D01*
X004472Y004193D01*
X004318Y004193D01*
X004175Y004134D01*
X004066Y004025D01*
X004007Y003882D01*
X004007Y003728D01*
X004066Y003585D01*
X004012Y003716D02*
X001490Y003716D01*
X001490Y003875D02*
X004007Y003875D01*
X004074Y004033D02*
X001490Y004033D01*
X001490Y004192D02*
X004314Y004192D01*
X004476Y004192D02*
X015350Y004192D01*
X015350Y004350D02*
X001490Y004350D01*
X001490Y004509D02*
X002322Y004509D01*
X002342Y004500D02*
X002518Y004500D01*
X002679Y004567D01*
X002803Y004691D01*
X002870Y004852D01*
X002870Y005508D01*
X002803Y005669D01*
X002679Y005793D01*
X002518Y005860D01*
X002342Y005860D01*
X002181Y005793D01*
X002057Y005669D01*
X001990Y005508D01*
X001990Y004852D01*
X002057Y004691D01*
X002181Y004567D01*
X002342Y004500D01*
X002538Y004509D02*
X003322Y004509D01*
X003342Y004500D02*
X003518Y004500D01*
X003679Y004567D01*
X003803Y004691D01*
X003870Y004852D01*
X003870Y005508D01*
X003803Y005669D01*
X003679Y005793D01*
X003518Y005860D01*
X003342Y005860D01*
X003181Y005793D01*
X003057Y005669D01*
X002990Y005508D01*
X002990Y004852D01*
X003057Y004691D01*
X003181Y004567D01*
X003342Y004500D01*
X003538Y004509D02*
X004322Y004509D01*
X004342Y004500D02*
X004518Y004500D01*
X004679Y004567D01*
X004803Y004691D01*
X004870Y004852D01*
X004870Y005508D01*
X004803Y005669D01*
X004679Y005793D01*
X004518Y005860D01*
X004342Y005860D01*
X004181Y005793D01*
X004057Y005669D01*
X003990Y005508D01*
X003990Y004852D01*
X004057Y004691D01*
X004181Y004567D01*
X004342Y004500D01*
X004538Y004509D02*
X005322Y004509D01*
X005342Y004500D02*
X005518Y004500D01*
X005679Y004567D01*
X005803Y004691D01*
X005870Y004852D01*
X005870Y005508D01*
X005803Y005669D01*
X005679Y005793D01*
X005518Y005860D01*
X005342Y005860D01*
X005181Y005793D01*
X005057Y005669D01*
X004990Y005508D01*
X004990Y004852D01*
X005057Y004691D01*
X005181Y004567D01*
X005342Y004500D01*
X005538Y004509D02*
X006322Y004509D01*
X006342Y004500D02*
X006518Y004500D01*
X006679Y004567D01*
X006803Y004691D01*
X006870Y004852D01*
X006870Y005508D01*
X006803Y005669D01*
X006679Y005793D01*
X006518Y005860D01*
X006342Y005860D01*
X006181Y005793D01*
X006057Y005669D01*
X005990Y005508D01*
X005990Y004852D01*
X006057Y004691D01*
X006181Y004567D01*
X006342Y004500D01*
X006538Y004509D02*
X007322Y004509D01*
X007538Y004509D02*
X008322Y004509D01*
X008342Y004500D02*
X008518Y004500D01*
X008679Y004567D01*
X008803Y004691D01*
X008870Y004852D01*
X008870Y005508D01*
X008803Y005669D01*
X008679Y005793D01*
X008518Y005860D01*
X008342Y005860D01*
X008181Y005793D01*
X008057Y005669D01*
X007990Y005508D01*
X007990Y004852D01*
X008057Y004691D01*
X008181Y004567D01*
X008342Y004500D01*
X008538Y004509D02*
X010322Y004509D01*
X010342Y004500D02*
X010518Y004500D01*
X010679Y004567D01*
X010803Y004691D01*
X010870Y004852D01*
X010870Y005508D01*
X010803Y005669D01*
X010679Y005793D01*
X010518Y005860D01*
X010342Y005860D01*
X010181Y005793D01*
X010057Y005669D01*
X009990Y005508D01*
X009990Y004852D01*
X010057Y004691D01*
X010181Y004567D01*
X010342Y004500D01*
X010538Y004509D02*
X011322Y004509D01*
X011342Y004500D02*
X011518Y004500D01*
X011679Y004567D01*
X011803Y004691D01*
X011870Y004852D01*
X011870Y005508D01*
X011803Y005669D01*
X011679Y005793D01*
X011518Y005860D01*
X011342Y005860D01*
X011181Y005793D01*
X011057Y005669D01*
X010990Y005508D01*
X010990Y004852D01*
X011057Y004691D01*
X011181Y004567D01*
X011342Y004500D01*
X011538Y004509D02*
X012322Y004509D01*
X012342Y004500D02*
X012518Y004500D01*
X012679Y004567D01*
X012803Y004691D01*
X012870Y004852D01*
X012870Y005508D01*
X012803Y005669D01*
X012679Y005793D01*
X012518Y005860D01*
X012342Y005860D01*
X012181Y005793D01*
X012057Y005669D01*
X011990Y005508D01*
X011990Y004852D01*
X012057Y004691D01*
X012181Y004567D01*
X012342Y004500D01*
X012538Y004509D02*
X013322Y004509D01*
X013342Y004500D02*
X013518Y004500D01*
X013679Y004567D01*
X013803Y004691D01*
X013870Y004852D01*
X013870Y005508D01*
X013803Y005669D01*
X013679Y005793D01*
X013518Y005860D01*
X013342Y005860D01*
X013181Y005793D01*
X013057Y005669D01*
X012990Y005508D01*
X012990Y004852D01*
X013057Y004691D01*
X013181Y004567D01*
X013342Y004500D01*
X013538Y004509D02*
X014322Y004509D01*
X014538Y004509D02*
X015322Y004509D01*
X015081Y004667D02*
X014779Y004667D01*
X014859Y004826D02*
X015001Y004826D01*
X014990Y004984D02*
X014870Y004984D01*
X014870Y005143D02*
X014990Y005143D01*
X014990Y005301D02*
X014870Y005301D01*
X014870Y005460D02*
X014990Y005460D01*
X015036Y005618D02*
X014824Y005618D01*
X014164Y005777D02*
X013696Y005777D01*
X013824Y005618D02*
X014036Y005618D01*
X013990Y005460D02*
X013870Y005460D01*
X013870Y005301D02*
X013990Y005301D01*
X013990Y005143D02*
X013870Y005143D01*
X013870Y004984D02*
X013990Y004984D01*
X014001Y004826D02*
X013859Y004826D01*
X013779Y004667D02*
X014081Y004667D01*
X013081Y004667D02*
X012779Y004667D01*
X012859Y004826D02*
X013001Y004826D01*
X012990Y004984D02*
X012870Y004984D01*
X012870Y005143D02*
X012990Y005143D01*
X012990Y005301D02*
X012870Y005301D01*
X012870Y005460D02*
X012990Y005460D01*
X013036Y005618D02*
X012824Y005618D01*
X012696Y005777D02*
X013164Y005777D01*
X012164Y005777D02*
X011696Y005777D01*
X011824Y005618D02*
X012036Y005618D01*
X011990Y005460D02*
X011870Y005460D01*
X011870Y005301D02*
X011990Y005301D01*
X011990Y005143D02*
X011870Y005143D01*
X011870Y004984D02*
X011990Y004984D01*
X012001Y004826D02*
X011859Y004826D01*
X011779Y004667D02*
X012081Y004667D01*
X011081Y004667D02*
X010779Y004667D01*
X010859Y004826D02*
X011001Y004826D01*
X010990Y004984D02*
X010870Y004984D01*
X010870Y005143D02*
X010990Y005143D01*
X010990Y005301D02*
X010870Y005301D01*
X010870Y005460D02*
X010990Y005460D01*
X011036Y005618D02*
X010824Y005618D01*
X010696Y005777D02*
X011164Y005777D01*
X011219Y006094D02*
X014189Y006094D01*
X014059Y006252D02*
X011377Y006252D01*
X011536Y006411D02*
X014020Y006411D01*
X014044Y006569D02*
X011694Y006569D01*
X011361Y006886D02*
X011346Y006886D01*
X011188Y007045D02*
X011519Y007045D01*
X011678Y007203D02*
X010482Y007203D01*
X010324Y007362D02*
X011836Y007362D01*
X011995Y007520D02*
X010165Y007520D01*
X010007Y007679D02*
X012050Y007679D01*
X012050Y007837D02*
X009848Y007837D01*
X009690Y007996D02*
X012050Y007996D01*
X012050Y008154D02*
X008678Y008154D01*
X007950Y008471D02*
X007910Y008471D01*
X007910Y008450D02*
X007910Y008910D01*
X007150Y008910D01*
X007150Y008892D01*
X007162Y008818D01*
X007185Y008746D01*
X007219Y008678D01*
X007264Y008617D01*
X007317Y008564D01*
X007378Y008519D01*
X007446Y008485D01*
X007518Y008462D01*
X007592Y008450D01*
X007910Y008450D01*
X007910Y008630D02*
X007950Y008630D01*
X007950Y008788D02*
X007910Y008788D01*
X007910Y009105D02*
X007950Y009105D01*
X007950Y009264D02*
X007910Y009264D01*
X007171Y008788D02*
X005870Y008788D01*
X005870Y008630D02*
X007255Y008630D01*
X007489Y008471D02*
X005934Y008471D01*
X006079Y008313D02*
X007305Y008313D01*
X007130Y007837D02*
X003394Y007837D01*
X003420Y007773D02*
X003348Y007946D01*
X003216Y008078D01*
X003043Y008150D01*
X002317Y008150D01*
X002144Y008078D01*
X002012Y007946D01*
X001940Y007773D01*
X001940Y007587D01*
X002012Y007414D01*
X002144Y007282D01*
X002317Y007210D01*
X003043Y007210D01*
X003216Y007282D01*
X003348Y007414D01*
X003420Y007587D01*
X003420Y007773D01*
X003420Y007679D02*
X007193Y007679D01*
X007333Y007520D02*
X003392Y007520D01*
X003296Y007362D02*
X007365Y007362D01*
X007202Y007203D02*
X001490Y007203D01*
X001490Y007045D02*
X002110Y007045D01*
X001987Y006886D02*
X001490Y006886D01*
X001490Y006728D02*
X001940Y006728D01*
X001947Y006569D02*
X001490Y006569D01*
X001490Y006411D02*
X002015Y006411D01*
X002215Y006252D02*
X001490Y006252D01*
X001490Y006094D02*
X007827Y006094D01*
X008004Y006252D02*
X005624Y006252D01*
X005783Y006411D02*
X008181Y006411D01*
X008576Y006569D02*
X010466Y006569D01*
X010307Y006728D02*
X008687Y006728D01*
X008730Y006886D02*
X010149Y006886D01*
X009990Y007045D02*
X008724Y007045D01*
X008658Y007203D02*
X009832Y007203D01*
X009673Y007362D02*
X008495Y007362D01*
X008527Y007520D02*
X009515Y007520D01*
X010641Y007045D02*
X010672Y007045D01*
X010164Y005777D02*
X009654Y005777D01*
X009650Y005779D02*
X009591Y005809D01*
X009528Y005830D01*
X009463Y005840D01*
X009430Y005840D01*
X009430Y005180D01*
X009430Y005180D01*
X009850Y005180D01*
X009850Y005453D01*
X009840Y005518D01*
X009819Y005581D01*
X009789Y005640D01*
X009750Y005694D01*
X009704Y005740D01*
X009650Y005779D01*
X009430Y005777D02*
X009430Y005777D01*
X009430Y005840D02*
X009397Y005840D01*
X009332Y005830D01*
X009269Y005809D01*
X009210Y005779D01*
X009156Y005740D01*
X009110Y005694D01*
X009071Y005640D01*
X009041Y005581D01*
X009020Y005518D01*
X009010Y005453D01*
X009010Y005180D01*
X009430Y005180D01*
X009430Y005180D01*
X009430Y005180D01*
X009430Y005840D01*
X009430Y005618D02*
X009430Y005618D01*
X009430Y005460D02*
X009430Y005460D01*
X009430Y005301D02*
X009430Y005301D01*
X009430Y005180D02*
X009010Y005180D01*
X009010Y004907D01*
X009020Y004842D01*
X009041Y004779D01*
X009071Y004720D01*
X009110Y004666D01*
X009156Y004620D01*
X009210Y004581D01*
X009269Y004551D01*
X009332Y004530D01*
X009397Y004520D01*
X009430Y004520D01*
X009463Y004520D01*
X009528Y004530D01*
X009591Y004551D01*
X009650Y004581D01*
X009704Y004620D01*
X009750Y004666D01*
X009789Y004720D01*
X009819Y004779D01*
X009840Y004842D01*
X009850Y004907D01*
X009850Y005180D01*
X009430Y005180D01*
X009430Y004520D01*
X009430Y005180D01*
X009430Y005180D01*
X009430Y005143D02*
X009430Y005143D01*
X009430Y004984D02*
X009430Y004984D01*
X009430Y004826D02*
X009430Y004826D01*
X009430Y004667D02*
X009430Y004667D01*
X009751Y004667D02*
X010081Y004667D01*
X010001Y004826D02*
X009834Y004826D01*
X009850Y004984D02*
X009990Y004984D01*
X009990Y005143D02*
X009850Y005143D01*
X009850Y005301D02*
X009990Y005301D01*
X009990Y005460D02*
X009849Y005460D01*
X009800Y005618D02*
X010036Y005618D01*
X009206Y005777D02*
X008696Y005777D01*
X008824Y005618D02*
X009060Y005618D01*
X009011Y005460D02*
X008870Y005460D01*
X008870Y005301D02*
X009010Y005301D01*
X009010Y005143D02*
X008870Y005143D01*
X008870Y004984D02*
X009010Y004984D01*
X009026Y004826D02*
X008859Y004826D01*
X008779Y004667D02*
X009109Y004667D01*
X008081Y004667D02*
X007779Y004667D01*
X007859Y004826D02*
X008001Y004826D01*
X007990Y004984D02*
X007870Y004984D01*
X007870Y005143D02*
X007990Y005143D01*
X007990Y005301D02*
X007870Y005301D01*
X007870Y005460D02*
X007990Y005460D01*
X007985Y005618D02*
X008036Y005618D01*
X008162Y005777D02*
X008164Y005777D01*
X008339Y005935D02*
X015950Y005935D01*
X015950Y005777D02*
X015696Y005777D01*
X015824Y005618D02*
X015950Y005618D01*
X015950Y005460D02*
X015870Y005460D01*
X015870Y005301D02*
X015950Y005301D01*
X015917Y005143D02*
X015870Y005143D01*
X016251Y004826D02*
X016475Y004826D01*
X016420Y004667D02*
X016092Y004667D01*
X015934Y004509D02*
X016420Y004509D01*
X016459Y004350D02*
X015810Y004350D01*
X015810Y004192D02*
X016618Y004192D01*
X016654Y004033D02*
X015810Y004033D01*
X015810Y003875D02*
X016496Y003875D01*
X016400Y003716D02*
X015810Y003716D01*
X015810Y003558D02*
X016400Y003558D01*
X016400Y003399D02*
X015810Y003399D01*
X015810Y003241D02*
X016541Y003241D01*
X016478Y002924D02*
X015810Y002924D01*
X015810Y003082D02*
X023120Y003082D01*
X023120Y002924D02*
X021170Y002924D01*
X021462Y002765D02*
X023120Y002765D01*
X023120Y002607D02*
X021620Y002607D01*
X021691Y002448D02*
X023120Y002448D01*
X023120Y002290D02*
X021755Y002290D01*
X021755Y002131D02*
X023120Y002131D01*
X023120Y001973D02*
X021755Y001973D01*
X021692Y001814D02*
X023120Y001814D01*
X023120Y001656D02*
X021622Y001656D01*
X021464Y001497D02*
X023120Y001497D01*
X023120Y003875D02*
X021910Y003875D01*
X021910Y004033D02*
X023120Y004033D01*
X023120Y004192D02*
X021910Y004192D01*
X021910Y004350D02*
X023120Y004350D01*
X023120Y004509D02*
X021910Y004509D01*
X021910Y004667D02*
X023120Y004667D01*
X023120Y004826D02*
X021910Y004826D01*
X021910Y004984D02*
X023120Y004984D01*
X023120Y005143D02*
X021910Y005143D01*
X021910Y005301D02*
X023120Y005301D01*
X023120Y005460D02*
X021910Y005460D01*
X021885Y005618D02*
X023120Y005618D01*
X019950Y004984D02*
X017127Y004984D01*
X017285Y004826D02*
X019950Y004826D01*
X019950Y004667D02*
X017340Y004667D01*
X017340Y004509D02*
X019950Y004509D01*
X019950Y004350D02*
X017301Y004350D01*
X017142Y004192D02*
X019950Y004192D01*
X016299Y002765D02*
X015813Y002765D01*
X015829Y002607D02*
X016176Y002607D01*
X016110Y002448D02*
X015870Y002448D01*
X015870Y002290D02*
X016070Y002290D01*
X016070Y002131D02*
X015870Y002131D01*
X015870Y001973D02*
X016085Y001973D01*
X016151Y001814D02*
X015854Y001814D01*
X015768Y001656D02*
X016238Y001656D01*
X015092Y001656D02*
X014768Y001656D01*
X014803Y001691D02*
X014870Y001852D01*
X014870Y002508D01*
X014803Y002669D01*
X014679Y002793D01*
X014518Y002860D01*
X014342Y002860D01*
X014181Y002793D01*
X014057Y002669D01*
X013990Y002508D01*
X013990Y001852D01*
X014057Y001691D01*
X014181Y001567D01*
X014342Y001500D01*
X014518Y001500D01*
X014679Y001567D01*
X014803Y001691D01*
X014854Y001814D02*
X015006Y001814D01*
X014990Y001973D02*
X014870Y001973D01*
X014870Y002131D02*
X014990Y002131D01*
X014990Y002290D02*
X014870Y002290D01*
X014870Y002448D02*
X014990Y002448D01*
X015031Y002607D02*
X014829Y002607D01*
X014707Y002765D02*
X015153Y002765D01*
X015350Y003558D02*
X004696Y003558D01*
X004778Y003716D02*
X015350Y003716D01*
X015350Y003875D02*
X004783Y003875D01*
X004716Y004033D02*
X015350Y004033D01*
X014153Y002765D02*
X013707Y002765D01*
X013679Y002793D02*
X013518Y002860D01*
X013342Y002860D01*
X013181Y002793D01*
X013057Y002669D01*
X012990Y002508D01*
X012990Y001852D01*
X013057Y001691D01*
X013181Y001567D01*
X013342Y001500D01*
X013518Y001500D01*
X013679Y001567D01*
X013803Y001691D01*
X013870Y001852D01*
X013870Y002508D01*
X013803Y002669D01*
X013679Y002793D01*
X013829Y002607D02*
X014031Y002607D01*
X013990Y002448D02*
X013870Y002448D01*
X013870Y002290D02*
X013990Y002290D01*
X013990Y002131D02*
X013870Y002131D01*
X013870Y001973D02*
X013990Y001973D01*
X014006Y001814D02*
X013854Y001814D01*
X013768Y001656D02*
X014092Y001656D01*
X013092Y001656D02*
X012768Y001656D01*
X012803Y001691D02*
X012870Y001852D01*
X012870Y002508D01*
X012803Y002669D01*
X012679Y002793D01*
X012518Y002860D01*
X012342Y002860D01*
X012181Y002793D01*
X012057Y002669D01*
X011990Y002508D01*
X011990Y001852D01*
X012057Y001691D01*
X012181Y001567D01*
X012342Y001500D01*
X012518Y001500D01*
X012679Y001567D01*
X012803Y001691D01*
X012854Y001814D02*
X013006Y001814D01*
X012990Y001973D02*
X012870Y001973D01*
X012870Y002131D02*
X012990Y002131D01*
X012990Y002290D02*
X012870Y002290D01*
X012870Y002448D02*
X012990Y002448D01*
X013031Y002607D02*
X012829Y002607D01*
X012707Y002765D02*
X013153Y002765D01*
X012153Y002765D02*
X011707Y002765D01*
X011679Y002793D02*
X011518Y002860D01*
X011342Y002860D01*
X011181Y002793D01*
X011057Y002669D01*
X010990Y002508D01*
X010990Y001852D01*
X011057Y001691D01*
X011181Y001567D01*
X011342Y001500D01*
X011518Y001500D01*
X011679Y001567D01*
X011803Y001691D01*
X011870Y001852D01*
X011870Y002508D01*
X011803Y002669D01*
X011679Y002793D01*
X011829Y002607D02*
X012031Y002607D01*
X011990Y002448D02*
X011870Y002448D01*
X011870Y002290D02*
X011990Y002290D01*
X011990Y002131D02*
X011870Y002131D01*
X011870Y001973D02*
X011990Y001973D01*
X012006Y001814D02*
X011854Y001814D01*
X011768Y001656D02*
X012092Y001656D01*
X011092Y001656D02*
X010768Y001656D01*
X010803Y001691D02*
X010870Y001852D01*
X010870Y002508D01*
X010803Y002669D01*
X010679Y002793D01*
X010518Y002860D01*
X010342Y002860D01*
X010181Y002793D01*
X010057Y002669D01*
X009990Y002508D01*
X009990Y001852D01*
X010057Y001691D01*
X010181Y001567D01*
X010342Y001500D01*
X010518Y001500D01*
X010679Y001567D01*
X010803Y001691D01*
X010854Y001814D02*
X011006Y001814D01*
X010990Y001973D02*
X010870Y001973D01*
X010870Y002131D02*
X010990Y002131D01*
X010990Y002290D02*
X010870Y002290D01*
X010870Y002448D02*
X010990Y002448D01*
X011031Y002607D02*
X010829Y002607D01*
X010707Y002765D02*
X011153Y002765D01*
X010153Y002765D02*
X009707Y002765D01*
X009679Y002793D02*
X009518Y002860D01*
X009342Y002860D01*
X009181Y002793D01*
X009057Y002669D01*
X008990Y002508D01*
X008990Y001852D01*
X009057Y001691D01*
X009181Y001567D01*
X009342Y001500D01*
X009518Y001500D01*
X009679Y001567D01*
X009803Y001691D01*
X009870Y001852D01*
X009870Y002508D01*
X009803Y002669D01*
X009679Y002793D01*
X009829Y002607D02*
X010031Y002607D01*
X009990Y002448D02*
X009870Y002448D01*
X009870Y002290D02*
X009990Y002290D01*
X009990Y002131D02*
X009870Y002131D01*
X009870Y001973D02*
X009990Y001973D01*
X010006Y001814D02*
X009854Y001814D01*
X009768Y001656D02*
X010092Y001656D01*
X009092Y001656D02*
X008739Y001656D01*
X008750Y001666D02*
X008789Y001720D01*
X008819Y001779D01*
X008840Y001842D01*
X008850Y001907D01*
X008850Y002180D01*
X008850Y002453D01*
X008840Y002518D01*
X008819Y002581D01*
X008789Y002640D01*
X008750Y002694D01*
X008704Y002740D01*
X008650Y002779D01*
X008591Y002809D01*
X008528Y002830D01*
X008463Y002840D01*
X008430Y002840D01*
X008430Y002180D01*
X008430Y002180D01*
X008850Y002180D01*
X008430Y002180D01*
X008430Y002180D01*
X008430Y002180D01*
X008010Y002180D01*
X008010Y002453D01*
X008020Y002518D01*
X008041Y002581D01*
X008071Y002640D01*
X008110Y002694D01*
X008156Y002740D01*
X008210Y002779D01*
X008269Y002809D01*
X008332Y002830D01*
X008397Y002840D01*
X008430Y002840D01*
X008430Y002180D01*
X008430Y001520D01*
X008463Y001520D01*
X008528Y001530D01*
X008591Y001551D01*
X008650Y001581D01*
X008704Y001620D01*
X008750Y001666D01*
X008831Y001814D02*
X009006Y001814D01*
X008990Y001973D02*
X008850Y001973D01*
X008850Y002131D02*
X008990Y002131D01*
X008990Y002290D02*
X008850Y002290D01*
X008850Y002448D02*
X008990Y002448D01*
X009031Y002607D02*
X008806Y002607D01*
X008670Y002765D02*
X009153Y002765D01*
X008430Y002765D02*
X008430Y002765D01*
X008430Y002607D02*
X008430Y002607D01*
X008430Y002448D02*
X008430Y002448D01*
X008430Y002290D02*
X008430Y002290D01*
X008430Y002180D02*
X008010Y002180D01*
X008010Y001907D01*
X008020Y001842D01*
X008041Y001779D01*
X008071Y001720D01*
X008110Y001666D01*
X008156Y001620D01*
X008210Y001581D01*
X008269Y001551D01*
X008332Y001530D01*
X008397Y001520D01*
X008430Y001520D01*
X008430Y002180D01*
X008430Y002180D01*
X008430Y002131D02*
X008430Y002131D01*
X008430Y001973D02*
X008430Y001973D01*
X008430Y001814D02*
X008430Y001814D01*
X008430Y001656D02*
X008430Y001656D01*
X008121Y001656D02*
X007739Y001656D01*
X007750Y001666D02*
X007789Y001720D01*
X007819Y001779D01*
X007840Y001842D01*
X007850Y001907D01*
X007850Y002180D01*
X007850Y002453D01*
X007840Y002518D01*
X007819Y002581D01*
X007789Y002640D01*
X007750Y002694D01*
X007704Y002740D01*
X007650Y002779D01*
X007591Y002809D01*
X007528Y002830D01*
X007463Y002840D01*
X007430Y002840D01*
X007430Y002180D01*
X007430Y002180D01*
X007850Y002180D01*
X007430Y002180D01*
X007430Y002180D01*
X007430Y002180D01*
X007010Y002180D01*
X007010Y002453D01*
X007020Y002518D01*
X007041Y002581D01*
X007071Y002640D01*
X007110Y002694D01*
X007156Y002740D01*
X007210Y002779D01*
X007269Y002809D01*
X007332Y002830D01*
X007397Y002840D01*
X007430Y002840D01*
X007430Y002180D01*
X007430Y001520D01*
X007463Y001520D01*
X007528Y001530D01*
X007591Y001551D01*
X007650Y001581D01*
X007704Y001620D01*
X007750Y001666D01*
X007831Y001814D02*
X008029Y001814D01*
X008010Y001973D02*
X007850Y001973D01*
X007850Y002131D02*
X008010Y002131D01*
X008010Y002290D02*
X007850Y002290D01*
X007850Y002448D02*
X008010Y002448D01*
X008054Y002607D02*
X007806Y002607D01*
X007670Y002765D02*
X008190Y002765D01*
X007430Y002765D02*
X007430Y002765D01*
X007430Y002607D02*
X007430Y002607D01*
X007430Y002448D02*
X007430Y002448D01*
X007430Y002290D02*
X007430Y002290D01*
X007430Y002180D02*
X007010Y002180D01*
X007010Y001907D01*
X007020Y001842D01*
X007041Y001779D01*
X007071Y001720D01*
X007110Y001666D01*
X007156Y001620D01*
X007210Y001581D01*
X007269Y001551D01*
X007332Y001530D01*
X007397Y001520D01*
X007430Y001520D01*
X007430Y002180D01*
X007430Y002180D01*
X007430Y002131D02*
X007430Y002131D01*
X007430Y001973D02*
X007430Y001973D01*
X007430Y001814D02*
X007430Y001814D01*
X007430Y001656D02*
X007430Y001656D01*
X007121Y001656D02*
X006768Y001656D01*
X006803Y001691D02*
X006870Y001852D01*
X006870Y002508D01*
X006803Y002669D01*
X006679Y002793D01*
X006518Y002860D01*
X006342Y002860D01*
X006181Y002793D01*
X006057Y002669D01*
X005990Y002508D01*
X005990Y001852D01*
X006057Y001691D01*
X006181Y001567D01*
X006342Y001500D01*
X006518Y001500D01*
X006679Y001567D01*
X006803Y001691D01*
X006854Y001814D02*
X007029Y001814D01*
X007010Y001973D02*
X006870Y001973D01*
X006870Y002131D02*
X007010Y002131D01*
X007010Y002290D02*
X006870Y002290D01*
X006870Y002448D02*
X007010Y002448D01*
X007054Y002607D02*
X006829Y002607D01*
X006707Y002765D02*
X007190Y002765D01*
X006153Y002765D02*
X005707Y002765D01*
X005679Y002793D02*
X005518Y002860D01*
X005342Y002860D01*
X005181Y002793D01*
X005057Y002669D01*
X004990Y002508D01*
X004990Y001852D01*
X005057Y001691D01*
X005181Y001567D01*
X005342Y001500D01*
X005518Y001500D01*
X005679Y001567D01*
X005803Y001691D01*
X005870Y001852D01*
X005870Y002508D01*
X005803Y002669D01*
X005679Y002793D01*
X005829Y002607D02*
X006031Y002607D01*
X005990Y002448D02*
X005870Y002448D01*
X005870Y002290D02*
X005990Y002290D01*
X005990Y002131D02*
X005870Y002131D01*
X005870Y001973D02*
X005990Y001973D01*
X006006Y001814D02*
X005854Y001814D01*
X005768Y001656D02*
X006092Y001656D01*
X005092Y001656D02*
X004768Y001656D01*
X004803Y001691D02*
X004679Y001567D01*
X004518Y001500D01*
X004342Y001500D01*
X004181Y001567D01*
X004057Y001691D01*
X003990Y001852D01*
X003990Y002508D01*
X004057Y002669D01*
X004181Y002793D01*
X004342Y002860D01*
X004518Y002860D01*
X004679Y002793D01*
X004803Y002669D01*
X004870Y002508D01*
X004870Y001852D01*
X004803Y001691D01*
X004854Y001814D02*
X005006Y001814D01*
X004990Y001973D02*
X004870Y001973D01*
X004870Y002131D02*
X004990Y002131D01*
X004990Y002290D02*
X004870Y002290D01*
X004870Y002448D02*
X004990Y002448D01*
X005031Y002607D02*
X004829Y002607D01*
X004707Y002765D02*
X005153Y002765D01*
X004153Y002765D02*
X003707Y002765D01*
X003679Y002793D02*
X003518Y002860D01*
X003342Y002860D01*
X003181Y002793D01*
X003057Y002669D01*
X002990Y002508D01*
X002990Y001852D01*
X003057Y001691D01*
X003181Y001567D01*
X003342Y001500D01*
X003518Y001500D01*
X003679Y001567D01*
X003803Y001691D01*
X003870Y001852D01*
X003870Y002508D01*
X003803Y002669D01*
X003679Y002793D01*
X003829Y002607D02*
X004031Y002607D01*
X003990Y002448D02*
X003870Y002448D01*
X003870Y002290D02*
X003990Y002290D01*
X003990Y002131D02*
X003870Y002131D01*
X003870Y001973D02*
X003990Y001973D01*
X004006Y001814D02*
X003854Y001814D01*
X003768Y001656D02*
X004092Y001656D01*
X003092Y001656D02*
X002768Y001656D01*
X002854Y001814D02*
X003006Y001814D01*
X002990Y001973D02*
X002870Y001973D01*
X002870Y002131D02*
X002990Y002131D01*
X002990Y002290D02*
X002870Y002290D01*
X002870Y002448D02*
X002990Y002448D01*
X003031Y002607D02*
X002829Y002607D01*
X002707Y002765D02*
X003153Y002765D01*
X003081Y004667D02*
X002779Y004667D01*
X002859Y004826D02*
X003001Y004826D01*
X002990Y004984D02*
X002870Y004984D01*
X002870Y005143D02*
X002990Y005143D01*
X002990Y005301D02*
X002870Y005301D01*
X002870Y005460D02*
X002990Y005460D01*
X003036Y005618D02*
X002824Y005618D01*
X002696Y005777D02*
X003164Y005777D01*
X003696Y005777D02*
X004164Y005777D01*
X004036Y005618D02*
X003824Y005618D01*
X003870Y005460D02*
X003990Y005460D01*
X003990Y005301D02*
X003870Y005301D01*
X003870Y005143D02*
X003990Y005143D01*
X003990Y004984D02*
X003870Y004984D01*
X003859Y004826D02*
X004001Y004826D01*
X004081Y004667D02*
X003779Y004667D01*
X004779Y004667D02*
X005081Y004667D01*
X005001Y004826D02*
X004859Y004826D01*
X004870Y004984D02*
X004990Y004984D01*
X004990Y005143D02*
X004870Y005143D01*
X004870Y005301D02*
X004990Y005301D01*
X004990Y005460D02*
X004870Y005460D01*
X004824Y005618D02*
X005036Y005618D01*
X005164Y005777D02*
X004696Y005777D01*
X005236Y006252D02*
X003145Y006252D01*
X003345Y006411D02*
X005077Y006411D01*
X005172Y007045D02*
X003250Y007045D01*
X002064Y007362D02*
X001490Y007362D01*
X001490Y007520D02*
X001968Y007520D01*
X001940Y007679D02*
X001490Y007679D01*
X001490Y007837D02*
X001966Y007837D01*
X002061Y007996D02*
X001490Y007996D01*
X001490Y008154D02*
X005600Y008154D01*
X005745Y007996D02*
X003299Y007996D01*
X005017Y008471D02*
X001490Y008471D01*
X001490Y008313D02*
X005175Y008313D01*
X005688Y007045D02*
X005940Y007045D01*
X005934Y006569D02*
X007284Y006569D01*
X007649Y005935D02*
X001490Y005935D01*
X001490Y005777D02*
X002164Y005777D01*
X002036Y005618D02*
X001490Y005618D01*
X001490Y005460D02*
X001990Y005460D01*
X001990Y005301D02*
X001490Y005301D01*
X001490Y005143D02*
X001990Y005143D01*
X001990Y004984D02*
X001490Y004984D01*
X001490Y004826D02*
X002001Y004826D01*
X002081Y004667D02*
X001490Y004667D01*
X005779Y004667D02*
X006081Y004667D01*
X006001Y004826D02*
X005859Y004826D01*
X005870Y004984D02*
X005990Y004984D01*
X005990Y005143D02*
X005870Y005143D01*
X005870Y005301D02*
X005990Y005301D01*
X005990Y005460D02*
X005870Y005460D01*
X005824Y005618D02*
X006036Y005618D01*
X006164Y005777D02*
X005696Y005777D01*
X006696Y005777D02*
X007164Y005777D01*
X007036Y005618D02*
X006824Y005618D01*
X006870Y005460D02*
X006990Y005460D01*
X006990Y005301D02*
X006870Y005301D01*
X006870Y005143D02*
X006990Y005143D01*
X006990Y004984D02*
X006870Y004984D01*
X006859Y004826D02*
X007001Y004826D01*
X007081Y004667D02*
X006779Y004667D01*
X011156Y008313D02*
X012050Y008313D01*
X012050Y008471D02*
X011315Y008471D01*
X011350Y008630D02*
X012050Y008630D01*
X012050Y008788D02*
X011350Y008788D01*
X012510Y008788D02*
X012700Y008788D01*
X012700Y008630D02*
X012510Y008630D01*
X012510Y008471D02*
X012710Y008471D01*
X012869Y008313D02*
X012510Y008313D01*
X012510Y008947D02*
X012768Y008947D01*
X012926Y009105D02*
X012510Y009105D01*
X014881Y010056D02*
X015710Y010056D01*
X015552Y010215D02*
X015040Y010215D01*
X015198Y010373D02*
X015510Y010373D01*
X015510Y010532D02*
X015357Y010532D01*
X015515Y010690D02*
X015596Y010690D01*
X015674Y010849D02*
X015755Y010849D01*
X016110Y016238D02*
X016250Y016238D01*
X016240Y016396D02*
X016120Y016396D01*
X016120Y016555D02*
X016240Y016555D01*
X016341Y016713D02*
X016019Y016713D01*
X015878Y017506D02*
X016482Y017506D01*
X016324Y017664D02*
X016036Y017664D01*
X016120Y017823D02*
X016240Y017823D01*
X016240Y017981D02*
X016120Y017981D01*
X016093Y018140D02*
X016267Y018140D01*
X016426Y018298D02*
X015934Y018298D01*
X015324Y017664D02*
X014989Y017664D01*
X014831Y017506D02*
X015482Y017506D01*
X015963Y019091D02*
X016397Y019091D01*
X016240Y019249D02*
X016120Y019249D01*
X016120Y019408D02*
X016240Y019408D01*
X016240Y019566D02*
X016120Y019566D01*
X016008Y019725D02*
X016352Y019725D01*
X017008Y019725D02*
X017299Y019725D01*
X017458Y019883D02*
X014870Y019883D01*
X014870Y020042D02*
X017616Y020042D01*
X017750Y020200D02*
X014870Y020200D01*
X014749Y020359D02*
X017788Y020359D01*
X017905Y020517D02*
X016889Y020517D01*
X016862Y020490D02*
X017120Y020748D01*
X017120Y021112D01*
X016862Y021370D01*
X016498Y021370D01*
X016240Y021112D01*
X016240Y020748D01*
X016498Y020490D01*
X016862Y020490D01*
X017048Y020676D02*
X019427Y020676D01*
X019346Y020517D02*
X018955Y020517D01*
X019072Y020359D02*
X019342Y020359D01*
X019267Y021468D02*
X019004Y021468D01*
X019108Y021627D02*
X014749Y021627D01*
X014870Y021785D02*
X017129Y021785D01*
X016927Y021944D02*
X014870Y021944D01*
X014870Y022102D02*
X015386Y022102D01*
X015498Y021990D02*
X015862Y021990D01*
X016120Y022248D01*
X016120Y022612D01*
X015862Y022870D01*
X015498Y022870D01*
X015240Y022612D01*
X015240Y022248D01*
X015498Y021990D01*
X015240Y022261D02*
X014722Y022261D01*
X014291Y022419D02*
X015240Y022419D01*
X015240Y022578D02*
X014370Y022578D01*
X014370Y022736D02*
X015364Y022736D01*
X015996Y022736D02*
X016364Y022736D01*
X016240Y022578D02*
X016120Y022578D01*
X016120Y022419D02*
X016240Y022419D01*
X016240Y022261D02*
X016120Y022261D01*
X015974Y022102D02*
X016386Y022102D01*
X017120Y022419D02*
X018963Y022419D01*
X018963Y022261D02*
X017268Y022261D01*
X017120Y022578D02*
X018963Y022578D01*
X019100Y022736D02*
X016996Y022736D01*
X017856Y021468D02*
X012476Y021468D01*
X014133Y022261D02*
X014138Y022261D01*
X014338Y022895D02*
X021829Y022895D01*
X021591Y023053D02*
X014179Y023053D01*
X015923Y021310D02*
X016437Y021310D01*
X016279Y021151D02*
X016081Y021151D01*
X016120Y020993D02*
X016240Y020993D01*
X016240Y020834D02*
X016120Y020834D01*
X016048Y020676D02*
X016312Y020676D01*
X016471Y020517D02*
X015889Y020517D01*
X015352Y019725D02*
X014722Y019725D01*
X016923Y021310D02*
X017767Y021310D01*
X017750Y021151D02*
X017081Y021151D01*
X017120Y020993D02*
X017791Y020993D01*
X017914Y020834D02*
X017120Y020834D01*
X019823Y022102D02*
X020090Y022102D01*
X019983Y022261D02*
X019922Y022261D01*
X019922Y022419D02*
X019983Y022419D01*
X019983Y022578D02*
X019922Y022578D01*
X019785Y022736D02*
X020128Y022736D01*
X022531Y022895D02*
X023120Y022895D01*
X023120Y023053D02*
X022769Y023053D01*
X022917Y023212D02*
X023120Y023212D01*
X023120Y023370D02*
X022982Y023370D01*
X023040Y023529D02*
X023120Y023529D01*
X023120Y023687D02*
X023040Y023687D01*
X023040Y023846D02*
X023120Y023846D01*
X023120Y024004D02*
X022977Y024004D01*
X022911Y024163D02*
X023120Y024163D01*
X023120Y024321D02*
X022755Y024321D01*
X019071Y016396D02*
X019057Y016396D01*
X005401Y018932D02*
X005300Y018932D01*
X004700Y019091D02*
X004142Y019091D01*
X004300Y018932D02*
X004560Y018932D01*
X004490Y018774D02*
X004370Y018774D01*
X004370Y018615D02*
X004490Y018615D01*
X004531Y018457D02*
X004329Y018457D01*
X004176Y018298D02*
X004170Y018298D01*
X004017Y018140D02*
X003510Y018140D01*
X003510Y018298D02*
X003690Y018298D01*
X003531Y018457D02*
X003510Y018457D01*
X003510Y018932D02*
X003560Y018932D01*
X003718Y019091D02*
X003395Y019091D01*
X003364Y019249D02*
X004700Y019249D01*
X004684Y018298D02*
X004690Y018298D01*
X003990Y017981D02*
X003510Y017981D01*
X003510Y017823D02*
X003990Y017823D01*
X004074Y017664D02*
X003510Y017664D01*
X003510Y017506D02*
X004232Y017506D01*
X004100Y017347D02*
X003510Y017347D01*
X003510Y017189D02*
X003990Y017189D01*
X003990Y017030D02*
X003673Y017030D01*
X003845Y016872D02*
X003991Y016872D01*
X004144Y016713D02*
X004150Y016713D01*
X004303Y016555D02*
X004557Y016555D01*
X004490Y016396D02*
X004370Y016396D01*
X004370Y016238D02*
X004490Y016238D01*
X004534Y016079D02*
X004326Y016079D01*
X004168Y015921D02*
X004692Y015921D01*
X004710Y016713D02*
X004716Y016713D01*
X003284Y019249D02*
X002980Y019249D01*
X002927Y019408D02*
X003039Y019408D01*
X002903Y019566D02*
X002801Y019566D01*
X002767Y019725D02*
X002687Y019725D01*
X001673Y019725D02*
X001490Y019725D01*
X001490Y019566D02*
X001559Y019566D01*
X001490Y021627D02*
X001651Y021627D01*
X001568Y021785D02*
X001490Y021785D01*
D20*
X002180Y022180D02*
X002680Y022180D01*
X002980Y022480D01*
X003330Y022480D01*
X003930Y021930D01*
X002680Y021180D02*
X002180Y021180D01*
X002680Y021180D02*
X003880Y020080D01*
X003930Y020055D01*
X003280Y019480D02*
X002680Y020180D01*
X002180Y020180D01*
X003280Y019480D02*
X004930Y019480D01*
X004930Y018680D01*
X004780Y017930D02*
X004430Y017930D01*
X004780Y017930D02*
X006180Y019430D01*
X007180Y019430D02*
X007180Y020080D01*
X008680Y020080D01*
X008930Y020180D01*
X009580Y021880D02*
X007780Y021880D01*
X007180Y022430D01*
X009580Y021880D02*
X011080Y020380D01*
X011680Y020380D01*
X011930Y020180D01*
X012880Y019180D02*
X012280Y018580D01*
X011080Y018580D01*
X009280Y016780D01*
X008680Y016780D01*
X007480Y015580D01*
X004180Y015580D01*
X002980Y016780D01*
X001780Y016780D01*
X001480Y016480D01*
X001480Y013180D01*
X002180Y013180D01*
X003280Y012580D02*
X003280Y015880D01*
X002980Y015880D01*
X002680Y016180D01*
X002180Y016180D01*
X003280Y017080D02*
X003280Y018880D01*
X002980Y018880D01*
X002680Y019180D01*
X002180Y019180D01*
X003280Y017080D02*
X003930Y016480D01*
X003930Y016305D01*
X004430Y017055D02*
X004780Y017380D01*
X005380Y017930D01*
X006180Y017930D01*
X007180Y017080D02*
X007480Y017080D01*
X008380Y017980D01*
X008680Y017980D01*
X008930Y018180D01*
X007180Y017080D02*
X007180Y016430D01*
X006180Y014930D02*
X005980Y014930D01*
X004430Y013480D01*
X004430Y013305D01*
X003280Y012580D02*
X003880Y011980D01*
X004780Y011980D01*
X004930Y011180D01*
X005080Y010780D02*
X003580Y010780D01*
X003280Y011080D01*
X003280Y011980D01*
X002380Y011980D01*
X002180Y012180D01*
X002180Y011180D02*
X002380Y011080D01*
X002680Y011080D01*
X003880Y009880D01*
X004780Y009880D01*
X006280Y011380D01*
X010480Y011380D01*
X012880Y013780D01*
X014430Y013780D01*
X014430Y014930D01*
X015680Y014930D02*
X014380Y013480D01*
X014080Y013480D01*
X013930Y013305D01*
X013430Y012555D02*
X013430Y012430D01*
X011980Y011080D01*
X006280Y011080D01*
X004780Y009580D01*
X003280Y009580D01*
X002680Y010180D01*
X002180Y010180D01*
X002180Y009180D02*
X002380Y008980D01*
X004480Y008980D01*
X005380Y009880D01*
X012880Y009880D01*
X013780Y010780D01*
X014080Y010780D01*
X014380Y011080D01*
X014430Y011180D01*
X015580Y011080D02*
X019180Y011080D01*
X019480Y010780D01*
X019680Y010680D01*
X019480Y012580D02*
X019680Y012680D01*
X019480Y012580D02*
X015880Y012580D01*
X015280Y011980D01*
X013180Y011980D01*
X011980Y010780D01*
X007180Y010780D01*
X006580Y010180D01*
X005080Y010780D02*
X005980Y011680D01*
X009880Y011680D01*
X009880Y014980D01*
X011680Y016780D01*
X013180Y016780D01*
X013480Y016480D01*
X013430Y016305D01*
X013930Y017055D02*
X014080Y017080D01*
X014980Y017980D01*
X015580Y017980D01*
X015680Y017930D01*
X015280Y018580D02*
X014980Y018280D01*
X013780Y018280D01*
X012580Y017080D01*
X011980Y017080D01*
X011930Y017180D01*
X011930Y016180D02*
X012280Y016180D01*
X012580Y015880D01*
X017980Y015880D01*
X018280Y015580D01*
X018580Y015580D01*
X019180Y016180D01*
X021430Y016180D01*
X021430Y017180D02*
X021280Y017380D01*
X020980Y017380D01*
X018580Y019780D01*
X018280Y019780D01*
X017080Y018580D01*
X015280Y018580D01*
X014430Y018680D02*
X014380Y018880D01*
X014080Y019180D01*
X012880Y019180D01*
X016680Y019430D02*
X016780Y019480D01*
X017380Y019480D01*
X017980Y020080D01*
X018280Y020080D01*
X018430Y020180D01*
X019180Y021880D02*
X017380Y021880D01*
X016680Y022430D01*
X019180Y021880D02*
X020980Y020080D01*
X021280Y020080D01*
X021430Y020180D01*
X015580Y011080D02*
X014080Y009580D01*
X012280Y009580D01*
X012280Y007480D01*
X011080Y006280D01*
X008380Y006280D01*
X007430Y005430D01*
X007430Y005180D01*
X007780Y006880D02*
X006230Y006880D01*
X005430Y006680D01*
X002680Y006680D01*
X005430Y008680D02*
X005980Y008080D01*
X007780Y008080D01*
X007930Y007930D01*
X008080Y007780D01*
X009580Y007780D01*
X010780Y006580D01*
X010930Y006680D01*
X007930Y006930D02*
X007780Y006880D01*
X014680Y008380D02*
X014680Y008430D01*
X014680Y008380D02*
X014980Y008380D01*
X015280Y008080D01*
X016180Y008080D01*
X016780Y008680D01*
X016180Y008080D02*
X016180Y005080D01*
X015580Y004480D01*
X015580Y002780D01*
X015430Y002180D01*
D21*
X016780Y008680D03*
X006580Y010180D03*
D22*
X006680Y012330D03*
X010180Y020330D03*
X018318Y023680D03*
X019730Y020430D03*
X004395Y003805D03*
X018293Y002055D03*
M02*
