G75*
G70*
%OFA0B0*%
%FSLAX24Y24*%
%IPPOS*%
%LPD*%
%AMOC8*
5,1,8,0,0,1.08239X$1,22.5*
%
%ADD10C,0.0000*%
%ADD11C,0.0160*%
%ADD12C,0.0060*%
%ADD13C,0.0080*%
%ADD14R,0.0750X0.0200*%
%ADD15R,0.0300X0.0200*%
%ADD16R,0.0160X0.0230*%
%ADD17R,0.0230X0.0240*%
%ADD18C,0.0120*%
%ADD19C,0.0100*%
%ADD20R,0.0240X0.0230*%
%ADD21C,0.0050*%
%ADD22R,0.0230X0.0160*%
%ADD23C,0.0070*%
%ADD24C,0.0020*%
%ADD25R,0.0300X0.4200*%
%ADD26R,0.0200X0.0750*%
%ADD27R,0.0200X0.0300*%
D10*
X016300Y002180D02*
X016302Y002230D01*
X016308Y002280D01*
X016318Y002329D01*
X016332Y002377D01*
X016349Y002424D01*
X016370Y002469D01*
X016395Y002513D01*
X016423Y002554D01*
X016455Y002593D01*
X016489Y002630D01*
X016526Y002664D01*
X016566Y002694D01*
X016608Y002721D01*
X016652Y002745D01*
X016698Y002766D01*
X016745Y002782D01*
X016793Y002795D01*
X016843Y002804D01*
X016892Y002809D01*
X016943Y002810D01*
X016993Y002807D01*
X017042Y002800D01*
X017091Y002789D01*
X017139Y002774D01*
X017185Y002756D01*
X017230Y002734D01*
X017273Y002708D01*
X017314Y002679D01*
X017353Y002647D01*
X017389Y002612D01*
X017421Y002574D01*
X017451Y002534D01*
X017478Y002491D01*
X017501Y002447D01*
X017520Y002401D01*
X017536Y002353D01*
X017548Y002304D01*
X017556Y002255D01*
X017560Y002205D01*
X017560Y002155D01*
X017556Y002105D01*
X017548Y002056D01*
X017536Y002007D01*
X017520Y001959D01*
X017501Y001913D01*
X017478Y001869D01*
X017451Y001826D01*
X017421Y001786D01*
X017389Y001748D01*
X017353Y001713D01*
X017314Y001681D01*
X017273Y001652D01*
X017230Y001626D01*
X017185Y001604D01*
X017139Y001586D01*
X017091Y001571D01*
X017042Y001560D01*
X016993Y001553D01*
X016943Y001550D01*
X016892Y001551D01*
X016843Y001556D01*
X016793Y001565D01*
X016745Y001578D01*
X016698Y001594D01*
X016652Y001615D01*
X016608Y001639D01*
X016566Y001666D01*
X016526Y001696D01*
X016489Y001730D01*
X016455Y001767D01*
X016423Y001806D01*
X016395Y001847D01*
X016370Y001891D01*
X016349Y001936D01*
X016332Y001983D01*
X016318Y002031D01*
X016308Y002080D01*
X016302Y002130D01*
X016300Y002180D01*
X021050Y011180D02*
X021052Y011230D01*
X021058Y011280D01*
X021068Y011329D01*
X021082Y011377D01*
X021099Y011424D01*
X021120Y011469D01*
X021145Y011513D01*
X021173Y011554D01*
X021205Y011593D01*
X021239Y011630D01*
X021276Y011664D01*
X021316Y011694D01*
X021358Y011721D01*
X021402Y011745D01*
X021448Y011766D01*
X021495Y011782D01*
X021543Y011795D01*
X021593Y011804D01*
X021642Y011809D01*
X021693Y011810D01*
X021743Y011807D01*
X021792Y011800D01*
X021841Y011789D01*
X021889Y011774D01*
X021935Y011756D01*
X021980Y011734D01*
X022023Y011708D01*
X022064Y011679D01*
X022103Y011647D01*
X022139Y011612D01*
X022171Y011574D01*
X022201Y011534D01*
X022228Y011491D01*
X022251Y011447D01*
X022270Y011401D01*
X022286Y011353D01*
X022298Y011304D01*
X022306Y011255D01*
X022310Y011205D01*
X022310Y011155D01*
X022306Y011105D01*
X022298Y011056D01*
X022286Y011007D01*
X022270Y010959D01*
X022251Y010913D01*
X022228Y010869D01*
X022201Y010826D01*
X022171Y010786D01*
X022139Y010748D01*
X022103Y010713D01*
X022064Y010681D01*
X022023Y010652D01*
X021980Y010626D01*
X021935Y010604D01*
X021889Y010586D01*
X021841Y010571D01*
X021792Y010560D01*
X021743Y010553D01*
X021693Y010550D01*
X021642Y010551D01*
X021593Y010556D01*
X021543Y010565D01*
X021495Y010578D01*
X021448Y010594D01*
X021402Y010615D01*
X021358Y010639D01*
X021316Y010666D01*
X021276Y010696D01*
X021239Y010730D01*
X021205Y010767D01*
X021173Y010806D01*
X021145Y010847D01*
X021120Y010891D01*
X021099Y010936D01*
X021082Y010983D01*
X021068Y011031D01*
X021058Y011080D01*
X021052Y011130D01*
X021050Y011180D01*
X021550Y023680D02*
X021552Y023730D01*
X021558Y023780D01*
X021568Y023829D01*
X021582Y023877D01*
X021599Y023924D01*
X021620Y023969D01*
X021645Y024013D01*
X021673Y024054D01*
X021705Y024093D01*
X021739Y024130D01*
X021776Y024164D01*
X021816Y024194D01*
X021858Y024221D01*
X021902Y024245D01*
X021948Y024266D01*
X021995Y024282D01*
X022043Y024295D01*
X022093Y024304D01*
X022142Y024309D01*
X022193Y024310D01*
X022243Y024307D01*
X022292Y024300D01*
X022341Y024289D01*
X022389Y024274D01*
X022435Y024256D01*
X022480Y024234D01*
X022523Y024208D01*
X022564Y024179D01*
X022603Y024147D01*
X022639Y024112D01*
X022671Y024074D01*
X022701Y024034D01*
X022728Y023991D01*
X022751Y023947D01*
X022770Y023901D01*
X022786Y023853D01*
X022798Y023804D01*
X022806Y023755D01*
X022810Y023705D01*
X022810Y023655D01*
X022806Y023605D01*
X022798Y023556D01*
X022786Y023507D01*
X022770Y023459D01*
X022751Y023413D01*
X022728Y023369D01*
X022701Y023326D01*
X022671Y023286D01*
X022639Y023248D01*
X022603Y023213D01*
X022564Y023181D01*
X022523Y023152D01*
X022480Y023126D01*
X022435Y023104D01*
X022389Y023086D01*
X022341Y023071D01*
X022292Y023060D01*
X022243Y023053D01*
X022193Y023050D01*
X022142Y023051D01*
X022093Y023056D01*
X022043Y023065D01*
X021995Y023078D01*
X021948Y023094D01*
X021902Y023115D01*
X021858Y023139D01*
X021816Y023166D01*
X021776Y023196D01*
X021739Y023230D01*
X021705Y023267D01*
X021673Y023306D01*
X021645Y023347D01*
X021620Y023391D01*
X021599Y023436D01*
X021582Y023483D01*
X021568Y023531D01*
X021558Y023580D01*
X021552Y023630D01*
X021550Y023680D01*
X002050Y023680D02*
X002052Y023730D01*
X002058Y023780D01*
X002068Y023829D01*
X002082Y023877D01*
X002099Y023924D01*
X002120Y023969D01*
X002145Y024013D01*
X002173Y024054D01*
X002205Y024093D01*
X002239Y024130D01*
X002276Y024164D01*
X002316Y024194D01*
X002358Y024221D01*
X002402Y024245D01*
X002448Y024266D01*
X002495Y024282D01*
X002543Y024295D01*
X002593Y024304D01*
X002642Y024309D01*
X002693Y024310D01*
X002743Y024307D01*
X002792Y024300D01*
X002841Y024289D01*
X002889Y024274D01*
X002935Y024256D01*
X002980Y024234D01*
X003023Y024208D01*
X003064Y024179D01*
X003103Y024147D01*
X003139Y024112D01*
X003171Y024074D01*
X003201Y024034D01*
X003228Y023991D01*
X003251Y023947D01*
X003270Y023901D01*
X003286Y023853D01*
X003298Y023804D01*
X003306Y023755D01*
X003310Y023705D01*
X003310Y023655D01*
X003306Y023605D01*
X003298Y023556D01*
X003286Y023507D01*
X003270Y023459D01*
X003251Y023413D01*
X003228Y023369D01*
X003201Y023326D01*
X003171Y023286D01*
X003139Y023248D01*
X003103Y023213D01*
X003064Y023181D01*
X003023Y023152D01*
X002980Y023126D01*
X002935Y023104D01*
X002889Y023086D01*
X002841Y023071D01*
X002792Y023060D01*
X002743Y023053D01*
X002693Y023050D01*
X002642Y023051D01*
X002593Y023056D01*
X002543Y023065D01*
X002495Y023078D01*
X002448Y023094D01*
X002402Y023115D01*
X002358Y023139D01*
X002316Y023166D01*
X002276Y023196D01*
X002239Y023230D01*
X002205Y023267D01*
X002173Y023306D01*
X002145Y023347D01*
X002120Y023391D01*
X002099Y023436D01*
X002082Y023483D01*
X002068Y023531D01*
X002058Y023580D01*
X002052Y023630D01*
X002050Y023680D01*
D11*
X001180Y001180D02*
X023430Y001180D01*
X023430Y024680D01*
X001180Y024680D01*
X001180Y001180D01*
X019460Y008710D02*
X019480Y008730D01*
X019630Y008730D01*
X019480Y008730D01*
X019460Y008710D01*
X019480Y009130D02*
X019460Y009150D01*
X019480Y009130D01*
X019580Y009130D01*
X019480Y009130D01*
D12*
X019830Y009480D02*
X019980Y009480D01*
X019980Y008380D01*
X019980Y008330D01*
X022980Y008330D01*
X022997Y008332D01*
X023014Y008336D01*
X023030Y008343D01*
X023044Y008353D01*
X023057Y008366D01*
X023067Y008380D01*
X023074Y008396D01*
X023078Y008413D01*
X023080Y008430D01*
X023080Y009430D01*
X023078Y009447D01*
X023074Y009464D01*
X023067Y009480D01*
X023057Y009494D01*
X023044Y009507D01*
X023030Y009517D01*
X023014Y009524D01*
X022997Y009528D01*
X022980Y009530D01*
X019980Y009530D01*
X019980Y009480D01*
X019830Y009480D02*
X019830Y008380D01*
X019980Y008380D01*
X020880Y008930D02*
X021080Y008930D01*
X021080Y008630D01*
X021230Y008630D02*
X021380Y008630D01*
X021380Y009230D01*
X021230Y009230D01*
X021230Y008630D01*
X021530Y008630D02*
X021530Y008930D01*
X021730Y008930D01*
X021530Y008930D02*
X021530Y009230D01*
X021080Y009230D02*
X021080Y008930D01*
X016830Y011430D02*
X016832Y011479D01*
X016838Y011527D01*
X016848Y011575D01*
X016862Y011622D01*
X016879Y011668D01*
X016900Y011712D01*
X016925Y011754D01*
X016953Y011794D01*
X016985Y011832D01*
X017019Y011867D01*
X017056Y011899D01*
X017095Y011928D01*
X017137Y011954D01*
X017181Y011976D01*
X017226Y011994D01*
X017273Y012009D01*
X017320Y012020D01*
X017369Y012027D01*
X017418Y012030D01*
X017467Y012029D01*
X017515Y012024D01*
X017564Y012015D01*
X017611Y012002D01*
X017657Y011985D01*
X017701Y011965D01*
X017744Y011941D01*
X017785Y011914D01*
X017823Y011883D01*
X017859Y011850D01*
X017891Y011814D01*
X017921Y011775D01*
X017948Y011734D01*
X017971Y011690D01*
X017990Y011645D01*
X018006Y011599D01*
X018018Y011552D01*
X018026Y011503D01*
X018030Y011454D01*
X018030Y011406D01*
X018026Y011357D01*
X018018Y011308D01*
X018006Y011261D01*
X017990Y011215D01*
X017971Y011170D01*
X017948Y011126D01*
X017921Y011085D01*
X017891Y011046D01*
X017859Y011010D01*
X017823Y010977D01*
X017785Y010946D01*
X017744Y010919D01*
X017701Y010895D01*
X017657Y010875D01*
X017611Y010858D01*
X017564Y010845D01*
X017515Y010836D01*
X017467Y010831D01*
X017418Y010830D01*
X017369Y010833D01*
X017320Y010840D01*
X017273Y010851D01*
X017226Y010866D01*
X017181Y010884D01*
X017137Y010906D01*
X017095Y010932D01*
X017056Y010961D01*
X017019Y010993D01*
X016985Y011028D01*
X016953Y011066D01*
X016925Y011106D01*
X016900Y011148D01*
X016879Y011192D01*
X016862Y011238D01*
X016848Y011285D01*
X016838Y011333D01*
X016832Y011381D01*
X016830Y011430D01*
X015330Y011430D02*
X015332Y011479D01*
X015338Y011527D01*
X015348Y011575D01*
X015362Y011622D01*
X015379Y011668D01*
X015400Y011712D01*
X015425Y011754D01*
X015453Y011794D01*
X015485Y011832D01*
X015519Y011867D01*
X015556Y011899D01*
X015595Y011928D01*
X015637Y011954D01*
X015681Y011976D01*
X015726Y011994D01*
X015773Y012009D01*
X015820Y012020D01*
X015869Y012027D01*
X015918Y012030D01*
X015967Y012029D01*
X016015Y012024D01*
X016064Y012015D01*
X016111Y012002D01*
X016157Y011985D01*
X016201Y011965D01*
X016244Y011941D01*
X016285Y011914D01*
X016323Y011883D01*
X016359Y011850D01*
X016391Y011814D01*
X016421Y011775D01*
X016448Y011734D01*
X016471Y011690D01*
X016490Y011645D01*
X016506Y011599D01*
X016518Y011552D01*
X016526Y011503D01*
X016530Y011454D01*
X016530Y011406D01*
X016526Y011357D01*
X016518Y011308D01*
X016506Y011261D01*
X016490Y011215D01*
X016471Y011170D01*
X016448Y011126D01*
X016421Y011085D01*
X016391Y011046D01*
X016359Y011010D01*
X016323Y010977D01*
X016285Y010946D01*
X016244Y010919D01*
X016201Y010895D01*
X016157Y010875D01*
X016111Y010858D01*
X016064Y010845D01*
X016015Y010836D01*
X015967Y010831D01*
X015918Y010830D01*
X015869Y010833D01*
X015820Y010840D01*
X015773Y010851D01*
X015726Y010866D01*
X015681Y010884D01*
X015637Y010906D01*
X015595Y010932D01*
X015556Y010961D01*
X015519Y010993D01*
X015485Y011028D01*
X015453Y011066D01*
X015425Y011106D01*
X015400Y011148D01*
X015379Y011192D01*
X015362Y011238D01*
X015348Y011285D01*
X015338Y011333D01*
X015332Y011381D01*
X015330Y011430D01*
X015030Y009930D02*
X017330Y009930D01*
X017330Y005930D01*
X016580Y005930D01*
X016578Y005969D01*
X016572Y006008D01*
X016563Y006046D01*
X016550Y006083D01*
X016533Y006119D01*
X016513Y006152D01*
X016489Y006184D01*
X016463Y006213D01*
X016434Y006239D01*
X016402Y006263D01*
X016369Y006283D01*
X016333Y006300D01*
X016296Y006313D01*
X016258Y006322D01*
X016219Y006328D01*
X016180Y006330D01*
X016141Y006328D01*
X016102Y006322D01*
X016064Y006313D01*
X016027Y006300D01*
X015991Y006283D01*
X015958Y006263D01*
X015926Y006239D01*
X015897Y006213D01*
X015871Y006184D01*
X015847Y006152D01*
X015827Y006119D01*
X015810Y006083D01*
X015797Y006046D01*
X015788Y006008D01*
X015782Y005969D01*
X015780Y005930D01*
X015030Y005930D01*
X015030Y009930D01*
X013780Y009030D02*
X013780Y007330D01*
X013778Y007313D01*
X013774Y007296D01*
X013767Y007280D01*
X013757Y007266D01*
X013744Y007253D01*
X013730Y007243D01*
X013714Y007236D01*
X013697Y007232D01*
X013680Y007230D01*
X012680Y007230D01*
X012663Y007232D01*
X012646Y007236D01*
X012630Y007243D01*
X012616Y007253D01*
X012603Y007266D01*
X012593Y007280D01*
X012586Y007296D01*
X012582Y007313D01*
X012580Y007330D01*
X012580Y009030D01*
X012582Y009047D01*
X012586Y009064D01*
X012593Y009080D01*
X012603Y009094D01*
X012616Y009107D01*
X012630Y009117D01*
X012646Y009124D01*
X012663Y009128D01*
X012680Y009130D01*
X013680Y009130D01*
X013697Y009128D01*
X013714Y009124D01*
X013730Y009117D01*
X013744Y009107D01*
X013757Y009094D01*
X013767Y009080D01*
X013774Y009064D01*
X013778Y009047D01*
X013780Y009030D01*
X013180Y008330D02*
X013180Y008280D01*
X013180Y008080D02*
X013180Y008030D01*
X011930Y009030D02*
X011930Y006330D01*
X011928Y006313D01*
X011924Y006296D01*
X011917Y006280D01*
X011907Y006266D01*
X011894Y006253D01*
X011880Y006243D01*
X011864Y006236D01*
X011847Y006232D01*
X011830Y006230D01*
X010030Y006230D01*
X010013Y006232D01*
X009996Y006236D01*
X009980Y006243D01*
X009966Y006253D01*
X009953Y006266D01*
X009943Y006280D01*
X009936Y006296D01*
X009932Y006313D01*
X009930Y006330D01*
X009930Y009030D01*
X009932Y009047D01*
X009936Y009064D01*
X009943Y009080D01*
X009953Y009094D01*
X009966Y009107D01*
X009980Y009117D01*
X009996Y009124D01*
X010013Y009128D01*
X010030Y009130D01*
X011830Y009130D01*
X011847Y009128D01*
X011864Y009124D01*
X011880Y009117D01*
X011894Y009107D01*
X011907Y009094D01*
X011917Y009080D01*
X011924Y009064D01*
X011928Y009047D01*
X011930Y009030D01*
X010930Y008280D02*
X010930Y007800D01*
X010930Y007550D02*
X010930Y007080D01*
X006430Y006330D02*
X006430Y009030D01*
X006428Y009047D01*
X006424Y009064D01*
X006417Y009080D01*
X006407Y009094D01*
X006394Y009107D01*
X006380Y009117D01*
X006364Y009124D01*
X006347Y009128D01*
X006330Y009130D01*
X004530Y009130D01*
X004513Y009128D01*
X004496Y009124D01*
X004480Y009117D01*
X004466Y009107D01*
X004453Y009094D01*
X004443Y009080D01*
X004436Y009064D01*
X004432Y009047D01*
X004430Y009030D01*
X004430Y006330D01*
X004432Y006313D01*
X004436Y006296D01*
X004443Y006280D01*
X004453Y006266D01*
X004466Y006253D01*
X004480Y006243D01*
X004496Y006236D01*
X004513Y006232D01*
X004530Y006230D01*
X006330Y006230D01*
X006347Y006232D01*
X006364Y006236D01*
X006380Y006243D01*
X006394Y006253D01*
X006407Y006266D01*
X006417Y006280D01*
X006424Y006296D01*
X006428Y006313D01*
X006430Y006330D01*
X005430Y007080D02*
X005430Y007560D01*
X005430Y007810D02*
X005430Y008280D01*
X003680Y008080D02*
X003680Y007780D01*
X003730Y007780D01*
X003730Y007580D01*
X003680Y007580D01*
X003680Y007280D01*
X003630Y007280D01*
X003630Y007080D01*
X003680Y007080D01*
X003680Y006780D01*
X003730Y006780D01*
X003730Y006580D01*
X003680Y006580D01*
X003680Y006280D01*
X003380Y006280D01*
X002080Y006280D01*
X001980Y006280D01*
X001980Y006430D01*
X002080Y006430D01*
X002180Y006430D01*
X002180Y006930D01*
X002080Y006930D01*
X002080Y007080D01*
X002080Y007280D01*
X003330Y007280D01*
X003230Y007180D01*
X003330Y007080D01*
X002080Y007080D01*
X002080Y006930D02*
X001980Y006930D01*
X001980Y007430D01*
X002080Y007430D01*
X002080Y007280D01*
X002080Y007430D02*
X002180Y007430D01*
X002180Y007930D01*
X002080Y007930D01*
X002080Y008080D01*
X001980Y008080D01*
X001980Y007930D01*
X002080Y007930D01*
X002080Y008080D02*
X003380Y008080D01*
X003380Y007330D01*
X003330Y007280D01*
X003330Y007080D02*
X003380Y007030D01*
X003380Y006280D01*
X002080Y006280D02*
X002080Y006430D01*
X001980Y006280D02*
X001780Y006280D01*
X001780Y007080D01*
X001830Y007080D01*
X001830Y007280D01*
X001780Y007280D01*
X001780Y008080D01*
X001980Y008080D01*
X001930Y008680D02*
X001680Y008930D01*
X001680Y009430D01*
X001930Y009680D01*
X001680Y009930D01*
X001680Y010430D01*
X001930Y010680D01*
X001680Y010930D01*
X001680Y011430D01*
X001930Y011680D01*
X001680Y011930D01*
X001680Y012430D01*
X001930Y012680D01*
X001680Y012930D01*
X001680Y013430D01*
X001930Y013680D01*
X001680Y013930D01*
X001680Y014430D01*
X001930Y014680D01*
X001680Y014930D01*
X001680Y015430D01*
X001930Y015680D01*
X001680Y015930D01*
X001680Y016430D01*
X001930Y016680D01*
X001680Y016930D01*
X001680Y017430D01*
X001930Y017680D01*
X001680Y017930D01*
X001680Y018430D01*
X001930Y018680D01*
X001680Y018930D01*
X001680Y019430D01*
X001930Y019680D01*
X001680Y019930D01*
X001680Y020430D01*
X001930Y020680D01*
X001680Y020930D01*
X001680Y021430D01*
X001930Y021680D01*
X001680Y021930D01*
X001680Y022430D01*
X001930Y022680D01*
X002430Y022680D01*
X002680Y022430D01*
X002680Y021930D01*
X002430Y021680D01*
X002680Y021430D01*
X002680Y020930D01*
X002430Y020680D01*
X001930Y020680D01*
X002430Y020680D02*
X002680Y020430D01*
X002680Y019930D01*
X002430Y019680D01*
X002680Y019430D01*
X002680Y018930D01*
X002430Y018680D01*
X002680Y018430D01*
X002680Y017930D01*
X002430Y017680D01*
X001930Y017680D01*
X002430Y017680D02*
X002680Y017430D01*
X002680Y016930D01*
X002430Y016680D01*
X002680Y016430D01*
X002680Y015930D01*
X002430Y015680D01*
X002680Y015430D01*
X002680Y014930D01*
X002430Y014680D01*
X001930Y014680D01*
X002430Y014680D02*
X002680Y014430D01*
X002680Y013930D01*
X002430Y013680D01*
X002680Y013430D01*
X002680Y012930D01*
X002430Y012680D01*
X002680Y012430D01*
X002680Y011930D01*
X002430Y011680D01*
X001930Y011680D01*
X002430Y011680D02*
X002680Y011430D01*
X002680Y010930D01*
X002430Y010680D01*
X002680Y010430D01*
X002680Y009930D01*
X002430Y009680D01*
X002680Y009430D01*
X002680Y008930D01*
X002430Y008680D01*
X001930Y008680D01*
X001930Y009680D02*
X002430Y009680D01*
X002430Y010680D02*
X001930Y010680D01*
X001930Y012680D02*
X002430Y012680D01*
X002430Y013680D02*
X001930Y013680D01*
X001930Y015680D02*
X002430Y015680D01*
X002430Y016680D02*
X001930Y016680D01*
X001930Y018680D02*
X002430Y018680D01*
X002430Y019680D02*
X001930Y019680D01*
X001930Y021680D02*
X002430Y021680D01*
X006580Y020930D02*
X006582Y020979D01*
X006588Y021027D01*
X006598Y021075D01*
X006612Y021122D01*
X006629Y021168D01*
X006650Y021212D01*
X006675Y021254D01*
X006703Y021294D01*
X006735Y021332D01*
X006769Y021367D01*
X006806Y021399D01*
X006845Y021428D01*
X006887Y021454D01*
X006931Y021476D01*
X006976Y021494D01*
X007023Y021509D01*
X007070Y021520D01*
X007119Y021527D01*
X007168Y021530D01*
X007217Y021529D01*
X007265Y021524D01*
X007314Y021515D01*
X007361Y021502D01*
X007407Y021485D01*
X007451Y021465D01*
X007494Y021441D01*
X007535Y021414D01*
X007573Y021383D01*
X007609Y021350D01*
X007641Y021314D01*
X007671Y021275D01*
X007698Y021234D01*
X007721Y021190D01*
X007740Y021145D01*
X007756Y021099D01*
X007768Y021052D01*
X007776Y021003D01*
X007780Y020954D01*
X007780Y020906D01*
X007776Y020857D01*
X007768Y020808D01*
X007756Y020761D01*
X007740Y020715D01*
X007721Y020670D01*
X007698Y020626D01*
X007671Y020585D01*
X007641Y020546D01*
X007609Y020510D01*
X007573Y020477D01*
X007535Y020446D01*
X007494Y020419D01*
X007451Y020395D01*
X007407Y020375D01*
X007361Y020358D01*
X007314Y020345D01*
X007265Y020336D01*
X007217Y020331D01*
X007168Y020330D01*
X007119Y020333D01*
X007070Y020340D01*
X007023Y020351D01*
X006976Y020366D01*
X006931Y020384D01*
X006887Y020406D01*
X006845Y020432D01*
X006806Y020461D01*
X006769Y020493D01*
X006735Y020528D01*
X006703Y020566D01*
X006675Y020606D01*
X006650Y020648D01*
X006629Y020692D01*
X006612Y020738D01*
X006598Y020785D01*
X006588Y020833D01*
X006582Y020881D01*
X006580Y020930D01*
X006580Y022430D02*
X006582Y022479D01*
X006588Y022527D01*
X006598Y022575D01*
X006612Y022622D01*
X006629Y022668D01*
X006650Y022712D01*
X006675Y022754D01*
X006703Y022794D01*
X006735Y022832D01*
X006769Y022867D01*
X006806Y022899D01*
X006845Y022928D01*
X006887Y022954D01*
X006931Y022976D01*
X006976Y022994D01*
X007023Y023009D01*
X007070Y023020D01*
X007119Y023027D01*
X007168Y023030D01*
X007217Y023029D01*
X007265Y023024D01*
X007314Y023015D01*
X007361Y023002D01*
X007407Y022985D01*
X007451Y022965D01*
X007494Y022941D01*
X007535Y022914D01*
X007573Y022883D01*
X007609Y022850D01*
X007641Y022814D01*
X007671Y022775D01*
X007698Y022734D01*
X007721Y022690D01*
X007740Y022645D01*
X007756Y022599D01*
X007768Y022552D01*
X007776Y022503D01*
X007780Y022454D01*
X007780Y022406D01*
X007776Y022357D01*
X007768Y022308D01*
X007756Y022261D01*
X007740Y022215D01*
X007721Y022170D01*
X007698Y022126D01*
X007671Y022085D01*
X007641Y022046D01*
X007609Y022010D01*
X007573Y021977D01*
X007535Y021946D01*
X007494Y021919D01*
X007451Y021895D01*
X007407Y021875D01*
X007361Y021858D01*
X007314Y021845D01*
X007265Y021836D01*
X007217Y021831D01*
X007168Y021830D01*
X007119Y021833D01*
X007070Y021840D01*
X007023Y021851D01*
X006976Y021866D01*
X006931Y021884D01*
X006887Y021906D01*
X006845Y021932D01*
X006806Y021961D01*
X006769Y021993D01*
X006735Y022028D01*
X006703Y022066D01*
X006675Y022106D01*
X006650Y022148D01*
X006629Y022192D01*
X006612Y022238D01*
X006598Y022285D01*
X006588Y022333D01*
X006582Y022381D01*
X006580Y022430D01*
X007680Y023465D02*
X007680Y024106D01*
X008000Y024106D01*
X008107Y023999D01*
X008107Y023785D01*
X008000Y023679D01*
X007680Y023679D01*
X007894Y023679D02*
X008107Y023465D01*
X008538Y023465D02*
X008538Y024106D01*
X008325Y024106D02*
X008752Y024106D01*
X008969Y023999D02*
X008969Y023572D01*
X009076Y023465D01*
X009289Y023465D01*
X009396Y023572D01*
X009396Y023999D02*
X009289Y024106D01*
X009076Y024106D01*
X008969Y023999D01*
X009530Y022980D02*
X011230Y022980D01*
X011247Y022978D01*
X011264Y022974D01*
X011280Y022967D01*
X011294Y022957D01*
X011307Y022944D01*
X011317Y022930D01*
X011324Y022914D01*
X011328Y022897D01*
X011330Y022880D01*
X011330Y021880D01*
X011328Y021863D01*
X011324Y021846D01*
X011317Y021830D01*
X011307Y021816D01*
X011294Y021803D01*
X011280Y021793D01*
X011264Y021786D01*
X011247Y021782D01*
X011230Y021780D01*
X009530Y021780D01*
X009513Y021782D01*
X009496Y021786D01*
X009480Y021793D01*
X009466Y021803D01*
X009453Y021816D01*
X009443Y021830D01*
X009436Y021846D01*
X009432Y021863D01*
X009430Y021880D01*
X009430Y022880D01*
X009432Y022897D01*
X009436Y022914D01*
X009443Y022930D01*
X009453Y022944D01*
X009466Y022957D01*
X009480Y022967D01*
X009496Y022974D01*
X009513Y022978D01*
X009530Y022980D01*
X010230Y022380D02*
X010280Y022380D01*
X010480Y022380D02*
X010530Y022380D01*
X010830Y021680D02*
X010828Y021641D01*
X010822Y021602D01*
X010813Y021564D01*
X010800Y021527D01*
X010783Y021491D01*
X010763Y021458D01*
X010739Y021426D01*
X010713Y021397D01*
X010684Y021371D01*
X010652Y021347D01*
X010619Y021327D01*
X010583Y021310D01*
X010546Y021297D01*
X010508Y021288D01*
X010469Y021282D01*
X010430Y021280D01*
X010391Y021282D01*
X010352Y021288D01*
X010314Y021297D01*
X010277Y021310D01*
X010241Y021327D01*
X010208Y021347D01*
X010176Y021371D01*
X010147Y021397D01*
X010121Y021426D01*
X010097Y021458D01*
X010077Y021491D01*
X010060Y021527D01*
X010047Y021564D01*
X010038Y021602D01*
X010032Y021641D01*
X010030Y021680D01*
X009280Y021680D01*
X009280Y013680D01*
X011580Y013680D01*
X011580Y021680D01*
X010830Y021680D01*
X011977Y023251D02*
X011977Y023892D01*
X012297Y023892D01*
X012404Y023785D01*
X012404Y023572D01*
X012297Y023465D01*
X011977Y023465D01*
X011759Y023572D02*
X011653Y023679D01*
X011439Y023679D01*
X011332Y023785D01*
X011439Y023892D01*
X011759Y023892D01*
X011759Y023572D02*
X011653Y023465D01*
X011332Y023465D01*
X011116Y023465D02*
X010903Y023465D01*
X011010Y023465D02*
X011010Y023892D01*
X010903Y023892D01*
X011010Y024106D02*
X011010Y024212D01*
X010685Y023999D02*
X010578Y024106D01*
X010258Y024106D01*
X010258Y023465D01*
X010578Y023465D01*
X010685Y023572D01*
X010685Y023999D01*
X012622Y024106D02*
X012728Y024106D01*
X012728Y023465D01*
X012622Y023465D02*
X012835Y023465D01*
X013051Y023572D02*
X013158Y023679D01*
X013478Y023679D01*
X013478Y023785D02*
X013478Y023465D01*
X013158Y023465D01*
X013051Y023572D01*
X013372Y023892D02*
X013478Y023785D01*
X013372Y023892D02*
X013158Y023892D01*
X013696Y023892D02*
X013696Y023572D01*
X013803Y023465D01*
X014123Y023465D01*
X014123Y023358D02*
X014016Y023251D01*
X013909Y023251D01*
X014123Y023358D02*
X014123Y023892D01*
X014985Y023892D02*
X015198Y023465D01*
X015412Y023892D01*
X015629Y023892D02*
X015843Y024106D01*
X015843Y023465D01*
X016056Y023465D02*
X015629Y023465D01*
X016274Y023465D02*
X016381Y023465D01*
X016381Y023572D01*
X016274Y023572D01*
X016274Y023465D01*
X016596Y023572D02*
X017023Y023999D01*
X017023Y023572D01*
X016917Y023465D01*
X016703Y023465D01*
X016596Y023572D01*
X016596Y023999D01*
X016703Y024106D01*
X016917Y024106D01*
X017023Y023999D01*
X016080Y022430D02*
X016082Y022479D01*
X016088Y022527D01*
X016098Y022575D01*
X016112Y022622D01*
X016129Y022668D01*
X016150Y022712D01*
X016175Y022754D01*
X016203Y022794D01*
X016235Y022832D01*
X016269Y022867D01*
X016306Y022899D01*
X016345Y022928D01*
X016387Y022954D01*
X016431Y022976D01*
X016476Y022994D01*
X016523Y023009D01*
X016570Y023020D01*
X016619Y023027D01*
X016668Y023030D01*
X016717Y023029D01*
X016765Y023024D01*
X016814Y023015D01*
X016861Y023002D01*
X016907Y022985D01*
X016951Y022965D01*
X016994Y022941D01*
X017035Y022914D01*
X017073Y022883D01*
X017109Y022850D01*
X017141Y022814D01*
X017171Y022775D01*
X017198Y022734D01*
X017221Y022690D01*
X017240Y022645D01*
X017256Y022599D01*
X017268Y022552D01*
X017276Y022503D01*
X017280Y022454D01*
X017280Y022406D01*
X017276Y022357D01*
X017268Y022308D01*
X017256Y022261D01*
X017240Y022215D01*
X017221Y022170D01*
X017198Y022126D01*
X017171Y022085D01*
X017141Y022046D01*
X017109Y022010D01*
X017073Y021977D01*
X017035Y021946D01*
X016994Y021919D01*
X016951Y021895D01*
X016907Y021875D01*
X016861Y021858D01*
X016814Y021845D01*
X016765Y021836D01*
X016717Y021831D01*
X016668Y021830D01*
X016619Y021833D01*
X016570Y021840D01*
X016523Y021851D01*
X016476Y021866D01*
X016431Y021884D01*
X016387Y021906D01*
X016345Y021932D01*
X016306Y021961D01*
X016269Y021993D01*
X016235Y022028D01*
X016203Y022066D01*
X016175Y022106D01*
X016150Y022148D01*
X016129Y022192D01*
X016112Y022238D01*
X016098Y022285D01*
X016088Y022333D01*
X016082Y022381D01*
X016080Y022430D01*
X016080Y020930D02*
X016082Y020979D01*
X016088Y021027D01*
X016098Y021075D01*
X016112Y021122D01*
X016129Y021168D01*
X016150Y021212D01*
X016175Y021254D01*
X016203Y021294D01*
X016235Y021332D01*
X016269Y021367D01*
X016306Y021399D01*
X016345Y021428D01*
X016387Y021454D01*
X016431Y021476D01*
X016476Y021494D01*
X016523Y021509D01*
X016570Y021520D01*
X016619Y021527D01*
X016668Y021530D01*
X016717Y021529D01*
X016765Y021524D01*
X016814Y021515D01*
X016861Y021502D01*
X016907Y021485D01*
X016951Y021465D01*
X016994Y021441D01*
X017035Y021414D01*
X017073Y021383D01*
X017109Y021350D01*
X017141Y021314D01*
X017171Y021275D01*
X017198Y021234D01*
X017221Y021190D01*
X017240Y021145D01*
X017256Y021099D01*
X017268Y021052D01*
X017276Y021003D01*
X017280Y020954D01*
X017280Y020906D01*
X017276Y020857D01*
X017268Y020808D01*
X017256Y020761D01*
X017240Y020715D01*
X017221Y020670D01*
X017198Y020626D01*
X017171Y020585D01*
X017141Y020546D01*
X017109Y020510D01*
X017073Y020477D01*
X017035Y020446D01*
X016994Y020419D01*
X016951Y020395D01*
X016907Y020375D01*
X016861Y020358D01*
X016814Y020345D01*
X016765Y020336D01*
X016717Y020331D01*
X016668Y020330D01*
X016619Y020333D01*
X016570Y020340D01*
X016523Y020351D01*
X016476Y020366D01*
X016431Y020384D01*
X016387Y020406D01*
X016345Y020432D01*
X016306Y020461D01*
X016269Y020493D01*
X016235Y020528D01*
X016203Y020566D01*
X016175Y020606D01*
X016150Y020648D01*
X016129Y020692D01*
X016112Y020738D01*
X016098Y020785D01*
X016088Y020833D01*
X016082Y020881D01*
X016080Y020930D01*
X016080Y019430D02*
X016082Y019479D01*
X016088Y019527D01*
X016098Y019575D01*
X016112Y019622D01*
X016129Y019668D01*
X016150Y019712D01*
X016175Y019754D01*
X016203Y019794D01*
X016235Y019832D01*
X016269Y019867D01*
X016306Y019899D01*
X016345Y019928D01*
X016387Y019954D01*
X016431Y019976D01*
X016476Y019994D01*
X016523Y020009D01*
X016570Y020020D01*
X016619Y020027D01*
X016668Y020030D01*
X016717Y020029D01*
X016765Y020024D01*
X016814Y020015D01*
X016861Y020002D01*
X016907Y019985D01*
X016951Y019965D01*
X016994Y019941D01*
X017035Y019914D01*
X017073Y019883D01*
X017109Y019850D01*
X017141Y019814D01*
X017171Y019775D01*
X017198Y019734D01*
X017221Y019690D01*
X017240Y019645D01*
X017256Y019599D01*
X017268Y019552D01*
X017276Y019503D01*
X017280Y019454D01*
X017280Y019406D01*
X017276Y019357D01*
X017268Y019308D01*
X017256Y019261D01*
X017240Y019215D01*
X017221Y019170D01*
X017198Y019126D01*
X017171Y019085D01*
X017141Y019046D01*
X017109Y019010D01*
X017073Y018977D01*
X017035Y018946D01*
X016994Y018919D01*
X016951Y018895D01*
X016907Y018875D01*
X016861Y018858D01*
X016814Y018845D01*
X016765Y018836D01*
X016717Y018831D01*
X016668Y018830D01*
X016619Y018833D01*
X016570Y018840D01*
X016523Y018851D01*
X016476Y018866D01*
X016431Y018884D01*
X016387Y018906D01*
X016345Y018932D01*
X016306Y018961D01*
X016269Y018993D01*
X016235Y019028D01*
X016203Y019066D01*
X016175Y019106D01*
X016150Y019148D01*
X016129Y019192D01*
X016112Y019238D01*
X016098Y019285D01*
X016088Y019333D01*
X016082Y019381D01*
X016080Y019430D01*
X016080Y017930D02*
X016082Y017979D01*
X016088Y018027D01*
X016098Y018075D01*
X016112Y018122D01*
X016129Y018168D01*
X016150Y018212D01*
X016175Y018254D01*
X016203Y018294D01*
X016235Y018332D01*
X016269Y018367D01*
X016306Y018399D01*
X016345Y018428D01*
X016387Y018454D01*
X016431Y018476D01*
X016476Y018494D01*
X016523Y018509D01*
X016570Y018520D01*
X016619Y018527D01*
X016668Y018530D01*
X016717Y018529D01*
X016765Y018524D01*
X016814Y018515D01*
X016861Y018502D01*
X016907Y018485D01*
X016951Y018465D01*
X016994Y018441D01*
X017035Y018414D01*
X017073Y018383D01*
X017109Y018350D01*
X017141Y018314D01*
X017171Y018275D01*
X017198Y018234D01*
X017221Y018190D01*
X017240Y018145D01*
X017256Y018099D01*
X017268Y018052D01*
X017276Y018003D01*
X017280Y017954D01*
X017280Y017906D01*
X017276Y017857D01*
X017268Y017808D01*
X017256Y017761D01*
X017240Y017715D01*
X017221Y017670D01*
X017198Y017626D01*
X017171Y017585D01*
X017141Y017546D01*
X017109Y017510D01*
X017073Y017477D01*
X017035Y017446D01*
X016994Y017419D01*
X016951Y017395D01*
X016907Y017375D01*
X016861Y017358D01*
X016814Y017345D01*
X016765Y017336D01*
X016717Y017331D01*
X016668Y017330D01*
X016619Y017333D01*
X016570Y017340D01*
X016523Y017351D01*
X016476Y017366D01*
X016431Y017384D01*
X016387Y017406D01*
X016345Y017432D01*
X016306Y017461D01*
X016269Y017493D01*
X016235Y017528D01*
X016203Y017566D01*
X016175Y017606D01*
X016150Y017648D01*
X016129Y017692D01*
X016112Y017738D01*
X016098Y017785D01*
X016088Y017833D01*
X016082Y017881D01*
X016080Y017930D01*
X016080Y016430D02*
X016082Y016479D01*
X016088Y016527D01*
X016098Y016575D01*
X016112Y016622D01*
X016129Y016668D01*
X016150Y016712D01*
X016175Y016754D01*
X016203Y016794D01*
X016235Y016832D01*
X016269Y016867D01*
X016306Y016899D01*
X016345Y016928D01*
X016387Y016954D01*
X016431Y016976D01*
X016476Y016994D01*
X016523Y017009D01*
X016570Y017020D01*
X016619Y017027D01*
X016668Y017030D01*
X016717Y017029D01*
X016765Y017024D01*
X016814Y017015D01*
X016861Y017002D01*
X016907Y016985D01*
X016951Y016965D01*
X016994Y016941D01*
X017035Y016914D01*
X017073Y016883D01*
X017109Y016850D01*
X017141Y016814D01*
X017171Y016775D01*
X017198Y016734D01*
X017221Y016690D01*
X017240Y016645D01*
X017256Y016599D01*
X017268Y016552D01*
X017276Y016503D01*
X017280Y016454D01*
X017280Y016406D01*
X017276Y016357D01*
X017268Y016308D01*
X017256Y016261D01*
X017240Y016215D01*
X017221Y016170D01*
X017198Y016126D01*
X017171Y016085D01*
X017141Y016046D01*
X017109Y016010D01*
X017073Y015977D01*
X017035Y015946D01*
X016994Y015919D01*
X016951Y015895D01*
X016907Y015875D01*
X016861Y015858D01*
X016814Y015845D01*
X016765Y015836D01*
X016717Y015831D01*
X016668Y015830D01*
X016619Y015833D01*
X016570Y015840D01*
X016523Y015851D01*
X016476Y015866D01*
X016431Y015884D01*
X016387Y015906D01*
X016345Y015932D01*
X016306Y015961D01*
X016269Y015993D01*
X016235Y016028D01*
X016203Y016066D01*
X016175Y016106D01*
X016150Y016148D01*
X016129Y016192D01*
X016112Y016238D01*
X016098Y016285D01*
X016088Y016333D01*
X016082Y016381D01*
X016080Y016430D01*
X016080Y014930D02*
X016082Y014979D01*
X016088Y015027D01*
X016098Y015075D01*
X016112Y015122D01*
X016129Y015168D01*
X016150Y015212D01*
X016175Y015254D01*
X016203Y015294D01*
X016235Y015332D01*
X016269Y015367D01*
X016306Y015399D01*
X016345Y015428D01*
X016387Y015454D01*
X016431Y015476D01*
X016476Y015494D01*
X016523Y015509D01*
X016570Y015520D01*
X016619Y015527D01*
X016668Y015530D01*
X016717Y015529D01*
X016765Y015524D01*
X016814Y015515D01*
X016861Y015502D01*
X016907Y015485D01*
X016951Y015465D01*
X016994Y015441D01*
X017035Y015414D01*
X017073Y015383D01*
X017109Y015350D01*
X017141Y015314D01*
X017171Y015275D01*
X017198Y015234D01*
X017221Y015190D01*
X017240Y015145D01*
X017256Y015099D01*
X017268Y015052D01*
X017276Y015003D01*
X017280Y014954D01*
X017280Y014906D01*
X017276Y014857D01*
X017268Y014808D01*
X017256Y014761D01*
X017240Y014715D01*
X017221Y014670D01*
X017198Y014626D01*
X017171Y014585D01*
X017141Y014546D01*
X017109Y014510D01*
X017073Y014477D01*
X017035Y014446D01*
X016994Y014419D01*
X016951Y014395D01*
X016907Y014375D01*
X016861Y014358D01*
X016814Y014345D01*
X016765Y014336D01*
X016717Y014331D01*
X016668Y014330D01*
X016619Y014333D01*
X016570Y014340D01*
X016523Y014351D01*
X016476Y014366D01*
X016431Y014384D01*
X016387Y014406D01*
X016345Y014432D01*
X016306Y014461D01*
X016269Y014493D01*
X016235Y014528D01*
X016203Y014566D01*
X016175Y014606D01*
X016150Y014648D01*
X016129Y014692D01*
X016112Y014738D01*
X016098Y014785D01*
X016088Y014833D01*
X016082Y014881D01*
X016080Y014930D01*
X016080Y013430D02*
X016082Y013479D01*
X016088Y013527D01*
X016098Y013575D01*
X016112Y013622D01*
X016129Y013668D01*
X016150Y013712D01*
X016175Y013754D01*
X016203Y013794D01*
X016235Y013832D01*
X016269Y013867D01*
X016306Y013899D01*
X016345Y013928D01*
X016387Y013954D01*
X016431Y013976D01*
X016476Y013994D01*
X016523Y014009D01*
X016570Y014020D01*
X016619Y014027D01*
X016668Y014030D01*
X016717Y014029D01*
X016765Y014024D01*
X016814Y014015D01*
X016861Y014002D01*
X016907Y013985D01*
X016951Y013965D01*
X016994Y013941D01*
X017035Y013914D01*
X017073Y013883D01*
X017109Y013850D01*
X017141Y013814D01*
X017171Y013775D01*
X017198Y013734D01*
X017221Y013690D01*
X017240Y013645D01*
X017256Y013599D01*
X017268Y013552D01*
X017276Y013503D01*
X017280Y013454D01*
X017280Y013406D01*
X017276Y013357D01*
X017268Y013308D01*
X017256Y013261D01*
X017240Y013215D01*
X017221Y013170D01*
X017198Y013126D01*
X017171Y013085D01*
X017141Y013046D01*
X017109Y013010D01*
X017073Y012977D01*
X017035Y012946D01*
X016994Y012919D01*
X016951Y012895D01*
X016907Y012875D01*
X016861Y012858D01*
X016814Y012845D01*
X016765Y012836D01*
X016717Y012831D01*
X016668Y012830D01*
X016619Y012833D01*
X016570Y012840D01*
X016523Y012851D01*
X016476Y012866D01*
X016431Y012884D01*
X016387Y012906D01*
X016345Y012932D01*
X016306Y012961D01*
X016269Y012993D01*
X016235Y013028D01*
X016203Y013066D01*
X016175Y013106D01*
X016150Y013148D01*
X016129Y013192D01*
X016112Y013238D01*
X016098Y013285D01*
X016088Y013333D01*
X016082Y013381D01*
X016080Y013430D01*
X018780Y013680D02*
X021080Y013680D01*
X021080Y021680D01*
X020330Y021680D01*
X020328Y021641D01*
X020322Y021602D01*
X020313Y021564D01*
X020300Y021527D01*
X020283Y021491D01*
X020263Y021458D01*
X020239Y021426D01*
X020213Y021397D01*
X020184Y021371D01*
X020152Y021347D01*
X020119Y021327D01*
X020083Y021310D01*
X020046Y021297D01*
X020008Y021288D01*
X019969Y021282D01*
X019930Y021280D01*
X019891Y021282D01*
X019852Y021288D01*
X019814Y021297D01*
X019777Y021310D01*
X019741Y021327D01*
X019708Y021347D01*
X019676Y021371D01*
X019647Y021397D01*
X019621Y021426D01*
X019597Y021458D01*
X019577Y021491D01*
X019560Y021527D01*
X019547Y021564D01*
X019538Y021602D01*
X019532Y021641D01*
X019530Y021680D01*
X018780Y021680D01*
X018780Y013680D01*
X022183Y012711D02*
X022289Y012711D01*
X022503Y012711D02*
X022930Y012711D01*
X022930Y012605D02*
X022930Y012818D01*
X022930Y013034D02*
X022930Y013248D01*
X022930Y013141D02*
X022289Y013141D01*
X022289Y013034D01*
X022610Y013464D02*
X022503Y013571D01*
X022503Y013891D01*
X022716Y013784D02*
X022716Y013571D01*
X022610Y013464D01*
X022930Y013464D02*
X022930Y013784D01*
X022823Y013891D01*
X022716Y013784D01*
X022610Y014108D02*
X022503Y014215D01*
X022503Y014429D01*
X022610Y014536D01*
X022823Y014536D01*
X022930Y014429D01*
X022930Y014215D01*
X022823Y014108D01*
X022610Y014108D01*
X022503Y014753D02*
X022503Y015073D01*
X022610Y015180D01*
X022930Y015180D01*
X022930Y015398D02*
X022930Y015718D01*
X022823Y015825D01*
X022610Y015825D01*
X022503Y015718D01*
X022503Y015398D01*
X022289Y015398D02*
X022930Y015398D01*
X022930Y014753D02*
X022503Y014753D01*
X022396Y016042D02*
X022289Y016149D01*
X022289Y016362D01*
X022396Y016469D01*
X022610Y016469D01*
X022716Y016362D01*
X022503Y016362D01*
X022503Y016149D01*
X022716Y016149D01*
X022716Y016362D01*
X022823Y016469D02*
X022930Y016362D01*
X022930Y016149D01*
X022823Y016042D01*
X022396Y016042D01*
X022610Y016687D02*
X022503Y016793D01*
X022503Y017007D01*
X022610Y017114D01*
X022823Y017114D01*
X022930Y017007D01*
X022930Y016793D01*
X022823Y016687D01*
X022610Y016687D01*
X022503Y017331D02*
X022823Y017331D01*
X022930Y017438D01*
X022930Y017758D01*
X022503Y017758D01*
X022503Y017976D02*
X022503Y018189D01*
X022396Y018083D02*
X022823Y018083D01*
X022930Y018189D01*
X022930Y018405D02*
X022930Y018619D01*
X022930Y018512D02*
X022289Y018512D01*
X022289Y018405D01*
X022610Y018835D02*
X022503Y018942D01*
X022503Y019155D01*
X022610Y019262D01*
X022823Y019262D01*
X022930Y019155D01*
X022930Y018942D01*
X022823Y018835D01*
X022610Y018835D01*
X022610Y019480D02*
X022823Y019480D01*
X022930Y019587D01*
X022930Y019800D01*
X022823Y019907D01*
X022610Y019907D01*
X022503Y019800D01*
X022503Y019587D01*
X022610Y019480D01*
X022716Y020124D02*
X022503Y020445D01*
X022716Y020124D02*
X022930Y020445D01*
X022930Y020661D02*
X022823Y020661D01*
X022823Y020768D01*
X022930Y020768D01*
X022930Y020661D01*
X022823Y020984D02*
X022930Y021090D01*
X022930Y021411D01*
X022823Y021628D02*
X022930Y021735D01*
X022930Y021949D01*
X022823Y022055D01*
X022610Y022055D01*
X022503Y021949D01*
X022503Y021735D01*
X022610Y021628D01*
X022823Y021628D01*
X022503Y021411D02*
X022503Y021090D01*
X022610Y020984D01*
X022823Y020984D01*
X022930Y020124D02*
X022289Y020124D01*
X020793Y021800D02*
X019093Y021800D01*
X019076Y021802D01*
X019059Y021806D01*
X019043Y021813D01*
X019029Y021823D01*
X019016Y021836D01*
X019006Y021850D01*
X018999Y021866D01*
X018995Y021883D01*
X018993Y021900D01*
X018993Y022900D01*
X018995Y022917D01*
X018999Y022934D01*
X019006Y022950D01*
X019016Y022964D01*
X019029Y022977D01*
X019043Y022987D01*
X019059Y022994D01*
X019076Y022998D01*
X019093Y023000D01*
X020793Y023000D01*
X020810Y022998D01*
X020827Y022994D01*
X020843Y022987D01*
X020857Y022977D01*
X020870Y022964D01*
X020880Y022950D01*
X020887Y022934D01*
X020891Y022917D01*
X020893Y022900D01*
X020893Y021900D01*
X020891Y021883D01*
X020887Y021866D01*
X020880Y021850D01*
X020870Y021836D01*
X020857Y021823D01*
X020843Y021813D01*
X020827Y021806D01*
X020810Y021802D01*
X020793Y021800D01*
X020093Y022400D02*
X020043Y022400D01*
X019843Y022400D02*
X019793Y022400D01*
X022503Y022380D02*
X022610Y022486D01*
X022503Y022593D01*
X022610Y022700D01*
X022930Y022700D01*
X022930Y022486D02*
X022610Y022486D01*
X022503Y022380D02*
X022503Y022273D01*
X022930Y022273D01*
X022503Y012711D02*
X022503Y012605D01*
X022503Y012387D02*
X022823Y012387D01*
X022930Y012280D01*
X022823Y012174D01*
X022930Y012067D01*
X022823Y011960D01*
X022503Y011960D01*
X017380Y005030D02*
X016380Y005030D01*
X016363Y005028D01*
X016346Y005024D01*
X016330Y005017D01*
X016316Y005007D01*
X016303Y004994D01*
X016293Y004980D01*
X016286Y004964D01*
X016282Y004947D01*
X016280Y004930D01*
X016280Y003230D01*
X016282Y003213D01*
X016286Y003196D01*
X016293Y003180D01*
X016303Y003166D01*
X016316Y003153D01*
X016330Y003143D01*
X016346Y003136D01*
X016363Y003132D01*
X016380Y003130D01*
X017380Y003130D01*
X017397Y003132D01*
X017414Y003136D01*
X017430Y003143D01*
X017444Y003153D01*
X017457Y003166D01*
X017467Y003180D01*
X017474Y003196D01*
X017478Y003213D01*
X017480Y003230D01*
X017480Y004930D01*
X017478Y004947D01*
X017474Y004964D01*
X017467Y004980D01*
X017457Y004994D01*
X017444Y005007D01*
X017430Y005017D01*
X017414Y005024D01*
X017397Y005028D01*
X017380Y005030D01*
X016880Y004230D02*
X016880Y004180D01*
X016880Y003980D02*
X016880Y003930D01*
X015930Y004180D02*
X015930Y004680D01*
X015880Y004680D02*
X001930Y004680D01*
X001930Y002680D01*
X015930Y002680D01*
X015930Y003180D01*
X015886Y003182D01*
X015843Y003188D01*
X015801Y003197D01*
X015759Y003210D01*
X015719Y003227D01*
X015680Y003247D01*
X015643Y003270D01*
X015609Y003297D01*
X015576Y003326D01*
X015547Y003359D01*
X015520Y003393D01*
X015497Y003430D01*
X015477Y003469D01*
X015460Y003509D01*
X015447Y003551D01*
X015438Y003593D01*
X015432Y003636D01*
X015430Y003680D01*
X015432Y003724D01*
X015438Y003767D01*
X015447Y003809D01*
X015460Y003851D01*
X015477Y003891D01*
X015497Y003930D01*
X015520Y003967D01*
X015547Y004001D01*
X015576Y004034D01*
X015609Y004063D01*
X015643Y004090D01*
X015680Y004113D01*
X015719Y004133D01*
X015759Y004150D01*
X015801Y004163D01*
X015843Y004172D01*
X015886Y004178D01*
X015930Y004180D01*
X006580Y013430D02*
X006582Y013479D01*
X006588Y013527D01*
X006598Y013575D01*
X006612Y013622D01*
X006629Y013668D01*
X006650Y013712D01*
X006675Y013754D01*
X006703Y013794D01*
X006735Y013832D01*
X006769Y013867D01*
X006806Y013899D01*
X006845Y013928D01*
X006887Y013954D01*
X006931Y013976D01*
X006976Y013994D01*
X007023Y014009D01*
X007070Y014020D01*
X007119Y014027D01*
X007168Y014030D01*
X007217Y014029D01*
X007265Y014024D01*
X007314Y014015D01*
X007361Y014002D01*
X007407Y013985D01*
X007451Y013965D01*
X007494Y013941D01*
X007535Y013914D01*
X007573Y013883D01*
X007609Y013850D01*
X007641Y013814D01*
X007671Y013775D01*
X007698Y013734D01*
X007721Y013690D01*
X007740Y013645D01*
X007756Y013599D01*
X007768Y013552D01*
X007776Y013503D01*
X007780Y013454D01*
X007780Y013406D01*
X007776Y013357D01*
X007768Y013308D01*
X007756Y013261D01*
X007740Y013215D01*
X007721Y013170D01*
X007698Y013126D01*
X007671Y013085D01*
X007641Y013046D01*
X007609Y013010D01*
X007573Y012977D01*
X007535Y012946D01*
X007494Y012919D01*
X007451Y012895D01*
X007407Y012875D01*
X007361Y012858D01*
X007314Y012845D01*
X007265Y012836D01*
X007217Y012831D01*
X007168Y012830D01*
X007119Y012833D01*
X007070Y012840D01*
X007023Y012851D01*
X006976Y012866D01*
X006931Y012884D01*
X006887Y012906D01*
X006845Y012932D01*
X006806Y012961D01*
X006769Y012993D01*
X006735Y013028D01*
X006703Y013066D01*
X006675Y013106D01*
X006650Y013148D01*
X006629Y013192D01*
X006612Y013238D01*
X006598Y013285D01*
X006588Y013333D01*
X006582Y013381D01*
X006580Y013430D01*
X006580Y014930D02*
X006582Y014979D01*
X006588Y015027D01*
X006598Y015075D01*
X006612Y015122D01*
X006629Y015168D01*
X006650Y015212D01*
X006675Y015254D01*
X006703Y015294D01*
X006735Y015332D01*
X006769Y015367D01*
X006806Y015399D01*
X006845Y015428D01*
X006887Y015454D01*
X006931Y015476D01*
X006976Y015494D01*
X007023Y015509D01*
X007070Y015520D01*
X007119Y015527D01*
X007168Y015530D01*
X007217Y015529D01*
X007265Y015524D01*
X007314Y015515D01*
X007361Y015502D01*
X007407Y015485D01*
X007451Y015465D01*
X007494Y015441D01*
X007535Y015414D01*
X007573Y015383D01*
X007609Y015350D01*
X007641Y015314D01*
X007671Y015275D01*
X007698Y015234D01*
X007721Y015190D01*
X007740Y015145D01*
X007756Y015099D01*
X007768Y015052D01*
X007776Y015003D01*
X007780Y014954D01*
X007780Y014906D01*
X007776Y014857D01*
X007768Y014808D01*
X007756Y014761D01*
X007740Y014715D01*
X007721Y014670D01*
X007698Y014626D01*
X007671Y014585D01*
X007641Y014546D01*
X007609Y014510D01*
X007573Y014477D01*
X007535Y014446D01*
X007494Y014419D01*
X007451Y014395D01*
X007407Y014375D01*
X007361Y014358D01*
X007314Y014345D01*
X007265Y014336D01*
X007217Y014331D01*
X007168Y014330D01*
X007119Y014333D01*
X007070Y014340D01*
X007023Y014351D01*
X006976Y014366D01*
X006931Y014384D01*
X006887Y014406D01*
X006845Y014432D01*
X006806Y014461D01*
X006769Y014493D01*
X006735Y014528D01*
X006703Y014566D01*
X006675Y014606D01*
X006650Y014648D01*
X006629Y014692D01*
X006612Y014738D01*
X006598Y014785D01*
X006588Y014833D01*
X006582Y014881D01*
X006580Y014930D01*
X006580Y016430D02*
X006582Y016479D01*
X006588Y016527D01*
X006598Y016575D01*
X006612Y016622D01*
X006629Y016668D01*
X006650Y016712D01*
X006675Y016754D01*
X006703Y016794D01*
X006735Y016832D01*
X006769Y016867D01*
X006806Y016899D01*
X006845Y016928D01*
X006887Y016954D01*
X006931Y016976D01*
X006976Y016994D01*
X007023Y017009D01*
X007070Y017020D01*
X007119Y017027D01*
X007168Y017030D01*
X007217Y017029D01*
X007265Y017024D01*
X007314Y017015D01*
X007361Y017002D01*
X007407Y016985D01*
X007451Y016965D01*
X007494Y016941D01*
X007535Y016914D01*
X007573Y016883D01*
X007609Y016850D01*
X007641Y016814D01*
X007671Y016775D01*
X007698Y016734D01*
X007721Y016690D01*
X007740Y016645D01*
X007756Y016599D01*
X007768Y016552D01*
X007776Y016503D01*
X007780Y016454D01*
X007780Y016406D01*
X007776Y016357D01*
X007768Y016308D01*
X007756Y016261D01*
X007740Y016215D01*
X007721Y016170D01*
X007698Y016126D01*
X007671Y016085D01*
X007641Y016046D01*
X007609Y016010D01*
X007573Y015977D01*
X007535Y015946D01*
X007494Y015919D01*
X007451Y015895D01*
X007407Y015875D01*
X007361Y015858D01*
X007314Y015845D01*
X007265Y015836D01*
X007217Y015831D01*
X007168Y015830D01*
X007119Y015833D01*
X007070Y015840D01*
X007023Y015851D01*
X006976Y015866D01*
X006931Y015884D01*
X006887Y015906D01*
X006845Y015932D01*
X006806Y015961D01*
X006769Y015993D01*
X006735Y016028D01*
X006703Y016066D01*
X006675Y016106D01*
X006650Y016148D01*
X006629Y016192D01*
X006612Y016238D01*
X006598Y016285D01*
X006588Y016333D01*
X006582Y016381D01*
X006580Y016430D01*
X006580Y017930D02*
X006582Y017979D01*
X006588Y018027D01*
X006598Y018075D01*
X006612Y018122D01*
X006629Y018168D01*
X006650Y018212D01*
X006675Y018254D01*
X006703Y018294D01*
X006735Y018332D01*
X006769Y018367D01*
X006806Y018399D01*
X006845Y018428D01*
X006887Y018454D01*
X006931Y018476D01*
X006976Y018494D01*
X007023Y018509D01*
X007070Y018520D01*
X007119Y018527D01*
X007168Y018530D01*
X007217Y018529D01*
X007265Y018524D01*
X007314Y018515D01*
X007361Y018502D01*
X007407Y018485D01*
X007451Y018465D01*
X007494Y018441D01*
X007535Y018414D01*
X007573Y018383D01*
X007609Y018350D01*
X007641Y018314D01*
X007671Y018275D01*
X007698Y018234D01*
X007721Y018190D01*
X007740Y018145D01*
X007756Y018099D01*
X007768Y018052D01*
X007776Y018003D01*
X007780Y017954D01*
X007780Y017906D01*
X007776Y017857D01*
X007768Y017808D01*
X007756Y017761D01*
X007740Y017715D01*
X007721Y017670D01*
X007698Y017626D01*
X007671Y017585D01*
X007641Y017546D01*
X007609Y017510D01*
X007573Y017477D01*
X007535Y017446D01*
X007494Y017419D01*
X007451Y017395D01*
X007407Y017375D01*
X007361Y017358D01*
X007314Y017345D01*
X007265Y017336D01*
X007217Y017331D01*
X007168Y017330D01*
X007119Y017333D01*
X007070Y017340D01*
X007023Y017351D01*
X006976Y017366D01*
X006931Y017384D01*
X006887Y017406D01*
X006845Y017432D01*
X006806Y017461D01*
X006769Y017493D01*
X006735Y017528D01*
X006703Y017566D01*
X006675Y017606D01*
X006650Y017648D01*
X006629Y017692D01*
X006612Y017738D01*
X006598Y017785D01*
X006588Y017833D01*
X006582Y017881D01*
X006580Y017930D01*
X006580Y019430D02*
X006582Y019479D01*
X006588Y019527D01*
X006598Y019575D01*
X006612Y019622D01*
X006629Y019668D01*
X006650Y019712D01*
X006675Y019754D01*
X006703Y019794D01*
X006735Y019832D01*
X006769Y019867D01*
X006806Y019899D01*
X006845Y019928D01*
X006887Y019954D01*
X006931Y019976D01*
X006976Y019994D01*
X007023Y020009D01*
X007070Y020020D01*
X007119Y020027D01*
X007168Y020030D01*
X007217Y020029D01*
X007265Y020024D01*
X007314Y020015D01*
X007361Y020002D01*
X007407Y019985D01*
X007451Y019965D01*
X007494Y019941D01*
X007535Y019914D01*
X007573Y019883D01*
X007609Y019850D01*
X007641Y019814D01*
X007671Y019775D01*
X007698Y019734D01*
X007721Y019690D01*
X007740Y019645D01*
X007756Y019599D01*
X007768Y019552D01*
X007776Y019503D01*
X007780Y019454D01*
X007780Y019406D01*
X007776Y019357D01*
X007768Y019308D01*
X007756Y019261D01*
X007740Y019215D01*
X007721Y019170D01*
X007698Y019126D01*
X007671Y019085D01*
X007641Y019046D01*
X007609Y019010D01*
X007573Y018977D01*
X007535Y018946D01*
X007494Y018919D01*
X007451Y018895D01*
X007407Y018875D01*
X007361Y018858D01*
X007314Y018845D01*
X007265Y018836D01*
X007217Y018831D01*
X007168Y018830D01*
X007119Y018833D01*
X007070Y018840D01*
X007023Y018851D01*
X006976Y018866D01*
X006931Y018884D01*
X006887Y018906D01*
X006845Y018932D01*
X006806Y018961D01*
X006769Y018993D01*
X006735Y019028D01*
X006703Y019066D01*
X006675Y019106D01*
X006650Y019148D01*
X006629Y019192D01*
X006612Y019238D01*
X006598Y019285D01*
X006588Y019333D01*
X006582Y019381D01*
X006580Y019430D01*
X003680Y008080D02*
X003380Y008080D01*
X003190Y007840D02*
X003190Y007510D01*
X003190Y007840D01*
X003080Y007730D01*
X003190Y007840D01*
X003080Y007510D02*
X003300Y007510D01*
X003080Y007510D01*
D13*
X003330Y007280D02*
X003380Y007330D01*
X003380Y008080D01*
X002080Y008080D01*
X001980Y008080D01*
X001980Y007930D01*
X002080Y007930D01*
X002180Y007930D01*
X002180Y007430D01*
X002080Y007430D01*
X002080Y007280D01*
X003330Y007280D01*
X003230Y007180D01*
X003330Y007080D01*
X002080Y007080D01*
X002080Y007280D01*
X002080Y007430D02*
X001980Y007430D01*
X001980Y006930D01*
X002080Y006930D01*
X002080Y007080D01*
X002080Y006930D02*
X002180Y006930D01*
X002180Y006430D01*
X002080Y006430D01*
X002080Y006280D01*
X001980Y006280D01*
X001980Y006430D01*
X002080Y006430D01*
X002080Y006280D02*
X003380Y006280D01*
X003680Y006280D01*
X003680Y006580D01*
X003730Y006580D01*
X003730Y006780D01*
X003680Y006780D01*
X003680Y007080D01*
X003630Y007080D01*
X003630Y007280D01*
X003680Y007280D01*
X003680Y007580D01*
X003730Y007580D01*
X003730Y007780D01*
X003680Y007780D01*
X003680Y008080D01*
X003380Y008080D01*
X003330Y007080D02*
X003380Y007030D01*
X003380Y006280D01*
X004430Y006330D02*
X004430Y009030D01*
X004432Y009047D01*
X004436Y009064D01*
X004443Y009080D01*
X004453Y009094D01*
X004466Y009107D01*
X004480Y009117D01*
X004496Y009124D01*
X004513Y009128D01*
X004530Y009130D01*
X006330Y009130D01*
X006347Y009128D01*
X006364Y009124D01*
X006380Y009117D01*
X006394Y009107D01*
X006407Y009094D01*
X006417Y009080D01*
X006424Y009064D01*
X006428Y009047D01*
X006430Y009030D01*
X006430Y006330D01*
X006428Y006313D01*
X006424Y006296D01*
X006417Y006280D01*
X006407Y006266D01*
X006394Y006253D01*
X006380Y006243D01*
X006364Y006236D01*
X006347Y006232D01*
X006330Y006230D01*
X004530Y006230D01*
X004513Y006232D01*
X004496Y006236D01*
X004480Y006243D01*
X004466Y006253D01*
X004453Y006266D01*
X004443Y006280D01*
X004436Y006296D01*
X004432Y006313D01*
X004430Y006330D01*
X004432Y006313D01*
X004436Y006296D01*
X004443Y006280D01*
X004453Y006266D01*
X004466Y006253D01*
X004480Y006243D01*
X004496Y006236D01*
X004513Y006232D01*
X004530Y006230D01*
X005430Y007080D02*
X005430Y007560D01*
X005430Y007810D02*
X005430Y008280D01*
X004530Y009130D02*
X004513Y009128D01*
X004496Y009124D01*
X004480Y009117D01*
X004466Y009107D01*
X004453Y009094D01*
X004443Y009080D01*
X004436Y009064D01*
X004432Y009047D01*
X004430Y009030D01*
X002680Y008930D02*
X002430Y008680D01*
X001930Y008680D01*
X001680Y008930D01*
X001680Y009430D01*
X001930Y009680D01*
X001680Y009930D01*
X001680Y010430D01*
X001930Y010680D01*
X001680Y010930D01*
X001680Y011430D01*
X001930Y011680D01*
X001680Y011930D01*
X001680Y012430D01*
X001930Y012680D01*
X001680Y012930D01*
X001680Y013430D01*
X001930Y013680D01*
X001680Y013930D01*
X001680Y014430D01*
X001930Y014680D01*
X001680Y014930D01*
X001680Y015430D01*
X001930Y015680D01*
X001680Y015930D01*
X001680Y016430D01*
X001930Y016680D01*
X001680Y016930D01*
X001680Y017430D01*
X001930Y017680D01*
X001680Y017930D01*
X001680Y018430D01*
X001930Y018680D01*
X001680Y018930D01*
X001680Y019430D01*
X001930Y019680D01*
X001680Y019930D01*
X001680Y020430D01*
X001930Y020680D01*
X001680Y020930D01*
X001680Y021430D01*
X001930Y021680D01*
X001680Y021930D01*
X001680Y022430D01*
X001930Y022680D01*
X002430Y022680D01*
X002680Y022430D01*
X002680Y021930D01*
X002430Y021680D01*
X002680Y021430D01*
X002680Y020930D01*
X002430Y020680D01*
X001930Y020680D01*
X002430Y020680D02*
X002680Y020430D01*
X002680Y019930D01*
X002430Y019680D01*
X002680Y019430D01*
X002680Y018930D01*
X002430Y018680D01*
X002680Y018430D01*
X002680Y017930D01*
X002430Y017680D01*
X001930Y017680D01*
X002430Y017680D02*
X002680Y017430D01*
X002680Y016930D01*
X002430Y016680D01*
X002680Y016430D01*
X002680Y015930D01*
X002430Y015680D01*
X002680Y015430D01*
X002680Y014930D01*
X002430Y014680D01*
X001930Y014680D01*
X002430Y014680D02*
X002680Y014430D01*
X002680Y013930D01*
X002430Y013680D01*
X002680Y013430D01*
X002680Y012930D01*
X002430Y012680D01*
X002680Y012430D01*
X002680Y011930D01*
X002430Y011680D01*
X001930Y011680D01*
X002430Y011680D02*
X002680Y011430D01*
X002680Y010930D01*
X002430Y010680D01*
X002680Y010430D01*
X002680Y009930D01*
X002430Y009680D01*
X002680Y009430D01*
X002680Y008930D01*
X002430Y009680D02*
X001930Y009680D01*
X001930Y010680D02*
X002430Y010680D01*
X003385Y011280D02*
X003543Y011280D01*
X003605Y011830D02*
X005255Y011830D01*
X005255Y011905D02*
X003605Y011905D01*
X003543Y012455D02*
X003385Y012455D01*
X003385Y012455D01*
X002430Y012680D02*
X001930Y012680D01*
X001930Y013680D02*
X002430Y013680D01*
X003385Y015030D02*
X003543Y015030D01*
X003605Y015580D02*
X005255Y015580D01*
X005255Y015655D02*
X003605Y015655D01*
X003543Y016205D02*
X003385Y016205D01*
X003385Y016205D01*
X002430Y016680D02*
X001930Y016680D01*
X001930Y015680D02*
X002430Y015680D01*
X004317Y016205D02*
X004543Y016205D01*
X003605Y015655D02*
X003570Y015703D01*
X003537Y015753D01*
X003506Y015805D01*
X003479Y015859D01*
X003455Y015914D01*
X003435Y015971D01*
X003417Y016028D01*
X003403Y016086D01*
X003392Y016145D01*
X003385Y016205D01*
X003392Y016145D01*
X003403Y016086D01*
X003417Y016028D01*
X003435Y015971D01*
X003455Y015914D01*
X003479Y015859D01*
X003506Y015805D01*
X003537Y015753D01*
X003570Y015703D01*
X003605Y015655D01*
X004317Y015030D02*
X004543Y015030D01*
X005255Y015580D02*
X005290Y015532D01*
X005323Y015482D01*
X005354Y015430D01*
X005381Y015376D01*
X005405Y015321D01*
X005425Y015264D01*
X005443Y015207D01*
X005457Y015149D01*
X005468Y015090D01*
X005475Y015030D01*
X005475Y015030D01*
X005317Y015030D01*
X004120Y013927D02*
X004060Y013947D01*
X004001Y013971D01*
X003944Y013999D01*
X003889Y014030D01*
X003835Y014065D01*
X003784Y014102D01*
X003735Y014143D01*
X003689Y014187D01*
X003645Y014233D01*
X003604Y014282D01*
X003566Y014333D01*
X003532Y014386D01*
X003500Y014442D01*
X003473Y014499D01*
X003448Y014558D01*
X003428Y014618D01*
X003410Y014679D01*
X003397Y014741D01*
X003388Y014804D01*
X003382Y014867D01*
X003380Y014931D01*
X003382Y014995D01*
X003388Y015058D01*
X003397Y015121D01*
X003411Y015183D01*
X003428Y015244D01*
X003449Y015304D01*
X003473Y015363D01*
X003501Y015420D01*
X003533Y015476D01*
X003568Y015529D01*
X003605Y015580D01*
X005255Y015580D02*
X005290Y015532D01*
X005323Y015482D01*
X005354Y015430D01*
X005381Y015376D01*
X005405Y015321D01*
X005425Y015264D01*
X005443Y015207D01*
X005457Y015149D01*
X005468Y015090D01*
X005475Y015030D01*
X004120Y013927D02*
X004060Y013947D01*
X004001Y013971D01*
X003944Y013999D01*
X003889Y014030D01*
X003835Y014065D01*
X003784Y014102D01*
X003735Y014143D01*
X003689Y014187D01*
X003645Y014233D01*
X003604Y014282D01*
X003566Y014333D01*
X003532Y014386D01*
X003500Y014442D01*
X003473Y014499D01*
X003448Y014558D01*
X003428Y014618D01*
X003410Y014679D01*
X003397Y014741D01*
X003388Y014804D01*
X003382Y014867D01*
X003380Y014931D01*
X003382Y014995D01*
X003388Y015058D01*
X003397Y015121D01*
X003411Y015183D01*
X003428Y015244D01*
X003449Y015304D01*
X003473Y015363D01*
X003501Y015420D01*
X003533Y015476D01*
X003568Y015529D01*
X003605Y015580D01*
X005475Y015030D02*
X005479Y014968D01*
X005480Y014905D01*
X005476Y014843D01*
X005469Y014781D01*
X005459Y014720D01*
X005444Y014659D01*
X005426Y014599D01*
X005405Y014540D01*
X005380Y014483D01*
X005352Y014428D01*
X005321Y014374D01*
X005286Y014322D01*
X005248Y014272D01*
X005208Y014225D01*
X005164Y014180D01*
X005119Y014137D01*
X005070Y014098D01*
X005020Y014061D01*
X004967Y014028D01*
X004913Y013997D01*
X004856Y013970D01*
X004799Y013947D01*
X004740Y013927D01*
X004799Y013947D01*
X004856Y013970D01*
X004913Y013997D01*
X004967Y014028D01*
X005020Y014061D01*
X005070Y014098D01*
X005119Y014137D01*
X005164Y014180D01*
X005208Y014225D01*
X005248Y014272D01*
X005286Y014322D01*
X005321Y014374D01*
X005352Y014428D01*
X005380Y014483D01*
X005405Y014540D01*
X005426Y014599D01*
X005444Y014659D01*
X005459Y014720D01*
X005469Y014781D01*
X005476Y014843D01*
X005480Y014905D01*
X005479Y014968D01*
X005475Y015030D01*
X005475Y016205D02*
X005317Y016205D01*
X005255Y015655D02*
X005292Y015706D01*
X005327Y015759D01*
X005359Y015815D01*
X005387Y015872D01*
X005411Y015931D01*
X005432Y015991D01*
X005449Y016052D01*
X005463Y016114D01*
X005472Y016177D01*
X005478Y016240D01*
X005480Y016304D01*
X005478Y016368D01*
X005472Y016431D01*
X005463Y016494D01*
X005450Y016556D01*
X005432Y016617D01*
X005412Y016677D01*
X005387Y016736D01*
X005360Y016793D01*
X005328Y016849D01*
X005294Y016902D01*
X005256Y016953D01*
X005215Y017002D01*
X005171Y017048D01*
X005125Y017092D01*
X005076Y017133D01*
X005025Y017170D01*
X004971Y017205D01*
X004916Y017236D01*
X004859Y017264D01*
X004800Y017288D01*
X004740Y017308D01*
X004120Y017308D02*
X004061Y017288D01*
X004004Y017265D01*
X003947Y017238D01*
X003893Y017207D01*
X003840Y017174D01*
X003790Y017137D01*
X003741Y017098D01*
X003696Y017055D01*
X003652Y017010D01*
X003612Y016963D01*
X003574Y016913D01*
X003539Y016861D01*
X003508Y016807D01*
X003480Y016752D01*
X003455Y016695D01*
X003434Y016636D01*
X003416Y016576D01*
X003401Y016515D01*
X003391Y016454D01*
X003384Y016392D01*
X003380Y016330D01*
X003381Y016267D01*
X003385Y016205D01*
X004740Y017308D02*
X004800Y017288D01*
X004859Y017264D01*
X004916Y017236D01*
X004971Y017205D01*
X005025Y017170D01*
X005076Y017133D01*
X005125Y017092D01*
X005171Y017048D01*
X005215Y017002D01*
X005256Y016953D01*
X005294Y016902D01*
X005328Y016849D01*
X005360Y016793D01*
X005387Y016736D01*
X005412Y016677D01*
X005432Y016617D01*
X005450Y016556D01*
X005463Y016494D01*
X005472Y016431D01*
X005478Y016368D01*
X005480Y016304D01*
X005478Y016240D01*
X005472Y016177D01*
X005463Y016114D01*
X005449Y016052D01*
X005432Y015991D01*
X005411Y015931D01*
X005387Y015872D01*
X005359Y015815D01*
X005327Y015759D01*
X005292Y015706D01*
X005255Y015655D01*
X003385Y016205D02*
X003381Y016267D01*
X003380Y016330D01*
X003384Y016392D01*
X003391Y016454D01*
X003401Y016515D01*
X003416Y016576D01*
X003434Y016636D01*
X003455Y016695D01*
X003480Y016752D01*
X003508Y016807D01*
X003539Y016861D01*
X003574Y016913D01*
X003612Y016963D01*
X003652Y017010D01*
X003696Y017055D01*
X003741Y017098D01*
X003790Y017137D01*
X003840Y017174D01*
X003893Y017207D01*
X003947Y017238D01*
X004004Y017265D01*
X004061Y017288D01*
X004120Y017308D01*
X004740Y017677D02*
X004799Y017697D01*
X004856Y017720D01*
X004913Y017747D01*
X004967Y017778D01*
X005020Y017811D01*
X005070Y017848D01*
X005119Y017887D01*
X005164Y017930D01*
X005208Y017975D01*
X005248Y018022D01*
X005286Y018072D01*
X005321Y018124D01*
X005352Y018178D01*
X005380Y018233D01*
X005405Y018290D01*
X005426Y018349D01*
X005444Y018409D01*
X005459Y018470D01*
X005469Y018531D01*
X005476Y018593D01*
X005480Y018655D01*
X005479Y018718D01*
X005475Y018780D01*
X005475Y018780D01*
X005317Y018780D01*
X005255Y019330D02*
X003605Y019330D01*
X003605Y019405D02*
X005255Y019405D01*
X005317Y019955D02*
X005475Y019955D01*
X004543Y019955D02*
X004317Y019955D01*
X003605Y019405D02*
X003570Y019453D01*
X003537Y019503D01*
X003506Y019555D01*
X003479Y019609D01*
X003455Y019664D01*
X003435Y019721D01*
X003417Y019778D01*
X003403Y019836D01*
X003392Y019895D01*
X003385Y019955D01*
X003385Y019955D01*
X003543Y019955D01*
X003385Y019955D02*
X003392Y019895D01*
X003403Y019836D01*
X003417Y019778D01*
X003435Y019721D01*
X003455Y019664D01*
X003479Y019609D01*
X003506Y019555D01*
X003537Y019503D01*
X003570Y019453D01*
X003605Y019405D01*
X003543Y018780D02*
X003385Y018780D01*
X002430Y018680D02*
X001930Y018680D01*
X001930Y019680D02*
X002430Y019680D01*
X004740Y021058D02*
X004800Y021038D01*
X004859Y021014D01*
X004916Y020986D01*
X004971Y020955D01*
X005025Y020920D01*
X005076Y020883D01*
X005125Y020842D01*
X005171Y020798D01*
X005215Y020752D01*
X005256Y020703D01*
X005294Y020652D01*
X005328Y020599D01*
X005360Y020543D01*
X005387Y020486D01*
X005412Y020427D01*
X005432Y020367D01*
X005450Y020306D01*
X005463Y020244D01*
X005472Y020181D01*
X005478Y020118D01*
X005480Y020054D01*
X005478Y019990D01*
X005472Y019927D01*
X005463Y019864D01*
X005449Y019802D01*
X005432Y019741D01*
X005411Y019681D01*
X005387Y019622D01*
X005359Y019565D01*
X005327Y019509D01*
X005292Y019456D01*
X005255Y019405D01*
X004543Y018780D02*
X004317Y018780D01*
X005255Y019330D02*
X005290Y019282D01*
X005323Y019232D01*
X005354Y019180D01*
X005381Y019126D01*
X005405Y019071D01*
X005425Y019014D01*
X005443Y018957D01*
X005457Y018899D01*
X005468Y018840D01*
X005475Y018780D01*
X004120Y017677D02*
X004060Y017697D01*
X004001Y017721D01*
X003944Y017749D01*
X003889Y017780D01*
X003835Y017815D01*
X003784Y017852D01*
X003735Y017893D01*
X003689Y017937D01*
X003645Y017983D01*
X003604Y018032D01*
X003566Y018083D01*
X003532Y018136D01*
X003500Y018192D01*
X003473Y018249D01*
X003448Y018308D01*
X003428Y018368D01*
X003410Y018429D01*
X003397Y018491D01*
X003388Y018554D01*
X003382Y018617D01*
X003380Y018681D01*
X003382Y018745D01*
X003388Y018808D01*
X003397Y018871D01*
X003411Y018933D01*
X003428Y018994D01*
X003449Y019054D01*
X003473Y019113D01*
X003501Y019170D01*
X003533Y019226D01*
X003568Y019279D01*
X003605Y019330D01*
X005255Y019405D02*
X005292Y019456D01*
X005327Y019509D01*
X005359Y019565D01*
X005387Y019622D01*
X005411Y019681D01*
X005432Y019741D01*
X005449Y019802D01*
X005463Y019864D01*
X005472Y019927D01*
X005478Y019990D01*
X005480Y020054D01*
X005478Y020118D01*
X005472Y020181D01*
X005463Y020244D01*
X005450Y020306D01*
X005432Y020367D01*
X005412Y020427D01*
X005387Y020486D01*
X005360Y020543D01*
X005328Y020599D01*
X005294Y020652D01*
X005256Y020703D01*
X005215Y020752D01*
X005171Y020798D01*
X005125Y020842D01*
X005076Y020883D01*
X005025Y020920D01*
X004971Y020955D01*
X004916Y020986D01*
X004859Y021014D01*
X004800Y021038D01*
X004740Y021058D01*
X005255Y021280D02*
X003605Y021280D01*
X003543Y021830D02*
X003385Y021830D01*
X003385Y021830D01*
X002430Y021680D02*
X001930Y021680D01*
X004317Y021830D02*
X004543Y021830D01*
X003605Y021280D02*
X003570Y021328D01*
X003537Y021378D01*
X003506Y021430D01*
X003479Y021484D01*
X003455Y021539D01*
X003435Y021596D01*
X003417Y021653D01*
X003403Y021711D01*
X003392Y021770D01*
X003385Y021830D01*
X003392Y021770D01*
X003403Y021711D01*
X003417Y021653D01*
X003435Y021596D01*
X003455Y021539D01*
X003479Y021484D01*
X003506Y021430D01*
X003537Y021378D01*
X003570Y021328D01*
X003605Y021280D01*
X005255Y021280D02*
X005292Y021331D01*
X005327Y021384D01*
X005359Y021440D01*
X005387Y021497D01*
X005411Y021556D01*
X005432Y021616D01*
X005449Y021677D01*
X005463Y021739D01*
X005472Y021802D01*
X005478Y021865D01*
X005480Y021929D01*
X005478Y021993D01*
X005472Y022056D01*
X005463Y022119D01*
X005450Y022181D01*
X005432Y022242D01*
X005412Y022302D01*
X005387Y022361D01*
X005360Y022418D01*
X005328Y022474D01*
X005294Y022527D01*
X005256Y022578D01*
X005215Y022627D01*
X005171Y022673D01*
X005125Y022717D01*
X005076Y022758D01*
X005025Y022795D01*
X004971Y022830D01*
X004916Y022861D01*
X004859Y022889D01*
X004800Y022913D01*
X004740Y022933D01*
X004120Y022933D02*
X004061Y022913D01*
X004004Y022890D01*
X003947Y022863D01*
X003893Y022832D01*
X003840Y022799D01*
X003790Y022762D01*
X003741Y022723D01*
X003696Y022680D01*
X003652Y022635D01*
X003612Y022588D01*
X003574Y022538D01*
X003539Y022486D01*
X003508Y022432D01*
X003480Y022377D01*
X003455Y022320D01*
X003434Y022261D01*
X003416Y022201D01*
X003401Y022140D01*
X003391Y022079D01*
X003384Y022017D01*
X003380Y021955D01*
X003381Y021892D01*
X003385Y021830D01*
X004740Y022933D02*
X004800Y022913D01*
X004859Y022889D01*
X004916Y022861D01*
X004971Y022830D01*
X005025Y022795D01*
X005076Y022758D01*
X005125Y022717D01*
X005171Y022673D01*
X005215Y022627D01*
X005256Y022578D01*
X005294Y022527D01*
X005328Y022474D01*
X005360Y022418D01*
X005387Y022361D01*
X005412Y022302D01*
X005432Y022242D01*
X005450Y022181D01*
X005463Y022119D01*
X005472Y022056D01*
X005478Y021993D01*
X005480Y021929D01*
X005478Y021865D01*
X005472Y021802D01*
X005463Y021739D01*
X005449Y021677D01*
X005432Y021616D01*
X005411Y021556D01*
X005387Y021497D01*
X005359Y021440D01*
X005327Y021384D01*
X005292Y021331D01*
X005255Y021280D01*
X005317Y021830D02*
X005475Y021830D01*
X004120Y022933D02*
X004061Y022913D01*
X004004Y022890D01*
X003947Y022863D01*
X003893Y022832D01*
X003840Y022799D01*
X003790Y022762D01*
X003741Y022723D01*
X003696Y022680D01*
X003652Y022635D01*
X003612Y022588D01*
X003574Y022538D01*
X003539Y022486D01*
X003508Y022432D01*
X003480Y022377D01*
X003455Y022320D01*
X003434Y022261D01*
X003416Y022201D01*
X003401Y022140D01*
X003391Y022079D01*
X003384Y022017D01*
X003380Y021955D01*
X003381Y021892D01*
X003385Y021830D01*
X004120Y021058D02*
X004061Y021038D01*
X004004Y021015D01*
X003947Y020988D01*
X003893Y020957D01*
X003840Y020924D01*
X003790Y020887D01*
X003741Y020848D01*
X003696Y020805D01*
X003652Y020760D01*
X003612Y020713D01*
X003574Y020663D01*
X003539Y020611D01*
X003508Y020557D01*
X003480Y020502D01*
X003455Y020445D01*
X003434Y020386D01*
X003416Y020326D01*
X003401Y020265D01*
X003391Y020204D01*
X003384Y020142D01*
X003380Y020080D01*
X003381Y020017D01*
X003385Y019955D01*
X003381Y020017D01*
X003380Y020080D01*
X003384Y020142D01*
X003391Y020204D01*
X003401Y020265D01*
X003416Y020326D01*
X003434Y020386D01*
X003455Y020445D01*
X003480Y020502D01*
X003508Y020557D01*
X003539Y020611D01*
X003574Y020663D01*
X003612Y020713D01*
X003652Y020760D01*
X003696Y020805D01*
X003741Y020848D01*
X003790Y020887D01*
X003840Y020924D01*
X003893Y020957D01*
X003947Y020988D01*
X004004Y021015D01*
X004061Y021038D01*
X004120Y021058D01*
X005255Y019330D02*
X005290Y019282D01*
X005323Y019232D01*
X005354Y019180D01*
X005381Y019126D01*
X005405Y019071D01*
X005425Y019014D01*
X005443Y018957D01*
X005457Y018899D01*
X005468Y018840D01*
X005475Y018780D01*
X004120Y017677D02*
X004060Y017697D01*
X004001Y017721D01*
X003944Y017749D01*
X003889Y017780D01*
X003835Y017815D01*
X003784Y017852D01*
X003735Y017893D01*
X003689Y017937D01*
X003645Y017983D01*
X003604Y018032D01*
X003566Y018083D01*
X003532Y018136D01*
X003500Y018192D01*
X003473Y018249D01*
X003448Y018308D01*
X003428Y018368D01*
X003410Y018429D01*
X003397Y018491D01*
X003388Y018554D01*
X003382Y018617D01*
X003380Y018681D01*
X003382Y018745D01*
X003388Y018808D01*
X003397Y018871D01*
X003411Y018933D01*
X003428Y018994D01*
X003449Y019054D01*
X003473Y019113D01*
X003501Y019170D01*
X003533Y019226D01*
X003568Y019279D01*
X003605Y019330D01*
X005475Y018780D02*
X005479Y018718D01*
X005480Y018655D01*
X005476Y018593D01*
X005469Y018531D01*
X005459Y018470D01*
X005444Y018409D01*
X005426Y018349D01*
X005405Y018290D01*
X005380Y018233D01*
X005352Y018178D01*
X005321Y018124D01*
X005286Y018072D01*
X005248Y018022D01*
X005208Y017975D01*
X005164Y017930D01*
X005119Y017887D01*
X005070Y017848D01*
X005020Y017811D01*
X004967Y017778D01*
X004913Y017747D01*
X004856Y017720D01*
X004799Y017697D01*
X004740Y017677D01*
X006580Y017930D02*
X006582Y017979D01*
X006588Y018027D01*
X006598Y018075D01*
X006612Y018122D01*
X006629Y018168D01*
X006650Y018212D01*
X006675Y018254D01*
X006703Y018294D01*
X006735Y018332D01*
X006769Y018367D01*
X006806Y018399D01*
X006845Y018428D01*
X006887Y018454D01*
X006931Y018476D01*
X006976Y018494D01*
X007023Y018509D01*
X007070Y018520D01*
X007119Y018527D01*
X007168Y018530D01*
X007217Y018529D01*
X007265Y018524D01*
X007314Y018515D01*
X007361Y018502D01*
X007407Y018485D01*
X007451Y018465D01*
X007494Y018441D01*
X007535Y018414D01*
X007573Y018383D01*
X007609Y018350D01*
X007641Y018314D01*
X007671Y018275D01*
X007698Y018234D01*
X007721Y018190D01*
X007740Y018145D01*
X007756Y018099D01*
X007768Y018052D01*
X007776Y018003D01*
X007780Y017954D01*
X007780Y017906D01*
X007776Y017857D01*
X007768Y017808D01*
X007756Y017761D01*
X007740Y017715D01*
X007721Y017670D01*
X007698Y017626D01*
X007671Y017585D01*
X007641Y017546D01*
X007609Y017510D01*
X007573Y017477D01*
X007535Y017446D01*
X007494Y017419D01*
X007451Y017395D01*
X007407Y017375D01*
X007361Y017358D01*
X007314Y017345D01*
X007265Y017336D01*
X007217Y017331D01*
X007168Y017330D01*
X007119Y017333D01*
X007070Y017340D01*
X007023Y017351D01*
X006976Y017366D01*
X006931Y017384D01*
X006887Y017406D01*
X006845Y017432D01*
X006806Y017461D01*
X006769Y017493D01*
X006735Y017528D01*
X006703Y017566D01*
X006675Y017606D01*
X006650Y017648D01*
X006629Y017692D01*
X006612Y017738D01*
X006598Y017785D01*
X006588Y017833D01*
X006582Y017881D01*
X006580Y017930D01*
X006582Y017979D01*
X006588Y018027D01*
X006598Y018075D01*
X006612Y018122D01*
X006629Y018168D01*
X006650Y018212D01*
X006675Y018254D01*
X006703Y018294D01*
X006735Y018332D01*
X006769Y018367D01*
X006806Y018399D01*
X006845Y018428D01*
X006887Y018454D01*
X006931Y018476D01*
X006976Y018494D01*
X007023Y018509D01*
X007070Y018520D01*
X007119Y018527D01*
X007168Y018530D01*
X007217Y018529D01*
X007265Y018524D01*
X007314Y018515D01*
X007361Y018502D01*
X007407Y018485D01*
X007451Y018465D01*
X007494Y018441D01*
X007535Y018414D01*
X007573Y018383D01*
X007609Y018350D01*
X007641Y018314D01*
X007671Y018275D01*
X007698Y018234D01*
X007721Y018190D01*
X007740Y018145D01*
X007756Y018099D01*
X007768Y018052D01*
X007776Y018003D01*
X007780Y017954D01*
X007780Y017906D01*
X007776Y017857D01*
X007768Y017808D01*
X007756Y017761D01*
X007740Y017715D01*
X007721Y017670D01*
X007698Y017626D01*
X007671Y017585D01*
X007641Y017546D01*
X007609Y017510D01*
X007573Y017477D01*
X007535Y017446D01*
X007494Y017419D01*
X007451Y017395D01*
X007407Y017375D01*
X007361Y017358D01*
X007314Y017345D01*
X007265Y017336D01*
X007217Y017331D01*
X007168Y017330D01*
X007119Y017333D01*
X007070Y017340D01*
X007023Y017351D01*
X006976Y017366D01*
X006931Y017384D01*
X006887Y017406D01*
X006845Y017432D01*
X006806Y017461D01*
X006769Y017493D01*
X006735Y017528D01*
X006703Y017566D01*
X006675Y017606D01*
X006650Y017648D01*
X006629Y017692D01*
X006612Y017738D01*
X006598Y017785D01*
X006588Y017833D01*
X006582Y017881D01*
X006580Y017930D01*
X006580Y019430D02*
X006582Y019479D01*
X006588Y019527D01*
X006598Y019575D01*
X006612Y019622D01*
X006629Y019668D01*
X006650Y019712D01*
X006675Y019754D01*
X006703Y019794D01*
X006735Y019832D01*
X006769Y019867D01*
X006806Y019899D01*
X006845Y019928D01*
X006887Y019954D01*
X006931Y019976D01*
X006976Y019994D01*
X007023Y020009D01*
X007070Y020020D01*
X007119Y020027D01*
X007168Y020030D01*
X007217Y020029D01*
X007265Y020024D01*
X007314Y020015D01*
X007361Y020002D01*
X007407Y019985D01*
X007451Y019965D01*
X007494Y019941D01*
X007535Y019914D01*
X007573Y019883D01*
X007609Y019850D01*
X007641Y019814D01*
X007671Y019775D01*
X007698Y019734D01*
X007721Y019690D01*
X007740Y019645D01*
X007756Y019599D01*
X007768Y019552D01*
X007776Y019503D01*
X007780Y019454D01*
X007780Y019406D01*
X007776Y019357D01*
X007768Y019308D01*
X007756Y019261D01*
X007740Y019215D01*
X007721Y019170D01*
X007698Y019126D01*
X007671Y019085D01*
X007641Y019046D01*
X007609Y019010D01*
X007573Y018977D01*
X007535Y018946D01*
X007494Y018919D01*
X007451Y018895D01*
X007407Y018875D01*
X007361Y018858D01*
X007314Y018845D01*
X007265Y018836D01*
X007217Y018831D01*
X007168Y018830D01*
X007119Y018833D01*
X007070Y018840D01*
X007023Y018851D01*
X006976Y018866D01*
X006931Y018884D01*
X006887Y018906D01*
X006845Y018932D01*
X006806Y018961D01*
X006769Y018993D01*
X006735Y019028D01*
X006703Y019066D01*
X006675Y019106D01*
X006650Y019148D01*
X006629Y019192D01*
X006612Y019238D01*
X006598Y019285D01*
X006588Y019333D01*
X006582Y019381D01*
X006580Y019430D01*
X006582Y019479D01*
X006588Y019527D01*
X006598Y019575D01*
X006612Y019622D01*
X006629Y019668D01*
X006650Y019712D01*
X006675Y019754D01*
X006703Y019794D01*
X006735Y019832D01*
X006769Y019867D01*
X006806Y019899D01*
X006845Y019928D01*
X006887Y019954D01*
X006931Y019976D01*
X006976Y019994D01*
X007023Y020009D01*
X007070Y020020D01*
X007119Y020027D01*
X007168Y020030D01*
X007217Y020029D01*
X007265Y020024D01*
X007314Y020015D01*
X007361Y020002D01*
X007407Y019985D01*
X007451Y019965D01*
X007494Y019941D01*
X007535Y019914D01*
X007573Y019883D01*
X007609Y019850D01*
X007641Y019814D01*
X007671Y019775D01*
X007698Y019734D01*
X007721Y019690D01*
X007740Y019645D01*
X007756Y019599D01*
X007768Y019552D01*
X007776Y019503D01*
X007780Y019454D01*
X007780Y019406D01*
X007776Y019357D01*
X007768Y019308D01*
X007756Y019261D01*
X007740Y019215D01*
X007721Y019170D01*
X007698Y019126D01*
X007671Y019085D01*
X007641Y019046D01*
X007609Y019010D01*
X007573Y018977D01*
X007535Y018946D01*
X007494Y018919D01*
X007451Y018895D01*
X007407Y018875D01*
X007361Y018858D01*
X007314Y018845D01*
X007265Y018836D01*
X007217Y018831D01*
X007168Y018830D01*
X007119Y018833D01*
X007070Y018840D01*
X007023Y018851D01*
X006976Y018866D01*
X006931Y018884D01*
X006887Y018906D01*
X006845Y018932D01*
X006806Y018961D01*
X006769Y018993D01*
X006735Y019028D01*
X006703Y019066D01*
X006675Y019106D01*
X006650Y019148D01*
X006629Y019192D01*
X006612Y019238D01*
X006598Y019285D01*
X006588Y019333D01*
X006582Y019381D01*
X006580Y019430D01*
X006580Y020930D02*
X006582Y020979D01*
X006588Y021027D01*
X006598Y021075D01*
X006612Y021122D01*
X006629Y021168D01*
X006650Y021212D01*
X006675Y021254D01*
X006703Y021294D01*
X006735Y021332D01*
X006769Y021367D01*
X006806Y021399D01*
X006845Y021428D01*
X006887Y021454D01*
X006931Y021476D01*
X006976Y021494D01*
X007023Y021509D01*
X007070Y021520D01*
X007119Y021527D01*
X007168Y021530D01*
X007217Y021529D01*
X007265Y021524D01*
X007314Y021515D01*
X007361Y021502D01*
X007407Y021485D01*
X007451Y021465D01*
X007494Y021441D01*
X007535Y021414D01*
X007573Y021383D01*
X007609Y021350D01*
X007641Y021314D01*
X007671Y021275D01*
X007698Y021234D01*
X007721Y021190D01*
X007740Y021145D01*
X007756Y021099D01*
X007768Y021052D01*
X007776Y021003D01*
X007780Y020954D01*
X007780Y020906D01*
X007776Y020857D01*
X007768Y020808D01*
X007756Y020761D01*
X007740Y020715D01*
X007721Y020670D01*
X007698Y020626D01*
X007671Y020585D01*
X007641Y020546D01*
X007609Y020510D01*
X007573Y020477D01*
X007535Y020446D01*
X007494Y020419D01*
X007451Y020395D01*
X007407Y020375D01*
X007361Y020358D01*
X007314Y020345D01*
X007265Y020336D01*
X007217Y020331D01*
X007168Y020330D01*
X007119Y020333D01*
X007070Y020340D01*
X007023Y020351D01*
X006976Y020366D01*
X006931Y020384D01*
X006887Y020406D01*
X006845Y020432D01*
X006806Y020461D01*
X006769Y020493D01*
X006735Y020528D01*
X006703Y020566D01*
X006675Y020606D01*
X006650Y020648D01*
X006629Y020692D01*
X006612Y020738D01*
X006598Y020785D01*
X006588Y020833D01*
X006582Y020881D01*
X006580Y020930D01*
X006582Y020979D01*
X006588Y021027D01*
X006598Y021075D01*
X006612Y021122D01*
X006629Y021168D01*
X006650Y021212D01*
X006675Y021254D01*
X006703Y021294D01*
X006735Y021332D01*
X006769Y021367D01*
X006806Y021399D01*
X006845Y021428D01*
X006887Y021454D01*
X006931Y021476D01*
X006976Y021494D01*
X007023Y021509D01*
X007070Y021520D01*
X007119Y021527D01*
X007168Y021530D01*
X007217Y021529D01*
X007265Y021524D01*
X007314Y021515D01*
X007361Y021502D01*
X007407Y021485D01*
X007451Y021465D01*
X007494Y021441D01*
X007535Y021414D01*
X007573Y021383D01*
X007609Y021350D01*
X007641Y021314D01*
X007671Y021275D01*
X007698Y021234D01*
X007721Y021190D01*
X007740Y021145D01*
X007756Y021099D01*
X007768Y021052D01*
X007776Y021003D01*
X007780Y020954D01*
X007780Y020906D01*
X007776Y020857D01*
X007768Y020808D01*
X007756Y020761D01*
X007740Y020715D01*
X007721Y020670D01*
X007698Y020626D01*
X007671Y020585D01*
X007641Y020546D01*
X007609Y020510D01*
X007573Y020477D01*
X007535Y020446D01*
X007494Y020419D01*
X007451Y020395D01*
X007407Y020375D01*
X007361Y020358D01*
X007314Y020345D01*
X007265Y020336D01*
X007217Y020331D01*
X007168Y020330D01*
X007119Y020333D01*
X007070Y020340D01*
X007023Y020351D01*
X006976Y020366D01*
X006931Y020384D01*
X006887Y020406D01*
X006845Y020432D01*
X006806Y020461D01*
X006769Y020493D01*
X006735Y020528D01*
X006703Y020566D01*
X006675Y020606D01*
X006650Y020648D01*
X006629Y020692D01*
X006612Y020738D01*
X006598Y020785D01*
X006588Y020833D01*
X006582Y020881D01*
X006580Y020930D01*
X006580Y022430D02*
X006582Y022479D01*
X006588Y022527D01*
X006598Y022575D01*
X006612Y022622D01*
X006629Y022668D01*
X006650Y022712D01*
X006675Y022754D01*
X006703Y022794D01*
X006735Y022832D01*
X006769Y022867D01*
X006806Y022899D01*
X006845Y022928D01*
X006887Y022954D01*
X006931Y022976D01*
X006976Y022994D01*
X007023Y023009D01*
X007070Y023020D01*
X007119Y023027D01*
X007168Y023030D01*
X007217Y023029D01*
X007265Y023024D01*
X007314Y023015D01*
X007361Y023002D01*
X007407Y022985D01*
X007451Y022965D01*
X007494Y022941D01*
X007535Y022914D01*
X007573Y022883D01*
X007609Y022850D01*
X007641Y022814D01*
X007671Y022775D01*
X007698Y022734D01*
X007721Y022690D01*
X007740Y022645D01*
X007756Y022599D01*
X007768Y022552D01*
X007776Y022503D01*
X007780Y022454D01*
X007780Y022406D01*
X007776Y022357D01*
X007768Y022308D01*
X007756Y022261D01*
X007740Y022215D01*
X007721Y022170D01*
X007698Y022126D01*
X007671Y022085D01*
X007641Y022046D01*
X007609Y022010D01*
X007573Y021977D01*
X007535Y021946D01*
X007494Y021919D01*
X007451Y021895D01*
X007407Y021875D01*
X007361Y021858D01*
X007314Y021845D01*
X007265Y021836D01*
X007217Y021831D01*
X007168Y021830D01*
X007119Y021833D01*
X007070Y021840D01*
X007023Y021851D01*
X006976Y021866D01*
X006931Y021884D01*
X006887Y021906D01*
X006845Y021932D01*
X006806Y021961D01*
X006769Y021993D01*
X006735Y022028D01*
X006703Y022066D01*
X006675Y022106D01*
X006650Y022148D01*
X006629Y022192D01*
X006612Y022238D01*
X006598Y022285D01*
X006588Y022333D01*
X006582Y022381D01*
X006580Y022430D01*
X006582Y022479D01*
X006588Y022527D01*
X006598Y022575D01*
X006612Y022622D01*
X006629Y022668D01*
X006650Y022712D01*
X006675Y022754D01*
X006703Y022794D01*
X006735Y022832D01*
X006769Y022867D01*
X006806Y022899D01*
X006845Y022928D01*
X006887Y022954D01*
X006931Y022976D01*
X006976Y022994D01*
X007023Y023009D01*
X007070Y023020D01*
X007119Y023027D01*
X007168Y023030D01*
X007217Y023029D01*
X007265Y023024D01*
X007314Y023015D01*
X007361Y023002D01*
X007407Y022985D01*
X007451Y022965D01*
X007494Y022941D01*
X007535Y022914D01*
X007573Y022883D01*
X007609Y022850D01*
X007641Y022814D01*
X007671Y022775D01*
X007698Y022734D01*
X007721Y022690D01*
X007740Y022645D01*
X007756Y022599D01*
X007768Y022552D01*
X007776Y022503D01*
X007780Y022454D01*
X007780Y022406D01*
X007776Y022357D01*
X007768Y022308D01*
X007756Y022261D01*
X007740Y022215D01*
X007721Y022170D01*
X007698Y022126D01*
X007671Y022085D01*
X007641Y022046D01*
X007609Y022010D01*
X007573Y021977D01*
X007535Y021946D01*
X007494Y021919D01*
X007451Y021895D01*
X007407Y021875D01*
X007361Y021858D01*
X007314Y021845D01*
X007265Y021836D01*
X007217Y021831D01*
X007168Y021830D01*
X007119Y021833D01*
X007070Y021840D01*
X007023Y021851D01*
X006976Y021866D01*
X006931Y021884D01*
X006887Y021906D01*
X006845Y021932D01*
X006806Y021961D01*
X006769Y021993D01*
X006735Y022028D01*
X006703Y022066D01*
X006675Y022106D01*
X006650Y022148D01*
X006629Y022192D01*
X006612Y022238D01*
X006598Y022285D01*
X006588Y022333D01*
X006582Y022381D01*
X006580Y022430D01*
X009280Y021680D02*
X010030Y021680D01*
X010032Y021641D01*
X010038Y021602D01*
X010047Y021564D01*
X010060Y021527D01*
X010077Y021491D01*
X010097Y021458D01*
X010121Y021426D01*
X010147Y021397D01*
X010176Y021371D01*
X010208Y021347D01*
X010241Y021327D01*
X010277Y021310D01*
X010314Y021297D01*
X010352Y021288D01*
X010391Y021282D01*
X010430Y021280D01*
X010469Y021282D01*
X010508Y021288D01*
X010546Y021297D01*
X010583Y021310D01*
X010619Y021327D01*
X010652Y021347D01*
X010684Y021371D01*
X010713Y021397D01*
X010739Y021426D01*
X010763Y021458D01*
X010783Y021491D01*
X010800Y021527D01*
X010813Y021564D01*
X010822Y021602D01*
X010828Y021641D01*
X010830Y021680D01*
X011580Y021680D01*
X011580Y013680D01*
X009280Y013680D01*
X009280Y021680D01*
X009480Y021930D02*
X009480Y022930D01*
X009482Y022947D01*
X009486Y022964D01*
X009493Y022980D01*
X009503Y022994D01*
X009516Y023007D01*
X009530Y023017D01*
X009546Y023024D01*
X009563Y023028D01*
X009580Y023030D01*
X011280Y023030D01*
X011297Y023028D01*
X011314Y023024D01*
X011330Y023017D01*
X011344Y023007D01*
X011357Y022994D01*
X011367Y022980D01*
X011374Y022964D01*
X011378Y022947D01*
X011380Y022930D01*
X011380Y021930D01*
X011378Y021913D01*
X011374Y021896D01*
X011367Y021880D01*
X011357Y021866D01*
X011344Y021853D01*
X011330Y021843D01*
X011314Y021836D01*
X011297Y021832D01*
X011280Y021830D01*
X009580Y021830D01*
X009563Y021832D01*
X009546Y021836D01*
X009530Y021843D01*
X009516Y021853D01*
X009503Y021866D01*
X009493Y021880D01*
X009486Y021896D01*
X009482Y021913D01*
X009480Y021930D01*
X009482Y021913D01*
X009486Y021896D01*
X009493Y021880D01*
X009503Y021866D01*
X009516Y021853D01*
X009530Y021843D01*
X009546Y021836D01*
X009563Y021832D01*
X009580Y021830D01*
X010030Y021680D02*
X010032Y021641D01*
X010038Y021602D01*
X010047Y021564D01*
X010060Y021527D01*
X010077Y021491D01*
X010097Y021458D01*
X010121Y021426D01*
X010147Y021397D01*
X010176Y021371D01*
X010208Y021347D01*
X010241Y021327D01*
X010277Y021310D01*
X010314Y021297D01*
X010352Y021288D01*
X010391Y021282D01*
X010430Y021280D01*
X010469Y021282D01*
X010508Y021288D01*
X010546Y021297D01*
X010583Y021310D01*
X010619Y021327D01*
X010652Y021347D01*
X010684Y021371D01*
X010713Y021397D01*
X010739Y021426D01*
X010763Y021458D01*
X010783Y021491D01*
X010800Y021527D01*
X010813Y021564D01*
X010822Y021602D01*
X010828Y021641D01*
X010830Y021680D01*
X011280Y021830D02*
X011297Y021832D01*
X011314Y021836D01*
X011330Y021843D01*
X011344Y021853D01*
X011357Y021866D01*
X011367Y021880D01*
X011374Y021896D01*
X011378Y021913D01*
X011380Y021930D01*
X010580Y022430D02*
X010530Y022430D01*
X010330Y022430D02*
X010280Y022430D01*
X009580Y023030D02*
X009563Y023028D01*
X009546Y023024D01*
X009530Y023017D01*
X009516Y023007D01*
X009503Y022994D01*
X009493Y022980D01*
X009486Y022964D01*
X009482Y022947D01*
X009480Y022930D01*
X011280Y023030D02*
X011297Y023028D01*
X011314Y023024D01*
X011330Y023017D01*
X011344Y023007D01*
X011357Y022994D01*
X011367Y022980D01*
X011374Y022964D01*
X011378Y022947D01*
X011380Y022930D01*
X012885Y021830D02*
X012885Y021830D01*
X013043Y021830D01*
X013105Y021280D02*
X014755Y021280D01*
X014817Y021830D02*
X014975Y021830D01*
X014043Y021830D02*
X013817Y021830D01*
X013105Y021280D02*
X013070Y021328D01*
X013037Y021378D01*
X013006Y021430D01*
X012979Y021484D01*
X012955Y021539D01*
X012935Y021596D01*
X012917Y021653D01*
X012903Y021711D01*
X012892Y021770D01*
X012885Y021830D01*
X012892Y021770D01*
X012903Y021711D01*
X012917Y021653D01*
X012935Y021596D01*
X012955Y021539D01*
X012979Y021484D01*
X013006Y021430D01*
X013037Y021378D01*
X013070Y021328D01*
X013105Y021280D01*
X014755Y021280D02*
X014792Y021331D01*
X014827Y021384D01*
X014859Y021440D01*
X014887Y021497D01*
X014911Y021556D01*
X014932Y021616D01*
X014949Y021677D01*
X014963Y021739D01*
X014972Y021802D01*
X014978Y021865D01*
X014980Y021929D01*
X014978Y021993D01*
X014972Y022056D01*
X014963Y022119D01*
X014950Y022181D01*
X014932Y022242D01*
X014912Y022302D01*
X014887Y022361D01*
X014860Y022418D01*
X014828Y022474D01*
X014794Y022527D01*
X014756Y022578D01*
X014715Y022627D01*
X014671Y022673D01*
X014625Y022717D01*
X014576Y022758D01*
X014525Y022795D01*
X014471Y022830D01*
X014416Y022861D01*
X014359Y022889D01*
X014300Y022913D01*
X014240Y022933D01*
X013620Y022933D02*
X013561Y022913D01*
X013504Y022890D01*
X013447Y022863D01*
X013393Y022832D01*
X013340Y022799D01*
X013290Y022762D01*
X013241Y022723D01*
X013196Y022680D01*
X013152Y022635D01*
X013112Y022588D01*
X013074Y022538D01*
X013039Y022486D01*
X013008Y022432D01*
X012980Y022377D01*
X012955Y022320D01*
X012934Y022261D01*
X012916Y022201D01*
X012901Y022140D01*
X012891Y022079D01*
X012884Y022017D01*
X012880Y021955D01*
X012881Y021892D01*
X012885Y021830D01*
X014240Y022933D02*
X014300Y022913D01*
X014359Y022889D01*
X014416Y022861D01*
X014471Y022830D01*
X014525Y022795D01*
X014576Y022758D01*
X014625Y022717D01*
X014671Y022673D01*
X014715Y022627D01*
X014756Y022578D01*
X014794Y022527D01*
X014828Y022474D01*
X014860Y022418D01*
X014887Y022361D01*
X014912Y022302D01*
X014932Y022242D01*
X014950Y022181D01*
X014963Y022119D01*
X014972Y022056D01*
X014978Y021993D01*
X014980Y021929D01*
X014978Y021865D01*
X014972Y021802D01*
X014963Y021739D01*
X014949Y021677D01*
X014932Y021616D01*
X014911Y021556D01*
X014887Y021497D01*
X014859Y021440D01*
X014827Y021384D01*
X014792Y021331D01*
X014755Y021280D01*
X012885Y021830D02*
X012881Y021892D01*
X012880Y021955D01*
X012884Y022017D01*
X012891Y022079D01*
X012901Y022140D01*
X012916Y022201D01*
X012934Y022261D01*
X012955Y022320D01*
X012980Y022377D01*
X013008Y022432D01*
X013039Y022486D01*
X013074Y022538D01*
X013112Y022588D01*
X013152Y022635D01*
X013196Y022680D01*
X013241Y022723D01*
X013290Y022762D01*
X013340Y022799D01*
X013393Y022832D01*
X013447Y022863D01*
X013504Y022890D01*
X013561Y022913D01*
X013620Y022933D01*
X016080Y022430D02*
X016082Y022479D01*
X016088Y022527D01*
X016098Y022575D01*
X016112Y022622D01*
X016129Y022668D01*
X016150Y022712D01*
X016175Y022754D01*
X016203Y022794D01*
X016235Y022832D01*
X016269Y022867D01*
X016306Y022899D01*
X016345Y022928D01*
X016387Y022954D01*
X016431Y022976D01*
X016476Y022994D01*
X016523Y023009D01*
X016570Y023020D01*
X016619Y023027D01*
X016668Y023030D01*
X016717Y023029D01*
X016765Y023024D01*
X016814Y023015D01*
X016861Y023002D01*
X016907Y022985D01*
X016951Y022965D01*
X016994Y022941D01*
X017035Y022914D01*
X017073Y022883D01*
X017109Y022850D01*
X017141Y022814D01*
X017171Y022775D01*
X017198Y022734D01*
X017221Y022690D01*
X017240Y022645D01*
X017256Y022599D01*
X017268Y022552D01*
X017276Y022503D01*
X017280Y022454D01*
X017280Y022406D01*
X017276Y022357D01*
X017268Y022308D01*
X017256Y022261D01*
X017240Y022215D01*
X017221Y022170D01*
X017198Y022126D01*
X017171Y022085D01*
X017141Y022046D01*
X017109Y022010D01*
X017073Y021977D01*
X017035Y021946D01*
X016994Y021919D01*
X016951Y021895D01*
X016907Y021875D01*
X016861Y021858D01*
X016814Y021845D01*
X016765Y021836D01*
X016717Y021831D01*
X016668Y021830D01*
X016619Y021833D01*
X016570Y021840D01*
X016523Y021851D01*
X016476Y021866D01*
X016431Y021884D01*
X016387Y021906D01*
X016345Y021932D01*
X016306Y021961D01*
X016269Y021993D01*
X016235Y022028D01*
X016203Y022066D01*
X016175Y022106D01*
X016150Y022148D01*
X016129Y022192D01*
X016112Y022238D01*
X016098Y022285D01*
X016088Y022333D01*
X016082Y022381D01*
X016080Y022430D01*
X016082Y022479D01*
X016088Y022527D01*
X016098Y022575D01*
X016112Y022622D01*
X016129Y022668D01*
X016150Y022712D01*
X016175Y022754D01*
X016203Y022794D01*
X016235Y022832D01*
X016269Y022867D01*
X016306Y022899D01*
X016345Y022928D01*
X016387Y022954D01*
X016431Y022976D01*
X016476Y022994D01*
X016523Y023009D01*
X016570Y023020D01*
X016619Y023027D01*
X016668Y023030D01*
X016717Y023029D01*
X016765Y023024D01*
X016814Y023015D01*
X016861Y023002D01*
X016907Y022985D01*
X016951Y022965D01*
X016994Y022941D01*
X017035Y022914D01*
X017073Y022883D01*
X017109Y022850D01*
X017141Y022814D01*
X017171Y022775D01*
X017198Y022734D01*
X017221Y022690D01*
X017240Y022645D01*
X017256Y022599D01*
X017268Y022552D01*
X017276Y022503D01*
X017280Y022454D01*
X017280Y022406D01*
X017276Y022357D01*
X017268Y022308D01*
X017256Y022261D01*
X017240Y022215D01*
X017221Y022170D01*
X017198Y022126D01*
X017171Y022085D01*
X017141Y022046D01*
X017109Y022010D01*
X017073Y021977D01*
X017035Y021946D01*
X016994Y021919D01*
X016951Y021895D01*
X016907Y021875D01*
X016861Y021858D01*
X016814Y021845D01*
X016765Y021836D01*
X016717Y021831D01*
X016668Y021830D01*
X016619Y021833D01*
X016570Y021840D01*
X016523Y021851D01*
X016476Y021866D01*
X016431Y021884D01*
X016387Y021906D01*
X016345Y021932D01*
X016306Y021961D01*
X016269Y021993D01*
X016235Y022028D01*
X016203Y022066D01*
X016175Y022106D01*
X016150Y022148D01*
X016129Y022192D01*
X016112Y022238D01*
X016098Y022285D01*
X016088Y022333D01*
X016082Y022381D01*
X016080Y022430D01*
X016080Y020930D02*
X016082Y020979D01*
X016088Y021027D01*
X016098Y021075D01*
X016112Y021122D01*
X016129Y021168D01*
X016150Y021212D01*
X016175Y021254D01*
X016203Y021294D01*
X016235Y021332D01*
X016269Y021367D01*
X016306Y021399D01*
X016345Y021428D01*
X016387Y021454D01*
X016431Y021476D01*
X016476Y021494D01*
X016523Y021509D01*
X016570Y021520D01*
X016619Y021527D01*
X016668Y021530D01*
X016717Y021529D01*
X016765Y021524D01*
X016814Y021515D01*
X016861Y021502D01*
X016907Y021485D01*
X016951Y021465D01*
X016994Y021441D01*
X017035Y021414D01*
X017073Y021383D01*
X017109Y021350D01*
X017141Y021314D01*
X017171Y021275D01*
X017198Y021234D01*
X017221Y021190D01*
X017240Y021145D01*
X017256Y021099D01*
X017268Y021052D01*
X017276Y021003D01*
X017280Y020954D01*
X017280Y020906D01*
X017276Y020857D01*
X017268Y020808D01*
X017256Y020761D01*
X017240Y020715D01*
X017221Y020670D01*
X017198Y020626D01*
X017171Y020585D01*
X017141Y020546D01*
X017109Y020510D01*
X017073Y020477D01*
X017035Y020446D01*
X016994Y020419D01*
X016951Y020395D01*
X016907Y020375D01*
X016861Y020358D01*
X016814Y020345D01*
X016765Y020336D01*
X016717Y020331D01*
X016668Y020330D01*
X016619Y020333D01*
X016570Y020340D01*
X016523Y020351D01*
X016476Y020366D01*
X016431Y020384D01*
X016387Y020406D01*
X016345Y020432D01*
X016306Y020461D01*
X016269Y020493D01*
X016235Y020528D01*
X016203Y020566D01*
X016175Y020606D01*
X016150Y020648D01*
X016129Y020692D01*
X016112Y020738D01*
X016098Y020785D01*
X016088Y020833D01*
X016082Y020881D01*
X016080Y020930D01*
X016082Y020979D01*
X016088Y021027D01*
X016098Y021075D01*
X016112Y021122D01*
X016129Y021168D01*
X016150Y021212D01*
X016175Y021254D01*
X016203Y021294D01*
X016235Y021332D01*
X016269Y021367D01*
X016306Y021399D01*
X016345Y021428D01*
X016387Y021454D01*
X016431Y021476D01*
X016476Y021494D01*
X016523Y021509D01*
X016570Y021520D01*
X016619Y021527D01*
X016668Y021530D01*
X016717Y021529D01*
X016765Y021524D01*
X016814Y021515D01*
X016861Y021502D01*
X016907Y021485D01*
X016951Y021465D01*
X016994Y021441D01*
X017035Y021414D01*
X017073Y021383D01*
X017109Y021350D01*
X017141Y021314D01*
X017171Y021275D01*
X017198Y021234D01*
X017221Y021190D01*
X017240Y021145D01*
X017256Y021099D01*
X017268Y021052D01*
X017276Y021003D01*
X017280Y020954D01*
X017280Y020906D01*
X017276Y020857D01*
X017268Y020808D01*
X017256Y020761D01*
X017240Y020715D01*
X017221Y020670D01*
X017198Y020626D01*
X017171Y020585D01*
X017141Y020546D01*
X017109Y020510D01*
X017073Y020477D01*
X017035Y020446D01*
X016994Y020419D01*
X016951Y020395D01*
X016907Y020375D01*
X016861Y020358D01*
X016814Y020345D01*
X016765Y020336D01*
X016717Y020331D01*
X016668Y020330D01*
X016619Y020333D01*
X016570Y020340D01*
X016523Y020351D01*
X016476Y020366D01*
X016431Y020384D01*
X016387Y020406D01*
X016345Y020432D01*
X016306Y020461D01*
X016269Y020493D01*
X016235Y020528D01*
X016203Y020566D01*
X016175Y020606D01*
X016150Y020648D01*
X016129Y020692D01*
X016112Y020738D01*
X016098Y020785D01*
X016088Y020833D01*
X016082Y020881D01*
X016080Y020930D01*
X014975Y019955D02*
X014817Y019955D01*
X014755Y019405D02*
X013105Y019405D01*
X013105Y019330D02*
X014755Y019330D01*
X014817Y018780D02*
X014975Y018780D01*
X014975Y018780D01*
X014043Y018780D02*
X013817Y018780D01*
X014755Y019330D02*
X014790Y019282D01*
X014823Y019232D01*
X014854Y019180D01*
X014881Y019126D01*
X014905Y019071D01*
X014925Y019014D01*
X014943Y018957D01*
X014957Y018899D01*
X014968Y018840D01*
X014975Y018780D01*
X013620Y017677D02*
X013560Y017697D01*
X013501Y017721D01*
X013444Y017749D01*
X013389Y017780D01*
X013335Y017815D01*
X013284Y017852D01*
X013235Y017893D01*
X013189Y017937D01*
X013145Y017983D01*
X013104Y018032D01*
X013066Y018083D01*
X013032Y018136D01*
X013000Y018192D01*
X012973Y018249D01*
X012948Y018308D01*
X012928Y018368D01*
X012910Y018429D01*
X012897Y018491D01*
X012888Y018554D01*
X012882Y018617D01*
X012880Y018681D01*
X012882Y018745D01*
X012888Y018808D01*
X012897Y018871D01*
X012911Y018933D01*
X012928Y018994D01*
X012949Y019054D01*
X012973Y019113D01*
X013001Y019170D01*
X013033Y019226D01*
X013068Y019279D01*
X013105Y019330D01*
X013043Y018780D02*
X012885Y018780D01*
X014755Y019330D02*
X014790Y019282D01*
X014823Y019232D01*
X014854Y019180D01*
X014881Y019126D01*
X014905Y019071D01*
X014925Y019014D01*
X014943Y018957D01*
X014957Y018899D01*
X014968Y018840D01*
X014975Y018780D01*
X013620Y017677D02*
X013560Y017697D01*
X013501Y017721D01*
X013444Y017749D01*
X013389Y017780D01*
X013335Y017815D01*
X013284Y017852D01*
X013235Y017893D01*
X013189Y017937D01*
X013145Y017983D01*
X013104Y018032D01*
X013066Y018083D01*
X013032Y018136D01*
X013000Y018192D01*
X012973Y018249D01*
X012948Y018308D01*
X012928Y018368D01*
X012910Y018429D01*
X012897Y018491D01*
X012888Y018554D01*
X012882Y018617D01*
X012880Y018681D01*
X012882Y018745D01*
X012888Y018808D01*
X012897Y018871D01*
X012911Y018933D01*
X012928Y018994D01*
X012949Y019054D01*
X012973Y019113D01*
X013001Y019170D01*
X013033Y019226D01*
X013068Y019279D01*
X013105Y019330D01*
X013043Y019955D02*
X012885Y019955D01*
X012885Y019955D01*
X013817Y019955D02*
X014043Y019955D01*
X013105Y019405D02*
X013070Y019453D01*
X013037Y019503D01*
X013006Y019555D01*
X012979Y019609D01*
X012955Y019664D01*
X012935Y019721D01*
X012917Y019778D01*
X012903Y019836D01*
X012892Y019895D01*
X012885Y019955D01*
X012892Y019895D01*
X012903Y019836D01*
X012917Y019778D01*
X012935Y019721D01*
X012955Y019664D01*
X012979Y019609D01*
X013006Y019555D01*
X013037Y019503D01*
X013070Y019453D01*
X013105Y019405D01*
X014755Y019405D02*
X014792Y019456D01*
X014827Y019509D01*
X014859Y019565D01*
X014887Y019622D01*
X014911Y019681D01*
X014932Y019741D01*
X014949Y019802D01*
X014963Y019864D01*
X014972Y019927D01*
X014978Y019990D01*
X014980Y020054D01*
X014978Y020118D01*
X014972Y020181D01*
X014963Y020244D01*
X014950Y020306D01*
X014932Y020367D01*
X014912Y020427D01*
X014887Y020486D01*
X014860Y020543D01*
X014828Y020599D01*
X014794Y020652D01*
X014756Y020703D01*
X014715Y020752D01*
X014671Y020798D01*
X014625Y020842D01*
X014576Y020883D01*
X014525Y020920D01*
X014471Y020955D01*
X014416Y020986D01*
X014359Y021014D01*
X014300Y021038D01*
X014240Y021058D01*
X013620Y021058D02*
X013561Y021038D01*
X013504Y021015D01*
X013447Y020988D01*
X013393Y020957D01*
X013340Y020924D01*
X013290Y020887D01*
X013241Y020848D01*
X013196Y020805D01*
X013152Y020760D01*
X013112Y020713D01*
X013074Y020663D01*
X013039Y020611D01*
X013008Y020557D01*
X012980Y020502D01*
X012955Y020445D01*
X012934Y020386D01*
X012916Y020326D01*
X012901Y020265D01*
X012891Y020204D01*
X012884Y020142D01*
X012880Y020080D01*
X012881Y020017D01*
X012885Y019955D01*
X014240Y021058D02*
X014300Y021038D01*
X014359Y021014D01*
X014416Y020986D01*
X014471Y020955D01*
X014525Y020920D01*
X014576Y020883D01*
X014625Y020842D01*
X014671Y020798D01*
X014715Y020752D01*
X014756Y020703D01*
X014794Y020652D01*
X014828Y020599D01*
X014860Y020543D01*
X014887Y020486D01*
X014912Y020427D01*
X014932Y020367D01*
X014950Y020306D01*
X014963Y020244D01*
X014972Y020181D01*
X014978Y020118D01*
X014980Y020054D01*
X014978Y019990D01*
X014972Y019927D01*
X014963Y019864D01*
X014949Y019802D01*
X014932Y019741D01*
X014911Y019681D01*
X014887Y019622D01*
X014859Y019565D01*
X014827Y019509D01*
X014792Y019456D01*
X014755Y019405D01*
X012885Y019955D02*
X012881Y020017D01*
X012880Y020080D01*
X012884Y020142D01*
X012891Y020204D01*
X012901Y020265D01*
X012916Y020326D01*
X012934Y020386D01*
X012955Y020445D01*
X012980Y020502D01*
X013008Y020557D01*
X013039Y020611D01*
X013074Y020663D01*
X013112Y020713D01*
X013152Y020760D01*
X013196Y020805D01*
X013241Y020848D01*
X013290Y020887D01*
X013340Y020924D01*
X013393Y020957D01*
X013447Y020988D01*
X013504Y021015D01*
X013561Y021038D01*
X013620Y021058D01*
X014975Y018780D02*
X014979Y018718D01*
X014980Y018655D01*
X014976Y018593D01*
X014969Y018531D01*
X014959Y018470D01*
X014944Y018409D01*
X014926Y018349D01*
X014905Y018290D01*
X014880Y018233D01*
X014852Y018178D01*
X014821Y018124D01*
X014786Y018072D01*
X014748Y018022D01*
X014708Y017975D01*
X014664Y017930D01*
X014619Y017887D01*
X014570Y017848D01*
X014520Y017811D01*
X014467Y017778D01*
X014413Y017747D01*
X014356Y017720D01*
X014299Y017697D01*
X014240Y017677D01*
X014299Y017697D01*
X014356Y017720D01*
X014413Y017747D01*
X014467Y017778D01*
X014520Y017811D01*
X014570Y017848D01*
X014619Y017887D01*
X014664Y017930D01*
X014708Y017975D01*
X014748Y018022D01*
X014786Y018072D01*
X014821Y018124D01*
X014852Y018178D01*
X014880Y018233D01*
X014905Y018290D01*
X014926Y018349D01*
X014944Y018409D01*
X014959Y018470D01*
X014969Y018531D01*
X014976Y018593D01*
X014980Y018655D01*
X014979Y018718D01*
X014975Y018780D01*
X016080Y019430D02*
X016082Y019479D01*
X016088Y019527D01*
X016098Y019575D01*
X016112Y019622D01*
X016129Y019668D01*
X016150Y019712D01*
X016175Y019754D01*
X016203Y019794D01*
X016235Y019832D01*
X016269Y019867D01*
X016306Y019899D01*
X016345Y019928D01*
X016387Y019954D01*
X016431Y019976D01*
X016476Y019994D01*
X016523Y020009D01*
X016570Y020020D01*
X016619Y020027D01*
X016668Y020030D01*
X016717Y020029D01*
X016765Y020024D01*
X016814Y020015D01*
X016861Y020002D01*
X016907Y019985D01*
X016951Y019965D01*
X016994Y019941D01*
X017035Y019914D01*
X017073Y019883D01*
X017109Y019850D01*
X017141Y019814D01*
X017171Y019775D01*
X017198Y019734D01*
X017221Y019690D01*
X017240Y019645D01*
X017256Y019599D01*
X017268Y019552D01*
X017276Y019503D01*
X017280Y019454D01*
X017280Y019406D01*
X017276Y019357D01*
X017268Y019308D01*
X017256Y019261D01*
X017240Y019215D01*
X017221Y019170D01*
X017198Y019126D01*
X017171Y019085D01*
X017141Y019046D01*
X017109Y019010D01*
X017073Y018977D01*
X017035Y018946D01*
X016994Y018919D01*
X016951Y018895D01*
X016907Y018875D01*
X016861Y018858D01*
X016814Y018845D01*
X016765Y018836D01*
X016717Y018831D01*
X016668Y018830D01*
X016619Y018833D01*
X016570Y018840D01*
X016523Y018851D01*
X016476Y018866D01*
X016431Y018884D01*
X016387Y018906D01*
X016345Y018932D01*
X016306Y018961D01*
X016269Y018993D01*
X016235Y019028D01*
X016203Y019066D01*
X016175Y019106D01*
X016150Y019148D01*
X016129Y019192D01*
X016112Y019238D01*
X016098Y019285D01*
X016088Y019333D01*
X016082Y019381D01*
X016080Y019430D01*
X016082Y019479D01*
X016088Y019527D01*
X016098Y019575D01*
X016112Y019622D01*
X016129Y019668D01*
X016150Y019712D01*
X016175Y019754D01*
X016203Y019794D01*
X016235Y019832D01*
X016269Y019867D01*
X016306Y019899D01*
X016345Y019928D01*
X016387Y019954D01*
X016431Y019976D01*
X016476Y019994D01*
X016523Y020009D01*
X016570Y020020D01*
X016619Y020027D01*
X016668Y020030D01*
X016717Y020029D01*
X016765Y020024D01*
X016814Y020015D01*
X016861Y020002D01*
X016907Y019985D01*
X016951Y019965D01*
X016994Y019941D01*
X017035Y019914D01*
X017073Y019883D01*
X017109Y019850D01*
X017141Y019814D01*
X017171Y019775D01*
X017198Y019734D01*
X017221Y019690D01*
X017240Y019645D01*
X017256Y019599D01*
X017268Y019552D01*
X017276Y019503D01*
X017280Y019454D01*
X017280Y019406D01*
X017276Y019357D01*
X017268Y019308D01*
X017256Y019261D01*
X017240Y019215D01*
X017221Y019170D01*
X017198Y019126D01*
X017171Y019085D01*
X017141Y019046D01*
X017109Y019010D01*
X017073Y018977D01*
X017035Y018946D01*
X016994Y018919D01*
X016951Y018895D01*
X016907Y018875D01*
X016861Y018858D01*
X016814Y018845D01*
X016765Y018836D01*
X016717Y018831D01*
X016668Y018830D01*
X016619Y018833D01*
X016570Y018840D01*
X016523Y018851D01*
X016476Y018866D01*
X016431Y018884D01*
X016387Y018906D01*
X016345Y018932D01*
X016306Y018961D01*
X016269Y018993D01*
X016235Y019028D01*
X016203Y019066D01*
X016175Y019106D01*
X016150Y019148D01*
X016129Y019192D01*
X016112Y019238D01*
X016098Y019285D01*
X016088Y019333D01*
X016082Y019381D01*
X016080Y019430D01*
X016080Y017930D02*
X016082Y017979D01*
X016088Y018027D01*
X016098Y018075D01*
X016112Y018122D01*
X016129Y018168D01*
X016150Y018212D01*
X016175Y018254D01*
X016203Y018294D01*
X016235Y018332D01*
X016269Y018367D01*
X016306Y018399D01*
X016345Y018428D01*
X016387Y018454D01*
X016431Y018476D01*
X016476Y018494D01*
X016523Y018509D01*
X016570Y018520D01*
X016619Y018527D01*
X016668Y018530D01*
X016717Y018529D01*
X016765Y018524D01*
X016814Y018515D01*
X016861Y018502D01*
X016907Y018485D01*
X016951Y018465D01*
X016994Y018441D01*
X017035Y018414D01*
X017073Y018383D01*
X017109Y018350D01*
X017141Y018314D01*
X017171Y018275D01*
X017198Y018234D01*
X017221Y018190D01*
X017240Y018145D01*
X017256Y018099D01*
X017268Y018052D01*
X017276Y018003D01*
X017280Y017954D01*
X017280Y017906D01*
X017276Y017857D01*
X017268Y017808D01*
X017256Y017761D01*
X017240Y017715D01*
X017221Y017670D01*
X017198Y017626D01*
X017171Y017585D01*
X017141Y017546D01*
X017109Y017510D01*
X017073Y017477D01*
X017035Y017446D01*
X016994Y017419D01*
X016951Y017395D01*
X016907Y017375D01*
X016861Y017358D01*
X016814Y017345D01*
X016765Y017336D01*
X016717Y017331D01*
X016668Y017330D01*
X016619Y017333D01*
X016570Y017340D01*
X016523Y017351D01*
X016476Y017366D01*
X016431Y017384D01*
X016387Y017406D01*
X016345Y017432D01*
X016306Y017461D01*
X016269Y017493D01*
X016235Y017528D01*
X016203Y017566D01*
X016175Y017606D01*
X016150Y017648D01*
X016129Y017692D01*
X016112Y017738D01*
X016098Y017785D01*
X016088Y017833D01*
X016082Y017881D01*
X016080Y017930D01*
X016082Y017979D01*
X016088Y018027D01*
X016098Y018075D01*
X016112Y018122D01*
X016129Y018168D01*
X016150Y018212D01*
X016175Y018254D01*
X016203Y018294D01*
X016235Y018332D01*
X016269Y018367D01*
X016306Y018399D01*
X016345Y018428D01*
X016387Y018454D01*
X016431Y018476D01*
X016476Y018494D01*
X016523Y018509D01*
X016570Y018520D01*
X016619Y018527D01*
X016668Y018530D01*
X016717Y018529D01*
X016765Y018524D01*
X016814Y018515D01*
X016861Y018502D01*
X016907Y018485D01*
X016951Y018465D01*
X016994Y018441D01*
X017035Y018414D01*
X017073Y018383D01*
X017109Y018350D01*
X017141Y018314D01*
X017171Y018275D01*
X017198Y018234D01*
X017221Y018190D01*
X017240Y018145D01*
X017256Y018099D01*
X017268Y018052D01*
X017276Y018003D01*
X017280Y017954D01*
X017280Y017906D01*
X017276Y017857D01*
X017268Y017808D01*
X017256Y017761D01*
X017240Y017715D01*
X017221Y017670D01*
X017198Y017626D01*
X017171Y017585D01*
X017141Y017546D01*
X017109Y017510D01*
X017073Y017477D01*
X017035Y017446D01*
X016994Y017419D01*
X016951Y017395D01*
X016907Y017375D01*
X016861Y017358D01*
X016814Y017345D01*
X016765Y017336D01*
X016717Y017331D01*
X016668Y017330D01*
X016619Y017333D01*
X016570Y017340D01*
X016523Y017351D01*
X016476Y017366D01*
X016431Y017384D01*
X016387Y017406D01*
X016345Y017432D01*
X016306Y017461D01*
X016269Y017493D01*
X016235Y017528D01*
X016203Y017566D01*
X016175Y017606D01*
X016150Y017648D01*
X016129Y017692D01*
X016112Y017738D01*
X016098Y017785D01*
X016088Y017833D01*
X016082Y017881D01*
X016080Y017930D01*
X016080Y016430D02*
X016082Y016479D01*
X016088Y016527D01*
X016098Y016575D01*
X016112Y016622D01*
X016129Y016668D01*
X016150Y016712D01*
X016175Y016754D01*
X016203Y016794D01*
X016235Y016832D01*
X016269Y016867D01*
X016306Y016899D01*
X016345Y016928D01*
X016387Y016954D01*
X016431Y016976D01*
X016476Y016994D01*
X016523Y017009D01*
X016570Y017020D01*
X016619Y017027D01*
X016668Y017030D01*
X016717Y017029D01*
X016765Y017024D01*
X016814Y017015D01*
X016861Y017002D01*
X016907Y016985D01*
X016951Y016965D01*
X016994Y016941D01*
X017035Y016914D01*
X017073Y016883D01*
X017109Y016850D01*
X017141Y016814D01*
X017171Y016775D01*
X017198Y016734D01*
X017221Y016690D01*
X017240Y016645D01*
X017256Y016599D01*
X017268Y016552D01*
X017276Y016503D01*
X017280Y016454D01*
X017280Y016406D01*
X017276Y016357D01*
X017268Y016308D01*
X017256Y016261D01*
X017240Y016215D01*
X017221Y016170D01*
X017198Y016126D01*
X017171Y016085D01*
X017141Y016046D01*
X017109Y016010D01*
X017073Y015977D01*
X017035Y015946D01*
X016994Y015919D01*
X016951Y015895D01*
X016907Y015875D01*
X016861Y015858D01*
X016814Y015845D01*
X016765Y015836D01*
X016717Y015831D01*
X016668Y015830D01*
X016619Y015833D01*
X016570Y015840D01*
X016523Y015851D01*
X016476Y015866D01*
X016431Y015884D01*
X016387Y015906D01*
X016345Y015932D01*
X016306Y015961D01*
X016269Y015993D01*
X016235Y016028D01*
X016203Y016066D01*
X016175Y016106D01*
X016150Y016148D01*
X016129Y016192D01*
X016112Y016238D01*
X016098Y016285D01*
X016088Y016333D01*
X016082Y016381D01*
X016080Y016430D01*
X016082Y016479D01*
X016088Y016527D01*
X016098Y016575D01*
X016112Y016622D01*
X016129Y016668D01*
X016150Y016712D01*
X016175Y016754D01*
X016203Y016794D01*
X016235Y016832D01*
X016269Y016867D01*
X016306Y016899D01*
X016345Y016928D01*
X016387Y016954D01*
X016431Y016976D01*
X016476Y016994D01*
X016523Y017009D01*
X016570Y017020D01*
X016619Y017027D01*
X016668Y017030D01*
X016717Y017029D01*
X016765Y017024D01*
X016814Y017015D01*
X016861Y017002D01*
X016907Y016985D01*
X016951Y016965D01*
X016994Y016941D01*
X017035Y016914D01*
X017073Y016883D01*
X017109Y016850D01*
X017141Y016814D01*
X017171Y016775D01*
X017198Y016734D01*
X017221Y016690D01*
X017240Y016645D01*
X017256Y016599D01*
X017268Y016552D01*
X017276Y016503D01*
X017280Y016454D01*
X017280Y016406D01*
X017276Y016357D01*
X017268Y016308D01*
X017256Y016261D01*
X017240Y016215D01*
X017221Y016170D01*
X017198Y016126D01*
X017171Y016085D01*
X017141Y016046D01*
X017109Y016010D01*
X017073Y015977D01*
X017035Y015946D01*
X016994Y015919D01*
X016951Y015895D01*
X016907Y015875D01*
X016861Y015858D01*
X016814Y015845D01*
X016765Y015836D01*
X016717Y015831D01*
X016668Y015830D01*
X016619Y015833D01*
X016570Y015840D01*
X016523Y015851D01*
X016476Y015866D01*
X016431Y015884D01*
X016387Y015906D01*
X016345Y015932D01*
X016306Y015961D01*
X016269Y015993D01*
X016235Y016028D01*
X016203Y016066D01*
X016175Y016106D01*
X016150Y016148D01*
X016129Y016192D01*
X016112Y016238D01*
X016098Y016285D01*
X016088Y016333D01*
X016082Y016381D01*
X016080Y016430D01*
X014975Y016205D02*
X014817Y016205D01*
X014755Y015655D02*
X013105Y015655D01*
X013105Y015580D02*
X014755Y015580D01*
X014817Y015030D02*
X014975Y015030D01*
X014975Y015030D01*
X014043Y015030D02*
X013817Y015030D01*
X014755Y015580D02*
X014790Y015532D01*
X014823Y015482D01*
X014854Y015430D01*
X014881Y015376D01*
X014905Y015321D01*
X014925Y015264D01*
X014943Y015207D01*
X014957Y015149D01*
X014968Y015090D01*
X014975Y015030D01*
X013620Y013927D02*
X013560Y013947D01*
X013501Y013971D01*
X013444Y013999D01*
X013389Y014030D01*
X013335Y014065D01*
X013284Y014102D01*
X013235Y014143D01*
X013189Y014187D01*
X013145Y014233D01*
X013104Y014282D01*
X013066Y014333D01*
X013032Y014386D01*
X013000Y014442D01*
X012973Y014499D01*
X012948Y014558D01*
X012928Y014618D01*
X012910Y014679D01*
X012897Y014741D01*
X012888Y014804D01*
X012882Y014867D01*
X012880Y014931D01*
X012882Y014995D01*
X012888Y015058D01*
X012897Y015121D01*
X012911Y015183D01*
X012928Y015244D01*
X012949Y015304D01*
X012973Y015363D01*
X013001Y015420D01*
X013033Y015476D01*
X013068Y015529D01*
X013105Y015580D01*
X013043Y015030D02*
X012885Y015030D01*
X014755Y015580D02*
X014790Y015532D01*
X014823Y015482D01*
X014854Y015430D01*
X014881Y015376D01*
X014905Y015321D01*
X014925Y015264D01*
X014943Y015207D01*
X014957Y015149D01*
X014968Y015090D01*
X014975Y015030D01*
X013620Y013927D02*
X013560Y013947D01*
X013501Y013971D01*
X013444Y013999D01*
X013389Y014030D01*
X013335Y014065D01*
X013284Y014102D01*
X013235Y014143D01*
X013189Y014187D01*
X013145Y014233D01*
X013104Y014282D01*
X013066Y014333D01*
X013032Y014386D01*
X013000Y014442D01*
X012973Y014499D01*
X012948Y014558D01*
X012928Y014618D01*
X012910Y014679D01*
X012897Y014741D01*
X012888Y014804D01*
X012882Y014867D01*
X012880Y014931D01*
X012882Y014995D01*
X012888Y015058D01*
X012897Y015121D01*
X012911Y015183D01*
X012928Y015244D01*
X012949Y015304D01*
X012973Y015363D01*
X013001Y015420D01*
X013033Y015476D01*
X013068Y015529D01*
X013105Y015580D01*
X013043Y016205D02*
X012885Y016205D01*
X012885Y016205D01*
X013817Y016205D02*
X014043Y016205D01*
X013105Y015655D02*
X013070Y015703D01*
X013037Y015753D01*
X013006Y015805D01*
X012979Y015859D01*
X012955Y015914D01*
X012935Y015971D01*
X012917Y016028D01*
X012903Y016086D01*
X012892Y016145D01*
X012885Y016205D01*
X012892Y016145D01*
X012903Y016086D01*
X012917Y016028D01*
X012935Y015971D01*
X012955Y015914D01*
X012979Y015859D01*
X013006Y015805D01*
X013037Y015753D01*
X013070Y015703D01*
X013105Y015655D01*
X014975Y015030D02*
X014979Y014968D01*
X014980Y014905D01*
X014976Y014843D01*
X014969Y014781D01*
X014959Y014720D01*
X014944Y014659D01*
X014926Y014599D01*
X014905Y014540D01*
X014880Y014483D01*
X014852Y014428D01*
X014821Y014374D01*
X014786Y014322D01*
X014748Y014272D01*
X014708Y014225D01*
X014664Y014180D01*
X014619Y014137D01*
X014570Y014098D01*
X014520Y014061D01*
X014467Y014028D01*
X014413Y013997D01*
X014356Y013970D01*
X014299Y013947D01*
X014240Y013927D01*
X014299Y013947D01*
X014356Y013970D01*
X014413Y013997D01*
X014467Y014028D01*
X014520Y014061D01*
X014570Y014098D01*
X014619Y014137D01*
X014664Y014180D01*
X014708Y014225D01*
X014748Y014272D01*
X014786Y014322D01*
X014821Y014374D01*
X014852Y014428D01*
X014880Y014483D01*
X014905Y014540D01*
X014926Y014599D01*
X014944Y014659D01*
X014959Y014720D01*
X014969Y014781D01*
X014976Y014843D01*
X014980Y014905D01*
X014979Y014968D01*
X014975Y015030D01*
X014755Y015655D02*
X014792Y015706D01*
X014827Y015759D01*
X014859Y015815D01*
X014887Y015872D01*
X014911Y015931D01*
X014932Y015991D01*
X014949Y016052D01*
X014963Y016114D01*
X014972Y016177D01*
X014978Y016240D01*
X014980Y016304D01*
X014978Y016368D01*
X014972Y016431D01*
X014963Y016494D01*
X014950Y016556D01*
X014932Y016617D01*
X014912Y016677D01*
X014887Y016736D01*
X014860Y016793D01*
X014828Y016849D01*
X014794Y016902D01*
X014756Y016953D01*
X014715Y017002D01*
X014671Y017048D01*
X014625Y017092D01*
X014576Y017133D01*
X014525Y017170D01*
X014471Y017205D01*
X014416Y017236D01*
X014359Y017264D01*
X014300Y017288D01*
X014240Y017308D01*
X013620Y017308D02*
X013561Y017288D01*
X013504Y017265D01*
X013447Y017238D01*
X013393Y017207D01*
X013340Y017174D01*
X013290Y017137D01*
X013241Y017098D01*
X013196Y017055D01*
X013152Y017010D01*
X013112Y016963D01*
X013074Y016913D01*
X013039Y016861D01*
X013008Y016807D01*
X012980Y016752D01*
X012955Y016695D01*
X012934Y016636D01*
X012916Y016576D01*
X012901Y016515D01*
X012891Y016454D01*
X012884Y016392D01*
X012880Y016330D01*
X012881Y016267D01*
X012885Y016205D01*
X014240Y017308D02*
X014300Y017288D01*
X014359Y017264D01*
X014416Y017236D01*
X014471Y017205D01*
X014525Y017170D01*
X014576Y017133D01*
X014625Y017092D01*
X014671Y017048D01*
X014715Y017002D01*
X014756Y016953D01*
X014794Y016902D01*
X014828Y016849D01*
X014860Y016793D01*
X014887Y016736D01*
X014912Y016677D01*
X014932Y016617D01*
X014950Y016556D01*
X014963Y016494D01*
X014972Y016431D01*
X014978Y016368D01*
X014980Y016304D01*
X014978Y016240D01*
X014972Y016177D01*
X014963Y016114D01*
X014949Y016052D01*
X014932Y015991D01*
X014911Y015931D01*
X014887Y015872D01*
X014859Y015815D01*
X014827Y015759D01*
X014792Y015706D01*
X014755Y015655D01*
X012885Y016205D02*
X012881Y016267D01*
X012880Y016330D01*
X012884Y016392D01*
X012891Y016454D01*
X012901Y016515D01*
X012916Y016576D01*
X012934Y016636D01*
X012955Y016695D01*
X012980Y016752D01*
X013008Y016807D01*
X013039Y016861D01*
X013074Y016913D01*
X013112Y016963D01*
X013152Y017010D01*
X013196Y017055D01*
X013241Y017098D01*
X013290Y017137D01*
X013340Y017174D01*
X013393Y017207D01*
X013447Y017238D01*
X013504Y017265D01*
X013561Y017288D01*
X013620Y017308D01*
X016080Y014930D02*
X016082Y014979D01*
X016088Y015027D01*
X016098Y015075D01*
X016112Y015122D01*
X016129Y015168D01*
X016150Y015212D01*
X016175Y015254D01*
X016203Y015294D01*
X016235Y015332D01*
X016269Y015367D01*
X016306Y015399D01*
X016345Y015428D01*
X016387Y015454D01*
X016431Y015476D01*
X016476Y015494D01*
X016523Y015509D01*
X016570Y015520D01*
X016619Y015527D01*
X016668Y015530D01*
X016717Y015529D01*
X016765Y015524D01*
X016814Y015515D01*
X016861Y015502D01*
X016907Y015485D01*
X016951Y015465D01*
X016994Y015441D01*
X017035Y015414D01*
X017073Y015383D01*
X017109Y015350D01*
X017141Y015314D01*
X017171Y015275D01*
X017198Y015234D01*
X017221Y015190D01*
X017240Y015145D01*
X017256Y015099D01*
X017268Y015052D01*
X017276Y015003D01*
X017280Y014954D01*
X017280Y014906D01*
X017276Y014857D01*
X017268Y014808D01*
X017256Y014761D01*
X017240Y014715D01*
X017221Y014670D01*
X017198Y014626D01*
X017171Y014585D01*
X017141Y014546D01*
X017109Y014510D01*
X017073Y014477D01*
X017035Y014446D01*
X016994Y014419D01*
X016951Y014395D01*
X016907Y014375D01*
X016861Y014358D01*
X016814Y014345D01*
X016765Y014336D01*
X016717Y014331D01*
X016668Y014330D01*
X016619Y014333D01*
X016570Y014340D01*
X016523Y014351D01*
X016476Y014366D01*
X016431Y014384D01*
X016387Y014406D01*
X016345Y014432D01*
X016306Y014461D01*
X016269Y014493D01*
X016235Y014528D01*
X016203Y014566D01*
X016175Y014606D01*
X016150Y014648D01*
X016129Y014692D01*
X016112Y014738D01*
X016098Y014785D01*
X016088Y014833D01*
X016082Y014881D01*
X016080Y014930D01*
X016082Y014979D01*
X016088Y015027D01*
X016098Y015075D01*
X016112Y015122D01*
X016129Y015168D01*
X016150Y015212D01*
X016175Y015254D01*
X016203Y015294D01*
X016235Y015332D01*
X016269Y015367D01*
X016306Y015399D01*
X016345Y015428D01*
X016387Y015454D01*
X016431Y015476D01*
X016476Y015494D01*
X016523Y015509D01*
X016570Y015520D01*
X016619Y015527D01*
X016668Y015530D01*
X016717Y015529D01*
X016765Y015524D01*
X016814Y015515D01*
X016861Y015502D01*
X016907Y015485D01*
X016951Y015465D01*
X016994Y015441D01*
X017035Y015414D01*
X017073Y015383D01*
X017109Y015350D01*
X017141Y015314D01*
X017171Y015275D01*
X017198Y015234D01*
X017221Y015190D01*
X017240Y015145D01*
X017256Y015099D01*
X017268Y015052D01*
X017276Y015003D01*
X017280Y014954D01*
X017280Y014906D01*
X017276Y014857D01*
X017268Y014808D01*
X017256Y014761D01*
X017240Y014715D01*
X017221Y014670D01*
X017198Y014626D01*
X017171Y014585D01*
X017141Y014546D01*
X017109Y014510D01*
X017073Y014477D01*
X017035Y014446D01*
X016994Y014419D01*
X016951Y014395D01*
X016907Y014375D01*
X016861Y014358D01*
X016814Y014345D01*
X016765Y014336D01*
X016717Y014331D01*
X016668Y014330D01*
X016619Y014333D01*
X016570Y014340D01*
X016523Y014351D01*
X016476Y014366D01*
X016431Y014384D01*
X016387Y014406D01*
X016345Y014432D01*
X016306Y014461D01*
X016269Y014493D01*
X016235Y014528D01*
X016203Y014566D01*
X016175Y014606D01*
X016150Y014648D01*
X016129Y014692D01*
X016112Y014738D01*
X016098Y014785D01*
X016088Y014833D01*
X016082Y014881D01*
X016080Y014930D01*
X016080Y013430D02*
X016082Y013479D01*
X016088Y013527D01*
X016098Y013575D01*
X016112Y013622D01*
X016129Y013668D01*
X016150Y013712D01*
X016175Y013754D01*
X016203Y013794D01*
X016235Y013832D01*
X016269Y013867D01*
X016306Y013899D01*
X016345Y013928D01*
X016387Y013954D01*
X016431Y013976D01*
X016476Y013994D01*
X016523Y014009D01*
X016570Y014020D01*
X016619Y014027D01*
X016668Y014030D01*
X016717Y014029D01*
X016765Y014024D01*
X016814Y014015D01*
X016861Y014002D01*
X016907Y013985D01*
X016951Y013965D01*
X016994Y013941D01*
X017035Y013914D01*
X017073Y013883D01*
X017109Y013850D01*
X017141Y013814D01*
X017171Y013775D01*
X017198Y013734D01*
X017221Y013690D01*
X017240Y013645D01*
X017256Y013599D01*
X017268Y013552D01*
X017276Y013503D01*
X017280Y013454D01*
X017280Y013406D01*
X017276Y013357D01*
X017268Y013308D01*
X017256Y013261D01*
X017240Y013215D01*
X017221Y013170D01*
X017198Y013126D01*
X017171Y013085D01*
X017141Y013046D01*
X017109Y013010D01*
X017073Y012977D01*
X017035Y012946D01*
X016994Y012919D01*
X016951Y012895D01*
X016907Y012875D01*
X016861Y012858D01*
X016814Y012845D01*
X016765Y012836D01*
X016717Y012831D01*
X016668Y012830D01*
X016619Y012833D01*
X016570Y012840D01*
X016523Y012851D01*
X016476Y012866D01*
X016431Y012884D01*
X016387Y012906D01*
X016345Y012932D01*
X016306Y012961D01*
X016269Y012993D01*
X016235Y013028D01*
X016203Y013066D01*
X016175Y013106D01*
X016150Y013148D01*
X016129Y013192D01*
X016112Y013238D01*
X016098Y013285D01*
X016088Y013333D01*
X016082Y013381D01*
X016080Y013430D01*
X016082Y013479D01*
X016088Y013527D01*
X016098Y013575D01*
X016112Y013622D01*
X016129Y013668D01*
X016150Y013712D01*
X016175Y013754D01*
X016203Y013794D01*
X016235Y013832D01*
X016269Y013867D01*
X016306Y013899D01*
X016345Y013928D01*
X016387Y013954D01*
X016431Y013976D01*
X016476Y013994D01*
X016523Y014009D01*
X016570Y014020D01*
X016619Y014027D01*
X016668Y014030D01*
X016717Y014029D01*
X016765Y014024D01*
X016814Y014015D01*
X016861Y014002D01*
X016907Y013985D01*
X016951Y013965D01*
X016994Y013941D01*
X017035Y013914D01*
X017073Y013883D01*
X017109Y013850D01*
X017141Y013814D01*
X017171Y013775D01*
X017198Y013734D01*
X017221Y013690D01*
X017240Y013645D01*
X017256Y013599D01*
X017268Y013552D01*
X017276Y013503D01*
X017280Y013454D01*
X017280Y013406D01*
X017276Y013357D01*
X017268Y013308D01*
X017256Y013261D01*
X017240Y013215D01*
X017221Y013170D01*
X017198Y013126D01*
X017171Y013085D01*
X017141Y013046D01*
X017109Y013010D01*
X017073Y012977D01*
X017035Y012946D01*
X016994Y012919D01*
X016951Y012895D01*
X016907Y012875D01*
X016861Y012858D01*
X016814Y012845D01*
X016765Y012836D01*
X016717Y012831D01*
X016668Y012830D01*
X016619Y012833D01*
X016570Y012840D01*
X016523Y012851D01*
X016476Y012866D01*
X016431Y012884D01*
X016387Y012906D01*
X016345Y012932D01*
X016306Y012961D01*
X016269Y012993D01*
X016235Y013028D01*
X016203Y013066D01*
X016175Y013106D01*
X016150Y013148D01*
X016129Y013192D01*
X016112Y013238D01*
X016098Y013285D01*
X016088Y013333D01*
X016082Y013381D01*
X016080Y013430D01*
X014975Y012455D02*
X014817Y012455D01*
X014755Y011905D02*
X013105Y011905D01*
X013105Y011830D02*
X014755Y011830D01*
X014817Y011280D02*
X014975Y011280D01*
X014975Y011280D01*
X014043Y011280D02*
X013817Y011280D01*
X014755Y011830D02*
X014790Y011782D01*
X014823Y011732D01*
X014854Y011680D01*
X014881Y011626D01*
X014905Y011571D01*
X014925Y011514D01*
X014943Y011457D01*
X014957Y011399D01*
X014968Y011340D01*
X014975Y011280D01*
X015330Y011430D02*
X015332Y011479D01*
X015338Y011527D01*
X015348Y011575D01*
X015362Y011622D01*
X015379Y011668D01*
X015400Y011712D01*
X015425Y011754D01*
X015453Y011794D01*
X015485Y011832D01*
X015519Y011867D01*
X015556Y011899D01*
X015595Y011928D01*
X015637Y011954D01*
X015681Y011976D01*
X015726Y011994D01*
X015773Y012009D01*
X015820Y012020D01*
X015869Y012027D01*
X015918Y012030D01*
X015967Y012029D01*
X016015Y012024D01*
X016064Y012015D01*
X016111Y012002D01*
X016157Y011985D01*
X016201Y011965D01*
X016244Y011941D01*
X016285Y011914D01*
X016323Y011883D01*
X016359Y011850D01*
X016391Y011814D01*
X016421Y011775D01*
X016448Y011734D01*
X016471Y011690D01*
X016490Y011645D01*
X016506Y011599D01*
X016518Y011552D01*
X016526Y011503D01*
X016530Y011454D01*
X016530Y011406D01*
X016526Y011357D01*
X016518Y011308D01*
X016506Y011261D01*
X016490Y011215D01*
X016471Y011170D01*
X016448Y011126D01*
X016421Y011085D01*
X016391Y011046D01*
X016359Y011010D01*
X016323Y010977D01*
X016285Y010946D01*
X016244Y010919D01*
X016201Y010895D01*
X016157Y010875D01*
X016111Y010858D01*
X016064Y010845D01*
X016015Y010836D01*
X015967Y010831D01*
X015918Y010830D01*
X015869Y010833D01*
X015820Y010840D01*
X015773Y010851D01*
X015726Y010866D01*
X015681Y010884D01*
X015637Y010906D01*
X015595Y010932D01*
X015556Y010961D01*
X015519Y010993D01*
X015485Y011028D01*
X015453Y011066D01*
X015425Y011106D01*
X015400Y011148D01*
X015379Y011192D01*
X015362Y011238D01*
X015348Y011285D01*
X015338Y011333D01*
X015332Y011381D01*
X015330Y011430D01*
X015332Y011479D01*
X015338Y011527D01*
X015348Y011575D01*
X015362Y011622D01*
X015379Y011668D01*
X015400Y011712D01*
X015425Y011754D01*
X015453Y011794D01*
X015485Y011832D01*
X015519Y011867D01*
X015556Y011899D01*
X015595Y011928D01*
X015637Y011954D01*
X015681Y011976D01*
X015726Y011994D01*
X015773Y012009D01*
X015820Y012020D01*
X015869Y012027D01*
X015918Y012030D01*
X015967Y012029D01*
X016015Y012024D01*
X016064Y012015D01*
X016111Y012002D01*
X016157Y011985D01*
X016201Y011965D01*
X016244Y011941D01*
X016285Y011914D01*
X016323Y011883D01*
X016359Y011850D01*
X016391Y011814D01*
X016421Y011775D01*
X016448Y011734D01*
X016471Y011690D01*
X016490Y011645D01*
X016506Y011599D01*
X016518Y011552D01*
X016526Y011503D01*
X016530Y011454D01*
X016530Y011406D01*
X016526Y011357D01*
X016518Y011308D01*
X016506Y011261D01*
X016490Y011215D01*
X016471Y011170D01*
X016448Y011126D01*
X016421Y011085D01*
X016391Y011046D01*
X016359Y011010D01*
X016323Y010977D01*
X016285Y010946D01*
X016244Y010919D01*
X016201Y010895D01*
X016157Y010875D01*
X016111Y010858D01*
X016064Y010845D01*
X016015Y010836D01*
X015967Y010831D01*
X015918Y010830D01*
X015869Y010833D01*
X015820Y010840D01*
X015773Y010851D01*
X015726Y010866D01*
X015681Y010884D01*
X015637Y010906D01*
X015595Y010932D01*
X015556Y010961D01*
X015519Y010993D01*
X015485Y011028D01*
X015453Y011066D01*
X015425Y011106D01*
X015400Y011148D01*
X015379Y011192D01*
X015362Y011238D01*
X015348Y011285D01*
X015338Y011333D01*
X015332Y011381D01*
X015330Y011430D01*
X014043Y012455D02*
X013817Y012455D01*
X013105Y011905D02*
X013070Y011953D01*
X013037Y012003D01*
X013006Y012055D01*
X012979Y012109D01*
X012955Y012164D01*
X012935Y012221D01*
X012917Y012278D01*
X012903Y012336D01*
X012892Y012395D01*
X012885Y012455D01*
X012885Y012455D01*
X013043Y012455D01*
X012885Y012455D02*
X012892Y012395D01*
X012903Y012336D01*
X012917Y012278D01*
X012935Y012221D01*
X012955Y012164D01*
X012979Y012109D01*
X013006Y012055D01*
X013037Y012003D01*
X013070Y011953D01*
X013105Y011905D01*
X013043Y011280D02*
X012885Y011280D01*
X014755Y011830D02*
X014790Y011782D01*
X014823Y011732D01*
X014854Y011680D01*
X014881Y011626D01*
X014905Y011571D01*
X014925Y011514D01*
X014943Y011457D01*
X014957Y011399D01*
X014968Y011340D01*
X014975Y011280D01*
X013620Y010177D02*
X013560Y010197D01*
X013501Y010221D01*
X013444Y010249D01*
X013389Y010280D01*
X013335Y010315D01*
X013284Y010352D01*
X013235Y010393D01*
X013189Y010437D01*
X013145Y010483D01*
X013104Y010532D01*
X013066Y010583D01*
X013032Y010636D01*
X013000Y010692D01*
X012973Y010749D01*
X012948Y010808D01*
X012928Y010868D01*
X012910Y010929D01*
X012897Y010991D01*
X012888Y011054D01*
X012882Y011117D01*
X012880Y011181D01*
X012882Y011245D01*
X012888Y011308D01*
X012897Y011371D01*
X012911Y011433D01*
X012928Y011494D01*
X012949Y011554D01*
X012973Y011613D01*
X013001Y011670D01*
X013033Y011726D01*
X013068Y011779D01*
X013105Y011830D01*
X013068Y011779D01*
X013033Y011726D01*
X013001Y011670D01*
X012973Y011613D01*
X012949Y011554D01*
X012928Y011494D01*
X012911Y011433D01*
X012897Y011371D01*
X012888Y011308D01*
X012882Y011245D01*
X012880Y011181D01*
X012882Y011117D01*
X012888Y011054D01*
X012897Y010991D01*
X012910Y010929D01*
X012928Y010868D01*
X012948Y010808D01*
X012973Y010749D01*
X013000Y010692D01*
X013032Y010636D01*
X013066Y010583D01*
X013104Y010532D01*
X013145Y010483D01*
X013189Y010437D01*
X013235Y010393D01*
X013284Y010352D01*
X013335Y010315D01*
X013389Y010280D01*
X013444Y010249D01*
X013501Y010221D01*
X013560Y010197D01*
X013620Y010177D01*
X013680Y009130D02*
X012680Y009130D01*
X012663Y009128D01*
X012646Y009124D01*
X012630Y009117D01*
X012616Y009107D01*
X012603Y009094D01*
X012593Y009080D01*
X012586Y009064D01*
X012582Y009047D01*
X012580Y009030D01*
X012580Y007330D01*
X012582Y007313D01*
X012586Y007296D01*
X012593Y007280D01*
X012603Y007266D01*
X012616Y007253D01*
X012630Y007243D01*
X012646Y007236D01*
X012663Y007232D01*
X012680Y007230D01*
X013680Y007230D01*
X013697Y007232D01*
X013714Y007236D01*
X013730Y007243D01*
X013744Y007253D01*
X013757Y007266D01*
X013767Y007280D01*
X013774Y007296D01*
X013778Y007313D01*
X013780Y007330D01*
X013780Y009030D01*
X013778Y009047D01*
X013774Y009064D01*
X013767Y009080D01*
X013757Y009094D01*
X013744Y009107D01*
X013730Y009117D01*
X013714Y009124D01*
X013697Y009128D01*
X013680Y009130D01*
X013697Y009128D01*
X013714Y009124D01*
X013730Y009117D01*
X013744Y009107D01*
X013757Y009094D01*
X013767Y009080D01*
X013774Y009064D01*
X013778Y009047D01*
X013780Y009030D01*
X013180Y008330D02*
X013180Y008280D01*
X013180Y008080D02*
X013180Y008030D01*
X012580Y007330D02*
X012582Y007313D01*
X012586Y007296D01*
X012593Y007280D01*
X012603Y007266D01*
X012616Y007253D01*
X012630Y007243D01*
X012646Y007236D01*
X012663Y007232D01*
X012680Y007230D01*
X013680Y007230D02*
X013697Y007232D01*
X013714Y007236D01*
X013730Y007243D01*
X013744Y007253D01*
X013757Y007266D01*
X013767Y007280D01*
X013774Y007296D01*
X013778Y007313D01*
X013780Y007330D01*
X015030Y005930D02*
X015780Y005930D01*
X015782Y005969D01*
X015788Y006008D01*
X015797Y006046D01*
X015810Y006083D01*
X015827Y006119D01*
X015847Y006152D01*
X015871Y006184D01*
X015897Y006213D01*
X015926Y006239D01*
X015958Y006263D01*
X015991Y006283D01*
X016027Y006300D01*
X016064Y006313D01*
X016102Y006322D01*
X016141Y006328D01*
X016180Y006330D01*
X016219Y006328D01*
X016258Y006322D01*
X016296Y006313D01*
X016333Y006300D01*
X016369Y006283D01*
X016402Y006263D01*
X016434Y006239D01*
X016463Y006213D01*
X016489Y006184D01*
X016513Y006152D01*
X016533Y006119D01*
X016550Y006083D01*
X016563Y006046D01*
X016572Y006008D01*
X016578Y005969D01*
X016580Y005930D01*
X017330Y005930D01*
X017330Y009930D01*
X015030Y009930D01*
X015030Y005930D01*
X015780Y005930D02*
X015782Y005969D01*
X015788Y006008D01*
X015797Y006046D01*
X015810Y006083D01*
X015827Y006119D01*
X015847Y006152D01*
X015871Y006184D01*
X015897Y006213D01*
X015926Y006239D01*
X015958Y006263D01*
X015991Y006283D01*
X016027Y006300D01*
X016064Y006313D01*
X016102Y006322D01*
X016141Y006328D01*
X016180Y006330D01*
X016219Y006328D01*
X016258Y006322D01*
X016296Y006313D01*
X016333Y006300D01*
X016369Y006283D01*
X016402Y006263D01*
X016434Y006239D01*
X016463Y006213D01*
X016489Y006184D01*
X016513Y006152D01*
X016533Y006119D01*
X016550Y006083D01*
X016563Y006046D01*
X016572Y006008D01*
X016578Y005969D01*
X016580Y005930D01*
X015930Y004680D02*
X015930Y004180D01*
X015886Y004178D01*
X015843Y004172D01*
X015801Y004163D01*
X015759Y004150D01*
X015719Y004133D01*
X015680Y004113D01*
X015643Y004090D01*
X015609Y004063D01*
X015576Y004034D01*
X015547Y004001D01*
X015520Y003967D01*
X015497Y003930D01*
X015477Y003891D01*
X015460Y003851D01*
X015447Y003809D01*
X015438Y003767D01*
X015432Y003724D01*
X015430Y003680D01*
X015432Y003636D01*
X015438Y003593D01*
X015447Y003551D01*
X015460Y003509D01*
X015477Y003469D01*
X015497Y003430D01*
X015520Y003393D01*
X015547Y003359D01*
X015576Y003326D01*
X015609Y003297D01*
X015643Y003270D01*
X015680Y003247D01*
X015719Y003227D01*
X015759Y003210D01*
X015801Y003197D01*
X015843Y003188D01*
X015886Y003182D01*
X015930Y003180D01*
X015930Y002680D01*
X001948Y002680D01*
X001930Y002680D01*
X001930Y004680D01*
X015880Y004680D01*
X015930Y004180D02*
X015886Y004178D01*
X015843Y004172D01*
X015801Y004163D01*
X015759Y004150D01*
X015719Y004133D01*
X015680Y004113D01*
X015643Y004090D01*
X015609Y004063D01*
X015576Y004034D01*
X015547Y004001D01*
X015520Y003967D01*
X015497Y003930D01*
X015477Y003891D01*
X015460Y003851D01*
X015447Y003809D01*
X015438Y003767D01*
X015432Y003724D01*
X015430Y003680D01*
X015432Y003636D01*
X015438Y003593D01*
X015447Y003551D01*
X015460Y003509D01*
X015477Y003469D01*
X015497Y003430D01*
X015520Y003393D01*
X015547Y003359D01*
X015576Y003326D01*
X015609Y003297D01*
X015643Y003270D01*
X015680Y003247D01*
X015719Y003227D01*
X015759Y003210D01*
X015801Y003197D01*
X015843Y003188D01*
X015886Y003182D01*
X015930Y003180D01*
X015948Y002680D01*
X015930Y002680D01*
X017430Y003480D02*
X017447Y003482D01*
X017464Y003486D01*
X017480Y003493D01*
X017494Y003503D01*
X017507Y003516D01*
X017517Y003530D01*
X017524Y003546D01*
X017528Y003563D01*
X017530Y003580D01*
X018308Y003163D02*
X019424Y002108D01*
X020324Y002108D01*
X020324Y001756D01*
X021576Y001756D01*
X021576Y002108D01*
X023149Y002108D01*
X023149Y002830D01*
X022264Y003573D01*
X022264Y005930D01*
X023149Y006830D01*
X023149Y007352D01*
X021576Y007352D01*
X021576Y007704D01*
X020284Y007704D01*
X020284Y007352D01*
X019484Y007352D01*
X018308Y006236D01*
X018308Y003163D01*
X019980Y008330D02*
X022980Y008330D01*
X022997Y008332D01*
X023014Y008336D01*
X023030Y008343D01*
X023044Y008353D01*
X023057Y008366D01*
X023067Y008380D01*
X023074Y008396D01*
X023078Y008413D01*
X023080Y008430D01*
X023080Y009430D01*
X023078Y009447D01*
X023074Y009464D01*
X023067Y009480D01*
X023057Y009494D01*
X023044Y009507D01*
X023030Y009517D01*
X023014Y009524D01*
X022997Y009528D01*
X022980Y009530D01*
X019980Y009530D01*
X019980Y009480D01*
X019980Y008380D01*
X019980Y008330D01*
X019980Y008380D02*
X019830Y008380D01*
X019830Y009480D01*
X019980Y009480D01*
X020880Y008930D02*
X021080Y008930D01*
X021080Y008630D01*
X021230Y008630D02*
X021380Y008630D01*
X021380Y009230D01*
X021230Y009230D01*
X021230Y008630D01*
X021530Y008630D02*
X021530Y008930D01*
X021730Y008930D01*
X021530Y008930D02*
X021530Y009230D01*
X021080Y009230D02*
X021080Y008930D01*
X022980Y008330D02*
X022997Y008332D01*
X023014Y008336D01*
X023030Y008343D01*
X023044Y008353D01*
X023057Y008366D01*
X023067Y008380D01*
X023074Y008396D01*
X023078Y008413D01*
X023080Y008430D01*
X023080Y009430D02*
X023078Y009447D01*
X023074Y009464D01*
X023067Y009480D01*
X023057Y009494D01*
X023044Y009507D01*
X023030Y009517D01*
X023014Y009524D01*
X022997Y009528D01*
X022980Y009530D01*
X020467Y010735D02*
X020467Y012704D01*
X020465Y012759D01*
X020459Y012814D01*
X020450Y012868D01*
X020437Y012921D01*
X020420Y012973D01*
X020399Y013024D01*
X020375Y013073D01*
X020347Y013121D01*
X020317Y013167D01*
X020283Y013210D01*
X020246Y013251D01*
X020207Y013289D01*
X020165Y013324D01*
X020120Y013356D01*
X020074Y013386D01*
X020025Y013411D01*
X019975Y013434D01*
X019923Y013452D01*
X019870Y013468D01*
X019817Y013479D01*
X019762Y013487D01*
X019707Y013491D01*
X019653Y013491D01*
X019598Y013487D01*
X019543Y013479D01*
X019490Y013468D01*
X019437Y013452D01*
X019385Y013434D01*
X019335Y013411D01*
X019287Y013386D01*
X019240Y013356D01*
X019195Y013324D01*
X019153Y013289D01*
X019114Y013251D01*
X019077Y013210D01*
X019043Y013167D01*
X019013Y013121D01*
X018985Y013073D01*
X018961Y013024D01*
X018940Y012973D01*
X018923Y012921D01*
X018910Y012868D01*
X018901Y012814D01*
X018895Y012759D01*
X018893Y012704D01*
X018893Y010735D01*
X018895Y010680D01*
X018901Y010625D01*
X018910Y010571D01*
X018923Y010518D01*
X018940Y010466D01*
X018961Y010415D01*
X018985Y010366D01*
X019013Y010318D01*
X019043Y010272D01*
X019077Y010229D01*
X019114Y010188D01*
X019153Y010150D01*
X019195Y010115D01*
X019240Y010083D01*
X019287Y010053D01*
X019335Y010028D01*
X019385Y010005D01*
X019437Y009987D01*
X019490Y009971D01*
X019543Y009960D01*
X019598Y009952D01*
X019653Y009948D01*
X019707Y009948D01*
X019762Y009952D01*
X019817Y009960D01*
X019870Y009971D01*
X019923Y009987D01*
X019975Y010005D01*
X020025Y010028D01*
X020074Y010053D01*
X020120Y010083D01*
X020165Y010115D01*
X020207Y010150D01*
X020246Y010188D01*
X020283Y010229D01*
X020317Y010272D01*
X020347Y010318D01*
X020375Y010366D01*
X020399Y010415D01*
X020420Y010466D01*
X020437Y010518D01*
X020450Y010571D01*
X020459Y010625D01*
X020465Y010680D01*
X020467Y010735D01*
X020465Y010680D01*
X020459Y010625D01*
X020450Y010571D01*
X020437Y010518D01*
X020420Y010466D01*
X020399Y010415D01*
X020375Y010366D01*
X020347Y010318D01*
X020317Y010272D01*
X020283Y010229D01*
X020246Y010188D01*
X020207Y010150D01*
X020165Y010115D01*
X020120Y010083D01*
X020074Y010053D01*
X020025Y010028D01*
X019975Y010005D01*
X019923Y009987D01*
X019870Y009971D01*
X019817Y009960D01*
X019762Y009952D01*
X019707Y009948D01*
X019653Y009948D01*
X019598Y009952D01*
X019543Y009960D01*
X019490Y009971D01*
X019437Y009987D01*
X019385Y010005D01*
X019335Y010028D01*
X019287Y010053D01*
X019240Y010083D01*
X019195Y010115D01*
X019153Y010150D01*
X019114Y010188D01*
X019077Y010229D01*
X019043Y010272D01*
X019013Y010318D01*
X018985Y010366D01*
X018961Y010415D01*
X018940Y010466D01*
X018923Y010518D01*
X018910Y010571D01*
X018901Y010625D01*
X018895Y010680D01*
X018893Y010735D01*
X016830Y011430D02*
X016832Y011479D01*
X016838Y011527D01*
X016848Y011575D01*
X016862Y011622D01*
X016879Y011668D01*
X016900Y011712D01*
X016925Y011754D01*
X016953Y011794D01*
X016985Y011832D01*
X017019Y011867D01*
X017056Y011899D01*
X017095Y011928D01*
X017137Y011954D01*
X017181Y011976D01*
X017226Y011994D01*
X017273Y012009D01*
X017320Y012020D01*
X017369Y012027D01*
X017418Y012030D01*
X017467Y012029D01*
X017515Y012024D01*
X017564Y012015D01*
X017611Y012002D01*
X017657Y011985D01*
X017701Y011965D01*
X017744Y011941D01*
X017785Y011914D01*
X017823Y011883D01*
X017859Y011850D01*
X017891Y011814D01*
X017921Y011775D01*
X017948Y011734D01*
X017971Y011690D01*
X017990Y011645D01*
X018006Y011599D01*
X018018Y011552D01*
X018026Y011503D01*
X018030Y011454D01*
X018030Y011406D01*
X018026Y011357D01*
X018018Y011308D01*
X018006Y011261D01*
X017990Y011215D01*
X017971Y011170D01*
X017948Y011126D01*
X017921Y011085D01*
X017891Y011046D01*
X017859Y011010D01*
X017823Y010977D01*
X017785Y010946D01*
X017744Y010919D01*
X017701Y010895D01*
X017657Y010875D01*
X017611Y010858D01*
X017564Y010845D01*
X017515Y010836D01*
X017467Y010831D01*
X017418Y010830D01*
X017369Y010833D01*
X017320Y010840D01*
X017273Y010851D01*
X017226Y010866D01*
X017181Y010884D01*
X017137Y010906D01*
X017095Y010932D01*
X017056Y010961D01*
X017019Y010993D01*
X016985Y011028D01*
X016953Y011066D01*
X016925Y011106D01*
X016900Y011148D01*
X016879Y011192D01*
X016862Y011238D01*
X016848Y011285D01*
X016838Y011333D01*
X016832Y011381D01*
X016830Y011430D01*
X016832Y011479D01*
X016838Y011527D01*
X016848Y011575D01*
X016862Y011622D01*
X016879Y011668D01*
X016900Y011712D01*
X016925Y011754D01*
X016953Y011794D01*
X016985Y011832D01*
X017019Y011867D01*
X017056Y011899D01*
X017095Y011928D01*
X017137Y011954D01*
X017181Y011976D01*
X017226Y011994D01*
X017273Y012009D01*
X017320Y012020D01*
X017369Y012027D01*
X017418Y012030D01*
X017467Y012029D01*
X017515Y012024D01*
X017564Y012015D01*
X017611Y012002D01*
X017657Y011985D01*
X017701Y011965D01*
X017744Y011941D01*
X017785Y011914D01*
X017823Y011883D01*
X017859Y011850D01*
X017891Y011814D01*
X017921Y011775D01*
X017948Y011734D01*
X017971Y011690D01*
X017990Y011645D01*
X018006Y011599D01*
X018018Y011552D01*
X018026Y011503D01*
X018030Y011454D01*
X018030Y011406D01*
X018026Y011357D01*
X018018Y011308D01*
X018006Y011261D01*
X017990Y011215D01*
X017971Y011170D01*
X017948Y011126D01*
X017921Y011085D01*
X017891Y011046D01*
X017859Y011010D01*
X017823Y010977D01*
X017785Y010946D01*
X017744Y010919D01*
X017701Y010895D01*
X017657Y010875D01*
X017611Y010858D01*
X017564Y010845D01*
X017515Y010836D01*
X017467Y010831D01*
X017418Y010830D01*
X017369Y010833D01*
X017320Y010840D01*
X017273Y010851D01*
X017226Y010866D01*
X017181Y010884D01*
X017137Y010906D01*
X017095Y010932D01*
X017056Y010961D01*
X017019Y010993D01*
X016985Y011028D01*
X016953Y011066D01*
X016925Y011106D01*
X016900Y011148D01*
X016879Y011192D01*
X016862Y011238D01*
X016848Y011285D01*
X016838Y011333D01*
X016832Y011381D01*
X016830Y011430D01*
X018780Y013680D02*
X021080Y013680D01*
X021080Y021680D01*
X020330Y021680D01*
X020328Y021641D01*
X020322Y021602D01*
X020313Y021564D01*
X020300Y021527D01*
X020283Y021491D01*
X020263Y021458D01*
X020239Y021426D01*
X020213Y021397D01*
X020184Y021371D01*
X020152Y021347D01*
X020119Y021327D01*
X020083Y021310D01*
X020046Y021297D01*
X020008Y021288D01*
X019969Y021282D01*
X019930Y021280D01*
X019891Y021282D01*
X019852Y021288D01*
X019814Y021297D01*
X019777Y021310D01*
X019741Y021327D01*
X019708Y021347D01*
X019676Y021371D01*
X019647Y021397D01*
X019621Y021426D01*
X019597Y021458D01*
X019577Y021491D01*
X019560Y021527D01*
X019547Y021564D01*
X019538Y021602D01*
X019532Y021641D01*
X019530Y021680D01*
X018780Y021680D01*
X018780Y013680D01*
X018893Y012704D02*
X018895Y012759D01*
X018901Y012814D01*
X018910Y012868D01*
X018923Y012921D01*
X018940Y012973D01*
X018961Y013024D01*
X018985Y013073D01*
X019013Y013121D01*
X019043Y013167D01*
X019077Y013210D01*
X019114Y013251D01*
X019153Y013289D01*
X019195Y013324D01*
X019240Y013356D01*
X019287Y013386D01*
X019335Y013411D01*
X019385Y013434D01*
X019437Y013452D01*
X019490Y013468D01*
X019543Y013479D01*
X019598Y013487D01*
X019653Y013491D01*
X019707Y013491D01*
X019762Y013487D01*
X019817Y013479D01*
X019870Y013468D01*
X019923Y013452D01*
X019975Y013434D01*
X020025Y013411D01*
X020074Y013386D01*
X020120Y013356D01*
X020165Y013324D01*
X020207Y013289D01*
X020246Y013251D01*
X020283Y013210D01*
X020317Y013167D01*
X020347Y013121D01*
X020375Y013073D01*
X020399Y013024D01*
X020420Y012973D01*
X020437Y012921D01*
X020450Y012868D01*
X020459Y012814D01*
X020465Y012759D01*
X020467Y012704D01*
X013620Y013558D02*
X013561Y013538D01*
X013504Y013515D01*
X013447Y013488D01*
X013393Y013457D01*
X013340Y013424D01*
X013290Y013387D01*
X013241Y013348D01*
X013196Y013305D01*
X013152Y013260D01*
X013112Y013213D01*
X013074Y013163D01*
X013039Y013111D01*
X013008Y013057D01*
X012980Y013002D01*
X012955Y012945D01*
X012934Y012886D01*
X012916Y012826D01*
X012901Y012765D01*
X012891Y012704D01*
X012884Y012642D01*
X012880Y012580D01*
X012881Y012517D01*
X012885Y012455D01*
X014240Y013558D02*
X014300Y013538D01*
X014359Y013514D01*
X014416Y013486D01*
X014471Y013455D01*
X014525Y013420D01*
X014576Y013383D01*
X014625Y013342D01*
X014671Y013298D01*
X014715Y013252D01*
X014756Y013203D01*
X014794Y013152D01*
X014828Y013099D01*
X014860Y013043D01*
X014887Y012986D01*
X014912Y012927D01*
X014932Y012867D01*
X014950Y012806D01*
X014963Y012744D01*
X014972Y012681D01*
X014978Y012618D01*
X014980Y012554D01*
X014978Y012490D01*
X014972Y012427D01*
X014963Y012364D01*
X014949Y012302D01*
X014932Y012241D01*
X014911Y012181D01*
X014887Y012122D01*
X014859Y012065D01*
X014827Y012009D01*
X014792Y011956D01*
X014755Y011905D01*
X014792Y011956D01*
X014827Y012009D01*
X014859Y012065D01*
X014887Y012122D01*
X014911Y012181D01*
X014932Y012241D01*
X014949Y012302D01*
X014963Y012364D01*
X014972Y012427D01*
X014978Y012490D01*
X014980Y012554D01*
X014978Y012618D01*
X014972Y012681D01*
X014963Y012744D01*
X014950Y012806D01*
X014932Y012867D01*
X014912Y012927D01*
X014887Y012986D01*
X014860Y013043D01*
X014828Y013099D01*
X014794Y013152D01*
X014756Y013203D01*
X014715Y013252D01*
X014671Y013298D01*
X014625Y013342D01*
X014576Y013383D01*
X014525Y013420D01*
X014471Y013455D01*
X014416Y013486D01*
X014359Y013514D01*
X014300Y013538D01*
X014240Y013558D01*
X013620Y013558D02*
X013561Y013538D01*
X013504Y013515D01*
X013447Y013488D01*
X013393Y013457D01*
X013340Y013424D01*
X013290Y013387D01*
X013241Y013348D01*
X013196Y013305D01*
X013152Y013260D01*
X013112Y013213D01*
X013074Y013163D01*
X013039Y013111D01*
X013008Y013057D01*
X012980Y013002D01*
X012955Y012945D01*
X012934Y012886D01*
X012916Y012826D01*
X012901Y012765D01*
X012891Y012704D01*
X012884Y012642D01*
X012880Y012580D01*
X012881Y012517D01*
X012885Y012455D01*
X014975Y011280D02*
X014979Y011218D01*
X014980Y011155D01*
X014976Y011093D01*
X014969Y011031D01*
X014959Y010970D01*
X014944Y010909D01*
X014926Y010849D01*
X014905Y010790D01*
X014880Y010733D01*
X014852Y010678D01*
X014821Y010624D01*
X014786Y010572D01*
X014748Y010522D01*
X014708Y010475D01*
X014664Y010430D01*
X014619Y010387D01*
X014570Y010348D01*
X014520Y010311D01*
X014467Y010278D01*
X014413Y010247D01*
X014356Y010220D01*
X014299Y010197D01*
X014240Y010177D01*
X014299Y010197D01*
X014356Y010220D01*
X014413Y010247D01*
X014467Y010278D01*
X014520Y010311D01*
X014570Y010348D01*
X014619Y010387D01*
X014664Y010430D01*
X014708Y010475D01*
X014748Y010522D01*
X014786Y010572D01*
X014821Y010624D01*
X014852Y010678D01*
X014880Y010733D01*
X014905Y010790D01*
X014926Y010849D01*
X014944Y010909D01*
X014959Y010970D01*
X014969Y011031D01*
X014976Y011093D01*
X014980Y011155D01*
X014979Y011218D01*
X014975Y011280D01*
X012680Y009130D02*
X012663Y009128D01*
X012646Y009124D01*
X012630Y009117D01*
X012616Y009107D01*
X012603Y009094D01*
X012593Y009080D01*
X012586Y009064D01*
X012582Y009047D01*
X012580Y009030D01*
X011930Y009030D02*
X011930Y006330D01*
X011928Y006313D01*
X011924Y006296D01*
X011917Y006280D01*
X011907Y006266D01*
X011894Y006253D01*
X011880Y006243D01*
X011864Y006236D01*
X011847Y006232D01*
X011830Y006230D01*
X010030Y006230D01*
X010013Y006232D01*
X009996Y006236D01*
X009980Y006243D01*
X009966Y006253D01*
X009953Y006266D01*
X009943Y006280D01*
X009936Y006296D01*
X009932Y006313D01*
X009930Y006330D01*
X009930Y009030D01*
X009932Y009047D01*
X009936Y009064D01*
X009943Y009080D01*
X009953Y009094D01*
X009966Y009107D01*
X009980Y009117D01*
X009996Y009124D01*
X010013Y009128D01*
X010030Y009130D01*
X011830Y009130D01*
X011847Y009128D01*
X011864Y009124D01*
X011880Y009117D01*
X011894Y009107D01*
X011907Y009094D01*
X011917Y009080D01*
X011924Y009064D01*
X011928Y009047D01*
X011930Y009030D01*
X011928Y009047D01*
X011924Y009064D01*
X011917Y009080D01*
X011907Y009094D01*
X011894Y009107D01*
X011880Y009117D01*
X011864Y009124D01*
X011847Y009128D01*
X011830Y009130D01*
X010930Y008280D02*
X010930Y007800D01*
X010930Y007550D02*
X010930Y007080D01*
X010030Y006230D02*
X010013Y006232D01*
X009996Y006236D01*
X009980Y006243D01*
X009966Y006253D01*
X009953Y006266D01*
X009943Y006280D01*
X009936Y006296D01*
X009932Y006313D01*
X009930Y006330D01*
X008630Y006080D02*
X008530Y005980D01*
X007380Y005930D01*
X008290Y006160D02*
X008292Y006180D01*
X008298Y006198D01*
X008307Y006216D01*
X008319Y006231D01*
X008334Y006243D01*
X008352Y006252D01*
X008370Y006258D01*
X008390Y006260D01*
X008410Y006258D01*
X008428Y006252D01*
X008446Y006243D01*
X008461Y006231D01*
X008473Y006216D01*
X008482Y006198D01*
X008488Y006180D01*
X008490Y006160D01*
X008488Y006140D01*
X008482Y006122D01*
X008473Y006104D01*
X008461Y006089D01*
X008446Y006077D01*
X008428Y006068D01*
X008410Y006062D01*
X008390Y006060D01*
X008370Y006062D01*
X008352Y006068D01*
X008334Y006077D01*
X008319Y006089D01*
X008307Y006104D01*
X008298Y006122D01*
X008292Y006140D01*
X008290Y006160D01*
X008292Y006180D01*
X008298Y006198D01*
X008307Y006216D01*
X008319Y006231D01*
X008334Y006243D01*
X008352Y006252D01*
X008370Y006258D01*
X008390Y006260D01*
X008410Y006258D01*
X008428Y006252D01*
X008446Y006243D01*
X008461Y006231D01*
X008473Y006216D01*
X008482Y006198D01*
X008488Y006180D01*
X008490Y006160D01*
X008488Y006140D01*
X008482Y006122D01*
X008473Y006104D01*
X008461Y006089D01*
X008446Y006077D01*
X008428Y006068D01*
X008410Y006062D01*
X008390Y006060D01*
X008370Y006062D01*
X008352Y006068D01*
X008334Y006077D01*
X008319Y006089D01*
X008307Y006104D01*
X008298Y006122D01*
X008292Y006140D01*
X008290Y006160D01*
X008630Y006080D02*
X008630Y009780D01*
X008530Y009880D01*
X007380Y009930D01*
X006430Y009030D02*
X006428Y009047D01*
X006424Y009064D01*
X006417Y009080D01*
X006407Y009094D01*
X006394Y009107D01*
X006380Y009117D01*
X006364Y009124D01*
X006347Y009128D01*
X006330Y009130D01*
X005475Y011280D02*
X005317Y011280D01*
X005475Y011280D02*
X005475Y011280D01*
X004543Y011280D02*
X004317Y011280D01*
X005255Y011830D02*
X005290Y011782D01*
X005323Y011732D01*
X005354Y011680D01*
X005381Y011626D01*
X005405Y011571D01*
X005425Y011514D01*
X005443Y011457D01*
X005457Y011399D01*
X005468Y011340D01*
X005475Y011280D01*
X004120Y010177D02*
X004060Y010197D01*
X004001Y010221D01*
X003944Y010249D01*
X003889Y010280D01*
X003835Y010315D01*
X003784Y010352D01*
X003735Y010393D01*
X003689Y010437D01*
X003645Y010483D01*
X003604Y010532D01*
X003566Y010583D01*
X003532Y010636D01*
X003500Y010692D01*
X003473Y010749D01*
X003448Y010808D01*
X003428Y010868D01*
X003410Y010929D01*
X003397Y010991D01*
X003388Y011054D01*
X003382Y011117D01*
X003380Y011181D01*
X003382Y011245D01*
X003388Y011308D01*
X003397Y011371D01*
X003411Y011433D01*
X003428Y011494D01*
X003449Y011554D01*
X003473Y011613D01*
X003501Y011670D01*
X003533Y011726D01*
X003568Y011779D01*
X003605Y011830D01*
X004317Y012455D02*
X004543Y012455D01*
X003605Y011905D02*
X003570Y011953D01*
X003537Y012003D01*
X003506Y012055D01*
X003479Y012109D01*
X003455Y012164D01*
X003435Y012221D01*
X003417Y012278D01*
X003403Y012336D01*
X003392Y012395D01*
X003385Y012455D01*
X003392Y012395D01*
X003403Y012336D01*
X003417Y012278D01*
X003435Y012221D01*
X003455Y012164D01*
X003479Y012109D01*
X003506Y012055D01*
X003537Y012003D01*
X003570Y011953D01*
X003605Y011905D01*
X005255Y011830D02*
X005290Y011782D01*
X005323Y011732D01*
X005354Y011680D01*
X005381Y011626D01*
X005405Y011571D01*
X005425Y011514D01*
X005443Y011457D01*
X005457Y011399D01*
X005468Y011340D01*
X005475Y011280D01*
X004120Y010177D02*
X004060Y010197D01*
X004001Y010221D01*
X003944Y010249D01*
X003889Y010280D01*
X003835Y010315D01*
X003784Y010352D01*
X003735Y010393D01*
X003689Y010437D01*
X003645Y010483D01*
X003604Y010532D01*
X003566Y010583D01*
X003532Y010636D01*
X003500Y010692D01*
X003473Y010749D01*
X003448Y010808D01*
X003428Y010868D01*
X003410Y010929D01*
X003397Y010991D01*
X003388Y011054D01*
X003382Y011117D01*
X003380Y011181D01*
X003382Y011245D01*
X003388Y011308D01*
X003397Y011371D01*
X003411Y011433D01*
X003428Y011494D01*
X003449Y011554D01*
X003473Y011613D01*
X003501Y011670D01*
X003533Y011726D01*
X003568Y011779D01*
X003605Y011830D01*
X005475Y011280D02*
X005479Y011218D01*
X005480Y011155D01*
X005476Y011093D01*
X005469Y011031D01*
X005459Y010970D01*
X005444Y010909D01*
X005426Y010849D01*
X005405Y010790D01*
X005380Y010733D01*
X005352Y010678D01*
X005321Y010624D01*
X005286Y010572D01*
X005248Y010522D01*
X005208Y010475D01*
X005164Y010430D01*
X005119Y010387D01*
X005070Y010348D01*
X005020Y010311D01*
X004967Y010278D01*
X004913Y010247D01*
X004856Y010220D01*
X004799Y010197D01*
X004740Y010177D01*
X004799Y010197D01*
X004856Y010220D01*
X004913Y010247D01*
X004967Y010278D01*
X005020Y010311D01*
X005070Y010348D01*
X005119Y010387D01*
X005164Y010430D01*
X005208Y010475D01*
X005248Y010522D01*
X005286Y010572D01*
X005321Y010624D01*
X005352Y010678D01*
X005380Y010733D01*
X005405Y010790D01*
X005426Y010849D01*
X005444Y010909D01*
X005459Y010970D01*
X005469Y011031D01*
X005476Y011093D01*
X005480Y011155D01*
X005479Y011218D01*
X005475Y011280D01*
X005475Y012455D02*
X005317Y012455D01*
X005255Y011905D02*
X005292Y011956D01*
X005327Y012009D01*
X005359Y012065D01*
X005387Y012122D01*
X005411Y012181D01*
X005432Y012241D01*
X005449Y012302D01*
X005463Y012364D01*
X005472Y012427D01*
X005478Y012490D01*
X005480Y012554D01*
X005478Y012618D01*
X005472Y012681D01*
X005463Y012744D01*
X005450Y012806D01*
X005432Y012867D01*
X005412Y012927D01*
X005387Y012986D01*
X005360Y013043D01*
X005328Y013099D01*
X005294Y013152D01*
X005256Y013203D01*
X005215Y013252D01*
X005171Y013298D01*
X005125Y013342D01*
X005076Y013383D01*
X005025Y013420D01*
X004971Y013455D01*
X004916Y013486D01*
X004859Y013514D01*
X004800Y013538D01*
X004740Y013558D01*
X004120Y013558D02*
X004061Y013538D01*
X004004Y013515D01*
X003947Y013488D01*
X003893Y013457D01*
X003840Y013424D01*
X003790Y013387D01*
X003741Y013348D01*
X003696Y013305D01*
X003652Y013260D01*
X003612Y013213D01*
X003574Y013163D01*
X003539Y013111D01*
X003508Y013057D01*
X003480Y013002D01*
X003455Y012945D01*
X003434Y012886D01*
X003416Y012826D01*
X003401Y012765D01*
X003391Y012704D01*
X003384Y012642D01*
X003380Y012580D01*
X003381Y012517D01*
X003385Y012455D01*
X004740Y013558D02*
X004800Y013538D01*
X004859Y013514D01*
X004916Y013486D01*
X004971Y013455D01*
X005025Y013420D01*
X005076Y013383D01*
X005125Y013342D01*
X005171Y013298D01*
X005215Y013252D01*
X005256Y013203D01*
X005294Y013152D01*
X005328Y013099D01*
X005360Y013043D01*
X005387Y012986D01*
X005412Y012927D01*
X005432Y012867D01*
X005450Y012806D01*
X005463Y012744D01*
X005472Y012681D01*
X005478Y012618D01*
X005480Y012554D01*
X005478Y012490D01*
X005472Y012427D01*
X005463Y012364D01*
X005449Y012302D01*
X005432Y012241D01*
X005411Y012181D01*
X005387Y012122D01*
X005359Y012065D01*
X005327Y012009D01*
X005292Y011956D01*
X005255Y011905D01*
X003385Y012455D02*
X003381Y012517D01*
X003380Y012580D01*
X003384Y012642D01*
X003391Y012704D01*
X003401Y012765D01*
X003416Y012826D01*
X003434Y012886D01*
X003455Y012945D01*
X003480Y013002D01*
X003508Y013057D01*
X003539Y013111D01*
X003574Y013163D01*
X003612Y013213D01*
X003652Y013260D01*
X003696Y013305D01*
X003741Y013348D01*
X003790Y013387D01*
X003840Y013424D01*
X003893Y013457D01*
X003947Y013488D01*
X004004Y013515D01*
X004061Y013538D01*
X004120Y013558D01*
X006580Y013430D02*
X006582Y013479D01*
X006588Y013527D01*
X006598Y013575D01*
X006612Y013622D01*
X006629Y013668D01*
X006650Y013712D01*
X006675Y013754D01*
X006703Y013794D01*
X006735Y013832D01*
X006769Y013867D01*
X006806Y013899D01*
X006845Y013928D01*
X006887Y013954D01*
X006931Y013976D01*
X006976Y013994D01*
X007023Y014009D01*
X007070Y014020D01*
X007119Y014027D01*
X007168Y014030D01*
X007217Y014029D01*
X007265Y014024D01*
X007314Y014015D01*
X007361Y014002D01*
X007407Y013985D01*
X007451Y013965D01*
X007494Y013941D01*
X007535Y013914D01*
X007573Y013883D01*
X007609Y013850D01*
X007641Y013814D01*
X007671Y013775D01*
X007698Y013734D01*
X007721Y013690D01*
X007740Y013645D01*
X007756Y013599D01*
X007768Y013552D01*
X007776Y013503D01*
X007780Y013454D01*
X007780Y013406D01*
X007776Y013357D01*
X007768Y013308D01*
X007756Y013261D01*
X007740Y013215D01*
X007721Y013170D01*
X007698Y013126D01*
X007671Y013085D01*
X007641Y013046D01*
X007609Y013010D01*
X007573Y012977D01*
X007535Y012946D01*
X007494Y012919D01*
X007451Y012895D01*
X007407Y012875D01*
X007361Y012858D01*
X007314Y012845D01*
X007265Y012836D01*
X007217Y012831D01*
X007168Y012830D01*
X007119Y012833D01*
X007070Y012840D01*
X007023Y012851D01*
X006976Y012866D01*
X006931Y012884D01*
X006887Y012906D01*
X006845Y012932D01*
X006806Y012961D01*
X006769Y012993D01*
X006735Y013028D01*
X006703Y013066D01*
X006675Y013106D01*
X006650Y013148D01*
X006629Y013192D01*
X006612Y013238D01*
X006598Y013285D01*
X006588Y013333D01*
X006582Y013381D01*
X006580Y013430D01*
X006582Y013479D01*
X006588Y013527D01*
X006598Y013575D01*
X006612Y013622D01*
X006629Y013668D01*
X006650Y013712D01*
X006675Y013754D01*
X006703Y013794D01*
X006735Y013832D01*
X006769Y013867D01*
X006806Y013899D01*
X006845Y013928D01*
X006887Y013954D01*
X006931Y013976D01*
X006976Y013994D01*
X007023Y014009D01*
X007070Y014020D01*
X007119Y014027D01*
X007168Y014030D01*
X007217Y014029D01*
X007265Y014024D01*
X007314Y014015D01*
X007361Y014002D01*
X007407Y013985D01*
X007451Y013965D01*
X007494Y013941D01*
X007535Y013914D01*
X007573Y013883D01*
X007609Y013850D01*
X007641Y013814D01*
X007671Y013775D01*
X007698Y013734D01*
X007721Y013690D01*
X007740Y013645D01*
X007756Y013599D01*
X007768Y013552D01*
X007776Y013503D01*
X007780Y013454D01*
X007780Y013406D01*
X007776Y013357D01*
X007768Y013308D01*
X007756Y013261D01*
X007740Y013215D01*
X007721Y013170D01*
X007698Y013126D01*
X007671Y013085D01*
X007641Y013046D01*
X007609Y013010D01*
X007573Y012977D01*
X007535Y012946D01*
X007494Y012919D01*
X007451Y012895D01*
X007407Y012875D01*
X007361Y012858D01*
X007314Y012845D01*
X007265Y012836D01*
X007217Y012831D01*
X007168Y012830D01*
X007119Y012833D01*
X007070Y012840D01*
X007023Y012851D01*
X006976Y012866D01*
X006931Y012884D01*
X006887Y012906D01*
X006845Y012932D01*
X006806Y012961D01*
X006769Y012993D01*
X006735Y013028D01*
X006703Y013066D01*
X006675Y013106D01*
X006650Y013148D01*
X006629Y013192D01*
X006612Y013238D01*
X006598Y013285D01*
X006588Y013333D01*
X006582Y013381D01*
X006580Y013430D01*
X006580Y014930D02*
X006582Y014979D01*
X006588Y015027D01*
X006598Y015075D01*
X006612Y015122D01*
X006629Y015168D01*
X006650Y015212D01*
X006675Y015254D01*
X006703Y015294D01*
X006735Y015332D01*
X006769Y015367D01*
X006806Y015399D01*
X006845Y015428D01*
X006887Y015454D01*
X006931Y015476D01*
X006976Y015494D01*
X007023Y015509D01*
X007070Y015520D01*
X007119Y015527D01*
X007168Y015530D01*
X007217Y015529D01*
X007265Y015524D01*
X007314Y015515D01*
X007361Y015502D01*
X007407Y015485D01*
X007451Y015465D01*
X007494Y015441D01*
X007535Y015414D01*
X007573Y015383D01*
X007609Y015350D01*
X007641Y015314D01*
X007671Y015275D01*
X007698Y015234D01*
X007721Y015190D01*
X007740Y015145D01*
X007756Y015099D01*
X007768Y015052D01*
X007776Y015003D01*
X007780Y014954D01*
X007780Y014906D01*
X007776Y014857D01*
X007768Y014808D01*
X007756Y014761D01*
X007740Y014715D01*
X007721Y014670D01*
X007698Y014626D01*
X007671Y014585D01*
X007641Y014546D01*
X007609Y014510D01*
X007573Y014477D01*
X007535Y014446D01*
X007494Y014419D01*
X007451Y014395D01*
X007407Y014375D01*
X007361Y014358D01*
X007314Y014345D01*
X007265Y014336D01*
X007217Y014331D01*
X007168Y014330D01*
X007119Y014333D01*
X007070Y014340D01*
X007023Y014351D01*
X006976Y014366D01*
X006931Y014384D01*
X006887Y014406D01*
X006845Y014432D01*
X006806Y014461D01*
X006769Y014493D01*
X006735Y014528D01*
X006703Y014566D01*
X006675Y014606D01*
X006650Y014648D01*
X006629Y014692D01*
X006612Y014738D01*
X006598Y014785D01*
X006588Y014833D01*
X006582Y014881D01*
X006580Y014930D01*
X006582Y014979D01*
X006588Y015027D01*
X006598Y015075D01*
X006612Y015122D01*
X006629Y015168D01*
X006650Y015212D01*
X006675Y015254D01*
X006703Y015294D01*
X006735Y015332D01*
X006769Y015367D01*
X006806Y015399D01*
X006845Y015428D01*
X006887Y015454D01*
X006931Y015476D01*
X006976Y015494D01*
X007023Y015509D01*
X007070Y015520D01*
X007119Y015527D01*
X007168Y015530D01*
X007217Y015529D01*
X007265Y015524D01*
X007314Y015515D01*
X007361Y015502D01*
X007407Y015485D01*
X007451Y015465D01*
X007494Y015441D01*
X007535Y015414D01*
X007573Y015383D01*
X007609Y015350D01*
X007641Y015314D01*
X007671Y015275D01*
X007698Y015234D01*
X007721Y015190D01*
X007740Y015145D01*
X007756Y015099D01*
X007768Y015052D01*
X007776Y015003D01*
X007780Y014954D01*
X007780Y014906D01*
X007776Y014857D01*
X007768Y014808D01*
X007756Y014761D01*
X007740Y014715D01*
X007721Y014670D01*
X007698Y014626D01*
X007671Y014585D01*
X007641Y014546D01*
X007609Y014510D01*
X007573Y014477D01*
X007535Y014446D01*
X007494Y014419D01*
X007451Y014395D01*
X007407Y014375D01*
X007361Y014358D01*
X007314Y014345D01*
X007265Y014336D01*
X007217Y014331D01*
X007168Y014330D01*
X007119Y014333D01*
X007070Y014340D01*
X007023Y014351D01*
X006976Y014366D01*
X006931Y014384D01*
X006887Y014406D01*
X006845Y014432D01*
X006806Y014461D01*
X006769Y014493D01*
X006735Y014528D01*
X006703Y014566D01*
X006675Y014606D01*
X006650Y014648D01*
X006629Y014692D01*
X006612Y014738D01*
X006598Y014785D01*
X006588Y014833D01*
X006582Y014881D01*
X006580Y014930D01*
X006580Y016430D02*
X006582Y016479D01*
X006588Y016527D01*
X006598Y016575D01*
X006612Y016622D01*
X006629Y016668D01*
X006650Y016712D01*
X006675Y016754D01*
X006703Y016794D01*
X006735Y016832D01*
X006769Y016867D01*
X006806Y016899D01*
X006845Y016928D01*
X006887Y016954D01*
X006931Y016976D01*
X006976Y016994D01*
X007023Y017009D01*
X007070Y017020D01*
X007119Y017027D01*
X007168Y017030D01*
X007217Y017029D01*
X007265Y017024D01*
X007314Y017015D01*
X007361Y017002D01*
X007407Y016985D01*
X007451Y016965D01*
X007494Y016941D01*
X007535Y016914D01*
X007573Y016883D01*
X007609Y016850D01*
X007641Y016814D01*
X007671Y016775D01*
X007698Y016734D01*
X007721Y016690D01*
X007740Y016645D01*
X007756Y016599D01*
X007768Y016552D01*
X007776Y016503D01*
X007780Y016454D01*
X007780Y016406D01*
X007776Y016357D01*
X007768Y016308D01*
X007756Y016261D01*
X007740Y016215D01*
X007721Y016170D01*
X007698Y016126D01*
X007671Y016085D01*
X007641Y016046D01*
X007609Y016010D01*
X007573Y015977D01*
X007535Y015946D01*
X007494Y015919D01*
X007451Y015895D01*
X007407Y015875D01*
X007361Y015858D01*
X007314Y015845D01*
X007265Y015836D01*
X007217Y015831D01*
X007168Y015830D01*
X007119Y015833D01*
X007070Y015840D01*
X007023Y015851D01*
X006976Y015866D01*
X006931Y015884D01*
X006887Y015906D01*
X006845Y015932D01*
X006806Y015961D01*
X006769Y015993D01*
X006735Y016028D01*
X006703Y016066D01*
X006675Y016106D01*
X006650Y016148D01*
X006629Y016192D01*
X006612Y016238D01*
X006598Y016285D01*
X006588Y016333D01*
X006582Y016381D01*
X006580Y016430D01*
X006582Y016479D01*
X006588Y016527D01*
X006598Y016575D01*
X006612Y016622D01*
X006629Y016668D01*
X006650Y016712D01*
X006675Y016754D01*
X006703Y016794D01*
X006735Y016832D01*
X006769Y016867D01*
X006806Y016899D01*
X006845Y016928D01*
X006887Y016954D01*
X006931Y016976D01*
X006976Y016994D01*
X007023Y017009D01*
X007070Y017020D01*
X007119Y017027D01*
X007168Y017030D01*
X007217Y017029D01*
X007265Y017024D01*
X007314Y017015D01*
X007361Y017002D01*
X007407Y016985D01*
X007451Y016965D01*
X007494Y016941D01*
X007535Y016914D01*
X007573Y016883D01*
X007609Y016850D01*
X007641Y016814D01*
X007671Y016775D01*
X007698Y016734D01*
X007721Y016690D01*
X007740Y016645D01*
X007756Y016599D01*
X007768Y016552D01*
X007776Y016503D01*
X007780Y016454D01*
X007780Y016406D01*
X007776Y016357D01*
X007768Y016308D01*
X007756Y016261D01*
X007740Y016215D01*
X007721Y016170D01*
X007698Y016126D01*
X007671Y016085D01*
X007641Y016046D01*
X007609Y016010D01*
X007573Y015977D01*
X007535Y015946D01*
X007494Y015919D01*
X007451Y015895D01*
X007407Y015875D01*
X007361Y015858D01*
X007314Y015845D01*
X007265Y015836D01*
X007217Y015831D01*
X007168Y015830D01*
X007119Y015833D01*
X007070Y015840D01*
X007023Y015851D01*
X006976Y015866D01*
X006931Y015884D01*
X006887Y015906D01*
X006845Y015932D01*
X006806Y015961D01*
X006769Y015993D01*
X006735Y016028D01*
X006703Y016066D01*
X006675Y016106D01*
X006650Y016148D01*
X006629Y016192D01*
X006612Y016238D01*
X006598Y016285D01*
X006588Y016333D01*
X006582Y016381D01*
X006580Y016430D01*
X010030Y009130D02*
X010013Y009128D01*
X009996Y009124D01*
X009980Y009117D01*
X009966Y009107D01*
X009953Y009094D01*
X009943Y009080D01*
X009936Y009064D01*
X009932Y009047D01*
X009930Y009030D01*
X011930Y006330D02*
X011928Y006313D01*
X011924Y006296D01*
X011917Y006280D01*
X011907Y006266D01*
X011894Y006253D01*
X011880Y006243D01*
X011864Y006236D01*
X011847Y006232D01*
X011830Y006230D01*
X006430Y006330D02*
X006428Y006313D01*
X006424Y006296D01*
X006417Y006280D01*
X006407Y006266D01*
X006394Y006253D01*
X006380Y006243D01*
X006364Y006236D01*
X006347Y006232D01*
X006330Y006230D01*
X002080Y007930D02*
X002080Y008080D01*
X001980Y008080D02*
X001780Y008080D01*
X001780Y007280D01*
X001830Y007280D01*
X001830Y007080D01*
X001780Y007080D01*
X001780Y006280D01*
X001980Y006280D01*
X001930Y004680D02*
X001948Y002680D01*
X019530Y021680D02*
X019532Y021641D01*
X019538Y021602D01*
X019547Y021564D01*
X019560Y021527D01*
X019577Y021491D01*
X019597Y021458D01*
X019621Y021426D01*
X019647Y021397D01*
X019676Y021371D01*
X019708Y021347D01*
X019741Y021327D01*
X019777Y021310D01*
X019814Y021297D01*
X019852Y021288D01*
X019891Y021282D01*
X019930Y021280D01*
X019969Y021282D01*
X020008Y021288D01*
X020046Y021297D01*
X020083Y021310D01*
X020119Y021327D01*
X020152Y021347D01*
X020184Y021371D01*
X020213Y021397D01*
X020239Y021426D01*
X020263Y021458D01*
X020283Y021491D01*
X020300Y021527D01*
X020313Y021564D01*
X020322Y021602D01*
X020328Y021641D01*
X020330Y021680D01*
X020793Y021800D02*
X019093Y021800D01*
X019076Y021802D01*
X019059Y021806D01*
X019043Y021813D01*
X019029Y021823D01*
X019016Y021836D01*
X019006Y021850D01*
X018999Y021866D01*
X018995Y021883D01*
X018993Y021900D01*
X018993Y022900D01*
X018995Y022917D01*
X018999Y022934D01*
X019006Y022950D01*
X019016Y022964D01*
X019029Y022977D01*
X019043Y022987D01*
X019059Y022994D01*
X019076Y022998D01*
X019093Y023000D01*
X020793Y023000D01*
X020810Y022998D01*
X020827Y022994D01*
X020843Y022987D01*
X020857Y022977D01*
X020870Y022964D01*
X020880Y022950D01*
X020887Y022934D01*
X020891Y022917D01*
X020893Y022900D01*
X020893Y021900D01*
X020891Y021883D01*
X020887Y021866D01*
X020880Y021850D01*
X020870Y021836D01*
X020857Y021823D01*
X020843Y021813D01*
X020827Y021806D01*
X020810Y021802D01*
X020793Y021800D01*
X020093Y022400D02*
X020043Y022400D01*
X019843Y022400D02*
X019793Y022400D01*
D14*
X007330Y009655D03*
X007330Y006205D03*
X007330Y006205D03*
D15*
X007330Y007430D03*
X007330Y007430D03*
X007330Y008430D03*
X007330Y008430D03*
D16*
X019695Y008730D03*
X019695Y008730D03*
X019695Y009130D03*
X019695Y009130D03*
D17*
X017430Y010945D03*
X017430Y010945D03*
X015930Y010945D03*
X015930Y010945D03*
X016195Y013430D03*
X016195Y013430D03*
X016195Y013430D03*
X016195Y014930D03*
X016195Y014930D03*
X016195Y014930D03*
X016195Y016430D03*
X016195Y016430D03*
X016195Y016430D03*
X016195Y017930D03*
X016195Y017930D03*
X016195Y017930D03*
X016195Y019430D03*
X016195Y019430D03*
X016195Y019430D03*
X016195Y020930D03*
X016195Y020930D03*
X016195Y020930D03*
X016195Y022430D03*
X016195Y022430D03*
X016195Y022430D03*
X006695Y022430D03*
X006695Y022430D03*
X006695Y022430D03*
X006695Y020930D03*
X006695Y020930D03*
X006695Y020930D03*
X006695Y019430D03*
X006695Y019430D03*
X006695Y019430D03*
X006695Y017930D03*
X006695Y017930D03*
X006695Y017930D03*
X006695Y016430D03*
X006695Y016430D03*
X006695Y016430D03*
X006695Y014930D03*
X006695Y014930D03*
X006695Y014930D03*
X006695Y013430D03*
X006695Y013430D03*
X006695Y013430D03*
D18*
X005680Y007810D02*
X005430Y007810D01*
X005180Y007810D01*
X005430Y007810D01*
X005680Y007810D01*
X005680Y007560D02*
X005430Y007560D01*
X005180Y007560D01*
X005430Y007560D01*
X005680Y007560D01*
X010680Y007550D02*
X010930Y007550D01*
X011180Y007550D01*
X010930Y007550D01*
X010680Y007550D01*
X010680Y007800D02*
X010930Y007800D01*
X011180Y007800D01*
X010930Y007800D01*
X010680Y007800D01*
D19*
X012880Y008080D02*
X013180Y008080D01*
X013480Y008080D01*
X013180Y008080D01*
X012880Y008080D01*
X012880Y008280D02*
X013180Y008280D01*
X013480Y008280D01*
X013180Y008280D01*
X012880Y008280D01*
X016580Y004180D02*
X016880Y004180D01*
X017180Y004180D01*
X017180Y003980D02*
X016880Y003980D01*
X016580Y003980D01*
X019843Y022100D02*
X019843Y022400D01*
X019843Y022700D01*
X019843Y022400D01*
X019843Y022100D01*
X020043Y022100D02*
X020043Y022400D01*
X020043Y022700D01*
X020043Y022400D01*
X020043Y022100D01*
X010530Y022130D02*
X010530Y022430D01*
X010530Y022730D01*
X010480Y022680D02*
X010480Y022380D01*
X010480Y022080D01*
X010330Y022130D02*
X010330Y022430D01*
X010330Y022730D01*
X010280Y022680D02*
X010280Y022380D01*
X010280Y022080D01*
D20*
X015930Y010945D03*
X017430Y010945D03*
D21*
X018893Y010735D02*
X018893Y012704D01*
X018895Y012759D01*
X018901Y012814D01*
X018910Y012868D01*
X018923Y012921D01*
X018940Y012973D01*
X018961Y013024D01*
X018985Y013073D01*
X019013Y013121D01*
X019043Y013167D01*
X019077Y013210D01*
X019114Y013251D01*
X019153Y013289D01*
X019195Y013324D01*
X019240Y013356D01*
X019287Y013386D01*
X019335Y013411D01*
X019385Y013434D01*
X019437Y013452D01*
X019490Y013468D01*
X019543Y013479D01*
X019598Y013487D01*
X019653Y013491D01*
X019707Y013491D01*
X019762Y013487D01*
X019817Y013479D01*
X019870Y013468D01*
X019923Y013452D01*
X019975Y013434D01*
X020025Y013411D01*
X020074Y013386D01*
X020120Y013356D01*
X020165Y013324D01*
X020207Y013289D01*
X020246Y013251D01*
X020283Y013210D01*
X020317Y013167D01*
X020347Y013121D01*
X020375Y013073D01*
X020399Y013024D01*
X020420Y012973D01*
X020437Y012921D01*
X020450Y012868D01*
X020459Y012814D01*
X020465Y012759D01*
X020467Y012704D01*
X020467Y010735D01*
X020580Y010405D02*
X020730Y010405D01*
X020805Y010330D01*
X020805Y010030D01*
X020730Y009955D01*
X020580Y009955D01*
X020505Y010030D01*
X020505Y010330D01*
X020580Y010405D01*
X020655Y010105D02*
X020805Y009955D01*
X020965Y009955D02*
X021266Y009955D01*
X021116Y009955D02*
X021116Y010405D01*
X020965Y010255D01*
X020467Y010735D02*
X020465Y010680D01*
X020459Y010625D01*
X020450Y010571D01*
X020437Y010518D01*
X020420Y010466D01*
X020399Y010415D01*
X020375Y010366D01*
X020347Y010318D01*
X020317Y010272D01*
X020283Y010229D01*
X020246Y010188D01*
X020207Y010150D01*
X020165Y010115D01*
X020120Y010083D01*
X020074Y010053D01*
X020025Y010028D01*
X019975Y010005D01*
X019923Y009987D01*
X019870Y009971D01*
X019817Y009960D01*
X019762Y009952D01*
X019707Y009948D01*
X019653Y009948D01*
X019598Y009952D01*
X019543Y009960D01*
X019490Y009971D01*
X019437Y009987D01*
X019385Y010005D01*
X019335Y010028D01*
X019287Y010053D01*
X019240Y010083D01*
X019195Y010115D01*
X019153Y010150D01*
X019114Y010188D01*
X019077Y010229D01*
X019043Y010272D01*
X019013Y010318D01*
X018985Y010366D01*
X018961Y010415D01*
X018940Y010466D01*
X018923Y010518D01*
X018910Y010571D01*
X018901Y010625D01*
X018895Y010680D01*
X018893Y010735D01*
X015905Y008857D02*
X015830Y008857D01*
X015530Y009157D01*
X015455Y009157D01*
X015455Y008857D01*
X015530Y008697D02*
X015830Y008397D01*
X015905Y008472D01*
X015905Y008622D01*
X015830Y008697D01*
X015530Y008697D01*
X015455Y008622D01*
X015455Y008472D01*
X015530Y008397D01*
X015830Y008397D01*
X015830Y008236D02*
X015905Y008161D01*
X015905Y008011D01*
X015830Y007936D01*
X015905Y007776D02*
X015905Y007476D01*
X015905Y007626D02*
X015455Y007626D01*
X015605Y007476D01*
X015530Y007316D02*
X015455Y007241D01*
X015455Y007090D01*
X015530Y007015D01*
X015605Y007015D01*
X015680Y007090D01*
X015680Y007241D01*
X015755Y007316D01*
X015830Y007316D01*
X015905Y007241D01*
X015905Y007090D01*
X015830Y007015D01*
X015830Y006855D02*
X015530Y006855D01*
X015455Y006780D01*
X015455Y006555D01*
X015905Y006555D01*
X015905Y006780D01*
X015830Y006855D01*
X016500Y006869D02*
X016500Y006719D01*
X016575Y006644D01*
X016875Y006644D01*
X016950Y006719D01*
X016950Y006869D01*
X016875Y006944D01*
X016950Y007105D02*
X016950Y007405D01*
X016950Y007255D02*
X016500Y007255D01*
X016650Y007105D01*
X016575Y006944D02*
X016500Y006869D01*
X016500Y006487D02*
X016500Y006337D01*
X016500Y006412D02*
X016950Y006412D01*
X016950Y006337D02*
X016950Y006487D01*
X018308Y006236D02*
X018308Y003163D01*
X019424Y002108D01*
X020324Y002108D01*
X020324Y001756D01*
X021576Y001756D01*
X021576Y002108D01*
X023149Y002108D01*
X023149Y002830D01*
X022264Y003573D01*
X022264Y005930D01*
X023149Y006830D01*
X023149Y007352D01*
X021576Y007352D01*
X021576Y007704D01*
X020284Y007704D01*
X020284Y007352D01*
X019484Y007352D01*
X018308Y006236D01*
X019805Y006446D02*
X019805Y005937D01*
X019907Y005836D01*
X020110Y005836D01*
X020212Y005937D01*
X020212Y006446D01*
X020413Y006344D02*
X020514Y006446D01*
X020718Y006446D01*
X020820Y006344D01*
X021020Y006243D02*
X021224Y006446D01*
X021224Y005836D01*
X021427Y005836D02*
X021020Y005836D01*
X020820Y005937D02*
X020820Y006039D01*
X020718Y006141D01*
X020514Y006141D01*
X020413Y006243D01*
X020413Y006344D01*
X020616Y006548D02*
X020616Y005734D01*
X020514Y005836D02*
X020718Y005836D01*
X020820Y005937D01*
X020514Y005836D02*
X020413Y005937D01*
X022413Y005629D02*
X022820Y005629D01*
X023024Y005426D01*
X022820Y005222D01*
X022413Y005222D01*
X022515Y005022D02*
X022413Y004920D01*
X022413Y004716D01*
X022515Y004615D01*
X022718Y004818D02*
X022718Y004920D01*
X022820Y005022D01*
X022922Y005022D01*
X023024Y004920D01*
X023024Y004716D01*
X022922Y004615D01*
X022922Y004412D02*
X023024Y004412D01*
X023024Y004311D01*
X022922Y004311D01*
X022922Y004412D01*
X022922Y004110D02*
X022820Y004110D01*
X022718Y004008D01*
X022718Y003906D01*
X022718Y004008D02*
X022617Y004110D01*
X022515Y004110D01*
X022413Y004008D01*
X022413Y003805D01*
X022515Y003703D01*
X022922Y003703D02*
X023024Y003805D01*
X023024Y004008D01*
X022922Y004110D01*
X022718Y004920D02*
X022617Y005022D01*
X022515Y005022D01*
X018105Y004345D02*
X018105Y004045D01*
X018105Y004195D02*
X017655Y004195D01*
X017805Y004045D01*
X017730Y003884D02*
X017655Y003809D01*
X017655Y003659D01*
X017730Y003584D01*
X018030Y003584D01*
X018105Y003659D01*
X018105Y003809D01*
X018030Y003884D01*
X013370Y006580D02*
X013370Y007030D01*
X013145Y006805D01*
X013445Y006805D01*
X012984Y006655D02*
X012909Y006580D01*
X012759Y006580D01*
X012684Y006655D01*
X012684Y006955D01*
X012759Y007030D01*
X012909Y007030D01*
X012984Y006955D01*
X015455Y008011D02*
X015455Y008161D01*
X015530Y008236D01*
X015605Y008236D01*
X015680Y008161D01*
X015755Y008236D01*
X015830Y008236D01*
X015680Y008161D02*
X015680Y008086D01*
X015530Y007936D02*
X015455Y008011D01*
X014975Y011280D02*
X014817Y011280D01*
X014755Y011830D02*
X013105Y011830D01*
X013105Y011905D02*
X014755Y011905D01*
X014817Y012455D02*
X014975Y012455D01*
X014043Y012455D02*
X013817Y012455D01*
X013105Y011905D02*
X013070Y011953D01*
X013037Y012003D01*
X013006Y012055D01*
X012979Y012109D01*
X012955Y012164D01*
X012935Y012221D01*
X012917Y012278D01*
X012903Y012336D01*
X012892Y012395D01*
X012885Y012455D01*
X013043Y012455D01*
X014240Y013558D02*
X014300Y013538D01*
X014359Y013514D01*
X014416Y013486D01*
X014471Y013455D01*
X014525Y013420D01*
X014576Y013383D01*
X014625Y013342D01*
X014671Y013298D01*
X014715Y013252D01*
X014756Y013203D01*
X014794Y013152D01*
X014828Y013099D01*
X014860Y013043D01*
X014887Y012986D01*
X014912Y012927D01*
X014932Y012867D01*
X014950Y012806D01*
X014963Y012744D01*
X014972Y012681D01*
X014978Y012618D01*
X014980Y012554D01*
X014978Y012490D01*
X014972Y012427D01*
X014963Y012364D01*
X014949Y012302D01*
X014932Y012241D01*
X014911Y012181D01*
X014887Y012122D01*
X014859Y012065D01*
X014827Y012009D01*
X014792Y011956D01*
X014755Y011905D01*
X014043Y011280D02*
X013817Y011280D01*
X014755Y011830D02*
X014790Y011782D01*
X014823Y011732D01*
X014854Y011680D01*
X014881Y011626D01*
X014905Y011571D01*
X014925Y011514D01*
X014943Y011457D01*
X014957Y011399D01*
X014968Y011340D01*
X014975Y011280D01*
X013620Y010177D02*
X013560Y010197D01*
X013501Y010221D01*
X013444Y010249D01*
X013389Y010280D01*
X013335Y010315D01*
X013284Y010352D01*
X013235Y010393D01*
X013189Y010437D01*
X013145Y010483D01*
X013104Y010532D01*
X013066Y010583D01*
X013032Y010636D01*
X013000Y010692D01*
X012973Y010749D01*
X012948Y010808D01*
X012928Y010868D01*
X012910Y010929D01*
X012897Y010991D01*
X012888Y011054D01*
X012882Y011117D01*
X012880Y011181D01*
X012882Y011245D01*
X012888Y011308D01*
X012897Y011371D01*
X012911Y011433D01*
X012928Y011494D01*
X012949Y011554D01*
X012973Y011613D01*
X013001Y011670D01*
X013033Y011726D01*
X013068Y011779D01*
X013105Y011830D01*
X013043Y011280D02*
X012885Y011280D01*
X014240Y010177D02*
X014299Y010197D01*
X014356Y010220D01*
X014413Y010247D01*
X014467Y010278D01*
X014520Y010311D01*
X014570Y010348D01*
X014619Y010387D01*
X014664Y010430D01*
X014708Y010475D01*
X014748Y010522D01*
X014786Y010572D01*
X014821Y010624D01*
X014852Y010678D01*
X014880Y010733D01*
X014905Y010790D01*
X014926Y010849D01*
X014944Y010909D01*
X014959Y010970D01*
X014969Y011031D01*
X014976Y011093D01*
X014980Y011155D01*
X014979Y011218D01*
X014975Y011280D01*
X012885Y012455D02*
X012881Y012517D01*
X012880Y012580D01*
X012884Y012642D01*
X012891Y012704D01*
X012901Y012765D01*
X012916Y012826D01*
X012934Y012886D01*
X012955Y012945D01*
X012980Y013002D01*
X013008Y013057D01*
X013039Y013111D01*
X013074Y013163D01*
X013112Y013213D01*
X013152Y013260D01*
X013196Y013305D01*
X013241Y013348D01*
X013290Y013387D01*
X013340Y013424D01*
X013393Y013457D01*
X013447Y013488D01*
X013504Y013515D01*
X013561Y013538D01*
X013620Y013558D01*
X014240Y013927D02*
X014299Y013947D01*
X014356Y013970D01*
X014413Y013997D01*
X014467Y014028D01*
X014520Y014061D01*
X014570Y014098D01*
X014619Y014137D01*
X014664Y014180D01*
X014708Y014225D01*
X014748Y014272D01*
X014786Y014322D01*
X014821Y014374D01*
X014852Y014428D01*
X014880Y014483D01*
X014905Y014540D01*
X014926Y014599D01*
X014944Y014659D01*
X014959Y014720D01*
X014969Y014781D01*
X014976Y014843D01*
X014980Y014905D01*
X014979Y014968D01*
X014975Y015030D01*
X014817Y015030D01*
X014755Y015580D02*
X013105Y015580D01*
X013105Y015655D02*
X014755Y015655D01*
X014817Y016205D02*
X014975Y016205D01*
X014043Y016205D02*
X013817Y016205D01*
X013105Y015655D02*
X013070Y015703D01*
X013037Y015753D01*
X013006Y015805D01*
X012979Y015859D01*
X012955Y015914D01*
X012935Y015971D01*
X012917Y016028D01*
X012903Y016086D01*
X012892Y016145D01*
X012885Y016205D01*
X013043Y016205D01*
X014240Y017308D02*
X014300Y017288D01*
X014359Y017264D01*
X014416Y017236D01*
X014471Y017205D01*
X014525Y017170D01*
X014576Y017133D01*
X014625Y017092D01*
X014671Y017048D01*
X014715Y017002D01*
X014756Y016953D01*
X014794Y016902D01*
X014828Y016849D01*
X014860Y016793D01*
X014887Y016736D01*
X014912Y016677D01*
X014932Y016617D01*
X014950Y016556D01*
X014963Y016494D01*
X014972Y016431D01*
X014978Y016368D01*
X014980Y016304D01*
X014978Y016240D01*
X014972Y016177D01*
X014963Y016114D01*
X014949Y016052D01*
X014932Y015991D01*
X014911Y015931D01*
X014887Y015872D01*
X014859Y015815D01*
X014827Y015759D01*
X014792Y015706D01*
X014755Y015655D01*
X014043Y015030D02*
X013817Y015030D01*
X014755Y015580D02*
X014790Y015532D01*
X014823Y015482D01*
X014854Y015430D01*
X014881Y015376D01*
X014905Y015321D01*
X014925Y015264D01*
X014943Y015207D01*
X014957Y015149D01*
X014968Y015090D01*
X014975Y015030D01*
X013620Y013927D02*
X013560Y013947D01*
X013501Y013971D01*
X013444Y013999D01*
X013389Y014030D01*
X013335Y014065D01*
X013284Y014102D01*
X013235Y014143D01*
X013189Y014187D01*
X013145Y014233D01*
X013104Y014282D01*
X013066Y014333D01*
X013032Y014386D01*
X013000Y014442D01*
X012973Y014499D01*
X012948Y014558D01*
X012928Y014618D01*
X012910Y014679D01*
X012897Y014741D01*
X012888Y014804D01*
X012882Y014867D01*
X012880Y014931D01*
X012882Y014995D01*
X012888Y015058D01*
X012897Y015121D01*
X012911Y015183D01*
X012928Y015244D01*
X012949Y015304D01*
X012973Y015363D01*
X013001Y015420D01*
X013033Y015476D01*
X013068Y015529D01*
X013105Y015580D01*
X013043Y015030D02*
X012885Y015030D01*
X012885Y016205D02*
X012881Y016267D01*
X012880Y016330D01*
X012884Y016392D01*
X012891Y016454D01*
X012901Y016515D01*
X012916Y016576D01*
X012934Y016636D01*
X012955Y016695D01*
X012980Y016752D01*
X013008Y016807D01*
X013039Y016861D01*
X013074Y016913D01*
X013112Y016963D01*
X013152Y017010D01*
X013196Y017055D01*
X013241Y017098D01*
X013290Y017137D01*
X013340Y017174D01*
X013393Y017207D01*
X013447Y017238D01*
X013504Y017265D01*
X013561Y017288D01*
X013620Y017308D01*
X014240Y017677D02*
X014299Y017697D01*
X014356Y017720D01*
X014413Y017747D01*
X014467Y017778D01*
X014520Y017811D01*
X014570Y017848D01*
X014619Y017887D01*
X014664Y017930D01*
X014708Y017975D01*
X014748Y018022D01*
X014786Y018072D01*
X014821Y018124D01*
X014852Y018178D01*
X014880Y018233D01*
X014905Y018290D01*
X014926Y018349D01*
X014944Y018409D01*
X014959Y018470D01*
X014969Y018531D01*
X014976Y018593D01*
X014980Y018655D01*
X014979Y018718D01*
X014975Y018780D01*
X014817Y018780D01*
X014755Y019330D02*
X013105Y019330D01*
X013105Y019405D02*
X014755Y019405D01*
X014817Y019955D02*
X014975Y019955D01*
X014043Y019955D02*
X013817Y019955D01*
X013105Y019405D02*
X013070Y019453D01*
X013037Y019503D01*
X013006Y019555D01*
X012979Y019609D01*
X012955Y019664D01*
X012935Y019721D01*
X012917Y019778D01*
X012903Y019836D01*
X012892Y019895D01*
X012885Y019955D01*
X013043Y019955D01*
X014240Y021058D02*
X014300Y021038D01*
X014359Y021014D01*
X014416Y020986D01*
X014471Y020955D01*
X014525Y020920D01*
X014576Y020883D01*
X014625Y020842D01*
X014671Y020798D01*
X014715Y020752D01*
X014756Y020703D01*
X014794Y020652D01*
X014828Y020599D01*
X014860Y020543D01*
X014887Y020486D01*
X014912Y020427D01*
X014932Y020367D01*
X014950Y020306D01*
X014963Y020244D01*
X014972Y020181D01*
X014978Y020118D01*
X014980Y020054D01*
X014978Y019990D01*
X014972Y019927D01*
X014963Y019864D01*
X014949Y019802D01*
X014932Y019741D01*
X014911Y019681D01*
X014887Y019622D01*
X014859Y019565D01*
X014827Y019509D01*
X014792Y019456D01*
X014755Y019405D01*
X014043Y018780D02*
X013817Y018780D01*
X014755Y019330D02*
X014790Y019282D01*
X014823Y019232D01*
X014854Y019180D01*
X014881Y019126D01*
X014905Y019071D01*
X014925Y019014D01*
X014943Y018957D01*
X014957Y018899D01*
X014968Y018840D01*
X014975Y018780D01*
X013620Y017677D02*
X013560Y017697D01*
X013501Y017721D01*
X013444Y017749D01*
X013389Y017780D01*
X013335Y017815D01*
X013284Y017852D01*
X013235Y017893D01*
X013189Y017937D01*
X013145Y017983D01*
X013104Y018032D01*
X013066Y018083D01*
X013032Y018136D01*
X013000Y018192D01*
X012973Y018249D01*
X012948Y018308D01*
X012928Y018368D01*
X012910Y018429D01*
X012897Y018491D01*
X012888Y018554D01*
X012882Y018617D01*
X012880Y018681D01*
X012882Y018745D01*
X012888Y018808D01*
X012897Y018871D01*
X012911Y018933D01*
X012928Y018994D01*
X012949Y019054D01*
X012973Y019113D01*
X013001Y019170D01*
X013033Y019226D01*
X013068Y019279D01*
X013105Y019330D01*
X013043Y018780D02*
X012885Y018780D01*
X012885Y019955D02*
X012881Y020017D01*
X012880Y020080D01*
X012884Y020142D01*
X012891Y020204D01*
X012901Y020265D01*
X012916Y020326D01*
X012934Y020386D01*
X012955Y020445D01*
X012980Y020502D01*
X013008Y020557D01*
X013039Y020611D01*
X013074Y020663D01*
X013112Y020713D01*
X013152Y020760D01*
X013196Y020805D01*
X013241Y020848D01*
X013290Y020887D01*
X013340Y020924D01*
X013393Y020957D01*
X013447Y020988D01*
X013504Y021015D01*
X013561Y021038D01*
X013620Y021058D01*
X013105Y021280D02*
X014755Y021280D01*
X014817Y021830D02*
X014975Y021830D01*
X014043Y021830D02*
X013817Y021830D01*
X013105Y021280D02*
X013070Y021328D01*
X013037Y021378D01*
X013006Y021430D01*
X012979Y021484D01*
X012955Y021539D01*
X012935Y021596D01*
X012917Y021653D01*
X012903Y021711D01*
X012892Y021770D01*
X012885Y021830D01*
X013043Y021830D01*
X014240Y022933D02*
X014300Y022913D01*
X014359Y022889D01*
X014416Y022861D01*
X014471Y022830D01*
X014525Y022795D01*
X014576Y022758D01*
X014625Y022717D01*
X014671Y022673D01*
X014715Y022627D01*
X014756Y022578D01*
X014794Y022527D01*
X014828Y022474D01*
X014860Y022418D01*
X014887Y022361D01*
X014912Y022302D01*
X014932Y022242D01*
X014950Y022181D01*
X014963Y022119D01*
X014972Y022056D01*
X014978Y021993D01*
X014980Y021929D01*
X014978Y021865D01*
X014972Y021802D01*
X014963Y021739D01*
X014949Y021677D01*
X014932Y021616D01*
X014911Y021556D01*
X014887Y021497D01*
X014859Y021440D01*
X014827Y021384D01*
X014792Y021331D01*
X014755Y021280D01*
X012885Y021830D02*
X012881Y021892D01*
X012880Y021955D01*
X012884Y022017D01*
X012891Y022079D01*
X012901Y022140D01*
X012916Y022201D01*
X012934Y022261D01*
X012955Y022320D01*
X012980Y022377D01*
X013008Y022432D01*
X013039Y022486D01*
X013074Y022538D01*
X013112Y022588D01*
X013152Y022635D01*
X013196Y022680D01*
X013241Y022723D01*
X013290Y022762D01*
X013340Y022799D01*
X013393Y022832D01*
X013447Y022863D01*
X013504Y022890D01*
X013561Y022913D01*
X013620Y022933D01*
X012105Y022570D02*
X012105Y022420D01*
X012030Y022345D01*
X011880Y022345D01*
X011880Y022570D01*
X011955Y022645D01*
X012030Y022645D01*
X012105Y022570D01*
X011880Y022345D02*
X011730Y022495D01*
X011655Y022645D01*
X011730Y022184D02*
X011655Y022109D01*
X011655Y021959D01*
X011730Y021884D01*
X012030Y021884D01*
X012105Y021959D01*
X012105Y022109D01*
X012030Y022184D01*
X010655Y020495D02*
X010205Y020495D01*
X010205Y020195D02*
X010655Y020495D01*
X010655Y020195D02*
X010205Y020195D01*
X010205Y020034D02*
X010205Y019734D01*
X010430Y019734D01*
X010355Y019884D01*
X010355Y019959D01*
X010430Y020034D01*
X010580Y020034D01*
X010655Y019959D01*
X010655Y019809D01*
X010580Y019734D01*
X010580Y019574D02*
X010280Y019574D01*
X010205Y019499D01*
X010205Y019349D01*
X010280Y019274D01*
X010355Y019274D01*
X010430Y019349D01*
X010430Y019574D01*
X010580Y019574D02*
X010655Y019499D01*
X010655Y019349D01*
X010580Y019274D01*
X010580Y019114D02*
X010430Y019114D01*
X010355Y019039D01*
X010355Y018964D01*
X010430Y018813D01*
X010205Y018813D01*
X010205Y019114D01*
X010580Y019114D02*
X010655Y019039D01*
X010655Y018888D01*
X010580Y018813D01*
X010580Y018653D02*
X010655Y018578D01*
X010655Y018428D01*
X010580Y018353D01*
X010280Y018353D01*
X010205Y018428D01*
X010205Y018578D01*
X010280Y018653D01*
X010205Y018193D02*
X010655Y018193D01*
X010430Y018193D02*
X010430Y017893D01*
X010430Y017733D02*
X010430Y017432D01*
X010205Y017657D01*
X010655Y017657D01*
X010655Y017893D02*
X010205Y017893D01*
X010205Y017272D02*
X010280Y017272D01*
X010580Y016972D01*
X010655Y016972D01*
X010205Y016972D02*
X010205Y017272D01*
X010180Y016195D02*
X010255Y016195D01*
X010330Y016120D01*
X010405Y016195D01*
X010480Y016195D01*
X010555Y016120D01*
X010555Y015970D01*
X010480Y015895D01*
X010480Y015734D02*
X010555Y015659D01*
X010555Y015509D01*
X010480Y015434D01*
X010180Y015434D01*
X010105Y015509D01*
X010105Y015659D01*
X010180Y015734D01*
X010180Y015895D02*
X010105Y015970D01*
X010105Y016120D01*
X010180Y016195D01*
X010330Y016120D02*
X010330Y016045D01*
X010555Y015277D02*
X010555Y015127D01*
X010555Y015202D02*
X010105Y015202D01*
X010105Y015127D02*
X010105Y015277D01*
X005475Y015030D02*
X005317Y015030D01*
X005255Y015580D02*
X003605Y015580D01*
X003605Y015655D02*
X005255Y015655D01*
X005317Y016205D02*
X005475Y016205D01*
X004543Y016205D02*
X004317Y016205D01*
X003605Y015655D02*
X003570Y015703D01*
X003537Y015753D01*
X003506Y015805D01*
X003479Y015859D01*
X003455Y015914D01*
X003435Y015971D01*
X003417Y016028D01*
X003403Y016086D01*
X003392Y016145D01*
X003385Y016205D01*
X003543Y016205D01*
X004740Y017308D02*
X004800Y017288D01*
X004859Y017264D01*
X004916Y017236D01*
X004971Y017205D01*
X005025Y017170D01*
X005076Y017133D01*
X005125Y017092D01*
X005171Y017048D01*
X005215Y017002D01*
X005256Y016953D01*
X005294Y016902D01*
X005328Y016849D01*
X005360Y016793D01*
X005387Y016736D01*
X005412Y016677D01*
X005432Y016617D01*
X005450Y016556D01*
X005463Y016494D01*
X005472Y016431D01*
X005478Y016368D01*
X005480Y016304D01*
X005478Y016240D01*
X005472Y016177D01*
X005463Y016114D01*
X005449Y016052D01*
X005432Y015991D01*
X005411Y015931D01*
X005387Y015872D01*
X005359Y015815D01*
X005327Y015759D01*
X005292Y015706D01*
X005255Y015655D01*
X004543Y015030D02*
X004317Y015030D01*
X005255Y015580D02*
X005290Y015532D01*
X005323Y015482D01*
X005354Y015430D01*
X005381Y015376D01*
X005405Y015321D01*
X005425Y015264D01*
X005443Y015207D01*
X005457Y015149D01*
X005468Y015090D01*
X005475Y015030D01*
X004120Y013927D02*
X004060Y013947D01*
X004001Y013971D01*
X003944Y013999D01*
X003889Y014030D01*
X003835Y014065D01*
X003784Y014102D01*
X003735Y014143D01*
X003689Y014187D01*
X003645Y014233D01*
X003604Y014282D01*
X003566Y014333D01*
X003532Y014386D01*
X003500Y014442D01*
X003473Y014499D01*
X003448Y014558D01*
X003428Y014618D01*
X003410Y014679D01*
X003397Y014741D01*
X003388Y014804D01*
X003382Y014867D01*
X003380Y014931D01*
X003382Y014995D01*
X003388Y015058D01*
X003397Y015121D01*
X003411Y015183D01*
X003428Y015244D01*
X003449Y015304D01*
X003473Y015363D01*
X003501Y015420D01*
X003533Y015476D01*
X003568Y015529D01*
X003605Y015580D01*
X003543Y015030D02*
X003385Y015030D01*
X004740Y013927D02*
X004799Y013947D01*
X004856Y013970D01*
X004913Y013997D01*
X004967Y014028D01*
X005020Y014061D01*
X005070Y014098D01*
X005119Y014137D01*
X005164Y014180D01*
X005208Y014225D01*
X005248Y014272D01*
X005286Y014322D01*
X005321Y014374D01*
X005352Y014428D01*
X005380Y014483D01*
X005405Y014540D01*
X005426Y014599D01*
X005444Y014659D01*
X005459Y014720D01*
X005469Y014781D01*
X005476Y014843D01*
X005480Y014905D01*
X005479Y014968D01*
X005475Y015030D01*
X003385Y016205D02*
X003381Y016267D01*
X003380Y016330D01*
X003384Y016392D01*
X003391Y016454D01*
X003401Y016515D01*
X003416Y016576D01*
X003434Y016636D01*
X003455Y016695D01*
X003480Y016752D01*
X003508Y016807D01*
X003539Y016861D01*
X003574Y016913D01*
X003612Y016963D01*
X003652Y017010D01*
X003696Y017055D01*
X003741Y017098D01*
X003790Y017137D01*
X003840Y017174D01*
X003893Y017207D01*
X003947Y017238D01*
X004004Y017265D01*
X004061Y017288D01*
X004120Y017308D01*
X004740Y017677D02*
X004799Y017697D01*
X004856Y017720D01*
X004913Y017747D01*
X004967Y017778D01*
X005020Y017811D01*
X005070Y017848D01*
X005119Y017887D01*
X005164Y017930D01*
X005208Y017975D01*
X005248Y018022D01*
X005286Y018072D01*
X005321Y018124D01*
X005352Y018178D01*
X005380Y018233D01*
X005405Y018290D01*
X005426Y018349D01*
X005444Y018409D01*
X005459Y018470D01*
X005469Y018531D01*
X005476Y018593D01*
X005480Y018655D01*
X005479Y018718D01*
X005475Y018780D01*
X005317Y018780D01*
X005255Y019330D02*
X003605Y019330D01*
X003605Y019405D02*
X005255Y019405D01*
X005317Y019955D02*
X005475Y019955D01*
X004543Y019955D02*
X004317Y019955D01*
X003605Y019405D02*
X003570Y019453D01*
X003537Y019503D01*
X003506Y019555D01*
X003479Y019609D01*
X003455Y019664D01*
X003435Y019721D01*
X003417Y019778D01*
X003403Y019836D01*
X003392Y019895D01*
X003385Y019955D01*
X003543Y019955D01*
X004740Y021058D02*
X004800Y021038D01*
X004859Y021014D01*
X004916Y020986D01*
X004971Y020955D01*
X005025Y020920D01*
X005076Y020883D01*
X005125Y020842D01*
X005171Y020798D01*
X005215Y020752D01*
X005256Y020703D01*
X005294Y020652D01*
X005328Y020599D01*
X005360Y020543D01*
X005387Y020486D01*
X005412Y020427D01*
X005432Y020367D01*
X005450Y020306D01*
X005463Y020244D01*
X005472Y020181D01*
X005478Y020118D01*
X005480Y020054D01*
X005478Y019990D01*
X005472Y019927D01*
X005463Y019864D01*
X005449Y019802D01*
X005432Y019741D01*
X005411Y019681D01*
X005387Y019622D01*
X005359Y019565D01*
X005327Y019509D01*
X005292Y019456D01*
X005255Y019405D01*
X004543Y018780D02*
X004317Y018780D01*
X005255Y019330D02*
X005290Y019282D01*
X005323Y019232D01*
X005354Y019180D01*
X005381Y019126D01*
X005405Y019071D01*
X005425Y019014D01*
X005443Y018957D01*
X005457Y018899D01*
X005468Y018840D01*
X005475Y018780D01*
X004120Y017677D02*
X004060Y017697D01*
X004001Y017721D01*
X003944Y017749D01*
X003889Y017780D01*
X003835Y017815D01*
X003784Y017852D01*
X003735Y017893D01*
X003689Y017937D01*
X003645Y017983D01*
X003604Y018032D01*
X003566Y018083D01*
X003532Y018136D01*
X003500Y018192D01*
X003473Y018249D01*
X003448Y018308D01*
X003428Y018368D01*
X003410Y018429D01*
X003397Y018491D01*
X003388Y018554D01*
X003382Y018617D01*
X003380Y018681D01*
X003382Y018745D01*
X003388Y018808D01*
X003397Y018871D01*
X003411Y018933D01*
X003428Y018994D01*
X003449Y019054D01*
X003473Y019113D01*
X003501Y019170D01*
X003533Y019226D01*
X003568Y019279D01*
X003605Y019330D01*
X003543Y018780D02*
X003385Y018780D01*
X003385Y019955D02*
X003381Y020017D01*
X003380Y020080D01*
X003384Y020142D01*
X003391Y020204D01*
X003401Y020265D01*
X003416Y020326D01*
X003434Y020386D01*
X003455Y020445D01*
X003480Y020502D01*
X003508Y020557D01*
X003539Y020611D01*
X003574Y020663D01*
X003612Y020713D01*
X003652Y020760D01*
X003696Y020805D01*
X003741Y020848D01*
X003790Y020887D01*
X003840Y020924D01*
X003893Y020957D01*
X003947Y020988D01*
X004004Y021015D01*
X004061Y021038D01*
X004120Y021058D01*
X003605Y021280D02*
X005255Y021280D01*
X005317Y021830D02*
X005475Y021830D01*
X004543Y021830D02*
X004317Y021830D01*
X003605Y021280D02*
X003570Y021328D01*
X003537Y021378D01*
X003506Y021430D01*
X003479Y021484D01*
X003455Y021539D01*
X003435Y021596D01*
X003417Y021653D01*
X003403Y021711D01*
X003392Y021770D01*
X003385Y021830D01*
X003543Y021830D01*
X003375Y021814D02*
X002925Y021814D01*
X002925Y022039D01*
X003000Y022114D01*
X003150Y022114D01*
X003225Y022039D01*
X003225Y021814D01*
X003300Y021579D02*
X002925Y021579D01*
X002925Y021504D02*
X002925Y021654D01*
X003300Y021579D02*
X003375Y021504D01*
X003375Y021429D01*
X003300Y021354D01*
X005255Y021280D02*
X005292Y021331D01*
X005327Y021384D01*
X005359Y021440D01*
X005387Y021497D01*
X005411Y021556D01*
X005432Y021616D01*
X005449Y021677D01*
X005463Y021739D01*
X005472Y021802D01*
X005478Y021865D01*
X005480Y021929D01*
X005478Y021993D01*
X005472Y022056D01*
X005463Y022119D01*
X005450Y022181D01*
X005432Y022242D01*
X005412Y022302D01*
X005387Y022361D01*
X005360Y022418D01*
X005328Y022474D01*
X005294Y022527D01*
X005256Y022578D01*
X005215Y022627D01*
X005171Y022673D01*
X005125Y022717D01*
X005076Y022758D01*
X005025Y022795D01*
X004971Y022830D01*
X004916Y022861D01*
X004859Y022889D01*
X004800Y022913D01*
X004740Y022933D01*
X004120Y022933D02*
X004061Y022913D01*
X004004Y022890D01*
X003947Y022863D01*
X003893Y022832D01*
X003840Y022799D01*
X003790Y022762D01*
X003741Y022723D01*
X003696Y022680D01*
X003652Y022635D01*
X003612Y022588D01*
X003574Y022538D01*
X003539Y022486D01*
X003508Y022432D01*
X003480Y022377D01*
X003455Y022320D01*
X003434Y022261D01*
X003416Y022201D01*
X003401Y022140D01*
X003391Y022079D01*
X003384Y022017D01*
X003380Y021955D01*
X003381Y021892D01*
X003385Y021830D01*
X003375Y022275D02*
X003375Y022575D01*
X003375Y022425D02*
X002925Y022425D01*
X003075Y022275D01*
X004120Y013558D02*
X004061Y013538D01*
X004004Y013515D01*
X003947Y013488D01*
X003893Y013457D01*
X003840Y013424D01*
X003790Y013387D01*
X003741Y013348D01*
X003696Y013305D01*
X003652Y013260D01*
X003612Y013213D01*
X003574Y013163D01*
X003539Y013111D01*
X003508Y013057D01*
X003480Y013002D01*
X003455Y012945D01*
X003434Y012886D01*
X003416Y012826D01*
X003401Y012765D01*
X003391Y012704D01*
X003384Y012642D01*
X003380Y012580D01*
X003381Y012517D01*
X003385Y012455D01*
X003543Y012455D01*
X003605Y011905D02*
X005255Y011905D01*
X005255Y011830D02*
X003605Y011830D01*
X003543Y011280D02*
X003385Y011280D01*
X004317Y011280D02*
X004543Y011280D01*
X005255Y011830D02*
X005290Y011782D01*
X005323Y011732D01*
X005354Y011680D01*
X005381Y011626D01*
X005405Y011571D01*
X005425Y011514D01*
X005443Y011457D01*
X005457Y011399D01*
X005468Y011340D01*
X005475Y011280D01*
X005317Y011280D01*
X004120Y010177D02*
X004060Y010197D01*
X004001Y010221D01*
X003944Y010249D01*
X003889Y010280D01*
X003835Y010315D01*
X003784Y010352D01*
X003735Y010393D01*
X003689Y010437D01*
X003645Y010483D01*
X003604Y010532D01*
X003566Y010583D01*
X003532Y010636D01*
X003500Y010692D01*
X003473Y010749D01*
X003448Y010808D01*
X003428Y010868D01*
X003410Y010929D01*
X003397Y010991D01*
X003388Y011054D01*
X003382Y011117D01*
X003380Y011181D01*
X003382Y011245D01*
X003388Y011308D01*
X003397Y011371D01*
X003411Y011433D01*
X003428Y011494D01*
X003449Y011554D01*
X003473Y011613D01*
X003501Y011670D01*
X003533Y011726D01*
X003568Y011779D01*
X003605Y011830D01*
X004317Y012455D02*
X004543Y012455D01*
X003605Y011905D02*
X003570Y011953D01*
X003537Y012003D01*
X003506Y012055D01*
X003479Y012109D01*
X003455Y012164D01*
X003435Y012221D01*
X003417Y012278D01*
X003403Y012336D01*
X003392Y012395D01*
X003385Y012455D01*
X004740Y013558D02*
X004800Y013538D01*
X004859Y013514D01*
X004916Y013486D01*
X004971Y013455D01*
X005025Y013420D01*
X005076Y013383D01*
X005125Y013342D01*
X005171Y013298D01*
X005215Y013252D01*
X005256Y013203D01*
X005294Y013152D01*
X005328Y013099D01*
X005360Y013043D01*
X005387Y012986D01*
X005412Y012927D01*
X005432Y012867D01*
X005450Y012806D01*
X005463Y012744D01*
X005472Y012681D01*
X005478Y012618D01*
X005480Y012554D01*
X005478Y012490D01*
X005472Y012427D01*
X005463Y012364D01*
X005449Y012302D01*
X005432Y012241D01*
X005411Y012181D01*
X005387Y012122D01*
X005359Y012065D01*
X005327Y012009D01*
X005292Y011956D01*
X005255Y011905D01*
X005317Y012455D02*
X005475Y012455D01*
X005475Y011280D02*
X005479Y011218D01*
X005480Y011155D01*
X005476Y011093D01*
X005469Y011031D01*
X005459Y010970D01*
X005444Y010909D01*
X005426Y010849D01*
X005405Y010790D01*
X005380Y010733D01*
X005352Y010678D01*
X005321Y010624D01*
X005286Y010572D01*
X005248Y010522D01*
X005208Y010475D01*
X005164Y010430D01*
X005119Y010387D01*
X005070Y010348D01*
X005020Y010311D01*
X004967Y010278D01*
X004913Y010247D01*
X004856Y010220D01*
X004799Y010197D01*
X004740Y010177D01*
X004959Y009755D02*
X004884Y009680D01*
X004884Y009380D01*
X004959Y009305D01*
X005109Y009305D01*
X005184Y009380D01*
X005345Y009305D02*
X005645Y009605D01*
X005645Y009680D01*
X005570Y009755D01*
X005420Y009755D01*
X005345Y009680D01*
X005184Y009680D02*
X005109Y009755D01*
X004959Y009755D01*
X005345Y009305D02*
X005645Y009305D01*
X005805Y008597D02*
X005805Y008297D01*
X006255Y008297D01*
X006255Y008136D02*
X005955Y008136D01*
X006030Y008297D02*
X006030Y008447D01*
X006255Y008136D02*
X006255Y007911D01*
X006180Y007836D01*
X005955Y007836D01*
X005880Y007676D02*
X006180Y007376D01*
X006255Y007451D01*
X006255Y007601D01*
X006180Y007676D01*
X005880Y007676D01*
X005805Y007601D01*
X005805Y007451D01*
X005880Y007376D01*
X006180Y007376D01*
X006180Y007216D02*
X005880Y007216D01*
X006180Y006915D01*
X006255Y006990D01*
X006255Y007141D01*
X006180Y007216D01*
X005880Y007216D02*
X005805Y007141D01*
X005805Y006990D01*
X005880Y006915D01*
X006180Y006915D01*
X006255Y006755D02*
X006255Y006455D01*
X006255Y006605D02*
X005805Y006605D01*
X005955Y006455D01*
X007380Y005930D02*
X008530Y005980D01*
X008630Y006080D01*
X008630Y009780D01*
X008530Y009880D01*
X007380Y009930D01*
X008595Y009638D02*
X008745Y009638D01*
X008670Y009638D02*
X008670Y009188D01*
X008595Y009188D02*
X008745Y009188D01*
X008902Y009263D02*
X008977Y009188D01*
X009127Y009188D01*
X009202Y009263D01*
X009362Y009263D02*
X009437Y009188D01*
X009587Y009188D01*
X009662Y009263D01*
X009662Y009413D01*
X009587Y009488D01*
X009512Y009488D01*
X009362Y009413D01*
X009362Y009638D01*
X009662Y009638D01*
X009202Y009563D02*
X009127Y009638D01*
X008977Y009638D01*
X008902Y009563D01*
X008902Y009263D01*
X010105Y008795D02*
X010105Y008495D01*
X010555Y008495D01*
X010555Y008334D02*
X010255Y008334D01*
X010330Y008495D02*
X010330Y008645D01*
X010555Y008334D02*
X010555Y008109D01*
X010480Y008034D01*
X010255Y008034D01*
X010180Y007874D02*
X010480Y007874D01*
X010555Y007799D01*
X010555Y007649D01*
X010480Y007574D01*
X010180Y007874D01*
X010105Y007799D01*
X010105Y007649D01*
X010180Y007574D01*
X010480Y007574D01*
X010480Y007414D02*
X010555Y007339D01*
X010555Y007188D01*
X010480Y007113D01*
X010180Y007414D01*
X010480Y007414D01*
X010180Y007414D02*
X010105Y007339D01*
X010105Y007188D01*
X010180Y007113D01*
X010480Y007113D01*
X010555Y006953D02*
X010555Y006653D01*
X010555Y006803D02*
X010105Y006803D01*
X010255Y006653D01*
X009383Y006776D02*
X009307Y006701D01*
X009007Y007001D01*
X009307Y007001D01*
X009383Y006926D01*
X009383Y006776D01*
X009307Y006701D02*
X009007Y006701D01*
X008932Y006776D01*
X008932Y006926D01*
X009007Y007001D01*
X008932Y007161D02*
X009157Y007161D01*
X009082Y007311D01*
X009082Y007387D01*
X009157Y007462D01*
X009307Y007462D01*
X009383Y007387D01*
X009383Y007236D01*
X009307Y007161D01*
X008932Y007161D02*
X008932Y007462D01*
X008932Y007622D02*
X008932Y007922D01*
X008932Y007772D02*
X009383Y007772D01*
X009232Y008082D02*
X008932Y008082D01*
X008932Y008382D02*
X009232Y008382D01*
X009383Y008232D01*
X009232Y008082D01*
X009232Y006541D02*
X009307Y006541D01*
X009383Y006466D01*
X009383Y006316D01*
X009307Y006241D01*
X009232Y006241D01*
X009157Y006316D01*
X009157Y006466D01*
X009232Y006541D01*
X009157Y006466D02*
X009082Y006541D01*
X009007Y006541D01*
X008932Y006466D01*
X008932Y006316D01*
X009007Y006241D01*
X009082Y006241D01*
X009157Y006316D01*
X009007Y006080D02*
X009307Y005780D01*
X009383Y005780D01*
X008932Y005780D02*
X008932Y006080D01*
X009007Y006080D01*
X008290Y006160D02*
X008292Y006180D01*
X008298Y006198D01*
X008307Y006216D01*
X008319Y006231D01*
X008334Y006243D01*
X008352Y006252D01*
X008370Y006258D01*
X008390Y006260D01*
X008410Y006258D01*
X008428Y006252D01*
X008446Y006243D01*
X008461Y006231D01*
X008473Y006216D01*
X008482Y006198D01*
X008488Y006180D01*
X008490Y006160D01*
X008488Y006140D01*
X008482Y006122D01*
X008473Y006104D01*
X008461Y006089D01*
X008446Y006077D01*
X008428Y006068D01*
X008410Y006062D01*
X008390Y006060D01*
X008370Y006062D01*
X008352Y006068D01*
X008334Y006077D01*
X008319Y006089D01*
X008307Y006104D01*
X008298Y006122D01*
X008292Y006140D01*
X008290Y006160D01*
X010459Y009305D02*
X010609Y009305D01*
X010684Y009380D01*
X010845Y009380D02*
X010920Y009305D01*
X011070Y009305D01*
X011145Y009380D01*
X011145Y009455D01*
X011070Y009530D01*
X010995Y009530D01*
X011070Y009530D02*
X011145Y009605D01*
X011145Y009680D01*
X011070Y009755D01*
X010920Y009755D01*
X010845Y009680D01*
X010684Y009680D02*
X010609Y009755D01*
X010459Y009755D01*
X010384Y009680D01*
X010384Y009380D01*
X010459Y009305D01*
X004315Y007945D02*
X004315Y007645D01*
X004315Y007795D02*
X003865Y007795D01*
X004015Y007645D01*
X004315Y007484D02*
X004315Y007184D01*
X003865Y007184D01*
X003940Y007024D02*
X003865Y006949D01*
X003865Y006799D01*
X003940Y006724D01*
X004015Y006724D01*
X004090Y006799D01*
X004090Y006949D01*
X004165Y007024D01*
X004240Y007024D01*
X004315Y006949D01*
X004315Y006799D01*
X004240Y006724D01*
X003302Y007505D02*
X003075Y007505D01*
X003188Y007505D02*
X003188Y007845D01*
X003075Y007732D01*
X019730Y015002D02*
X019730Y015152D01*
X019730Y015077D02*
X020180Y015077D01*
X020180Y015002D02*
X020180Y015152D01*
X020105Y015309D02*
X020180Y015384D01*
X020180Y015534D01*
X020105Y015609D01*
X019955Y015770D02*
X019730Y015995D01*
X020180Y015995D01*
X019955Y016070D02*
X019955Y015770D01*
X019805Y015609D02*
X019730Y015534D01*
X019730Y015384D01*
X019805Y015309D01*
X020105Y015309D01*
X020080Y016972D02*
X020155Y016972D01*
X020080Y016972D02*
X019780Y017272D01*
X019705Y017272D01*
X019705Y016972D01*
X019930Y017432D02*
X019930Y017733D01*
X019930Y017893D02*
X019930Y018193D01*
X020080Y018353D02*
X020155Y018428D01*
X020155Y018578D01*
X020080Y018653D01*
X020080Y018813D02*
X020155Y018888D01*
X020155Y019039D01*
X020080Y019114D01*
X019930Y019114D01*
X019855Y019039D01*
X019855Y018964D01*
X019930Y018813D01*
X019705Y018813D01*
X019705Y019114D01*
X019780Y019274D02*
X019855Y019274D01*
X019930Y019349D01*
X019930Y019574D01*
X020080Y019574D02*
X019780Y019574D01*
X019705Y019499D01*
X019705Y019349D01*
X019780Y019274D01*
X020080Y019274D02*
X020155Y019349D01*
X020155Y019499D01*
X020080Y019574D01*
X020080Y019734D02*
X020155Y019809D01*
X020155Y019959D01*
X020080Y020034D01*
X019930Y020034D01*
X019855Y019959D01*
X019855Y019884D01*
X019930Y019734D01*
X019705Y019734D01*
X019705Y020034D01*
X019705Y020195D02*
X020155Y020495D01*
X019705Y020495D01*
X019705Y020195D02*
X020155Y020195D01*
X019780Y018653D02*
X019705Y018578D01*
X019705Y018428D01*
X019780Y018353D01*
X020080Y018353D01*
X020155Y018193D02*
X019705Y018193D01*
X019705Y017893D02*
X020155Y017893D01*
X020155Y017657D02*
X019705Y017657D01*
X019930Y017432D01*
X021167Y021904D02*
X021467Y021904D01*
X021543Y021979D01*
X021543Y022129D01*
X021467Y022204D01*
X021467Y022365D02*
X021543Y022440D01*
X021543Y022590D01*
X021467Y022665D01*
X021317Y022665D01*
X021242Y022590D01*
X021242Y022515D01*
X021317Y022365D01*
X021092Y022365D01*
X021092Y022665D01*
X021167Y022204D02*
X021092Y022129D01*
X021092Y021979D01*
X021167Y021904D01*
D22*
X019695Y009130D03*
X019695Y008730D03*
D23*
X014614Y003908D02*
X014614Y003698D01*
X014509Y003593D01*
X014193Y003593D01*
X014193Y003383D02*
X014193Y004013D01*
X014509Y004013D01*
X014614Y003908D01*
X013969Y003908D02*
X013969Y003803D01*
X013864Y003698D01*
X013654Y003698D01*
X013549Y003803D01*
X013549Y003908D01*
X013654Y004013D01*
X013864Y004013D01*
X013969Y003908D01*
X013864Y003698D02*
X013969Y003593D01*
X013969Y003488D01*
X013864Y003383D01*
X013654Y003383D01*
X013549Y003488D01*
X013549Y003593D01*
X013654Y003698D01*
X013325Y003803D02*
X013325Y003908D01*
X013220Y004013D01*
X013009Y004013D01*
X012904Y003908D01*
X012680Y003908D02*
X012680Y003803D01*
X012575Y003698D01*
X012680Y003593D01*
X012680Y003488D01*
X012575Y003383D01*
X012365Y003383D01*
X012260Y003488D01*
X012036Y003383D02*
X012036Y003803D01*
X011825Y004013D01*
X011615Y003803D01*
X011615Y003383D01*
X011391Y003488D02*
X011391Y003698D01*
X011181Y003698D01*
X011391Y003908D02*
X011286Y004013D01*
X011076Y004013D01*
X010971Y003908D01*
X010971Y003488D01*
X011076Y003383D01*
X011286Y003383D01*
X011391Y003488D01*
X011615Y003698D02*
X012036Y003698D01*
X012260Y003908D02*
X012365Y004013D01*
X012575Y004013D01*
X012680Y003908D01*
X012575Y003698D02*
X012470Y003698D01*
X012904Y003383D02*
X013325Y003803D01*
X013325Y003383D02*
X012904Y003383D01*
X010747Y003383D02*
X010326Y003383D01*
X010326Y004013D01*
X010747Y004013D01*
X010536Y003698D02*
X010326Y003698D01*
X010102Y004013D02*
X010102Y003383D01*
X009682Y003383D02*
X009682Y004013D01*
X009892Y003803D01*
X010102Y004013D01*
X009457Y004013D02*
X009037Y004013D01*
X009247Y004013D02*
X009247Y003383D01*
X008813Y003383D02*
X008813Y003803D01*
X008603Y004013D01*
X008393Y003803D01*
X008393Y003383D01*
X008393Y003698D02*
X008813Y003698D01*
X002975Y003710D02*
X002975Y003500D01*
X002870Y003395D01*
X002450Y003395D01*
X002344Y003500D01*
X002344Y003710D01*
X002450Y003815D01*
X002450Y004039D02*
X002344Y004144D01*
X002344Y004355D01*
X002450Y004460D01*
X002555Y004460D01*
X002975Y004039D01*
X002975Y004460D01*
X002870Y003815D02*
X002975Y003710D01*
X002975Y003175D02*
X002975Y002965D01*
X002975Y003070D02*
X002344Y003070D01*
X002344Y002965D02*
X002344Y003175D01*
D24*
X018412Y011629D02*
X018786Y011629D01*
X018739Y011675D02*
X018692Y011722D01*
X018645Y011722D01*
X018599Y011675D01*
X018599Y011582D01*
X018552Y011535D01*
X018505Y011535D01*
X018459Y011582D01*
X018459Y011675D01*
X018505Y011722D01*
X018505Y011811D02*
X018459Y011858D01*
X018459Y011951D01*
X018505Y011998D01*
X018552Y011998D01*
X018739Y011811D01*
X018739Y011998D01*
X018739Y011675D02*
X018739Y011582D01*
X018692Y011535D01*
X018692Y011446D02*
X018459Y011446D01*
X018459Y011259D02*
X018692Y011259D01*
X018739Y011306D01*
X018739Y011399D01*
X018692Y011446D01*
D25*
X007080Y007930D03*
D26*
X007330Y009655D03*
X007330Y006205D03*
D27*
X007330Y007430D03*
X007330Y008430D03*
M02*
