G75*
G70*
%OFA0B0*%
%FSLAX24Y24*%
%IPPOS*%
%LPD*%
%AMOC8*
5,1,8,0,0,1.08239X$1,22.5*
%
%ADD10C,0.0000*%
%ADD11C,0.0160*%
D10*
X016300Y002180D02*
X016302Y002230D01*
X016308Y002280D01*
X016318Y002329D01*
X016332Y002377D01*
X016349Y002424D01*
X016370Y002469D01*
X016395Y002513D01*
X016423Y002554D01*
X016455Y002593D01*
X016489Y002630D01*
X016526Y002664D01*
X016566Y002694D01*
X016608Y002721D01*
X016652Y002745D01*
X016698Y002766D01*
X016745Y002782D01*
X016793Y002795D01*
X016843Y002804D01*
X016892Y002809D01*
X016943Y002810D01*
X016993Y002807D01*
X017042Y002800D01*
X017091Y002789D01*
X017139Y002774D01*
X017185Y002756D01*
X017230Y002734D01*
X017273Y002708D01*
X017314Y002679D01*
X017353Y002647D01*
X017389Y002612D01*
X017421Y002574D01*
X017451Y002534D01*
X017478Y002491D01*
X017501Y002447D01*
X017520Y002401D01*
X017536Y002353D01*
X017548Y002304D01*
X017556Y002255D01*
X017560Y002205D01*
X017560Y002155D01*
X017556Y002105D01*
X017548Y002056D01*
X017536Y002007D01*
X017520Y001959D01*
X017501Y001913D01*
X017478Y001869D01*
X017451Y001826D01*
X017421Y001786D01*
X017389Y001748D01*
X017353Y001713D01*
X017314Y001681D01*
X017273Y001652D01*
X017230Y001626D01*
X017185Y001604D01*
X017139Y001586D01*
X017091Y001571D01*
X017042Y001560D01*
X016993Y001553D01*
X016943Y001550D01*
X016892Y001551D01*
X016843Y001556D01*
X016793Y001565D01*
X016745Y001578D01*
X016698Y001594D01*
X016652Y001615D01*
X016608Y001639D01*
X016566Y001666D01*
X016526Y001696D01*
X016489Y001730D01*
X016455Y001767D01*
X016423Y001806D01*
X016395Y001847D01*
X016370Y001891D01*
X016349Y001936D01*
X016332Y001983D01*
X016318Y002031D01*
X016308Y002080D01*
X016302Y002130D01*
X016300Y002180D01*
X021050Y011180D02*
X021052Y011230D01*
X021058Y011280D01*
X021068Y011329D01*
X021082Y011377D01*
X021099Y011424D01*
X021120Y011469D01*
X021145Y011513D01*
X021173Y011554D01*
X021205Y011593D01*
X021239Y011630D01*
X021276Y011664D01*
X021316Y011694D01*
X021358Y011721D01*
X021402Y011745D01*
X021448Y011766D01*
X021495Y011782D01*
X021543Y011795D01*
X021593Y011804D01*
X021642Y011809D01*
X021693Y011810D01*
X021743Y011807D01*
X021792Y011800D01*
X021841Y011789D01*
X021889Y011774D01*
X021935Y011756D01*
X021980Y011734D01*
X022023Y011708D01*
X022064Y011679D01*
X022103Y011647D01*
X022139Y011612D01*
X022171Y011574D01*
X022201Y011534D01*
X022228Y011491D01*
X022251Y011447D01*
X022270Y011401D01*
X022286Y011353D01*
X022298Y011304D01*
X022306Y011255D01*
X022310Y011205D01*
X022310Y011155D01*
X022306Y011105D01*
X022298Y011056D01*
X022286Y011007D01*
X022270Y010959D01*
X022251Y010913D01*
X022228Y010869D01*
X022201Y010826D01*
X022171Y010786D01*
X022139Y010748D01*
X022103Y010713D01*
X022064Y010681D01*
X022023Y010652D01*
X021980Y010626D01*
X021935Y010604D01*
X021889Y010586D01*
X021841Y010571D01*
X021792Y010560D01*
X021743Y010553D01*
X021693Y010550D01*
X021642Y010551D01*
X021593Y010556D01*
X021543Y010565D01*
X021495Y010578D01*
X021448Y010594D01*
X021402Y010615D01*
X021358Y010639D01*
X021316Y010666D01*
X021276Y010696D01*
X021239Y010730D01*
X021205Y010767D01*
X021173Y010806D01*
X021145Y010847D01*
X021120Y010891D01*
X021099Y010936D01*
X021082Y010983D01*
X021068Y011031D01*
X021058Y011080D01*
X021052Y011130D01*
X021050Y011180D01*
X021550Y023680D02*
X021552Y023730D01*
X021558Y023780D01*
X021568Y023829D01*
X021582Y023877D01*
X021599Y023924D01*
X021620Y023969D01*
X021645Y024013D01*
X021673Y024054D01*
X021705Y024093D01*
X021739Y024130D01*
X021776Y024164D01*
X021816Y024194D01*
X021858Y024221D01*
X021902Y024245D01*
X021948Y024266D01*
X021995Y024282D01*
X022043Y024295D01*
X022093Y024304D01*
X022142Y024309D01*
X022193Y024310D01*
X022243Y024307D01*
X022292Y024300D01*
X022341Y024289D01*
X022389Y024274D01*
X022435Y024256D01*
X022480Y024234D01*
X022523Y024208D01*
X022564Y024179D01*
X022603Y024147D01*
X022639Y024112D01*
X022671Y024074D01*
X022701Y024034D01*
X022728Y023991D01*
X022751Y023947D01*
X022770Y023901D01*
X022786Y023853D01*
X022798Y023804D01*
X022806Y023755D01*
X022810Y023705D01*
X022810Y023655D01*
X022806Y023605D01*
X022798Y023556D01*
X022786Y023507D01*
X022770Y023459D01*
X022751Y023413D01*
X022728Y023369D01*
X022701Y023326D01*
X022671Y023286D01*
X022639Y023248D01*
X022603Y023213D01*
X022564Y023181D01*
X022523Y023152D01*
X022480Y023126D01*
X022435Y023104D01*
X022389Y023086D01*
X022341Y023071D01*
X022292Y023060D01*
X022243Y023053D01*
X022193Y023050D01*
X022142Y023051D01*
X022093Y023056D01*
X022043Y023065D01*
X021995Y023078D01*
X021948Y023094D01*
X021902Y023115D01*
X021858Y023139D01*
X021816Y023166D01*
X021776Y023196D01*
X021739Y023230D01*
X021705Y023267D01*
X021673Y023306D01*
X021645Y023347D01*
X021620Y023391D01*
X021599Y023436D01*
X021582Y023483D01*
X021568Y023531D01*
X021558Y023580D01*
X021552Y023630D01*
X021550Y023680D01*
X002050Y023680D02*
X002052Y023730D01*
X002058Y023780D01*
X002068Y023829D01*
X002082Y023877D01*
X002099Y023924D01*
X002120Y023969D01*
X002145Y024013D01*
X002173Y024054D01*
X002205Y024093D01*
X002239Y024130D01*
X002276Y024164D01*
X002316Y024194D01*
X002358Y024221D01*
X002402Y024245D01*
X002448Y024266D01*
X002495Y024282D01*
X002543Y024295D01*
X002593Y024304D01*
X002642Y024309D01*
X002693Y024310D01*
X002743Y024307D01*
X002792Y024300D01*
X002841Y024289D01*
X002889Y024274D01*
X002935Y024256D01*
X002980Y024234D01*
X003023Y024208D01*
X003064Y024179D01*
X003103Y024147D01*
X003139Y024112D01*
X003171Y024074D01*
X003201Y024034D01*
X003228Y023991D01*
X003251Y023947D01*
X003270Y023901D01*
X003286Y023853D01*
X003298Y023804D01*
X003306Y023755D01*
X003310Y023705D01*
X003310Y023655D01*
X003306Y023605D01*
X003298Y023556D01*
X003286Y023507D01*
X003270Y023459D01*
X003251Y023413D01*
X003228Y023369D01*
X003201Y023326D01*
X003171Y023286D01*
X003139Y023248D01*
X003103Y023213D01*
X003064Y023181D01*
X003023Y023152D01*
X002980Y023126D01*
X002935Y023104D01*
X002889Y023086D01*
X002841Y023071D01*
X002792Y023060D01*
X002743Y023053D01*
X002693Y023050D01*
X002642Y023051D01*
X002593Y023056D01*
X002543Y023065D01*
X002495Y023078D01*
X002448Y023094D01*
X002402Y023115D01*
X002358Y023139D01*
X002316Y023166D01*
X002276Y023196D01*
X002239Y023230D01*
X002205Y023267D01*
X002173Y023306D01*
X002145Y023347D01*
X002120Y023391D01*
X002099Y023436D01*
X002082Y023483D01*
X002068Y023531D01*
X002058Y023580D01*
X002052Y023630D01*
X002050Y023680D01*
D11*
X001180Y001180D02*
X023430Y001180D01*
X023430Y024680D01*
X001180Y024680D01*
X001180Y001180D01*
M02*
