G75*
G70*
%OFA0B0*%
%FSLAX24Y24*%
%IPPOS*%
%LPD*%
%AMOC8*
5,1,8,0,0,1.08239X$1,22.5*
%
%ADD10OC8,0.0480*%
%ADD11C,0.0480*%
%ADD12R,0.1560X0.1560*%
%ADD13C,0.1250*%
%ADD14C,0.0480*%
%ADD15C,0.0660*%
%ADD16C,0.0600*%
%ADD17OC8,0.0560*%
%ADD18C,0.0540*%
%ADD19C,0.0160*%
%ADD20C,0.0060*%
%ADD21C,0.0270*%
%ADD22C,0.0376*%
D10*
X005430Y006680D03*
X005430Y008680D03*
X004430Y010430D03*
X003930Y011180D03*
X004930Y011180D03*
X004930Y012555D03*
X004430Y013305D03*
X004430Y014180D03*
X003930Y014930D03*
X004930Y014930D03*
X006180Y014930D03*
X007180Y014930D03*
X007180Y016430D03*
X006180Y016430D03*
X004930Y016305D03*
X004430Y017055D03*
X003930Y016305D03*
X004430Y017930D03*
X003930Y018680D03*
X004930Y018680D03*
X006180Y017930D03*
X007180Y017930D03*
X007180Y019430D03*
X006180Y019430D03*
X004930Y020055D03*
X004430Y020805D03*
X003930Y020055D03*
X003930Y021930D03*
X004430Y022680D03*
X004930Y021930D03*
X006180Y022430D03*
X007180Y022430D03*
X007180Y020930D03*
X006180Y020930D03*
X013430Y020055D03*
X013930Y020805D03*
X014430Y020055D03*
X015680Y019430D03*
X016680Y019430D03*
X016680Y017930D03*
X015680Y017930D03*
X014430Y018680D03*
X013930Y017930D03*
X013430Y018680D03*
X013930Y017055D03*
X013430Y016305D03*
X014430Y016305D03*
X015680Y016430D03*
X016680Y016430D03*
X016680Y014930D03*
X015680Y014930D03*
X014430Y014930D03*
X013930Y014180D03*
X013930Y013305D03*
X013430Y012555D03*
X014430Y012555D03*
X015680Y013430D03*
X016680Y013430D03*
X015930Y011430D03*
X015930Y010430D03*
X014430Y011180D03*
X013930Y010430D03*
X013430Y011180D03*
X010930Y008680D03*
X010930Y006680D03*
X017430Y010430D03*
X017430Y011430D03*
X013430Y014930D03*
X007180Y013430D03*
X006180Y013430D03*
X003930Y012555D03*
X013430Y021930D03*
X013930Y022680D03*
X014430Y021930D03*
X015680Y022430D03*
X016680Y022430D03*
X016680Y020930D03*
X015680Y020930D03*
D11*
X018190Y021180D02*
X018670Y021180D01*
X018670Y020180D02*
X018190Y020180D01*
X018190Y019180D02*
X018670Y019180D01*
X018670Y018180D02*
X018190Y018180D01*
X018190Y017180D02*
X018670Y017180D01*
X018670Y016180D02*
X018190Y016180D01*
X018190Y015180D02*
X018670Y015180D01*
X018670Y014180D02*
X018190Y014180D01*
X021190Y014180D02*
X021670Y014180D01*
X021670Y015180D02*
X021190Y015180D01*
X021190Y016180D02*
X021670Y016180D01*
X021670Y017180D02*
X021190Y017180D01*
X021190Y018180D02*
X021670Y018180D01*
X021670Y019180D02*
X021190Y019180D01*
X021190Y020180D02*
X021670Y020180D01*
X021670Y021180D02*
X021190Y021180D01*
X012170Y021180D02*
X011690Y021180D01*
X011690Y020180D02*
X012170Y020180D01*
X012170Y019180D02*
X011690Y019180D01*
X011690Y018180D02*
X012170Y018180D01*
X012170Y017180D02*
X011690Y017180D01*
X011690Y016180D02*
X012170Y016180D01*
X012170Y015180D02*
X011690Y015180D01*
X011690Y014180D02*
X012170Y014180D01*
X009170Y014180D02*
X008690Y014180D01*
X008690Y015180D02*
X009170Y015180D01*
X009170Y016180D02*
X008690Y016180D01*
X008690Y017180D02*
X009170Y017180D01*
X009170Y018180D02*
X008690Y018180D01*
X008690Y019180D02*
X009170Y019180D01*
X009170Y020180D02*
X008690Y020180D01*
X008690Y021180D02*
X009170Y021180D01*
X014440Y009430D02*
X014920Y009430D01*
X014920Y008430D02*
X014440Y008430D01*
X014440Y007430D02*
X014920Y007430D01*
X014920Y006430D02*
X014440Y006430D01*
X014430Y005420D02*
X014430Y004940D01*
X013430Y004940D02*
X013430Y005420D01*
X012430Y005420D02*
X012430Y004940D01*
X011430Y004940D02*
X011430Y005420D01*
X010430Y005420D02*
X010430Y004940D01*
X009430Y004940D02*
X009430Y005420D01*
X008430Y005420D02*
X008430Y004940D01*
X007430Y004940D02*
X007430Y005420D01*
X006430Y005420D02*
X006430Y004940D01*
X005430Y004940D02*
X005430Y005420D01*
X004430Y005420D02*
X004430Y004940D01*
X003430Y004940D02*
X003430Y005420D01*
X002430Y005420D02*
X002430Y004940D01*
X002430Y002420D02*
X002430Y001940D01*
X003430Y001940D02*
X003430Y002420D01*
X004430Y002420D02*
X004430Y001940D01*
X005430Y001940D02*
X005430Y002420D01*
X006430Y002420D02*
X006430Y001940D01*
X007430Y001940D02*
X007430Y002420D01*
X008430Y002420D02*
X008430Y001940D01*
X009430Y001940D02*
X009430Y002420D01*
X010430Y002420D02*
X010430Y001940D01*
X011430Y001940D02*
X011430Y002420D01*
X012430Y002420D02*
X012430Y001940D01*
X013430Y001940D02*
X013430Y002420D01*
X014430Y002420D02*
X014430Y001940D01*
X015430Y001940D02*
X015430Y002420D01*
X015430Y004940D02*
X015430Y005420D01*
X017440Y006430D02*
X017920Y006430D01*
X017920Y007430D02*
X017440Y007430D01*
X017440Y008430D02*
X017920Y008430D01*
X017920Y009430D02*
X017440Y009430D01*
D12*
X020930Y004730D03*
D13*
X020930Y002130D03*
X020930Y007330D03*
D14*
X019180Y008430D03*
X019180Y009430D03*
D15*
X019680Y010680D03*
X019680Y011680D03*
X019680Y012680D03*
D16*
X008230Y008930D02*
X007630Y008930D01*
X007630Y007930D02*
X008230Y007930D01*
X008230Y006930D02*
X007630Y006930D01*
X002480Y009180D02*
X001880Y009180D01*
X001880Y010180D02*
X002480Y010180D01*
X002480Y011180D02*
X001880Y011180D01*
X001880Y012180D02*
X002480Y012180D01*
X002480Y013180D02*
X001880Y013180D01*
X001880Y014180D02*
X002480Y014180D01*
X002480Y015180D02*
X001880Y015180D01*
X001880Y016180D02*
X002480Y016180D01*
X002480Y017180D02*
X001880Y017180D01*
X001880Y018180D02*
X002480Y018180D01*
X002480Y019180D02*
X001880Y019180D01*
X001880Y020180D02*
X002480Y020180D01*
X002480Y021180D02*
X001880Y021180D01*
X001880Y022180D02*
X002480Y022180D01*
D17*
X009880Y022380D03*
X010880Y022380D03*
X019443Y022400D03*
X020443Y022400D03*
X013180Y008680D03*
X013180Y007680D03*
X016880Y004580D03*
X016880Y003580D03*
D18*
X002950Y006680D02*
X002410Y006680D01*
X002410Y007680D02*
X002950Y007680D01*
D19*
X001490Y008863D02*
X001490Y001490D01*
X016404Y001490D01*
X016201Y001693D01*
X016070Y002009D01*
X016070Y002351D01*
X016201Y002667D01*
X016443Y002909D01*
X016759Y003040D01*
X017101Y003040D01*
X017417Y002909D01*
X017659Y002667D01*
X017790Y002351D01*
X017790Y002009D01*
X017659Y001693D01*
X017456Y001490D01*
X020403Y001490D01*
X020231Y001663D01*
X020105Y001966D01*
X020105Y002294D01*
X020129Y002351D01*
X016686Y005750D01*
X016685Y005750D01*
X016618Y005817D01*
X016551Y005883D01*
X016551Y005884D01*
X016550Y005885D01*
X016550Y005979D01*
X016549Y006074D01*
X016550Y006074D01*
X016550Y007575D01*
X016685Y007710D01*
X017111Y008137D01*
X017067Y008181D01*
X017000Y008342D01*
X017000Y008426D01*
X016970Y008396D01*
X016847Y008345D01*
X016713Y008345D01*
X016590Y008396D01*
X016496Y008490D01*
X016445Y008613D01*
X016445Y008747D01*
X016496Y008870D01*
X016550Y008924D01*
X016550Y011475D01*
X016685Y011610D01*
X016990Y011610D01*
X016990Y011612D01*
X017248Y011870D01*
X017612Y011870D01*
X017870Y011612D01*
X017870Y011248D01*
X017612Y010990D01*
X017248Y010990D01*
X017088Y011150D01*
X017010Y011150D01*
X017010Y010632D01*
X017248Y010870D01*
X017612Y010870D01*
X017870Y010612D01*
X017870Y010248D01*
X017612Y009990D01*
X017248Y009990D01*
X017010Y010228D01*
X017010Y008924D01*
X017064Y008870D01*
X017115Y008747D01*
X017115Y008727D01*
X017191Y008803D01*
X017352Y008870D01*
X018008Y008870D01*
X018102Y008831D01*
X018125Y008850D01*
X018185Y008910D01*
X018197Y008910D01*
X018740Y009363D01*
X018740Y009518D01*
X018807Y009679D01*
X018931Y009803D01*
X019092Y009870D01*
X019268Y009870D01*
X019429Y009803D01*
X019553Y009679D01*
X019620Y009518D01*
X019620Y009342D01*
X019553Y009181D01*
X019429Y009057D01*
X019268Y008990D01*
X019092Y008990D01*
X019038Y009012D01*
X018510Y008572D01*
X018510Y007985D01*
X018249Y007723D01*
X018293Y007679D01*
X018360Y007518D01*
X018360Y007342D01*
X018293Y007181D01*
X018169Y007057D01*
X018008Y006990D01*
X017352Y006990D01*
X017191Y007057D01*
X017067Y007181D01*
X017010Y007318D01*
X017010Y006542D01*
X017067Y006679D01*
X017191Y006803D01*
X017352Y006870D01*
X018008Y006870D01*
X018169Y006803D01*
X018215Y006757D01*
X018950Y007569D01*
X018950Y008049D01*
X018931Y008057D01*
X018807Y008181D01*
X018740Y008342D01*
X018740Y008518D01*
X018807Y008679D01*
X018931Y008803D01*
X019092Y008870D01*
X019268Y008870D01*
X019429Y008803D01*
X019553Y008679D01*
X019620Y008518D01*
X019620Y008342D01*
X019553Y008181D01*
X019429Y008057D01*
X019410Y008049D01*
X019410Y007486D01*
X019414Y007396D01*
X019410Y007391D01*
X019410Y007385D01*
X019347Y007321D01*
X018460Y006341D01*
X018460Y006335D01*
X018397Y006271D01*
X018337Y006205D01*
X018330Y006205D01*
X018325Y006200D01*
X018301Y006200D01*
X018293Y006181D01*
X018169Y006057D01*
X018008Y005990D01*
X017352Y005990D01*
X017191Y006057D01*
X017067Y006181D01*
X017010Y006318D01*
X017010Y006076D01*
X020381Y002748D01*
X020463Y002829D01*
X020766Y002955D01*
X021094Y002955D01*
X021397Y002829D01*
X021629Y002597D01*
X021755Y002294D01*
X021755Y001966D01*
X021629Y001663D01*
X021457Y001490D01*
X023120Y001490D01*
X023120Y024370D01*
X022706Y024370D01*
X022909Y024167D01*
X023040Y023851D01*
X023040Y023509D01*
X022909Y023193D01*
X022667Y022951D01*
X022351Y022820D01*
X022009Y022820D01*
X021693Y022951D01*
X021451Y023193D01*
X021320Y023509D01*
X021320Y023851D01*
X021451Y024167D01*
X021654Y024370D01*
X003206Y024370D01*
X003409Y024167D01*
X003540Y023851D01*
X003540Y023509D01*
X003409Y023193D01*
X003167Y022951D01*
X002851Y022820D01*
X002509Y022820D01*
X002193Y022951D01*
X001951Y023193D01*
X001820Y023509D01*
X001820Y023851D01*
X001951Y024167D01*
X002154Y024370D01*
X001490Y024370D01*
X001490Y022497D01*
X001597Y022604D01*
X001781Y022680D01*
X002579Y022680D01*
X002763Y022604D01*
X002904Y022463D01*
X002980Y022279D01*
X002980Y022081D01*
X002904Y021897D01*
X002763Y021756D01*
X002579Y021680D01*
X001781Y021680D01*
X001597Y021756D01*
X001490Y021863D01*
X001490Y021497D01*
X001597Y021604D01*
X001781Y021680D01*
X002579Y021680D01*
X002763Y021604D01*
X002904Y021463D01*
X002980Y021279D01*
X002980Y021081D01*
X002904Y020897D01*
X002763Y020756D01*
X002579Y020680D01*
X001781Y020680D01*
X001597Y020756D01*
X001490Y020863D01*
X001490Y020497D01*
X001597Y020604D01*
X001781Y020680D01*
X002579Y020680D01*
X002763Y020604D01*
X002904Y020463D01*
X002943Y020368D01*
X003050Y020475D01*
X003050Y022575D01*
X003185Y022710D01*
X003650Y023175D01*
X003650Y023475D01*
X003785Y023610D01*
X012075Y023610D01*
X012210Y023475D01*
X013315Y022370D01*
X013612Y022370D01*
X013870Y022112D01*
X013870Y021748D01*
X013612Y021490D01*
X013248Y021490D01*
X012990Y021748D01*
X012990Y022045D01*
X011885Y023150D01*
X004110Y023150D01*
X004110Y022985D01*
X003510Y022385D01*
X003510Y022132D01*
X003748Y022370D01*
X004112Y022370D01*
X004370Y022112D01*
X004370Y021748D01*
X004112Y021490D01*
X003748Y021490D01*
X003510Y021728D01*
X003510Y020285D01*
X003375Y020150D01*
X003375Y020150D01*
X002910Y019685D01*
X002910Y019685D01*
X002796Y019571D01*
X002904Y019463D01*
X002980Y019279D01*
X002980Y019081D01*
X002904Y018897D01*
X002763Y018756D01*
X002579Y018680D01*
X001781Y018680D01*
X001710Y018709D01*
X001710Y018651D01*
X001781Y018680D01*
X002579Y018680D01*
X002763Y018604D01*
X002904Y018463D01*
X002962Y018324D01*
X003010Y018275D01*
X003510Y017775D01*
X003510Y016875D01*
X003694Y016691D01*
X003748Y016745D01*
X004112Y016745D01*
X004370Y016487D01*
X004370Y016123D01*
X004166Y015919D01*
X004732Y015354D01*
X004748Y015370D01*
X005112Y015370D01*
X005370Y015112D01*
X005370Y014748D01*
X005112Y014490D01*
X004748Y014490D01*
X004490Y014748D01*
X004490Y014945D01*
X004350Y015085D01*
X004350Y014930D01*
X003930Y014930D01*
X003930Y014930D01*
X003930Y014930D01*
X003930Y015350D01*
X004085Y015350D01*
X003510Y015925D01*
X003510Y013575D01*
X004090Y012995D01*
X004112Y012995D01*
X004370Y012737D01*
X004370Y012373D01*
X004112Y012115D01*
X003748Y012115D01*
X003510Y012353D01*
X003510Y009810D01*
X004685Y009810D01*
X005125Y010250D01*
X004870Y010250D01*
X004870Y010248D01*
X004612Y009990D01*
X004248Y009990D01*
X003990Y010248D01*
X003990Y010612D01*
X004248Y010870D01*
X004612Y010870D01*
X004772Y010710D01*
X005285Y010710D01*
X005750Y011175D01*
X005750Y013238D01*
X005740Y013248D01*
X005740Y013433D01*
X005734Y013443D01*
X005740Y013468D01*
X005740Y013612D01*
X005998Y013870D01*
X006362Y013870D01*
X006620Y013612D01*
X006620Y013248D01*
X006362Y012990D01*
X006210Y012990D01*
X006210Y011335D01*
X006485Y011610D01*
X007085Y011610D01*
X009241Y013766D01*
X009203Y013760D01*
X008930Y013760D01*
X008930Y014180D01*
X008930Y014180D01*
X008930Y014600D01*
X009203Y014600D01*
X009268Y014590D01*
X009331Y014569D01*
X009390Y014539D01*
X009444Y014500D01*
X009490Y014454D01*
X009529Y014400D01*
X009559Y014341D01*
X009580Y014278D01*
X009590Y014213D01*
X009590Y014180D01*
X008930Y014180D01*
X008930Y014180D01*
X008930Y014180D01*
X008930Y014180D01*
X008270Y014180D01*
X008270Y014213D01*
X008280Y014278D01*
X008301Y014341D01*
X008331Y014400D01*
X008370Y014454D01*
X008416Y014500D01*
X008470Y014539D01*
X008529Y014569D01*
X008592Y014590D01*
X008657Y014600D01*
X008930Y014600D01*
X008930Y014180D01*
X009590Y014180D01*
X009590Y014147D01*
X009584Y014109D01*
X009650Y014175D01*
X009650Y018975D01*
X009785Y019110D01*
X011470Y020795D01*
X011441Y020807D01*
X011317Y020931D01*
X011250Y021092D01*
X011250Y021268D01*
X011317Y021429D01*
X011441Y021553D01*
X011602Y021620D01*
X012258Y021620D01*
X012419Y021553D01*
X012543Y021429D01*
X012610Y021268D01*
X012610Y021092D01*
X012543Y020931D01*
X012522Y020910D01*
X012975Y020910D01*
X013110Y020775D01*
X013390Y020495D01*
X013612Y020495D01*
X013870Y020237D01*
X013870Y019873D01*
X013612Y019615D01*
X013248Y019615D01*
X012990Y019873D01*
X012990Y020237D01*
X012994Y020241D01*
X012785Y020450D01*
X012522Y020450D01*
X012543Y020429D01*
X012610Y020268D01*
X012610Y020092D01*
X012543Y019931D01*
X012419Y019807D01*
X012258Y019740D01*
X011602Y019740D01*
X011441Y019807D01*
X011317Y019931D01*
X011299Y019974D01*
X010110Y018785D01*
X010110Y016135D01*
X011255Y017281D01*
X011317Y017429D01*
X011441Y017553D01*
X011602Y017620D01*
X012258Y017620D01*
X012419Y017553D01*
X012543Y017429D01*
X012610Y017268D01*
X012610Y017092D01*
X012576Y017010D01*
X012650Y017010D01*
X012650Y018785D01*
X012523Y018911D01*
X012419Y018807D01*
X012258Y018740D01*
X011602Y018740D01*
X011441Y018807D01*
X011317Y018931D01*
X011250Y019092D01*
X011250Y019268D01*
X011317Y019429D01*
X011441Y019553D01*
X011602Y019620D01*
X012258Y019620D01*
X012419Y019553D01*
X012543Y019429D01*
X012551Y019410D01*
X012675Y019410D01*
X012810Y019275D01*
X013110Y018975D01*
X013110Y018954D01*
X013256Y019100D01*
X013430Y019100D01*
X013430Y018680D01*
X013430Y018680D01*
X013850Y018680D01*
X013850Y018854D01*
X013604Y019100D01*
X013430Y019100D01*
X013430Y018680D01*
X013430Y018680D01*
X013850Y018680D01*
X013850Y018506D01*
X013604Y018260D01*
X013430Y018260D01*
X013430Y018680D01*
X013430Y018680D01*
X013430Y018260D01*
X013256Y018260D01*
X013110Y018406D01*
X013110Y016685D01*
X012975Y016550D01*
X012422Y016550D01*
X012543Y016429D01*
X012610Y016268D01*
X012610Y016092D01*
X012543Y015931D01*
X012419Y015807D01*
X012258Y015740D01*
X011602Y015740D01*
X011576Y015751D01*
X011010Y015185D01*
X011010Y013985D01*
X010875Y013850D01*
X010410Y013385D01*
X010410Y007985D01*
X010275Y007850D01*
X008190Y005765D01*
X008210Y005779D01*
X008269Y005809D01*
X008332Y005830D01*
X008397Y005840D01*
X008430Y005840D01*
X008430Y005180D01*
X008430Y005180D01*
X008850Y005180D01*
X008850Y005453D01*
X008840Y005518D01*
X008819Y005581D01*
X008789Y005640D01*
X008750Y005694D01*
X008704Y005740D01*
X008650Y005779D01*
X008591Y005809D01*
X008528Y005830D01*
X008463Y005840D01*
X008430Y005840D01*
X008430Y005180D01*
X008430Y005180D01*
X008850Y005180D01*
X008850Y004907D01*
X008840Y004842D01*
X008819Y004779D01*
X008789Y004720D01*
X008750Y004666D01*
X008704Y004620D01*
X008650Y004581D01*
X008591Y004551D01*
X008528Y004530D01*
X008463Y004520D01*
X008430Y004520D01*
X008430Y005180D01*
X008430Y005180D01*
X008430Y005180D01*
X008010Y005180D01*
X008010Y005453D01*
X008020Y005518D01*
X008041Y005581D01*
X008071Y005640D01*
X008085Y005660D01*
X008010Y005585D01*
X008010Y004781D01*
X008011Y004687D01*
X008010Y004686D01*
X008010Y004685D01*
X007944Y004618D01*
X005870Y002501D01*
X005870Y001852D01*
X005803Y001691D01*
X005679Y001567D01*
X005518Y001500D01*
X005342Y001500D01*
X005181Y001567D01*
X005057Y001691D01*
X004990Y001852D01*
X004990Y002508D01*
X005057Y002669D01*
X005181Y002793D01*
X005342Y002860D01*
X005518Y002860D01*
X005561Y002842D01*
X007230Y004547D01*
X007181Y004567D01*
X007087Y004661D01*
X007042Y004617D01*
X006975Y004550D01*
X006974Y004550D01*
X004870Y002489D01*
X004870Y001852D01*
X004803Y001691D01*
X004679Y001567D01*
X004518Y001500D01*
X004342Y001500D01*
X004181Y001567D01*
X004057Y001691D01*
X003990Y001852D01*
X003990Y002508D01*
X004057Y002669D01*
X004181Y002793D01*
X004342Y002860D01*
X004518Y002860D01*
X004569Y002839D01*
X006288Y004522D01*
X006181Y004567D01*
X006057Y004691D01*
X005990Y004852D01*
X005990Y005508D01*
X006057Y005669D01*
X006181Y005793D01*
X006342Y005860D01*
X006350Y005860D01*
X006350Y009936D01*
X006296Y009990D01*
X006245Y010113D01*
X006245Y010120D01*
X005010Y008885D01*
X005010Y008882D01*
X005248Y009120D01*
X005612Y009120D01*
X005870Y008862D01*
X005870Y008498D01*
X005612Y008240D01*
X005248Y008240D01*
X005010Y008478D01*
X005010Y007781D01*
X005011Y007687D01*
X005010Y007686D01*
X005010Y007685D01*
X004944Y007618D01*
X002870Y005501D01*
X002870Y004852D01*
X002803Y004691D01*
X002679Y004567D01*
X002518Y004500D01*
X002342Y004500D01*
X002181Y004567D01*
X002057Y004691D01*
X001990Y004852D01*
X001990Y005508D01*
X002057Y005669D01*
X002181Y005793D01*
X002342Y005860D01*
X002518Y005860D01*
X002561Y005842D01*
X002921Y006210D01*
X002317Y006210D01*
X002144Y006282D01*
X002012Y006414D01*
X001940Y006587D01*
X001940Y006773D01*
X002012Y006946D01*
X002144Y007078D01*
X002317Y007150D01*
X003043Y007150D01*
X003216Y007078D01*
X003348Y006946D01*
X003420Y006773D01*
X003420Y006720D01*
X004550Y007874D01*
X004550Y009075D01*
X004825Y009350D01*
X003185Y009350D01*
X003050Y009485D01*
X003050Y013085D01*
X002980Y013155D01*
X002980Y013081D01*
X002904Y012897D01*
X002763Y012756D01*
X002579Y012680D01*
X001781Y012680D01*
X001597Y012756D01*
X001490Y012863D01*
X001490Y012497D01*
X001597Y012604D01*
X001781Y012680D01*
X002579Y012680D01*
X002763Y012604D01*
X002904Y012463D01*
X002980Y012279D01*
X002980Y012081D01*
X002904Y011897D01*
X002763Y011756D01*
X002579Y011680D01*
X001781Y011680D01*
X001597Y011756D01*
X001490Y011863D01*
X001490Y011497D01*
X001597Y011604D01*
X001781Y011680D01*
X002579Y011680D01*
X002763Y011604D01*
X002904Y011463D01*
X002980Y011279D01*
X002980Y011081D01*
X002904Y010897D01*
X002763Y010756D01*
X002579Y010680D01*
X001781Y010680D01*
X001597Y010756D01*
X001490Y010863D01*
X001490Y010497D01*
X001597Y010604D01*
X001781Y010680D01*
X002579Y010680D01*
X002763Y010604D01*
X002904Y010463D01*
X002980Y010279D01*
X002980Y010081D01*
X002904Y009897D01*
X002763Y009756D01*
X002579Y009680D01*
X001781Y009680D01*
X001597Y009756D01*
X001490Y009863D01*
X001490Y009497D01*
X001597Y009604D01*
X001781Y009680D01*
X002579Y009680D01*
X002763Y009604D01*
X002904Y009463D01*
X002980Y009279D01*
X002980Y009081D01*
X002904Y008897D01*
X002763Y008756D01*
X002579Y008680D01*
X001781Y008680D01*
X001597Y008756D01*
X001490Y008863D01*
X001490Y008788D02*
X001565Y008788D01*
X001490Y008630D02*
X004550Y008630D01*
X004550Y008788D02*
X002795Y008788D01*
X002924Y008947D02*
X004550Y008947D01*
X004580Y009105D02*
X002980Y009105D01*
X002980Y009264D02*
X004738Y009264D01*
X005072Y008947D02*
X005074Y008947D01*
X005230Y009105D02*
X005233Y009105D01*
X005389Y009264D02*
X006350Y009264D01*
X006350Y009422D02*
X005547Y009422D01*
X005706Y009581D02*
X006350Y009581D01*
X006350Y009739D02*
X005864Y009739D01*
X006023Y009898D02*
X006350Y009898D01*
X006269Y010056D02*
X006181Y010056D01*
X005423Y010849D02*
X005221Y010849D01*
X005112Y010740D02*
X005370Y010998D01*
X005370Y011362D01*
X005112Y011620D01*
X004748Y011620D01*
X004490Y011362D01*
X004490Y010998D01*
X004748Y010740D01*
X005112Y010740D01*
X005370Y011007D02*
X005582Y011007D01*
X005740Y011166D02*
X005370Y011166D01*
X005370Y011324D02*
X005750Y011324D01*
X005750Y011483D02*
X005250Y011483D01*
X005750Y011641D02*
X003510Y011641D01*
X003510Y011483D02*
X003639Y011483D01*
X003756Y011600D02*
X003510Y011354D01*
X003510Y011180D01*
X003930Y011180D01*
X004350Y011180D01*
X004350Y011354D01*
X004104Y011600D01*
X003930Y011600D01*
X003930Y011180D01*
X003930Y011180D01*
X003930Y011180D01*
X004350Y011180D01*
X004350Y011006D01*
X004104Y010760D01*
X003930Y010760D01*
X003930Y011180D01*
X003930Y011180D01*
X003930Y011180D01*
X003930Y011600D01*
X003756Y011600D01*
X003930Y011483D02*
X003930Y011483D01*
X003930Y011324D02*
X003930Y011324D01*
X003930Y011180D02*
X003510Y011180D01*
X003510Y011006D01*
X003756Y010760D01*
X003930Y010760D01*
X003930Y011180D01*
X003930Y011166D02*
X003930Y011166D01*
X003930Y011007D02*
X003930Y011007D01*
X003930Y010849D02*
X003930Y010849D01*
X004068Y010690D02*
X003510Y010690D01*
X003510Y010532D02*
X003990Y010532D01*
X003990Y010373D02*
X003510Y010373D01*
X003510Y010215D02*
X004023Y010215D01*
X004182Y010056D02*
X003510Y010056D01*
X003510Y009898D02*
X004772Y009898D01*
X004678Y010056D02*
X004931Y010056D01*
X004837Y010215D02*
X005089Y010215D01*
X004639Y010849D02*
X004634Y010849D01*
X004490Y011007D02*
X004350Y011007D01*
X004350Y011166D02*
X004490Y011166D01*
X004490Y011324D02*
X004350Y011324D01*
X004221Y011483D02*
X004610Y011483D01*
X004756Y012135D02*
X004930Y012135D01*
X005104Y012135D01*
X005350Y012381D01*
X005350Y012555D01*
X005350Y012729D01*
X005104Y012975D01*
X004930Y012975D01*
X004930Y012555D01*
X005350Y012555D01*
X004930Y012555D01*
X004930Y012555D01*
X004930Y012555D01*
X004930Y012135D01*
X004930Y012555D01*
X004930Y012555D01*
X004930Y012555D01*
X004510Y012555D01*
X004510Y012729D01*
X004756Y012975D01*
X004930Y012975D01*
X004930Y012555D01*
X004510Y012555D01*
X004510Y012381D01*
X004756Y012135D01*
X004616Y012275D02*
X004272Y012275D01*
X004370Y012434D02*
X004510Y012434D01*
X004510Y012592D02*
X004370Y012592D01*
X004357Y012751D02*
X004532Y012751D01*
X004612Y012865D02*
X004870Y013123D01*
X004870Y013487D01*
X004615Y013743D01*
X004722Y013850D01*
X005775Y013850D01*
X005910Y013985D01*
X005910Y014578D01*
X005998Y014490D01*
X006362Y014490D01*
X006620Y014748D01*
X006620Y015112D01*
X006362Y015370D01*
X005998Y015370D01*
X005910Y015282D01*
X005910Y015835D01*
X006065Y015990D01*
X006362Y015990D01*
X006620Y016248D01*
X006620Y016612D01*
X006362Y016870D01*
X005998Y016870D01*
X005740Y016612D01*
X005740Y016315D01*
X005450Y016025D01*
X005450Y014310D01*
X004870Y014310D01*
X004870Y014362D01*
X004612Y014620D01*
X004248Y014620D01*
X003990Y014362D01*
X003990Y013998D01*
X004245Y013743D01*
X003990Y013487D01*
X003990Y013123D01*
X004248Y012865D01*
X004612Y012865D01*
X004656Y012909D02*
X004690Y012909D01*
X004815Y013068D02*
X005750Y013068D01*
X005750Y013226D02*
X004870Y013226D01*
X004870Y013385D02*
X005740Y013385D01*
X005740Y013543D02*
X004814Y013543D01*
X004656Y013702D02*
X005829Y013702D01*
X005785Y013860D02*
X005988Y013860D01*
X005910Y014019D02*
X007550Y014019D01*
X007550Y014177D02*
X005910Y014177D01*
X005910Y014336D02*
X007550Y014336D01*
X007550Y014494D02*
X007366Y014494D01*
X007362Y014490D02*
X007550Y014678D01*
X007550Y013710D01*
X007522Y013710D01*
X007362Y013870D01*
X006998Y013870D01*
X006740Y013612D01*
X006740Y013248D01*
X006998Y012990D01*
X007362Y012990D01*
X007620Y013248D01*
X007620Y013250D01*
X007875Y013250D01*
X008010Y013385D01*
X008010Y015185D01*
X008576Y015751D01*
X008602Y015740D01*
X009258Y015740D01*
X009419Y015807D01*
X009543Y015931D01*
X009610Y016092D01*
X009610Y016268D01*
X009543Y016429D01*
X009419Y016553D01*
X009258Y016620D01*
X008845Y016620D01*
X008910Y016685D01*
X008910Y016740D01*
X009258Y016740D01*
X009419Y016807D01*
X009543Y016931D01*
X009610Y017092D01*
X009610Y017268D01*
X009543Y017429D01*
X009419Y017553D01*
X009258Y017620D01*
X008602Y017620D01*
X008441Y017553D01*
X008317Y017429D01*
X008250Y017268D01*
X008250Y017092D01*
X008317Y016931D01*
X008411Y016837D01*
X007850Y016275D01*
X007850Y015975D01*
X007245Y015370D01*
X006998Y015370D01*
X006740Y015112D01*
X006740Y014748D01*
X006998Y014490D01*
X007362Y014490D01*
X007525Y014653D02*
X007550Y014653D01*
X008010Y014653D02*
X009650Y014653D01*
X009650Y014811D02*
X009423Y014811D01*
X009419Y014807D02*
X009543Y014931D01*
X009610Y015092D01*
X009610Y015268D01*
X009543Y015429D01*
X009419Y015553D01*
X009258Y015620D01*
X008602Y015620D01*
X008441Y015553D01*
X008317Y015429D01*
X008250Y015268D01*
X008250Y015092D01*
X008317Y014931D01*
X008441Y014807D01*
X008602Y014740D01*
X009258Y014740D01*
X009419Y014807D01*
X009559Y014970D02*
X009650Y014970D01*
X009650Y015128D02*
X009610Y015128D01*
X009602Y015287D02*
X009650Y015287D01*
X009650Y015445D02*
X009527Y015445D01*
X009650Y015604D02*
X009297Y015604D01*
X009311Y015762D02*
X009650Y015762D01*
X009650Y015921D02*
X009533Y015921D01*
X009604Y016079D02*
X009650Y016079D01*
X009650Y016238D02*
X009610Y016238D01*
X009650Y016396D02*
X009557Y016396D01*
X009650Y016555D02*
X009416Y016555D01*
X009650Y016713D02*
X008910Y016713D01*
X009484Y016872D02*
X009650Y016872D01*
X009650Y017030D02*
X009584Y017030D01*
X009610Y017189D02*
X009650Y017189D01*
X009650Y017347D02*
X009577Y017347D01*
X009650Y017506D02*
X009467Y017506D01*
X009650Y017664D02*
X007536Y017664D01*
X007620Y017748D02*
X007362Y017490D01*
X006998Y017490D01*
X006740Y017748D01*
X006740Y018112D01*
X006998Y018370D01*
X007362Y018370D01*
X007522Y018210D01*
X007550Y018210D01*
X007550Y018375D01*
X008255Y019080D01*
X008250Y019092D01*
X008250Y019268D01*
X008317Y019429D01*
X008441Y019553D01*
X008602Y019620D01*
X009258Y019620D01*
X009419Y019553D01*
X009543Y019429D01*
X009610Y019268D01*
X009610Y019092D01*
X009543Y018931D01*
X009419Y018807D01*
X009258Y018740D01*
X008602Y018740D01*
X008576Y018751D01*
X008010Y018185D01*
X008010Y017885D01*
X007875Y017750D01*
X007620Y017750D01*
X007620Y017748D01*
X007948Y017823D02*
X008425Y017823D01*
X008441Y017807D02*
X008602Y017740D01*
X009258Y017740D01*
X009419Y017807D01*
X009543Y017931D01*
X009610Y018092D01*
X009610Y018268D01*
X009543Y018429D01*
X009419Y018553D01*
X009258Y018620D01*
X008602Y018620D01*
X008441Y018553D01*
X008317Y018429D01*
X008250Y018268D01*
X008250Y018092D01*
X008317Y017931D01*
X008441Y017807D01*
X008296Y017981D02*
X008010Y017981D01*
X008010Y018140D02*
X008250Y018140D01*
X008263Y018298D02*
X008123Y018298D01*
X008282Y018457D02*
X008344Y018457D01*
X008440Y018615D02*
X008590Y018615D01*
X008107Y018932D02*
X005300Y018932D01*
X005370Y018862D02*
X005112Y019120D01*
X004748Y019120D01*
X004490Y018862D01*
X004490Y018498D01*
X004748Y018240D01*
X005112Y018240D01*
X005370Y018498D01*
X005370Y018862D01*
X005370Y018774D02*
X007948Y018774D01*
X007790Y018615D02*
X005370Y018615D01*
X005329Y018457D02*
X007631Y018457D01*
X007550Y018298D02*
X007434Y018298D01*
X006926Y018298D02*
X006434Y018298D01*
X006362Y018370D02*
X005998Y018370D01*
X005740Y018112D01*
X005740Y017748D01*
X005998Y017490D01*
X006362Y017490D01*
X006620Y017748D01*
X006620Y018112D01*
X006362Y018370D01*
X006593Y018140D02*
X006767Y018140D01*
X006740Y017981D02*
X006620Y017981D01*
X006620Y017823D02*
X006740Y017823D01*
X006824Y017664D02*
X006536Y017664D01*
X006378Y017506D02*
X006982Y017506D01*
X007378Y017506D02*
X008393Y017506D01*
X008283Y017347D02*
X004760Y017347D01*
X004870Y017237D02*
X004615Y017492D01*
X004870Y017748D01*
X004870Y018112D01*
X004612Y018370D01*
X004248Y018370D01*
X003990Y018112D01*
X003990Y017748D01*
X004245Y017492D01*
X003990Y017237D01*
X003990Y016873D01*
X004248Y016615D01*
X004612Y016615D01*
X004870Y016873D01*
X004870Y017237D01*
X004870Y017189D02*
X008250Y017189D01*
X008276Y017030D02*
X004870Y017030D01*
X004869Y016872D02*
X008376Y016872D01*
X008288Y016713D02*
X007519Y016713D01*
X007620Y016612D02*
X007362Y016870D01*
X006998Y016870D01*
X006740Y016612D01*
X006740Y016248D01*
X006998Y015990D01*
X007362Y015990D01*
X007620Y016248D01*
X007620Y016612D01*
X007620Y016555D02*
X008129Y016555D01*
X007971Y016396D02*
X007620Y016396D01*
X007610Y016238D02*
X007850Y016238D01*
X007850Y016079D02*
X007451Y016079D01*
X007637Y015762D02*
X005910Y015762D01*
X005910Y015604D02*
X007478Y015604D01*
X007320Y015445D02*
X005910Y015445D01*
X005910Y015287D02*
X005914Y015287D01*
X006446Y015287D02*
X006914Y015287D01*
X006756Y015128D02*
X006604Y015128D01*
X006620Y014970D02*
X006740Y014970D01*
X006740Y014811D02*
X006620Y014811D01*
X006525Y014653D02*
X006835Y014653D01*
X006994Y014494D02*
X006366Y014494D01*
X005994Y014494D02*
X005910Y014494D01*
X005450Y014494D02*
X005116Y014494D01*
X005275Y014653D02*
X005450Y014653D01*
X005450Y014811D02*
X005370Y014811D01*
X005370Y014970D02*
X005450Y014970D01*
X005450Y015128D02*
X005354Y015128D01*
X005450Y015287D02*
X005196Y015287D01*
X005450Y015445D02*
X004640Y015445D01*
X004482Y015604D02*
X005450Y015604D01*
X005450Y015762D02*
X004323Y015762D01*
X004168Y015921D02*
X004721Y015921D01*
X004756Y015885D02*
X004930Y015885D01*
X005104Y015885D01*
X005350Y016131D01*
X005350Y016305D01*
X005350Y016479D01*
X005104Y016725D01*
X004930Y016725D01*
X004930Y016305D01*
X005350Y016305D01*
X004930Y016305D01*
X004930Y016305D01*
X004930Y016305D01*
X004930Y015885D01*
X004930Y016305D01*
X004930Y016305D01*
X004930Y016305D01*
X004510Y016305D01*
X004510Y016479D01*
X004756Y016725D01*
X004930Y016725D01*
X004930Y016305D01*
X004510Y016305D01*
X004510Y016131D01*
X004756Y015885D01*
X004930Y015921D02*
X004930Y015921D01*
X004930Y016079D02*
X004930Y016079D01*
X004930Y016238D02*
X004930Y016238D01*
X004930Y016396D02*
X004930Y016396D01*
X004930Y016555D02*
X004930Y016555D01*
X004930Y016713D02*
X004930Y016713D01*
X005116Y016713D02*
X005841Y016713D01*
X005740Y016555D02*
X005274Y016555D01*
X005350Y016396D02*
X005740Y016396D01*
X005662Y016238D02*
X005350Y016238D01*
X005298Y016079D02*
X005504Y016079D01*
X005450Y015921D02*
X005139Y015921D01*
X004562Y016079D02*
X004326Y016079D01*
X004370Y016238D02*
X004510Y016238D01*
X004510Y016396D02*
X004370Y016396D01*
X004303Y016555D02*
X004586Y016555D01*
X004710Y016713D02*
X004744Y016713D01*
X004150Y016713D02*
X004144Y016713D01*
X003991Y016872D02*
X003514Y016872D01*
X003510Y017030D02*
X003990Y017030D01*
X003990Y017189D02*
X003510Y017189D01*
X003510Y017347D02*
X004100Y017347D01*
X004232Y017506D02*
X003510Y017506D01*
X003510Y017664D02*
X004074Y017664D01*
X003990Y017823D02*
X003463Y017823D01*
X003304Y017981D02*
X003990Y017981D01*
X004017Y018140D02*
X003146Y018140D01*
X002987Y018298D02*
X003718Y018298D01*
X003756Y018260D02*
X003510Y018506D01*
X003510Y018680D01*
X003930Y018680D01*
X004350Y018680D01*
X004350Y018854D01*
X004104Y019100D01*
X003930Y019100D01*
X003930Y018680D01*
X003930Y018680D01*
X003930Y018680D01*
X004350Y018680D01*
X004350Y018506D01*
X004104Y018260D01*
X003930Y018260D01*
X003930Y018680D01*
X003930Y018680D01*
X003930Y018680D01*
X003930Y019100D01*
X003756Y019100D01*
X003510Y018854D01*
X003510Y018680D01*
X003930Y018680D01*
X003930Y018260D01*
X003756Y018260D01*
X003930Y018298D02*
X003930Y018298D01*
X003930Y018457D02*
X003930Y018457D01*
X003930Y018615D02*
X003930Y018615D01*
X003930Y018774D02*
X003930Y018774D01*
X003930Y018932D02*
X003930Y018932D01*
X003930Y019091D02*
X003930Y019091D01*
X004113Y019091D02*
X004718Y019091D01*
X004560Y018932D02*
X004272Y018932D01*
X004350Y018774D02*
X004490Y018774D01*
X004490Y018615D02*
X004350Y018615D01*
X004300Y018457D02*
X004531Y018457D01*
X004684Y018298D02*
X004690Y018298D01*
X004843Y018140D02*
X005767Y018140D01*
X005740Y017981D02*
X004870Y017981D01*
X004870Y017823D02*
X005740Y017823D01*
X005824Y017664D02*
X004786Y017664D01*
X004628Y017506D02*
X005982Y017506D01*
X005926Y018298D02*
X005170Y018298D01*
X005142Y019091D02*
X005897Y019091D01*
X005998Y018990D02*
X006362Y018990D01*
X006620Y019248D01*
X006620Y019612D01*
X006362Y019870D01*
X005998Y019870D01*
X005740Y019612D01*
X005740Y019248D01*
X005998Y018990D01*
X005740Y019249D02*
X002980Y019249D01*
X002980Y019091D02*
X003747Y019091D01*
X003588Y018932D02*
X002918Y018932D01*
X002781Y018774D02*
X003510Y018774D01*
X003510Y018615D02*
X002736Y018615D01*
X002907Y018457D02*
X003560Y018457D01*
X004142Y018298D02*
X004176Y018298D01*
X002927Y019408D02*
X005740Y019408D01*
X005740Y019566D02*
X002801Y019566D01*
X002950Y019725D02*
X003638Y019725D01*
X003748Y019615D02*
X004112Y019615D01*
X004370Y019873D01*
X004370Y020237D01*
X004112Y020495D01*
X003748Y020495D01*
X003490Y020237D01*
X003490Y019873D01*
X003748Y019615D01*
X003490Y019883D02*
X003108Y019883D01*
X003267Y020042D02*
X003490Y020042D01*
X003490Y020200D02*
X003425Y020200D01*
X003510Y020359D02*
X003611Y020359D01*
X003510Y020517D02*
X004096Y020517D01*
X003990Y020623D02*
X004248Y020365D01*
X004612Y020365D01*
X004870Y020623D01*
X004870Y020650D01*
X005150Y020700D01*
X005788Y020700D01*
X005998Y020490D01*
X006362Y020490D01*
X006620Y020748D01*
X006620Y021112D01*
X006362Y021370D01*
X005998Y021370D01*
X005788Y021160D01*
X005202Y021160D01*
X005183Y021173D01*
X005110Y021160D01*
X005035Y021160D01*
X005018Y021144D01*
X004760Y021098D01*
X004612Y021245D01*
X004248Y021245D01*
X003990Y020987D01*
X003990Y020623D01*
X003990Y020676D02*
X003510Y020676D01*
X003510Y020834D02*
X003990Y020834D01*
X003995Y020993D02*
X003510Y020993D01*
X003510Y021151D02*
X004154Y021151D01*
X004249Y021627D02*
X004639Y021627D01*
X004756Y021510D02*
X004930Y021510D01*
X005104Y021510D01*
X005350Y021756D01*
X005350Y021930D01*
X005350Y022104D01*
X005104Y022350D01*
X004930Y022350D01*
X004930Y021930D01*
X005350Y021930D01*
X004930Y021930D01*
X004930Y021930D01*
X004930Y021930D01*
X004930Y021510D01*
X004930Y021930D01*
X004930Y021930D01*
X004930Y021930D01*
X004510Y021930D01*
X004510Y022104D01*
X004756Y022350D01*
X004930Y022350D01*
X004930Y021930D01*
X004510Y021930D01*
X004510Y021756D01*
X004756Y021510D01*
X004930Y021627D02*
X004930Y021627D01*
X004930Y021785D02*
X004930Y021785D01*
X004930Y021944D02*
X004930Y021944D01*
X004930Y022102D02*
X004930Y022102D01*
X004930Y022261D02*
X004930Y022261D01*
X004791Y022419D02*
X005316Y022419D01*
X005200Y022450D02*
X005740Y022306D01*
X005740Y022248D01*
X005998Y021990D01*
X006362Y021990D01*
X006620Y022248D01*
X006620Y022612D01*
X006362Y022870D01*
X005998Y022870D01*
X005874Y022746D01*
X005349Y022886D01*
X005325Y022910D01*
X005260Y022910D01*
X005197Y022927D01*
X005168Y022910D01*
X004822Y022910D01*
X004612Y023120D01*
X004248Y023120D01*
X003990Y022862D01*
X003990Y022498D01*
X004248Y022240D01*
X004612Y022240D01*
X004822Y022450D01*
X005200Y022450D01*
X005193Y022261D02*
X005740Y022261D01*
X005886Y022102D02*
X005350Y022102D01*
X005350Y021944D02*
X009666Y021944D01*
X009689Y021920D02*
X009880Y021920D01*
X010071Y021920D01*
X010340Y022189D01*
X010340Y022380D01*
X010340Y022571D01*
X010071Y022840D01*
X009880Y022840D01*
X009880Y022380D01*
X010340Y022380D01*
X009880Y022380D01*
X009880Y022380D01*
X009880Y022380D01*
X009880Y021920D01*
X009880Y022380D01*
X009880Y022380D01*
X009880Y022380D01*
X009420Y022380D01*
X009420Y022571D01*
X009689Y022840D01*
X009880Y022840D01*
X009880Y022380D01*
X009420Y022380D01*
X009420Y022189D01*
X009689Y021920D01*
X009880Y021944D02*
X009880Y021944D01*
X009880Y022102D02*
X009880Y022102D01*
X009880Y022261D02*
X009880Y022261D01*
X009880Y022419D02*
X009880Y022419D01*
X009880Y022578D02*
X009880Y022578D01*
X009880Y022736D02*
X009880Y022736D01*
X010175Y022736D02*
X010557Y022736D01*
X010681Y022860D02*
X010400Y022579D01*
X010400Y022181D01*
X010681Y021900D01*
X011079Y021900D01*
X011360Y022181D01*
X011360Y022579D01*
X011079Y022860D01*
X010681Y022860D01*
X010400Y022578D02*
X010333Y022578D01*
X010340Y022419D02*
X010400Y022419D01*
X010400Y022261D02*
X010340Y022261D01*
X010253Y022102D02*
X010479Y022102D01*
X010638Y021944D02*
X010094Y021944D01*
X009507Y022102D02*
X007474Y022102D01*
X007362Y021990D02*
X007620Y022248D01*
X007620Y022612D01*
X007362Y022870D01*
X006998Y022870D01*
X006740Y022612D01*
X006740Y022248D01*
X006998Y021990D01*
X007362Y021990D01*
X007620Y022261D02*
X009420Y022261D01*
X009420Y022419D02*
X007620Y022419D01*
X007620Y022578D02*
X009427Y022578D01*
X009585Y022736D02*
X007496Y022736D01*
X006864Y022736D02*
X006496Y022736D01*
X006620Y022578D02*
X006740Y022578D01*
X006740Y022419D02*
X006620Y022419D01*
X006620Y022261D02*
X006740Y022261D01*
X006886Y022102D02*
X006474Y022102D01*
X006423Y021310D02*
X006937Y021310D01*
X006998Y021370D02*
X006740Y021112D01*
X006740Y020748D01*
X006998Y020490D01*
X007362Y020490D01*
X007620Y020748D01*
X007620Y020750D01*
X008578Y020750D01*
X008602Y020740D01*
X009258Y020740D01*
X009419Y020807D01*
X009543Y020931D01*
X009610Y021092D01*
X009610Y021268D01*
X009543Y021429D01*
X009419Y021553D01*
X009258Y021620D01*
X008602Y021620D01*
X008441Y021553D01*
X008317Y021429D01*
X008250Y021268D01*
X008250Y021210D01*
X007522Y021210D01*
X007362Y021370D01*
X006998Y021370D01*
X006779Y021151D02*
X006581Y021151D01*
X006620Y020993D02*
X006740Y020993D01*
X006740Y020834D02*
X006620Y020834D01*
X006548Y020676D02*
X006812Y020676D01*
X006971Y020517D02*
X006389Y020517D01*
X005971Y020517D02*
X004764Y020517D01*
X004756Y020475D02*
X004510Y020229D01*
X004510Y020055D01*
X004930Y020055D01*
X005350Y020055D01*
X005350Y020229D01*
X005104Y020475D01*
X004930Y020475D01*
X004930Y020055D01*
X004930Y020055D01*
X004930Y020055D01*
X005350Y020055D01*
X005350Y019881D01*
X005104Y019635D01*
X004930Y019635D01*
X004930Y020055D01*
X004930Y020055D01*
X004930Y020055D01*
X004930Y020475D01*
X004756Y020475D01*
X004640Y020359D02*
X004249Y020359D01*
X004370Y020200D02*
X004510Y020200D01*
X004510Y020055D02*
X004510Y019881D01*
X004756Y019635D01*
X004930Y019635D01*
X004930Y020055D01*
X004510Y020055D01*
X004510Y020042D02*
X004370Y020042D01*
X004370Y019883D02*
X004510Y019883D01*
X004667Y019725D02*
X004222Y019725D01*
X004930Y019725D02*
X004930Y019725D01*
X004930Y019883D02*
X004930Y019883D01*
X004930Y020042D02*
X004930Y020042D01*
X004930Y020200D02*
X004930Y020200D01*
X004930Y020359D02*
X004930Y020359D01*
X005220Y020359D02*
X008288Y020359D01*
X008317Y020429D02*
X008250Y020268D01*
X008250Y020092D01*
X008317Y019931D01*
X008441Y019807D01*
X008602Y019740D01*
X009258Y019740D01*
X009419Y019807D01*
X009543Y019931D01*
X009610Y020092D01*
X009610Y020268D01*
X009543Y020429D01*
X009419Y020553D01*
X009258Y020620D01*
X008602Y020620D01*
X008441Y020553D01*
X008317Y020429D01*
X008405Y020517D02*
X007389Y020517D01*
X007548Y020676D02*
X010000Y020676D01*
X009960Y020659D02*
X009851Y020550D01*
X009792Y020407D01*
X009792Y020253D01*
X009851Y020110D01*
X009960Y020001D01*
X010103Y019942D01*
X010257Y019942D01*
X010400Y020001D01*
X010509Y020110D01*
X010568Y020253D01*
X010568Y020407D01*
X010509Y020550D01*
X010400Y020659D01*
X010257Y020718D01*
X010103Y020718D01*
X009960Y020659D01*
X009837Y020517D02*
X009455Y020517D01*
X009572Y020359D02*
X009792Y020359D01*
X009814Y020200D02*
X009610Y020200D01*
X009589Y020042D02*
X009920Y020042D01*
X009495Y019883D02*
X010558Y019883D01*
X010440Y020042D02*
X010716Y020042D01*
X010875Y020200D02*
X010546Y020200D01*
X010568Y020359D02*
X011033Y020359D01*
X011192Y020517D02*
X010523Y020517D01*
X010360Y020676D02*
X011350Y020676D01*
X011414Y020834D02*
X009446Y020834D01*
X009569Y020993D02*
X011291Y020993D01*
X011250Y021151D02*
X009610Y021151D01*
X009593Y021310D02*
X011267Y021310D01*
X011356Y021468D02*
X009504Y021468D01*
X008356Y021468D02*
X003510Y021468D01*
X003510Y021310D02*
X005937Y021310D01*
X005812Y020676D02*
X005013Y020676D01*
X005026Y021151D02*
X004706Y021151D01*
X004510Y021785D02*
X004370Y021785D01*
X004370Y021944D02*
X004510Y021944D01*
X004510Y022102D02*
X004370Y022102D01*
X004227Y022261D02*
X004222Y022261D01*
X004069Y022419D02*
X003544Y022419D01*
X003510Y022261D02*
X003638Y022261D01*
X003703Y022578D02*
X003990Y022578D01*
X003990Y022736D02*
X003861Y022736D01*
X004020Y022895D02*
X004022Y022895D01*
X004110Y023053D02*
X004181Y023053D01*
X004679Y023053D02*
X011982Y023053D01*
X012140Y022895D02*
X005341Y022895D01*
X004667Y022261D02*
X004633Y022261D01*
X005350Y021785D02*
X012990Y021785D01*
X012990Y021944D02*
X011122Y021944D01*
X011281Y022102D02*
X012933Y022102D01*
X012774Y022261D02*
X011360Y022261D01*
X011360Y022419D02*
X012616Y022419D01*
X012457Y022578D02*
X011360Y022578D01*
X011203Y022736D02*
X012299Y022736D01*
X012791Y022895D02*
X013522Y022895D01*
X013490Y022862D02*
X013490Y022498D01*
X013748Y022240D01*
X014112Y022240D01*
X014370Y022498D01*
X014370Y022550D01*
X014832Y022550D01*
X015240Y022371D01*
X015240Y022248D01*
X015498Y021990D01*
X015862Y021990D01*
X016120Y022248D01*
X016120Y022612D01*
X015862Y022870D01*
X015498Y022870D01*
X015422Y022794D01*
X015012Y022973D01*
X014975Y023010D01*
X014928Y023010D01*
X014885Y023029D01*
X014837Y023010D01*
X014222Y023010D01*
X014112Y023120D01*
X013748Y023120D01*
X013490Y022862D01*
X013490Y022736D02*
X012949Y022736D01*
X013108Y022578D02*
X013490Y022578D01*
X013569Y022419D02*
X013266Y022419D01*
X013722Y022261D02*
X013727Y022261D01*
X013870Y022102D02*
X014010Y022102D01*
X014010Y022104D02*
X014010Y021930D01*
X014430Y021930D01*
X014850Y021930D01*
X014850Y022104D01*
X014604Y022350D01*
X014430Y022350D01*
X014430Y021930D01*
X014430Y021930D01*
X014430Y021930D01*
X014850Y021930D01*
X014850Y021756D01*
X014604Y021510D01*
X014430Y021510D01*
X014430Y021930D01*
X014430Y021930D01*
X014430Y021930D01*
X014430Y022350D01*
X014256Y022350D01*
X014010Y022104D01*
X014010Y021944D02*
X013870Y021944D01*
X014010Y021930D02*
X014010Y021756D01*
X014256Y021510D01*
X014430Y021510D01*
X014430Y021930D01*
X014010Y021930D01*
X014010Y021785D02*
X013870Y021785D01*
X013749Y021627D02*
X014139Y021627D01*
X014430Y021627D02*
X014430Y021627D01*
X014430Y021785D02*
X014430Y021785D01*
X014430Y021944D02*
X014430Y021944D01*
X014430Y022102D02*
X014430Y022102D01*
X014430Y022261D02*
X014430Y022261D01*
X014291Y022419D02*
X015131Y022419D01*
X015240Y022261D02*
X014693Y022261D01*
X014850Y022102D02*
X015386Y022102D01*
X015974Y022102D02*
X016386Y022102D01*
X016498Y021990D02*
X016862Y021990D01*
X017120Y022248D01*
X017120Y022612D01*
X016862Y022870D01*
X016498Y022870D01*
X016240Y022612D01*
X016240Y022248D01*
X016498Y021990D01*
X016240Y022261D02*
X016120Y022261D01*
X016120Y022419D02*
X016240Y022419D01*
X016240Y022578D02*
X016120Y022578D01*
X015996Y022736D02*
X016364Y022736D01*
X016996Y022736D02*
X019128Y022736D01*
X019252Y022860D02*
X018983Y022591D01*
X018982Y022400D01*
X019442Y022400D01*
X018983Y022400D01*
X018983Y022209D01*
X019252Y021940D01*
X019442Y021940D01*
X019442Y022400D01*
X019442Y022400D01*
X019443Y022400D01*
X019902Y022400D01*
X019902Y022591D01*
X019633Y022860D01*
X019443Y022860D01*
X019443Y022400D01*
X019443Y022400D01*
X019902Y022400D01*
X019902Y022209D01*
X019633Y021940D01*
X019443Y021940D01*
X019443Y022400D01*
X019442Y022400D01*
X019442Y022860D01*
X019252Y022860D01*
X019442Y022736D02*
X019443Y022736D01*
X019442Y022578D02*
X019443Y022578D01*
X019442Y022419D02*
X019443Y022419D01*
X019442Y022261D02*
X019443Y022261D01*
X019442Y022102D02*
X019443Y022102D01*
X019442Y021944D02*
X019443Y021944D01*
X019637Y021944D02*
X020220Y021944D01*
X020244Y021920D02*
X020641Y021920D01*
X020922Y022201D01*
X020922Y022599D01*
X020641Y022880D01*
X020244Y022880D01*
X019963Y022599D01*
X019963Y022201D01*
X020244Y021920D01*
X020062Y022102D02*
X019795Y022102D01*
X019902Y022261D02*
X019963Y022261D01*
X019963Y022419D02*
X019902Y022419D01*
X019902Y022578D02*
X019963Y022578D01*
X020100Y022736D02*
X019757Y022736D01*
X018983Y022578D02*
X017120Y022578D01*
X017120Y022419D02*
X018983Y022419D01*
X018983Y022261D02*
X017120Y022261D01*
X016974Y022102D02*
X019090Y022102D01*
X019248Y021944D02*
X014850Y021944D01*
X014850Y021785D02*
X023120Y021785D01*
X023120Y021627D02*
X014721Y021627D01*
X014165Y021210D02*
X015338Y021210D01*
X015498Y021370D01*
X015862Y021370D01*
X016120Y021112D01*
X016120Y020748D01*
X015862Y020490D01*
X015498Y020490D01*
X015240Y020748D01*
X015240Y020750D01*
X014370Y020750D01*
X014370Y020623D01*
X014112Y020365D01*
X013748Y020365D01*
X013490Y020623D01*
X013490Y020987D01*
X013748Y021245D01*
X014112Y021245D01*
X014142Y021215D01*
X014157Y021217D01*
X014165Y021210D01*
X013654Y021151D02*
X012610Y021151D01*
X012593Y021310D02*
X015437Y021310D01*
X015923Y021310D02*
X016437Y021310D01*
X016498Y021370D02*
X016240Y021112D01*
X016240Y020748D01*
X016498Y020490D01*
X016862Y020490D01*
X017102Y020730D01*
X017388Y020750D01*
X017475Y020750D01*
X017482Y020757D01*
X017491Y020757D01*
X017548Y020823D01*
X017675Y020950D01*
X017809Y020950D01*
X017817Y020931D01*
X017941Y020807D01*
X018102Y020740D01*
X018758Y020740D01*
X018919Y020807D01*
X019043Y020931D01*
X019110Y021092D01*
X019110Y021268D01*
X019043Y021429D01*
X018919Y021553D01*
X018758Y021620D01*
X018102Y021620D01*
X017941Y021553D01*
X017817Y021429D01*
X017809Y021410D01*
X017485Y021410D01*
X017350Y021275D01*
X017278Y021203D01*
X017046Y021187D01*
X016862Y021370D01*
X016498Y021370D01*
X016279Y021151D02*
X016081Y021151D01*
X016120Y020993D02*
X016240Y020993D01*
X016240Y020834D02*
X016120Y020834D01*
X016048Y020676D02*
X016312Y020676D01*
X016471Y020517D02*
X015889Y020517D01*
X015471Y020517D02*
X014264Y020517D01*
X014256Y020475D02*
X014010Y020229D01*
X014010Y020055D01*
X014430Y020055D01*
X014850Y020055D01*
X014850Y020229D01*
X014604Y020475D01*
X014430Y020475D01*
X014430Y020055D01*
X014430Y020055D01*
X014430Y020055D01*
X014850Y020055D01*
X014850Y019881D01*
X014604Y019635D01*
X014430Y019635D01*
X014430Y020055D01*
X014430Y020055D01*
X014430Y020055D01*
X014430Y020475D01*
X014256Y020475D01*
X014140Y020359D02*
X013749Y020359D01*
X013870Y020200D02*
X014010Y020200D01*
X014010Y020055D02*
X014010Y019881D01*
X014256Y019635D01*
X014430Y019635D01*
X014430Y020055D01*
X014010Y020055D01*
X014010Y020042D02*
X013870Y020042D01*
X013870Y019883D02*
X014010Y019883D01*
X014167Y019725D02*
X013722Y019725D01*
X013138Y019725D02*
X011050Y019725D01*
X011208Y019883D02*
X011365Y019883D01*
X011472Y019566D02*
X010891Y019566D01*
X010733Y019408D02*
X011308Y019408D01*
X011250Y019249D02*
X010574Y019249D01*
X010416Y019091D02*
X011251Y019091D01*
X011316Y018932D02*
X010257Y018932D01*
X010110Y018774D02*
X011522Y018774D01*
X011592Y018590D02*
X011529Y018569D01*
X011470Y018539D01*
X011416Y018500D01*
X011370Y018454D01*
X011331Y018400D01*
X011301Y018341D01*
X011280Y018278D01*
X011270Y018213D01*
X011270Y018180D01*
X011930Y018180D01*
X011930Y018180D01*
X011930Y018600D01*
X012203Y018600D01*
X012268Y018590D01*
X012331Y018569D01*
X012390Y018539D01*
X012444Y018500D01*
X012490Y018454D01*
X012529Y018400D01*
X012559Y018341D01*
X012580Y018278D01*
X012590Y018213D01*
X012590Y018180D01*
X011930Y018180D01*
X011930Y018180D01*
X011930Y017760D01*
X012203Y017760D01*
X012268Y017770D01*
X012331Y017791D01*
X012390Y017821D01*
X012444Y017860D01*
X012490Y017906D01*
X012529Y017960D01*
X012559Y018019D01*
X012580Y018082D01*
X012590Y018147D01*
X012590Y018180D01*
X011930Y018180D01*
X011930Y018180D01*
X011930Y018180D01*
X011930Y018600D01*
X011657Y018600D01*
X011592Y018590D01*
X011373Y018457D02*
X010110Y018457D01*
X010110Y018615D02*
X012650Y018615D01*
X012650Y018457D02*
X012487Y018457D01*
X012573Y018298D02*
X012650Y018298D01*
X012650Y018140D02*
X012589Y018140D01*
X012540Y017981D02*
X012650Y017981D01*
X012650Y017823D02*
X012393Y017823D01*
X012650Y017664D02*
X010110Y017664D01*
X010110Y017506D02*
X011393Y017506D01*
X011283Y017347D02*
X010110Y017347D01*
X010110Y017189D02*
X011163Y017189D01*
X011005Y017030D02*
X010110Y017030D01*
X010110Y016872D02*
X010846Y016872D01*
X010688Y016713D02*
X010110Y016713D01*
X010110Y016555D02*
X010529Y016555D01*
X010371Y016396D02*
X010110Y016396D01*
X010110Y016238D02*
X010212Y016238D01*
X011112Y015287D02*
X011258Y015287D01*
X011250Y015268D02*
X011317Y015429D01*
X011441Y015553D01*
X011602Y015620D01*
X012258Y015620D01*
X012419Y015553D01*
X012543Y015429D01*
X012610Y015268D01*
X012610Y015092D01*
X012543Y014931D01*
X012419Y014807D01*
X012258Y014740D01*
X011602Y014740D01*
X011441Y014807D01*
X011317Y014931D01*
X011250Y015092D01*
X011250Y015268D01*
X011250Y015128D02*
X011010Y015128D01*
X011010Y014970D02*
X011301Y014970D01*
X011437Y014811D02*
X011010Y014811D01*
X011010Y014653D02*
X013114Y014653D01*
X013010Y014756D02*
X013256Y014510D01*
X013430Y014510D01*
X013604Y014510D01*
X013850Y014756D01*
X013850Y014930D01*
X013850Y015104D01*
X013604Y015350D01*
X013430Y015350D01*
X013430Y014930D01*
X013850Y014930D01*
X013430Y014930D01*
X013430Y014930D01*
X013430Y014930D01*
X013430Y014510D01*
X013430Y014930D01*
X013430Y014930D01*
X013430Y014930D01*
X013010Y014930D01*
X013010Y015104D01*
X013256Y015350D01*
X013430Y015350D01*
X013430Y014930D01*
X013010Y014930D01*
X013010Y014756D01*
X013010Y014811D02*
X012423Y014811D01*
X012559Y014970D02*
X013010Y014970D01*
X013034Y015128D02*
X012610Y015128D01*
X012602Y015287D02*
X013193Y015287D01*
X013430Y015287D02*
X013430Y015287D01*
X013430Y015128D02*
X013430Y015128D01*
X013430Y014970D02*
X013430Y014970D01*
X013430Y014811D02*
X013430Y014811D01*
X013430Y014653D02*
X013430Y014653D01*
X013412Y014415D02*
X013323Y014410D01*
X012551Y014410D01*
X012543Y014429D01*
X012419Y014553D01*
X012258Y014620D01*
X011602Y014620D01*
X011441Y014553D01*
X011317Y014429D01*
X011250Y014268D01*
X011250Y014092D01*
X011317Y013931D01*
X011441Y013807D01*
X011602Y013740D01*
X012258Y013740D01*
X012419Y013807D01*
X012543Y013931D01*
X012551Y013950D01*
X013243Y013950D01*
X013619Y013616D01*
X013490Y013487D01*
X013490Y013123D01*
X013748Y012865D01*
X014112Y012865D01*
X014370Y013123D01*
X014370Y013487D01*
X014307Y013550D01*
X015240Y013550D01*
X015240Y013248D01*
X015450Y013038D01*
X015450Y012730D01*
X014890Y012210D01*
X014885Y012210D01*
X014820Y012146D01*
X014754Y012084D01*
X014754Y012079D01*
X014750Y012075D01*
X014750Y011984D01*
X014747Y011893D01*
X014750Y011890D01*
X014750Y011482D01*
X014612Y011620D01*
X014248Y011620D01*
X013990Y011362D01*
X013990Y010998D01*
X014248Y010740D01*
X014612Y010740D01*
X014750Y010878D01*
X014750Y010875D01*
X014585Y010710D01*
X014272Y010710D01*
X014112Y010870D01*
X013748Y010870D01*
X013490Y010612D01*
X013490Y010248D01*
X013748Y009990D01*
X014112Y009990D01*
X014370Y010248D01*
X014370Y010250D01*
X014450Y010250D01*
X014450Y009870D01*
X014352Y009870D01*
X014191Y009803D01*
X014067Y009679D01*
X014000Y009518D01*
X014000Y009342D01*
X014067Y009181D01*
X014191Y009057D01*
X014352Y008990D01*
X015008Y008990D01*
X015152Y009050D01*
X015185Y009050D01*
X015950Y008285D01*
X015950Y004273D01*
X014559Y002843D01*
X014518Y002860D01*
X014342Y002860D01*
X014181Y002793D01*
X014057Y002669D01*
X013990Y002508D01*
X013990Y001852D01*
X014057Y001691D01*
X014181Y001567D01*
X014342Y001500D01*
X014518Y001500D01*
X014679Y001567D01*
X014803Y001691D01*
X014870Y001852D01*
X014870Y002503D01*
X016344Y004019D01*
X016410Y004085D01*
X016410Y004087D01*
X016411Y004088D01*
X016410Y004182D01*
X016410Y004371D01*
X016681Y004100D01*
X017079Y004100D01*
X017360Y004381D01*
X017360Y004779D01*
X017079Y005060D01*
X016681Y005060D01*
X016410Y004789D01*
X016410Y008475D01*
X015510Y009375D01*
X015375Y009510D01*
X015360Y009510D01*
X015360Y009518D01*
X015293Y009679D01*
X015169Y009803D01*
X015008Y009870D01*
X014910Y009870D01*
X014910Y010085D01*
X015510Y010685D01*
X015510Y011150D01*
X015588Y011150D01*
X015748Y010990D01*
X016112Y010990D01*
X016370Y011248D01*
X016370Y011612D01*
X016112Y011870D01*
X015748Y011870D01*
X015490Y011612D01*
X015490Y011610D01*
X015210Y011610D01*
X015210Y011880D01*
X015770Y012400D01*
X015775Y012400D01*
X015840Y012464D01*
X015906Y012526D01*
X015906Y012531D01*
X015910Y012535D01*
X015910Y012626D01*
X015913Y012717D01*
X015910Y012720D01*
X015910Y013038D01*
X015953Y013081D01*
X016550Y012485D01*
X016685Y012350D01*
X018975Y012350D01*
X019110Y012485D01*
X019110Y013085D01*
X020475Y014450D01*
X020610Y014585D01*
X020610Y018485D01*
X020937Y018811D01*
X020941Y018807D01*
X021102Y018740D01*
X021758Y018740D01*
X021919Y018807D01*
X022043Y018931D01*
X022110Y019092D01*
X022110Y019268D01*
X022043Y019429D01*
X021919Y019553D01*
X021758Y019620D01*
X021102Y019620D01*
X020941Y019553D01*
X020817Y019429D01*
X020755Y019281D01*
X020750Y019275D01*
X020150Y018675D01*
X020150Y014775D01*
X018650Y013275D01*
X018650Y012810D01*
X016875Y012810D01*
X016695Y012990D01*
X016862Y012990D01*
X017120Y013248D01*
X017120Y013250D01*
X017475Y013250D01*
X017610Y013385D01*
X017610Y015485D01*
X017937Y015811D01*
X017941Y015807D01*
X018102Y015740D01*
X018758Y015740D01*
X018919Y015807D01*
X019043Y015931D01*
X019110Y016092D01*
X019110Y016268D01*
X019043Y016429D01*
X018919Y016553D01*
X018758Y016620D01*
X018102Y016620D01*
X018060Y016602D01*
X018060Y016603D01*
X018071Y016618D01*
X018060Y016696D01*
X018060Y016758D01*
X018102Y016740D01*
X018758Y016740D01*
X018919Y016807D01*
X019043Y016931D01*
X019110Y017092D01*
X019110Y017268D01*
X019043Y017429D01*
X018919Y017553D01*
X018758Y017620D01*
X018102Y017620D01*
X018041Y017595D01*
X018232Y017740D01*
X018758Y017740D01*
X018919Y017807D01*
X019043Y017931D01*
X019110Y018092D01*
X019110Y018268D01*
X019043Y018429D01*
X018919Y018553D01*
X018758Y018620D01*
X018102Y018620D01*
X017941Y018553D01*
X017817Y018429D01*
X017750Y018268D01*
X017750Y018092D01*
X017795Y017985D01*
X017302Y017610D01*
X017285Y017610D01*
X017228Y017554D01*
X017165Y017505D01*
X017162Y017488D01*
X017150Y017475D01*
X017150Y017395D01*
X017139Y017316D01*
X017150Y017302D01*
X017150Y016717D01*
X017146Y016720D01*
X017066Y016710D01*
X017022Y016710D01*
X016862Y016870D01*
X016498Y016870D01*
X016240Y016612D01*
X016240Y016248D01*
X016498Y015990D01*
X016862Y015990D01*
X017120Y016248D01*
X017120Y016250D01*
X017220Y016250D01*
X016606Y015431D01*
X016550Y015375D01*
X016550Y015370D01*
X016498Y015370D01*
X016240Y015112D01*
X016240Y014748D01*
X016498Y014490D01*
X016862Y014490D01*
X017120Y014748D01*
X017120Y015112D01*
X017018Y015214D01*
X017150Y015390D01*
X017150Y013710D01*
X017022Y013710D01*
X016862Y013870D01*
X016498Y013870D01*
X016410Y013782D01*
X016410Y013875D01*
X016275Y014010D01*
X014386Y014010D01*
X014394Y014019D01*
X014460Y014085D01*
X014460Y014087D01*
X015240Y014896D01*
X015240Y014748D01*
X015498Y014490D01*
X015862Y014490D01*
X016120Y014748D01*
X016120Y015112D01*
X015862Y015370D01*
X015697Y015370D01*
X015744Y015419D01*
X015810Y015485D01*
X015810Y015487D01*
X015812Y015489D01*
X015810Y015582D01*
X015810Y015955D01*
X015818Y015990D01*
X015862Y015990D01*
X016120Y016248D01*
X016120Y016612D01*
X015862Y016870D01*
X015498Y016870D01*
X015240Y016612D01*
X015240Y016248D01*
X015374Y016114D01*
X015370Y016095D01*
X015350Y016075D01*
X015350Y016005D01*
X015335Y015937D01*
X015350Y015913D01*
X015350Y015673D01*
X014839Y015143D01*
X014612Y015370D01*
X014248Y015370D01*
X013990Y015112D01*
X013990Y014748D01*
X014228Y014510D01*
X014226Y014507D01*
X014112Y014620D01*
X013748Y014620D01*
X013490Y014362D01*
X013490Y014346D01*
X013488Y014347D01*
X013425Y014410D01*
X013417Y014410D01*
X013412Y014415D01*
X013622Y014494D02*
X012478Y014494D01*
X012472Y013860D02*
X013344Y013860D01*
X013522Y013702D02*
X010727Y013702D01*
X010885Y013860D02*
X011388Y013860D01*
X011281Y014019D02*
X011010Y014019D01*
X011010Y014177D02*
X011250Y014177D01*
X011278Y014336D02*
X011010Y014336D01*
X011010Y014494D02*
X011382Y014494D01*
X011333Y015445D02*
X011270Y015445D01*
X011429Y015604D02*
X011563Y015604D01*
X012297Y015604D02*
X015283Y015604D01*
X015350Y015762D02*
X012311Y015762D01*
X012533Y015921D02*
X013192Y015921D01*
X013248Y015865D02*
X013612Y015865D01*
X013870Y016123D01*
X013870Y016487D01*
X013612Y016745D01*
X013248Y016745D01*
X012990Y016487D01*
X012990Y016123D01*
X013248Y015865D01*
X013034Y016079D02*
X012604Y016079D01*
X012610Y016238D02*
X012990Y016238D01*
X012990Y016396D02*
X012557Y016396D01*
X012980Y016555D02*
X013057Y016555D01*
X013110Y016713D02*
X013216Y016713D01*
X013110Y016872D02*
X013491Y016872D01*
X013490Y016873D02*
X013748Y016615D01*
X014112Y016615D01*
X014370Y016873D01*
X014370Y017237D01*
X014115Y017493D01*
X014370Y017748D01*
X014370Y017750D01*
X015075Y017750D01*
X015210Y017885D01*
X015210Y018185D01*
X015675Y018650D01*
X015810Y018785D01*
X015810Y018990D01*
X015862Y018990D01*
X016120Y019248D01*
X016120Y019612D01*
X015862Y019870D01*
X015498Y019870D01*
X015240Y019612D01*
X015240Y019248D01*
X015350Y019138D01*
X015350Y018975D01*
X014750Y018375D01*
X014750Y018210D01*
X014272Y018210D01*
X014112Y018370D01*
X013748Y018370D01*
X013490Y018112D01*
X013490Y017748D01*
X013745Y017493D01*
X013490Y017237D01*
X013490Y016873D01*
X013490Y017030D02*
X013110Y017030D01*
X013110Y017189D02*
X013490Y017189D01*
X013600Y017347D02*
X013110Y017347D01*
X013110Y017506D02*
X013732Y017506D01*
X013574Y017664D02*
X013110Y017664D01*
X013110Y017823D02*
X013490Y017823D01*
X013490Y017981D02*
X013110Y017981D01*
X013110Y018140D02*
X013517Y018140D01*
X013430Y018298D02*
X013430Y018298D01*
X013430Y018457D02*
X013430Y018457D01*
X013430Y018615D02*
X013430Y018615D01*
X013430Y018774D02*
X013430Y018774D01*
X013430Y018932D02*
X013430Y018932D01*
X013430Y019091D02*
X013430Y019091D01*
X013613Y019091D02*
X014218Y019091D01*
X014248Y019120D02*
X013990Y018862D01*
X013990Y018498D01*
X014248Y018240D01*
X014612Y018240D01*
X014870Y018498D01*
X014870Y018862D01*
X014612Y019120D01*
X014248Y019120D01*
X014060Y018932D02*
X013772Y018932D01*
X013850Y018774D02*
X013990Y018774D01*
X013990Y018615D02*
X013850Y018615D01*
X013800Y018457D02*
X014031Y018457D01*
X014184Y018298D02*
X014190Y018298D01*
X013676Y018298D02*
X013642Y018298D01*
X013218Y018298D02*
X013110Y018298D01*
X012650Y018774D02*
X012338Y018774D01*
X011930Y018457D02*
X011930Y018457D01*
X011930Y018298D02*
X011930Y018298D01*
X011930Y018180D02*
X011270Y018180D01*
X011270Y018147D01*
X011280Y018082D01*
X011301Y018019D01*
X011331Y017960D01*
X011370Y017906D01*
X011416Y017860D01*
X011470Y017821D01*
X011529Y017791D01*
X011592Y017770D01*
X011657Y017760D01*
X011930Y017760D01*
X011930Y018180D01*
X011930Y018140D02*
X011930Y018140D01*
X011930Y017981D02*
X011930Y017981D01*
X011930Y017823D02*
X011930Y017823D01*
X011467Y017823D02*
X010110Y017823D01*
X010110Y017981D02*
X011320Y017981D01*
X011271Y018140D02*
X010110Y018140D01*
X010110Y018298D02*
X011287Y018298D01*
X012467Y017506D02*
X012650Y017506D01*
X012650Y017347D02*
X012577Y017347D01*
X012610Y017189D02*
X012650Y017189D01*
X012650Y017030D02*
X012584Y017030D01*
X013644Y016713D02*
X013650Y016713D01*
X013803Y016555D02*
X014086Y016555D01*
X014010Y016479D02*
X014256Y016725D01*
X014430Y016725D01*
X014604Y016725D01*
X014850Y016479D01*
X014850Y016305D01*
X014430Y016305D01*
X014430Y016305D01*
X014430Y016305D01*
X014430Y016725D01*
X014430Y016305D01*
X014850Y016305D01*
X014850Y016131D01*
X014604Y015885D01*
X014430Y015885D01*
X014430Y016305D01*
X014430Y016305D01*
X014430Y016305D01*
X014010Y016305D01*
X014010Y016479D01*
X014010Y016396D02*
X013870Y016396D01*
X013870Y016238D02*
X014010Y016238D01*
X014010Y016305D02*
X014010Y016131D01*
X014256Y015885D01*
X014430Y015885D01*
X014430Y016305D01*
X014010Y016305D01*
X014062Y016079D02*
X013826Y016079D01*
X013668Y015921D02*
X014221Y015921D01*
X014430Y015921D02*
X014430Y015921D01*
X014430Y016079D02*
X014430Y016079D01*
X014430Y016238D02*
X014430Y016238D01*
X014430Y016396D02*
X014430Y016396D01*
X014430Y016555D02*
X014430Y016555D01*
X014430Y016713D02*
X014430Y016713D01*
X014369Y016872D02*
X017150Y016872D01*
X017150Y017030D02*
X014370Y017030D01*
X014370Y017189D02*
X017150Y017189D01*
X017143Y017347D02*
X014260Y017347D01*
X014128Y017506D02*
X015482Y017506D01*
X015498Y017490D02*
X015862Y017490D01*
X016120Y017748D01*
X016120Y018112D01*
X015862Y018370D01*
X015498Y018370D01*
X015240Y018112D01*
X015240Y017748D01*
X015498Y017490D01*
X015324Y017664D02*
X014286Y017664D01*
X014670Y018298D02*
X014750Y018298D01*
X014829Y018457D02*
X014831Y018457D01*
X014870Y018615D02*
X014990Y018615D01*
X014870Y018774D02*
X015148Y018774D01*
X015307Y018932D02*
X014800Y018932D01*
X014642Y019091D02*
X015350Y019091D01*
X015240Y019249D02*
X012836Y019249D01*
X012678Y019408D02*
X015240Y019408D01*
X015240Y019566D02*
X012388Y019566D01*
X012495Y019883D02*
X012990Y019883D01*
X012990Y020042D02*
X012589Y020042D01*
X012610Y020200D02*
X012990Y020200D01*
X012876Y020359D02*
X012572Y020359D01*
X012569Y020993D02*
X013495Y020993D01*
X013490Y020834D02*
X013051Y020834D01*
X013210Y020676D02*
X013490Y020676D01*
X013596Y020517D02*
X013368Y020517D01*
X014370Y020676D02*
X015312Y020676D01*
X014720Y020359D02*
X017788Y020359D01*
X017817Y020429D02*
X017750Y020268D01*
X017750Y020092D01*
X017817Y019931D01*
X017941Y019807D01*
X018102Y019740D01*
X018758Y019740D01*
X018919Y019807D01*
X019043Y019931D01*
X019110Y020092D01*
X019110Y020268D01*
X019043Y020429D01*
X018919Y020553D01*
X018758Y020620D01*
X018102Y020620D01*
X017941Y020553D01*
X017817Y020429D01*
X017905Y020517D02*
X016889Y020517D01*
X017048Y020676D02*
X019427Y020676D01*
X019401Y020650D02*
X019342Y020507D01*
X019342Y020353D01*
X019401Y020210D01*
X019510Y020101D01*
X019653Y020042D01*
X019807Y020042D01*
X019950Y020101D01*
X020059Y020210D01*
X020118Y020353D01*
X020118Y020507D01*
X020059Y020650D01*
X019950Y020759D01*
X019807Y020818D01*
X019653Y020818D01*
X019510Y020759D01*
X019401Y020650D01*
X019346Y020517D02*
X018955Y020517D01*
X019072Y020359D02*
X019342Y020359D01*
X019411Y020200D02*
X019110Y020200D01*
X019089Y020042D02*
X020771Y020042D01*
X020750Y020092D02*
X020817Y019931D01*
X020941Y019807D01*
X021102Y019740D01*
X021758Y019740D01*
X021919Y019807D01*
X022043Y019931D01*
X022110Y020092D01*
X022110Y020268D01*
X022043Y020429D01*
X021919Y020553D01*
X021758Y020620D01*
X021102Y020620D01*
X020941Y020553D01*
X020817Y020429D01*
X020750Y020268D01*
X020750Y020092D01*
X020750Y020200D02*
X020049Y020200D01*
X020118Y020359D02*
X020788Y020359D01*
X020905Y020517D02*
X020114Y020517D01*
X020033Y020676D02*
X023120Y020676D01*
X023120Y020834D02*
X021946Y020834D01*
X021919Y020807D02*
X022043Y020931D01*
X022110Y021092D01*
X022110Y021268D01*
X022043Y021429D01*
X021919Y021553D01*
X021758Y021620D01*
X021102Y021620D01*
X020941Y021553D01*
X020817Y021429D01*
X020750Y021268D01*
X020750Y021092D01*
X020817Y020931D01*
X020941Y020807D01*
X021102Y020740D01*
X021758Y020740D01*
X021919Y020807D01*
X022069Y020993D02*
X023120Y020993D01*
X023120Y021151D02*
X022110Y021151D01*
X022093Y021310D02*
X023120Y021310D01*
X023120Y021468D02*
X022004Y021468D01*
X020856Y021468D02*
X019004Y021468D01*
X019093Y021310D02*
X020767Y021310D01*
X020750Y021151D02*
X019110Y021151D01*
X019069Y020993D02*
X020791Y020993D01*
X020914Y020834D02*
X018946Y020834D01*
X018995Y019883D02*
X020865Y019883D01*
X020972Y019566D02*
X018888Y019566D01*
X018919Y019553D02*
X018758Y019620D01*
X018102Y019620D01*
X017941Y019553D01*
X017817Y019429D01*
X017755Y019281D01*
X017750Y019275D01*
X017150Y018675D01*
X017150Y018210D01*
X017022Y018210D01*
X016862Y018370D01*
X016498Y018370D01*
X016240Y018112D01*
X016240Y017748D01*
X016498Y017490D01*
X016862Y017490D01*
X017120Y017748D01*
X017120Y017750D01*
X017475Y017750D01*
X017610Y017885D01*
X017610Y018485D01*
X017937Y018811D01*
X017941Y018807D01*
X018102Y018740D01*
X018758Y018740D01*
X018919Y018807D01*
X019043Y018931D01*
X019110Y019092D01*
X019110Y019268D01*
X019043Y019429D01*
X018919Y019553D01*
X019052Y019408D02*
X020808Y019408D01*
X020724Y019249D02*
X019110Y019249D01*
X019109Y019091D02*
X020565Y019091D01*
X020407Y018932D02*
X019044Y018932D01*
X018838Y018774D02*
X020248Y018774D01*
X020150Y018615D02*
X018770Y018615D01*
X019016Y018457D02*
X020150Y018457D01*
X020150Y018298D02*
X019097Y018298D01*
X019110Y018140D02*
X020150Y018140D01*
X020150Y017981D02*
X019064Y017981D01*
X018935Y017823D02*
X020150Y017823D01*
X020150Y017664D02*
X018132Y017664D01*
X017789Y017981D02*
X017610Y017981D01*
X017610Y018140D02*
X017750Y018140D01*
X017763Y018298D02*
X017610Y018298D01*
X017610Y018457D02*
X017844Y018457D01*
X017740Y018615D02*
X018090Y018615D01*
X018022Y018774D02*
X017899Y018774D01*
X017565Y019091D02*
X016963Y019091D01*
X016862Y018990D02*
X017120Y019248D01*
X017120Y019612D01*
X016862Y019870D01*
X016498Y019870D01*
X016240Y019612D01*
X016240Y019248D01*
X016498Y018990D01*
X016862Y018990D01*
X017120Y019249D02*
X017724Y019249D01*
X017808Y019408D02*
X017120Y019408D01*
X017120Y019566D02*
X017972Y019566D01*
X017865Y019883D02*
X014850Y019883D01*
X014850Y020042D02*
X017771Y020042D01*
X017750Y020200D02*
X014850Y020200D01*
X014430Y020200D02*
X014430Y020200D01*
X014430Y020042D02*
X014430Y020042D01*
X014430Y019883D02*
X014430Y019883D01*
X014430Y019725D02*
X014430Y019725D01*
X014693Y019725D02*
X015352Y019725D01*
X016008Y019725D02*
X016352Y019725D01*
X016240Y019566D02*
X016120Y019566D01*
X016120Y019408D02*
X016240Y019408D01*
X016240Y019249D02*
X016120Y019249D01*
X015963Y019091D02*
X016397Y019091D01*
X015810Y018932D02*
X017407Y018932D01*
X017248Y018774D02*
X015799Y018774D01*
X015640Y018615D02*
X017150Y018615D01*
X017150Y018457D02*
X015482Y018457D01*
X015426Y018298D02*
X015323Y018298D01*
X015267Y018140D02*
X015210Y018140D01*
X015210Y017981D02*
X015240Y017981D01*
X015240Y017823D02*
X015148Y017823D01*
X015878Y017506D02*
X016482Y017506D01*
X016324Y017664D02*
X016036Y017664D01*
X016120Y017823D02*
X016240Y017823D01*
X016240Y017981D02*
X016120Y017981D01*
X016093Y018140D02*
X016267Y018140D01*
X016426Y018298D02*
X015934Y018298D01*
X016934Y018298D02*
X017150Y018298D01*
X017548Y017823D02*
X017581Y017823D01*
X017373Y017664D02*
X017036Y017664D01*
X017165Y017506D02*
X016878Y017506D01*
X017019Y016713D02*
X017090Y016713D01*
X017110Y016238D02*
X017211Y016238D01*
X017092Y016079D02*
X016951Y016079D01*
X016973Y015921D02*
X015810Y015921D01*
X015810Y015762D02*
X016854Y015762D01*
X016735Y015604D02*
X015810Y015604D01*
X015770Y015445D02*
X016616Y015445D01*
X016414Y015287D02*
X015946Y015287D01*
X016104Y015128D02*
X016256Y015128D01*
X016240Y014970D02*
X016120Y014970D01*
X016120Y014811D02*
X016240Y014811D01*
X016335Y014653D02*
X016025Y014653D01*
X015866Y014494D02*
X016494Y014494D01*
X016866Y014494D02*
X017150Y014494D01*
X017150Y014336D02*
X014699Y014336D01*
X014852Y014494D02*
X015494Y014494D01*
X015335Y014653D02*
X015005Y014653D01*
X015158Y014811D02*
X015240Y014811D01*
X014977Y015287D02*
X014696Y015287D01*
X015130Y015445D02*
X012527Y015445D01*
X013667Y015287D02*
X014164Y015287D01*
X014006Y015128D02*
X013826Y015128D01*
X013850Y014970D02*
X013990Y014970D01*
X013990Y014811D02*
X013850Y014811D01*
X013746Y014653D02*
X014085Y014653D01*
X014547Y014177D02*
X017150Y014177D01*
X017150Y014019D02*
X014394Y014019D01*
X014314Y013543D02*
X015240Y013543D01*
X015240Y013385D02*
X014370Y013385D01*
X014370Y013226D02*
X015262Y013226D01*
X015420Y013068D02*
X014315Y013068D01*
X014256Y012975D02*
X014010Y012729D01*
X014010Y012555D01*
X014430Y012555D01*
X014850Y012555D01*
X014850Y012729D01*
X014604Y012975D01*
X014430Y012975D01*
X014430Y012555D01*
X014430Y012555D01*
X014430Y012555D01*
X014850Y012555D01*
X014850Y012381D01*
X014604Y012135D01*
X014430Y012135D01*
X014430Y012555D01*
X014430Y012555D01*
X014430Y012555D01*
X014430Y012975D01*
X014256Y012975D01*
X014190Y012909D02*
X014156Y012909D01*
X014032Y012751D02*
X013857Y012751D01*
X013870Y012737D02*
X013612Y012995D01*
X013248Y012995D01*
X012990Y012737D01*
X012990Y012373D01*
X013248Y012115D01*
X013612Y012115D01*
X013870Y012373D01*
X013870Y012737D01*
X013870Y012592D02*
X014010Y012592D01*
X014010Y012555D02*
X014010Y012381D01*
X014256Y012135D01*
X014430Y012135D01*
X014430Y012555D01*
X014010Y012555D01*
X014010Y012434D02*
X013870Y012434D01*
X013772Y012275D02*
X014116Y012275D01*
X014430Y012275D02*
X014430Y012275D01*
X014430Y012434D02*
X014430Y012434D01*
X014430Y012592D02*
X014430Y012592D01*
X014430Y012751D02*
X014430Y012751D01*
X014430Y012909D02*
X014430Y012909D01*
X014670Y012909D02*
X015450Y012909D01*
X015450Y012751D02*
X014828Y012751D01*
X014850Y012592D02*
X015301Y012592D01*
X015130Y012434D02*
X014850Y012434D01*
X014744Y012275D02*
X014960Y012275D01*
X014789Y012117D02*
X013614Y012117D01*
X013246Y012117D02*
X010410Y012117D01*
X010410Y012275D02*
X013088Y012275D01*
X012990Y012434D02*
X010410Y012434D01*
X010410Y012592D02*
X012990Y012592D01*
X013003Y012751D02*
X010410Y012751D01*
X010410Y012909D02*
X013162Y012909D01*
X013545Y013068D02*
X010410Y013068D01*
X010410Y013226D02*
X013490Y013226D01*
X013490Y013385D02*
X010410Y013385D01*
X010568Y013543D02*
X013546Y013543D01*
X013698Y012909D02*
X013704Y012909D01*
X014749Y011958D02*
X010410Y011958D01*
X010410Y011800D02*
X014750Y011800D01*
X014750Y011641D02*
X010410Y011641D01*
X010410Y011483D02*
X013139Y011483D01*
X013256Y011600D02*
X013010Y011354D01*
X013010Y011180D01*
X013430Y011180D01*
X013850Y011180D01*
X013850Y011354D01*
X013604Y011600D01*
X013430Y011600D01*
X013430Y011180D01*
X013430Y011180D01*
X013430Y011180D01*
X013850Y011180D01*
X013850Y011006D01*
X013604Y010760D01*
X013430Y010760D01*
X013430Y011180D01*
X013430Y011180D01*
X013430Y011180D01*
X013430Y011600D01*
X013256Y011600D01*
X013430Y011483D02*
X013430Y011483D01*
X013430Y011324D02*
X013430Y011324D01*
X013430Y011180D02*
X013010Y011180D01*
X013010Y011006D01*
X013256Y010760D01*
X013430Y010760D01*
X013430Y011180D01*
X013430Y011166D02*
X013430Y011166D01*
X013430Y011007D02*
X013430Y011007D01*
X013430Y010849D02*
X013430Y010849D01*
X013568Y010690D02*
X010410Y010690D01*
X010410Y010532D02*
X013490Y010532D01*
X013490Y010373D02*
X010410Y010373D01*
X010410Y010215D02*
X013523Y010215D01*
X013682Y010056D02*
X010410Y010056D01*
X010410Y009898D02*
X014450Y009898D01*
X014450Y010056D02*
X014178Y010056D01*
X014337Y010215D02*
X014450Y010215D01*
X014910Y010056D02*
X015682Y010056D01*
X015748Y009990D02*
X015490Y010248D01*
X015490Y010612D01*
X015748Y010870D01*
X016112Y010870D01*
X016370Y010612D01*
X016370Y010248D01*
X016112Y009990D01*
X015748Y009990D01*
X015523Y010215D02*
X015040Y010215D01*
X015198Y010373D02*
X015490Y010373D01*
X015490Y010532D02*
X015357Y010532D01*
X015510Y010690D02*
X015568Y010690D01*
X015510Y010849D02*
X015726Y010849D01*
X015731Y011007D02*
X015510Y011007D01*
X016129Y011007D02*
X016550Y011007D01*
X016550Y010849D02*
X016134Y010849D01*
X016292Y010690D02*
X016550Y010690D01*
X016550Y010532D02*
X016370Y010532D01*
X016370Y010373D02*
X016550Y010373D01*
X016550Y010215D02*
X016337Y010215D01*
X016178Y010056D02*
X016550Y010056D01*
X016550Y009898D02*
X014910Y009898D01*
X015233Y009739D02*
X016550Y009739D01*
X016550Y009581D02*
X015334Y009581D01*
X015463Y009422D02*
X016550Y009422D01*
X016550Y009264D02*
X015622Y009264D01*
X015780Y009105D02*
X016550Y009105D01*
X016550Y008947D02*
X015939Y008947D01*
X016097Y008788D02*
X016462Y008788D01*
X016445Y008630D02*
X016256Y008630D01*
X016410Y008471D02*
X016515Y008471D01*
X016410Y008313D02*
X017012Y008313D01*
X017094Y008154D02*
X016410Y008154D01*
X016410Y007996D02*
X016970Y007996D01*
X016812Y007837D02*
X016410Y007837D01*
X016410Y007679D02*
X016653Y007679D01*
X016550Y007520D02*
X016410Y007520D01*
X016410Y007362D02*
X016550Y007362D01*
X016550Y007203D02*
X016410Y007203D01*
X016410Y007045D02*
X016550Y007045D01*
X016550Y006886D02*
X016410Y006886D01*
X016410Y006728D02*
X016550Y006728D01*
X016550Y006569D02*
X016410Y006569D01*
X016410Y006411D02*
X016550Y006411D01*
X016550Y006252D02*
X016410Y006252D01*
X016410Y006094D02*
X016550Y006094D01*
X016550Y005935D02*
X016410Y005935D01*
X016410Y005777D02*
X016658Y005777D01*
X016819Y005618D02*
X016410Y005618D01*
X016410Y005460D02*
X016980Y005460D01*
X017140Y005301D02*
X016410Y005301D01*
X016410Y005143D02*
X017301Y005143D01*
X017155Y004984D02*
X017462Y004984D01*
X017313Y004826D02*
X017622Y004826D01*
X017783Y004667D02*
X017360Y004667D01*
X017360Y004509D02*
X017943Y004509D01*
X018104Y004350D02*
X017329Y004350D01*
X017170Y004192D02*
X018264Y004192D01*
X018425Y004033D02*
X017078Y004033D01*
X017071Y004040D02*
X016880Y004040D01*
X016880Y003580D01*
X016880Y003580D01*
X017340Y003580D01*
X017340Y003771D01*
X017071Y004040D01*
X016880Y004040D02*
X016880Y003580D01*
X016880Y003580D01*
X016880Y003580D01*
X016420Y003580D01*
X016420Y003771D01*
X016689Y004040D01*
X016880Y004040D01*
X016880Y004033D02*
X016880Y004033D01*
X016880Y003875D02*
X016880Y003875D01*
X016880Y003716D02*
X016880Y003716D01*
X016880Y003580D02*
X016420Y003580D01*
X016420Y003389D01*
X016689Y003120D01*
X016880Y003120D01*
X017071Y003120D01*
X017340Y003389D01*
X017340Y003580D01*
X016880Y003580D01*
X016880Y003120D01*
X016880Y003580D01*
X016880Y003580D01*
X016880Y003558D02*
X016880Y003558D01*
X016880Y003399D02*
X016880Y003399D01*
X016880Y003241D02*
X016880Y003241D01*
X017191Y003241D02*
X019228Y003241D01*
X019067Y003399D02*
X017340Y003399D01*
X017340Y003558D02*
X018907Y003558D01*
X018746Y003716D02*
X017340Y003716D01*
X017236Y003875D02*
X018585Y003875D01*
X018919Y004192D02*
X019970Y004192D01*
X019970Y004350D02*
X018759Y004350D01*
X018598Y004509D02*
X019970Y004509D01*
X019970Y004667D02*
X018437Y004667D01*
X018277Y004826D02*
X019970Y004826D01*
X019970Y004730D02*
X020930Y004730D01*
X020930Y004730D01*
X020930Y005690D01*
X021734Y005690D01*
X021779Y005678D01*
X021821Y005654D01*
X021854Y005621D01*
X021878Y005579D01*
X021890Y005534D01*
X021890Y004730D01*
X020930Y004730D01*
X020930Y004730D01*
X020930Y003770D01*
X021734Y003770D01*
X021779Y003782D01*
X021821Y003806D01*
X021854Y003839D01*
X021878Y003881D01*
X021890Y003926D01*
X021890Y004730D01*
X020930Y004730D01*
X020930Y004730D01*
X020930Y004730D01*
X020930Y005690D01*
X020126Y005690D01*
X020081Y005678D01*
X020039Y005654D01*
X020006Y005621D01*
X019982Y005579D01*
X019970Y005534D01*
X019970Y004730D01*
X019970Y003926D01*
X019982Y003881D01*
X020006Y003839D01*
X020039Y003806D01*
X020081Y003782D01*
X020126Y003770D01*
X020930Y003770D01*
X020930Y004730D01*
X019970Y004730D01*
X019970Y004984D02*
X018116Y004984D01*
X017956Y005143D02*
X019970Y005143D01*
X019970Y005301D02*
X017795Y005301D01*
X017635Y005460D02*
X019970Y005460D01*
X020005Y005618D02*
X017474Y005618D01*
X017314Y005777D02*
X023120Y005777D01*
X023120Y005935D02*
X017153Y005935D01*
X017154Y006094D02*
X017010Y006094D01*
X017010Y006252D02*
X017037Y006252D01*
X017021Y006569D02*
X017010Y006569D01*
X017010Y006728D02*
X017115Y006728D01*
X017010Y006886D02*
X018332Y006886D01*
X018476Y007045D02*
X018139Y007045D01*
X018302Y007203D02*
X018619Y007203D01*
X018763Y007362D02*
X018360Y007362D01*
X018359Y007520D02*
X018906Y007520D01*
X018950Y007679D02*
X018293Y007679D01*
X018362Y007837D02*
X018950Y007837D01*
X018950Y007996D02*
X018510Y007996D01*
X018510Y008154D02*
X018834Y008154D01*
X018752Y008313D02*
X018510Y008313D01*
X018510Y008471D02*
X018740Y008471D01*
X018786Y008630D02*
X018579Y008630D01*
X018769Y008788D02*
X018916Y008788D01*
X018959Y008947D02*
X023120Y008947D01*
X023120Y009105D02*
X019477Y009105D01*
X019587Y009264D02*
X023120Y009264D01*
X023120Y009422D02*
X019620Y009422D01*
X019594Y009581D02*
X023120Y009581D01*
X023120Y009739D02*
X019493Y009739D01*
X019575Y010150D02*
X019380Y010231D01*
X019231Y010380D01*
X019150Y010575D01*
X019150Y010785D01*
X019231Y010980D01*
X019380Y011129D01*
X019531Y011192D01*
X019484Y011207D01*
X019413Y011244D01*
X019348Y011291D01*
X019291Y011348D01*
X019244Y011413D01*
X019207Y011484D01*
X019183Y011561D01*
X019170Y011640D01*
X019170Y011680D01*
X019680Y011680D01*
X020190Y011680D01*
X020190Y011720D01*
X020177Y011799D01*
X020153Y011876D01*
X020116Y011947D01*
X020069Y012012D01*
X020012Y012069D01*
X019947Y012116D01*
X019876Y012153D01*
X019829Y012168D01*
X019980Y012231D01*
X020129Y012380D01*
X020210Y012575D01*
X020210Y012785D01*
X020129Y012980D01*
X019980Y013129D01*
X019785Y013210D01*
X019575Y013210D01*
X019380Y013129D01*
X019231Y012980D01*
X019150Y012785D01*
X019150Y012575D01*
X019231Y012380D01*
X019380Y012231D01*
X019531Y012168D01*
X019484Y012153D01*
X019413Y012116D01*
X019348Y012069D01*
X019291Y012012D01*
X019244Y011947D01*
X019207Y011876D01*
X019183Y011799D01*
X019170Y011720D01*
X019170Y011680D01*
X019680Y011680D01*
X019680Y011680D01*
X020190Y011680D01*
X020190Y011640D01*
X020177Y011561D01*
X020153Y011484D01*
X020116Y011413D01*
X020069Y011348D01*
X020012Y011291D01*
X019947Y011244D01*
X019876Y011207D01*
X019829Y011192D01*
X019980Y011129D01*
X020129Y010980D01*
X020210Y010785D01*
X020210Y010575D01*
X020129Y010380D01*
X019980Y010231D01*
X019785Y010150D01*
X019575Y010150D01*
X019419Y010215D02*
X017837Y010215D01*
X017870Y010373D02*
X019237Y010373D01*
X019168Y010532D02*
X017870Y010532D01*
X017792Y010690D02*
X019150Y010690D01*
X019176Y010849D02*
X017634Y010849D01*
X017629Y011007D02*
X019257Y011007D01*
X019467Y011166D02*
X017788Y011166D01*
X017870Y011324D02*
X019315Y011324D01*
X019208Y011483D02*
X017870Y011483D01*
X017841Y011641D02*
X019170Y011641D01*
X019183Y011800D02*
X017683Y011800D01*
X017177Y011800D02*
X016183Y011800D01*
X016341Y011641D02*
X017019Y011641D01*
X016557Y011483D02*
X016370Y011483D01*
X016370Y011324D02*
X016550Y011324D01*
X016550Y011166D02*
X016288Y011166D01*
X017010Y011007D02*
X017231Y011007D01*
X017226Y010849D02*
X017010Y010849D01*
X017010Y010690D02*
X017068Y010690D01*
X017023Y010215D02*
X017010Y010215D01*
X017010Y010056D02*
X017182Y010056D01*
X017010Y009898D02*
X023120Y009898D01*
X023120Y010056D02*
X017678Y010056D01*
X017680Y009850D02*
X017407Y009850D01*
X017342Y009840D01*
X017279Y009819D01*
X017220Y009789D01*
X017166Y009750D01*
X017120Y009704D01*
X017081Y009650D01*
X017051Y009591D01*
X017030Y009528D01*
X017020Y009463D01*
X017020Y009430D01*
X017680Y009430D01*
X017680Y009430D01*
X017680Y009850D01*
X017953Y009850D01*
X018018Y009840D01*
X018081Y009819D01*
X018140Y009789D01*
X018194Y009750D01*
X018240Y009704D01*
X018279Y009650D01*
X018309Y009591D01*
X018330Y009528D01*
X018340Y009463D01*
X018340Y009430D01*
X017680Y009430D01*
X017680Y009430D01*
X017680Y009850D01*
X017680Y009739D02*
X017680Y009739D01*
X017680Y009581D02*
X017680Y009581D01*
X017680Y009430D02*
X017680Y009430D01*
X018340Y009430D01*
X018340Y009397D01*
X018330Y009332D01*
X018309Y009269D01*
X018279Y009210D01*
X018240Y009156D01*
X018194Y009110D01*
X018140Y009071D01*
X018081Y009041D01*
X018018Y009020D01*
X017953Y009010D01*
X017680Y009010D01*
X017680Y009430D01*
X017680Y009430D01*
X017680Y009010D01*
X017407Y009010D01*
X017342Y009020D01*
X017279Y009041D01*
X017220Y009071D01*
X017166Y009110D01*
X017120Y009156D01*
X017081Y009210D01*
X017051Y009269D01*
X017030Y009332D01*
X017020Y009397D01*
X017020Y009430D01*
X017680Y009430D01*
X017680Y009422D02*
X017680Y009422D01*
X017680Y009264D02*
X017680Y009264D01*
X017680Y009105D02*
X017680Y009105D01*
X017173Y009105D02*
X017010Y009105D01*
X017010Y008947D02*
X018241Y008947D01*
X018187Y009105D02*
X018431Y009105D01*
X018307Y009264D02*
X018621Y009264D01*
X018740Y009422D02*
X018340Y009422D01*
X018313Y009581D02*
X018766Y009581D01*
X018867Y009739D02*
X018205Y009739D01*
X017155Y009739D02*
X017010Y009739D01*
X017010Y009581D02*
X017047Y009581D01*
X017020Y009422D02*
X017010Y009422D01*
X017010Y009264D02*
X017053Y009264D01*
X017098Y008788D02*
X017176Y008788D01*
X015922Y008313D02*
X015348Y008313D01*
X015360Y008342D02*
X015293Y008181D01*
X015169Y008057D01*
X015008Y007990D01*
X014352Y007990D01*
X014191Y008057D01*
X014067Y008181D01*
X014000Y008342D01*
X014000Y008518D01*
X014067Y008679D01*
X014191Y008803D01*
X014352Y008870D01*
X015008Y008870D01*
X015169Y008803D01*
X015293Y008679D01*
X015360Y008518D01*
X015360Y008342D01*
X015360Y008471D02*
X015764Y008471D01*
X015605Y008630D02*
X015314Y008630D01*
X015184Y008788D02*
X015447Y008788D01*
X015288Y008947D02*
X013564Y008947D01*
X013640Y008871D02*
X013371Y009140D01*
X013180Y009140D01*
X013180Y008680D01*
X013180Y008680D01*
X013640Y008680D01*
X013640Y008871D01*
X013640Y008788D02*
X014176Y008788D01*
X014046Y008630D02*
X013640Y008630D01*
X013640Y008680D02*
X013640Y008489D01*
X013371Y008220D01*
X013180Y008220D01*
X013180Y008680D01*
X013180Y008680D01*
X013180Y008680D01*
X012720Y008680D01*
X012720Y008871D01*
X012989Y009140D01*
X013180Y009140D01*
X013180Y008680D01*
X013640Y008680D01*
X013622Y008471D02*
X014000Y008471D01*
X014012Y008313D02*
X013463Y008313D01*
X013379Y008160D02*
X012981Y008160D01*
X012700Y007879D01*
X012700Y007481D01*
X012981Y007200D01*
X013379Y007200D01*
X013660Y007481D01*
X013660Y007879D01*
X013379Y008160D01*
X013385Y008154D02*
X014094Y008154D01*
X014339Y007996D02*
X013543Y007996D01*
X013660Y007837D02*
X014273Y007837D01*
X014352Y007870D02*
X014191Y007803D01*
X014067Y007679D01*
X014000Y007518D01*
X014000Y007342D01*
X014067Y007181D01*
X014191Y007057D01*
X014352Y006990D01*
X015008Y006990D01*
X015169Y007057D01*
X015293Y007181D01*
X015360Y007342D01*
X015360Y007518D01*
X015293Y007679D01*
X015169Y007803D01*
X015008Y007870D01*
X014352Y007870D01*
X014067Y007679D02*
X013660Y007679D01*
X013660Y007520D02*
X014001Y007520D01*
X014000Y007362D02*
X013540Y007362D01*
X013382Y007203D02*
X014058Y007203D01*
X014221Y007045D02*
X011188Y007045D01*
X011112Y007120D02*
X010748Y007120D01*
X010490Y006862D01*
X010490Y006498D01*
X010748Y006240D01*
X011112Y006240D01*
X011370Y006498D01*
X011370Y006862D01*
X011112Y007120D01*
X011346Y006886D02*
X015950Y006886D01*
X015950Y006728D02*
X015245Y006728D01*
X015293Y006679D02*
X015169Y006803D01*
X015008Y006870D01*
X014352Y006870D01*
X014191Y006803D01*
X014067Y006679D01*
X014000Y006518D01*
X014000Y006342D01*
X014067Y006181D01*
X014191Y006057D01*
X014352Y005990D01*
X015008Y005990D01*
X015169Y006057D01*
X015293Y006181D01*
X015360Y006342D01*
X015360Y006518D01*
X015293Y006679D01*
X015339Y006569D02*
X015950Y006569D01*
X015950Y006411D02*
X015360Y006411D01*
X015323Y006252D02*
X015950Y006252D01*
X015950Y006094D02*
X015206Y006094D01*
X015342Y005860D02*
X015181Y005793D01*
X015057Y005669D01*
X014990Y005508D01*
X014990Y004852D01*
X015057Y004691D01*
X015181Y004567D01*
X015342Y004500D01*
X015518Y004500D01*
X015679Y004567D01*
X015803Y004691D01*
X015870Y004852D01*
X015870Y005508D01*
X015803Y005669D01*
X015679Y005793D01*
X015518Y005860D01*
X015342Y005860D01*
X015164Y005777D02*
X014696Y005777D01*
X014679Y005793D02*
X014518Y005860D01*
X014342Y005860D01*
X014181Y005793D01*
X014057Y005669D01*
X013990Y005508D01*
X013990Y004852D01*
X014057Y004691D01*
X014181Y004567D01*
X014342Y004500D01*
X014518Y004500D01*
X014679Y004567D01*
X014803Y004691D01*
X014870Y004852D01*
X014870Y005508D01*
X014803Y005669D01*
X014679Y005793D01*
X014824Y005618D02*
X015036Y005618D01*
X014990Y005460D02*
X014870Y005460D01*
X014870Y005301D02*
X014990Y005301D01*
X014990Y005143D02*
X014870Y005143D01*
X014870Y004984D02*
X014990Y004984D01*
X015001Y004826D02*
X014859Y004826D01*
X014779Y004667D02*
X015081Y004667D01*
X015322Y004509D02*
X014538Y004509D01*
X014322Y004509D02*
X013538Y004509D01*
X013518Y004500D02*
X013679Y004567D01*
X013803Y004691D01*
X013870Y004852D01*
X013870Y005508D01*
X013803Y005669D01*
X013679Y005793D01*
X013518Y005860D01*
X013342Y005860D01*
X013181Y005793D01*
X013057Y005669D01*
X012990Y005508D01*
X012990Y004852D01*
X013057Y004691D01*
X013181Y004567D01*
X013342Y004500D01*
X013518Y004500D01*
X013322Y004509D02*
X012538Y004509D01*
X012518Y004500D02*
X012679Y004567D01*
X012803Y004691D01*
X012870Y004852D01*
X012870Y005508D01*
X012803Y005669D01*
X012679Y005793D01*
X012518Y005860D01*
X012342Y005860D01*
X012181Y005793D01*
X012057Y005669D01*
X011990Y005508D01*
X011990Y004852D01*
X012057Y004691D01*
X012181Y004567D01*
X012342Y004500D01*
X012518Y004500D01*
X012322Y004509D02*
X011538Y004509D01*
X011518Y004500D02*
X011679Y004567D01*
X011803Y004691D01*
X011870Y004852D01*
X011870Y005508D01*
X011803Y005669D01*
X011679Y005793D01*
X011518Y005860D01*
X011342Y005860D01*
X011181Y005793D01*
X011057Y005669D01*
X010990Y005508D01*
X010990Y004852D01*
X011057Y004691D01*
X011181Y004567D01*
X011342Y004500D01*
X011518Y004500D01*
X011322Y004509D02*
X010538Y004509D01*
X010518Y004500D02*
X010679Y004567D01*
X010803Y004691D01*
X010870Y004852D01*
X010870Y005508D01*
X010803Y005669D01*
X010679Y005793D01*
X010518Y005860D01*
X010342Y005860D01*
X010181Y005793D01*
X010057Y005669D01*
X009990Y005508D01*
X009990Y004852D01*
X010057Y004691D01*
X010181Y004567D01*
X010342Y004500D01*
X010518Y004500D01*
X010322Y004509D02*
X009538Y004509D01*
X009518Y004500D02*
X009679Y004567D01*
X009803Y004691D01*
X009870Y004852D01*
X009870Y005508D01*
X009803Y005669D01*
X009679Y005793D01*
X009518Y005860D01*
X009342Y005860D01*
X009181Y005793D01*
X009057Y005669D01*
X008990Y005508D01*
X008990Y004852D01*
X009057Y004691D01*
X009181Y004567D01*
X009342Y004500D01*
X009518Y004500D01*
X009322Y004509D02*
X007836Y004509D01*
X007681Y004350D02*
X015950Y004350D01*
X015950Y004509D02*
X015538Y004509D01*
X015779Y004667D02*
X015950Y004667D01*
X015950Y004826D02*
X015859Y004826D01*
X015870Y004984D02*
X015950Y004984D01*
X015950Y005143D02*
X015870Y005143D01*
X015870Y005301D02*
X015950Y005301D01*
X015950Y005460D02*
X015870Y005460D01*
X015824Y005618D02*
X015950Y005618D01*
X015950Y005777D02*
X015696Y005777D01*
X015950Y005935D02*
X008360Y005935D01*
X008430Y005777D02*
X008430Y005777D01*
X008430Y005618D02*
X008430Y005618D01*
X008430Y005460D02*
X008430Y005460D01*
X008430Y005301D02*
X008430Y005301D01*
X008430Y005180D02*
X008010Y005180D01*
X008010Y004907D01*
X008020Y004842D01*
X008041Y004779D01*
X008071Y004720D01*
X008110Y004666D01*
X008156Y004620D01*
X008210Y004581D01*
X008269Y004551D01*
X008332Y004530D01*
X008397Y004520D01*
X008430Y004520D01*
X008430Y005180D01*
X008430Y005143D02*
X008430Y005143D01*
X008430Y004984D02*
X008430Y004984D01*
X008430Y004826D02*
X008430Y004826D01*
X008430Y004667D02*
X008430Y004667D01*
X008751Y004667D02*
X009081Y004667D01*
X009001Y004826D02*
X008834Y004826D01*
X008850Y004984D02*
X008990Y004984D01*
X008990Y005143D02*
X008850Y005143D01*
X008850Y005301D02*
X008990Y005301D01*
X008990Y005460D02*
X008849Y005460D01*
X008800Y005618D02*
X009036Y005618D01*
X009164Y005777D02*
X008654Y005777D01*
X008519Y006094D02*
X014154Y006094D01*
X014037Y006252D02*
X011124Y006252D01*
X011283Y006411D02*
X014000Y006411D01*
X014021Y006569D02*
X011370Y006569D01*
X011370Y006728D02*
X014115Y006728D01*
X014164Y005777D02*
X013696Y005777D01*
X013824Y005618D02*
X014036Y005618D01*
X013990Y005460D02*
X013870Y005460D01*
X013870Y005301D02*
X013990Y005301D01*
X013990Y005143D02*
X013870Y005143D01*
X013870Y004984D02*
X013990Y004984D01*
X014001Y004826D02*
X013859Y004826D01*
X013779Y004667D02*
X014081Y004667D01*
X013081Y004667D02*
X012779Y004667D01*
X012859Y004826D02*
X013001Y004826D01*
X012990Y004984D02*
X012870Y004984D01*
X012870Y005143D02*
X012990Y005143D01*
X012990Y005301D02*
X012870Y005301D01*
X012870Y005460D02*
X012990Y005460D01*
X013036Y005618D02*
X012824Y005618D01*
X012696Y005777D02*
X013164Y005777D01*
X012164Y005777D02*
X011696Y005777D01*
X011824Y005618D02*
X012036Y005618D01*
X011990Y005460D02*
X011870Y005460D01*
X011870Y005301D02*
X011990Y005301D01*
X011990Y005143D02*
X011870Y005143D01*
X011870Y004984D02*
X011990Y004984D01*
X012001Y004826D02*
X011859Y004826D01*
X011779Y004667D02*
X012081Y004667D01*
X011081Y004667D02*
X010779Y004667D01*
X010859Y004826D02*
X011001Y004826D01*
X010990Y004984D02*
X010870Y004984D01*
X010870Y005143D02*
X010990Y005143D01*
X010990Y005301D02*
X010870Y005301D01*
X010870Y005460D02*
X010990Y005460D01*
X011036Y005618D02*
X010824Y005618D01*
X010696Y005777D02*
X011164Y005777D01*
X010736Y006252D02*
X008677Y006252D01*
X008836Y006411D02*
X010577Y006411D01*
X010490Y006569D02*
X008994Y006569D01*
X009153Y006728D02*
X010490Y006728D01*
X010514Y006886D02*
X009311Y006886D01*
X009470Y007045D02*
X010672Y007045D01*
X009945Y007520D02*
X012700Y007520D01*
X012700Y007679D02*
X010104Y007679D01*
X010262Y007837D02*
X012700Y007837D01*
X012817Y007996D02*
X010410Y007996D01*
X010410Y008154D02*
X012975Y008154D01*
X012989Y008220D02*
X012720Y008489D01*
X012720Y008680D01*
X013180Y008680D01*
X013180Y008680D01*
X013180Y008220D01*
X012989Y008220D01*
X012897Y008313D02*
X011185Y008313D01*
X011112Y008240D02*
X011370Y008498D01*
X011370Y008862D01*
X011112Y009120D01*
X010748Y009120D01*
X010490Y008862D01*
X010490Y008498D01*
X010748Y008240D01*
X011112Y008240D01*
X011343Y008471D02*
X012738Y008471D01*
X012720Y008630D02*
X011370Y008630D01*
X011370Y008788D02*
X012720Y008788D01*
X012796Y008947D02*
X011286Y008947D01*
X011127Y009105D02*
X012954Y009105D01*
X013180Y009105D02*
X013180Y009105D01*
X013180Y008947D02*
X013180Y008947D01*
X013180Y008788D02*
X013180Y008788D01*
X013180Y008630D02*
X013180Y008630D01*
X013180Y008471D02*
X013180Y008471D01*
X013180Y008313D02*
X013180Y008313D01*
X013406Y009105D02*
X014143Y009105D01*
X014033Y009264D02*
X010410Y009264D01*
X010410Y009422D02*
X014000Y009422D01*
X014026Y009581D02*
X010410Y009581D01*
X010410Y009739D02*
X014127Y009739D01*
X014134Y010849D02*
X014139Y010849D01*
X013990Y011007D02*
X013850Y011007D01*
X013850Y011166D02*
X013990Y011166D01*
X013990Y011324D02*
X013850Y011324D01*
X013721Y011483D02*
X014110Y011483D01*
X014750Y011483D02*
X014750Y011483D01*
X015210Y011641D02*
X015519Y011641D01*
X015677Y011800D02*
X015210Y011800D01*
X015294Y011958D02*
X019252Y011958D01*
X019413Y012117D02*
X015465Y012117D01*
X015636Y012275D02*
X019335Y012275D01*
X019208Y012434D02*
X019059Y012434D01*
X019110Y012592D02*
X019150Y012592D01*
X019150Y012751D02*
X019110Y012751D01*
X019110Y012909D02*
X019201Y012909D01*
X019110Y013068D02*
X019318Y013068D01*
X019251Y013226D02*
X023120Y013226D01*
X023120Y013068D02*
X020042Y013068D01*
X020159Y012909D02*
X023120Y012909D01*
X023120Y012751D02*
X020210Y012751D01*
X020210Y012592D02*
X023120Y012592D01*
X023120Y012434D02*
X020152Y012434D01*
X020025Y012275D02*
X023120Y012275D01*
X023120Y012117D02*
X019947Y012117D01*
X020108Y011958D02*
X021311Y011958D01*
X021193Y011909D02*
X020951Y011667D01*
X020820Y011351D01*
X020820Y011009D01*
X020951Y010693D01*
X021193Y010451D01*
X021509Y010320D01*
X021851Y010320D01*
X022167Y010451D01*
X022409Y010693D01*
X022540Y011009D01*
X022540Y011351D01*
X022409Y011667D01*
X022167Y011909D01*
X021851Y012040D01*
X021509Y012040D01*
X021193Y011909D01*
X021083Y011800D02*
X020177Y011800D01*
X020190Y011641D02*
X020940Y011641D01*
X020875Y011483D02*
X020152Y011483D01*
X020045Y011324D02*
X020820Y011324D01*
X020820Y011166D02*
X019893Y011166D01*
X020103Y011007D02*
X020821Y011007D01*
X020887Y010849D02*
X020184Y010849D01*
X020210Y010690D02*
X020954Y010690D01*
X021112Y010532D02*
X020192Y010532D01*
X020123Y010373D02*
X021381Y010373D01*
X021979Y010373D02*
X023120Y010373D01*
X023120Y010215D02*
X019941Y010215D01*
X019444Y008788D02*
X023120Y008788D01*
X023120Y008630D02*
X019574Y008630D01*
X019620Y008471D02*
X023120Y008471D01*
X023120Y008313D02*
X019608Y008313D01*
X019526Y008154D02*
X020764Y008154D01*
X020766Y008155D02*
X020463Y008029D01*
X020231Y007797D01*
X020105Y007494D01*
X020105Y007166D01*
X020231Y006863D01*
X020463Y006631D01*
X020766Y006505D01*
X021094Y006505D01*
X021397Y006631D01*
X021629Y006863D01*
X021755Y007166D01*
X021755Y007494D01*
X021629Y007797D01*
X021397Y008029D01*
X021094Y008155D01*
X020766Y008155D01*
X021096Y008154D02*
X023120Y008154D01*
X023120Y007996D02*
X021431Y007996D01*
X021590Y007837D02*
X023120Y007837D01*
X023120Y007679D02*
X021679Y007679D01*
X021744Y007520D02*
X023120Y007520D01*
X023120Y007362D02*
X021755Y007362D01*
X021755Y007203D02*
X023120Y007203D01*
X023120Y007045D02*
X021705Y007045D01*
X021639Y006886D02*
X023120Y006886D01*
X023120Y006728D02*
X021494Y006728D01*
X021249Y006569D02*
X023120Y006569D01*
X023120Y006411D02*
X018523Y006411D01*
X018666Y006569D02*
X020611Y006569D01*
X020366Y006728D02*
X018809Y006728D01*
X018953Y006886D02*
X020221Y006886D01*
X020155Y007045D02*
X019096Y007045D01*
X019240Y007203D02*
X020105Y007203D01*
X020105Y007362D02*
X019387Y007362D01*
X019410Y007520D02*
X020116Y007520D01*
X020181Y007679D02*
X019410Y007679D01*
X019410Y007837D02*
X020270Y007837D01*
X020429Y007996D02*
X019410Y007996D01*
X018379Y006252D02*
X023120Y006252D01*
X023120Y006094D02*
X018206Y006094D01*
X017221Y007045D02*
X017010Y007045D01*
X017010Y007203D02*
X017058Y007203D01*
X015950Y007203D02*
X015302Y007203D01*
X015360Y007362D02*
X015950Y007362D01*
X015950Y007520D02*
X015359Y007520D01*
X015293Y007679D02*
X015950Y007679D01*
X015950Y007837D02*
X015087Y007837D01*
X015021Y007996D02*
X015950Y007996D01*
X015950Y008154D02*
X015266Y008154D01*
X015139Y007045D02*
X015950Y007045D01*
X016410Y004984D02*
X016605Y004984D01*
X016447Y004826D02*
X016410Y004826D01*
X016410Y004350D02*
X016431Y004350D01*
X016410Y004192D02*
X016590Y004192D01*
X016682Y004033D02*
X016358Y004033D01*
X016204Y003875D02*
X016524Y003875D01*
X016420Y003716D02*
X016050Y003716D01*
X015896Y003558D02*
X016420Y003558D01*
X016420Y003399D02*
X015741Y003399D01*
X015587Y003241D02*
X016569Y003241D01*
X016478Y002924D02*
X015279Y002924D01*
X015342Y002860D02*
X015181Y002793D01*
X015057Y002669D01*
X014990Y002508D01*
X014990Y001852D01*
X015057Y001691D01*
X015181Y001567D01*
X015342Y001500D01*
X015518Y001500D01*
X015679Y001567D01*
X015803Y001691D01*
X015870Y001852D01*
X015870Y002508D01*
X015803Y002669D01*
X015679Y002793D01*
X015518Y002860D01*
X015342Y002860D01*
X015153Y002765D02*
X015125Y002765D01*
X015031Y002607D02*
X014971Y002607D01*
X014990Y002448D02*
X014870Y002448D01*
X014870Y002290D02*
X014990Y002290D01*
X014990Y002131D02*
X014870Y002131D01*
X014870Y001973D02*
X014990Y001973D01*
X015006Y001814D02*
X014854Y001814D01*
X014768Y001656D02*
X015092Y001656D01*
X015768Y001656D02*
X016238Y001656D01*
X016151Y001814D02*
X015854Y001814D01*
X015870Y001973D02*
X016085Y001973D01*
X016070Y002131D02*
X015870Y002131D01*
X015870Y002290D02*
X016070Y002290D01*
X016110Y002448D02*
X015870Y002448D01*
X015829Y002607D02*
X016176Y002607D01*
X016299Y002765D02*
X015707Y002765D01*
X015433Y003082D02*
X019388Y003082D01*
X019549Y002924D02*
X017382Y002924D01*
X017561Y002765D02*
X019709Y002765D01*
X019870Y002607D02*
X017684Y002607D01*
X017750Y002448D02*
X020030Y002448D01*
X020105Y002290D02*
X018607Y002290D01*
X018622Y002275D02*
X018512Y002384D01*
X018370Y002443D01*
X018215Y002443D01*
X018073Y002384D01*
X017963Y002275D01*
X017904Y002132D01*
X017904Y001978D01*
X017963Y001835D01*
X018073Y001726D01*
X018215Y001667D01*
X018370Y001667D01*
X018512Y001726D01*
X018622Y001835D01*
X018681Y001978D01*
X018681Y002132D01*
X018622Y002275D01*
X018681Y002131D02*
X020105Y002131D01*
X020105Y001973D02*
X018678Y001973D01*
X018600Y001814D02*
X020168Y001814D01*
X020238Y001656D02*
X017622Y001656D01*
X017709Y001814D02*
X017985Y001814D01*
X017907Y001973D02*
X017775Y001973D01*
X017790Y002131D02*
X017904Y002131D01*
X017978Y002290D02*
X017790Y002290D01*
X017463Y001497D02*
X020396Y001497D01*
X021464Y001497D02*
X023120Y001497D01*
X023120Y001656D02*
X021622Y001656D01*
X021692Y001814D02*
X023120Y001814D01*
X023120Y001973D02*
X021755Y001973D01*
X021755Y002131D02*
X023120Y002131D01*
X023120Y002290D02*
X021755Y002290D01*
X021691Y002448D02*
X023120Y002448D01*
X023120Y002607D02*
X021620Y002607D01*
X021462Y002765D02*
X023120Y002765D01*
X023120Y002924D02*
X021170Y002924D01*
X020690Y002924D02*
X020204Y002924D01*
X020043Y003082D02*
X023120Y003082D01*
X023120Y003241D02*
X019882Y003241D01*
X019722Y003399D02*
X023120Y003399D01*
X023120Y003558D02*
X019561Y003558D01*
X019401Y003716D02*
X023120Y003716D01*
X023120Y003875D02*
X021874Y003875D01*
X021890Y004033D02*
X023120Y004033D01*
X023120Y004192D02*
X021890Y004192D01*
X021890Y004350D02*
X023120Y004350D01*
X023120Y004509D02*
X021890Y004509D01*
X021890Y004667D02*
X023120Y004667D01*
X023120Y004826D02*
X021890Y004826D01*
X021890Y004984D02*
X023120Y004984D01*
X023120Y005143D02*
X021890Y005143D01*
X021890Y005301D02*
X023120Y005301D01*
X023120Y005460D02*
X021890Y005460D01*
X021855Y005618D02*
X023120Y005618D01*
X020930Y005618D02*
X020930Y005618D01*
X020930Y005460D02*
X020930Y005460D01*
X020930Y005301D02*
X020930Y005301D01*
X020930Y005143D02*
X020930Y005143D01*
X020930Y004984D02*
X020930Y004984D01*
X020930Y004826D02*
X020930Y004826D01*
X020930Y004667D02*
X020930Y004667D01*
X020930Y004509D02*
X020930Y004509D01*
X020930Y004350D02*
X020930Y004350D01*
X020930Y004192D02*
X020930Y004192D01*
X020930Y004033D02*
X020930Y004033D01*
X020930Y003875D02*
X020930Y003875D01*
X019986Y003875D02*
X019240Y003875D01*
X019080Y004033D02*
X019970Y004033D01*
X020364Y002765D02*
X020398Y002765D01*
X016397Y001497D02*
X001490Y001497D01*
X001490Y001656D02*
X002092Y001656D01*
X002057Y001691D02*
X002181Y001567D01*
X002342Y001500D01*
X002518Y001500D01*
X002679Y001567D01*
X002803Y001691D01*
X002870Y001852D01*
X002870Y002508D01*
X002803Y002669D01*
X002679Y002793D01*
X002518Y002860D01*
X002342Y002860D01*
X002181Y002793D01*
X002057Y002669D01*
X001990Y002508D01*
X001990Y001852D01*
X002057Y001691D01*
X002006Y001814D02*
X001490Y001814D01*
X001490Y001973D02*
X001990Y001973D01*
X001990Y002131D02*
X001490Y002131D01*
X001490Y002290D02*
X001990Y002290D01*
X001990Y002448D02*
X001490Y002448D01*
X001490Y002607D02*
X002031Y002607D01*
X002153Y002765D02*
X001490Y002765D01*
X001490Y002924D02*
X004656Y002924D01*
X004818Y003082D02*
X001490Y003082D01*
X001490Y003241D02*
X004980Y003241D01*
X005142Y003399D02*
X001490Y003399D01*
X001490Y003558D02*
X004094Y003558D01*
X004066Y003585D02*
X004175Y003476D01*
X004318Y003417D01*
X004472Y003417D01*
X004615Y003476D01*
X004724Y003585D01*
X004783Y003728D01*
X004783Y003882D01*
X004724Y004025D01*
X004615Y004134D01*
X004472Y004193D01*
X004318Y004193D01*
X004175Y004134D01*
X004066Y004025D01*
X004007Y003882D01*
X004007Y003728D01*
X004066Y003585D01*
X004012Y003716D02*
X001490Y003716D01*
X001490Y003875D02*
X004007Y003875D01*
X004074Y004033D02*
X001490Y004033D01*
X001490Y004192D02*
X004314Y004192D01*
X004476Y004192D02*
X005951Y004192D01*
X006112Y004350D02*
X001490Y004350D01*
X001490Y004509D02*
X002322Y004509D01*
X002538Y004509D02*
X003322Y004509D01*
X003342Y004500D02*
X003518Y004500D01*
X003679Y004567D01*
X003803Y004691D01*
X003870Y004852D01*
X003870Y005508D01*
X003803Y005669D01*
X003679Y005793D01*
X003518Y005860D01*
X003342Y005860D01*
X003181Y005793D01*
X003057Y005669D01*
X002990Y005508D01*
X002990Y004852D01*
X003057Y004691D01*
X003181Y004567D01*
X003342Y004500D01*
X003538Y004509D02*
X004322Y004509D01*
X004342Y004500D02*
X004518Y004500D01*
X004679Y004567D01*
X004803Y004691D01*
X004870Y004852D01*
X004870Y005508D01*
X004803Y005669D01*
X004679Y005793D01*
X004518Y005860D01*
X004342Y005860D01*
X004181Y005793D01*
X004057Y005669D01*
X003990Y005508D01*
X003990Y004852D01*
X004057Y004691D01*
X004181Y004567D01*
X004342Y004500D01*
X004538Y004509D02*
X005322Y004509D01*
X005342Y004500D02*
X005518Y004500D01*
X005679Y004567D01*
X005803Y004691D01*
X005870Y004852D01*
X005870Y005508D01*
X005803Y005669D01*
X005679Y005793D01*
X005518Y005860D01*
X005342Y005860D01*
X005181Y005793D01*
X005057Y005669D01*
X004990Y005508D01*
X004990Y004852D01*
X005057Y004691D01*
X005181Y004567D01*
X005342Y004500D01*
X005538Y004509D02*
X006274Y004509D01*
X006081Y004667D02*
X005779Y004667D01*
X005859Y004826D02*
X006001Y004826D01*
X005990Y004984D02*
X005870Y004984D01*
X005870Y005143D02*
X005990Y005143D01*
X005990Y005301D02*
X005870Y005301D01*
X005870Y005460D02*
X005990Y005460D01*
X006036Y005618D02*
X005824Y005618D01*
X005696Y005777D02*
X006164Y005777D01*
X006350Y005935D02*
X003295Y005935D01*
X003164Y005777D02*
X003140Y005777D01*
X003036Y005618D02*
X002985Y005618D01*
X002990Y005460D02*
X002870Y005460D01*
X002870Y005301D02*
X002990Y005301D01*
X002990Y005143D02*
X002870Y005143D01*
X002870Y004984D02*
X002990Y004984D01*
X003001Y004826D02*
X002859Y004826D01*
X002779Y004667D02*
X003081Y004667D01*
X003779Y004667D02*
X004081Y004667D01*
X004001Y004826D02*
X003859Y004826D01*
X003870Y004984D02*
X003990Y004984D01*
X003990Y005143D02*
X003870Y005143D01*
X003870Y005301D02*
X003990Y005301D01*
X003990Y005460D02*
X003870Y005460D01*
X003824Y005618D02*
X004036Y005618D01*
X004164Y005777D02*
X003696Y005777D01*
X003451Y006094D02*
X006350Y006094D01*
X006350Y006252D02*
X005624Y006252D01*
X005612Y006240D02*
X005870Y006498D01*
X005870Y006862D01*
X005612Y007120D01*
X005248Y007120D01*
X004990Y006862D01*
X004990Y006498D01*
X005248Y006240D01*
X005612Y006240D01*
X005783Y006411D02*
X006350Y006411D01*
X006350Y006569D02*
X005870Y006569D01*
X005870Y006728D02*
X006350Y006728D01*
X006350Y006886D02*
X005846Y006886D01*
X005688Y007045D02*
X006350Y007045D01*
X006350Y007203D02*
X004537Y007203D01*
X004692Y007362D02*
X006350Y007362D01*
X006350Y007520D02*
X004847Y007520D01*
X005004Y007679D02*
X006350Y007679D01*
X006350Y007837D02*
X005010Y007837D01*
X005010Y007996D02*
X006350Y007996D01*
X006350Y008154D02*
X005010Y008154D01*
X005010Y008313D02*
X005175Y008313D01*
X005017Y008471D02*
X005010Y008471D01*
X004550Y008471D02*
X001490Y008471D01*
X001490Y008313D02*
X004550Y008313D01*
X004550Y008154D02*
X001490Y008154D01*
X001490Y007996D02*
X002089Y007996D01*
X002067Y007973D02*
X002025Y007916D01*
X001993Y007853D01*
X001971Y007785D01*
X001960Y007715D01*
X001960Y007690D01*
X002670Y007690D01*
X002670Y008130D01*
X002375Y008130D01*
X002305Y008119D01*
X002237Y008097D01*
X002174Y008065D01*
X002117Y008023D01*
X002067Y007973D01*
X001988Y007837D02*
X001490Y007837D01*
X001490Y007679D02*
X002670Y007679D01*
X002670Y007670D02*
X001960Y007670D01*
X001960Y007645D01*
X001971Y007575D01*
X001993Y007507D01*
X002025Y007444D01*
X002067Y007387D01*
X002117Y007337D01*
X002174Y007295D01*
X002237Y007263D01*
X002305Y007241D01*
X002375Y007230D01*
X002670Y007230D01*
X002670Y007670D01*
X002690Y007670D01*
X002690Y007690D01*
X002670Y007690D01*
X002670Y007670D01*
X002690Y007670D02*
X002690Y007230D01*
X002985Y007230D01*
X003055Y007241D01*
X003123Y007263D01*
X003186Y007295D01*
X003243Y007337D01*
X003293Y007387D01*
X003335Y007444D01*
X003367Y007507D01*
X003389Y007575D01*
X003400Y007645D01*
X003400Y007670D01*
X002690Y007670D01*
X002690Y007679D02*
X004359Y007679D01*
X004514Y007837D02*
X003372Y007837D01*
X003367Y007853D02*
X003335Y007916D01*
X003293Y007973D01*
X003243Y008023D01*
X003186Y008065D01*
X003123Y008097D01*
X003055Y008119D01*
X002985Y008130D01*
X002690Y008130D01*
X002690Y007690D01*
X003400Y007690D01*
X003400Y007715D01*
X003389Y007785D01*
X003367Y007853D01*
X003271Y007996D02*
X004550Y007996D01*
X004204Y007520D02*
X003371Y007520D01*
X003268Y007362D02*
X004048Y007362D01*
X003893Y007203D02*
X001490Y007203D01*
X001490Y007045D02*
X002110Y007045D01*
X001987Y006886D02*
X001490Y006886D01*
X001490Y006728D02*
X001940Y006728D01*
X001947Y006569D02*
X001490Y006569D01*
X001490Y006411D02*
X002015Y006411D01*
X002215Y006252D02*
X001490Y006252D01*
X001490Y006094D02*
X002807Y006094D01*
X002652Y005935D02*
X001490Y005935D01*
X001490Y005777D02*
X002164Y005777D01*
X002036Y005618D02*
X001490Y005618D01*
X001490Y005460D02*
X001990Y005460D01*
X001990Y005301D02*
X001490Y005301D01*
X001490Y005143D02*
X001990Y005143D01*
X001990Y004984D02*
X001490Y004984D01*
X001490Y004826D02*
X002001Y004826D01*
X002081Y004667D02*
X001490Y004667D01*
X003606Y006252D02*
X005236Y006252D01*
X005077Y006411D02*
X003761Y006411D01*
X003916Y006569D02*
X004990Y006569D01*
X004990Y006728D02*
X004071Y006728D01*
X004227Y006886D02*
X005014Y006886D01*
X005172Y007045D02*
X004382Y007045D01*
X003738Y007045D02*
X003250Y007045D01*
X003373Y006886D02*
X003583Y006886D01*
X003428Y006728D02*
X003420Y006728D01*
X002690Y007362D02*
X002670Y007362D01*
X002670Y007520D02*
X002690Y007520D01*
X002670Y007837D02*
X002690Y007837D01*
X002690Y007996D02*
X002670Y007996D01*
X001989Y007520D02*
X001490Y007520D01*
X001490Y007362D02*
X002092Y007362D01*
X002921Y009422D02*
X003113Y009422D01*
X003050Y009581D02*
X002787Y009581D01*
X002722Y009739D02*
X003050Y009739D01*
X003050Y009898D02*
X002904Y009898D01*
X002970Y010056D02*
X003050Y010056D01*
X003050Y010215D02*
X002980Y010215D01*
X002941Y010373D02*
X003050Y010373D01*
X003050Y010532D02*
X002836Y010532D01*
X003050Y010690D02*
X002604Y010690D01*
X002856Y010849D02*
X003050Y010849D01*
X003050Y011007D02*
X002950Y011007D01*
X002980Y011166D02*
X003050Y011166D01*
X003050Y011324D02*
X002962Y011324D01*
X002885Y011483D02*
X003050Y011483D01*
X003050Y011641D02*
X002674Y011641D01*
X002807Y011800D02*
X003050Y011800D01*
X003050Y011958D02*
X002929Y011958D01*
X002980Y012117D02*
X003050Y012117D01*
X003050Y012275D02*
X002980Y012275D01*
X002916Y012434D02*
X003050Y012434D01*
X003050Y012592D02*
X002775Y012592D01*
X002750Y012751D02*
X003050Y012751D01*
X003050Y012909D02*
X002909Y012909D01*
X002975Y013068D02*
X003050Y013068D01*
X003542Y013543D02*
X004046Y013543D01*
X003990Y013385D02*
X003701Y013385D01*
X003859Y013226D02*
X003990Y013226D01*
X004018Y013068D02*
X004045Y013068D01*
X004198Y012909D02*
X004204Y012909D01*
X004930Y012909D02*
X004930Y012909D01*
X004930Y012751D02*
X004930Y012751D01*
X004930Y012592D02*
X004930Y012592D01*
X004930Y012434D02*
X004930Y012434D01*
X004930Y012275D02*
X004930Y012275D01*
X005244Y012275D02*
X005750Y012275D01*
X005750Y012117D02*
X004114Y012117D01*
X003746Y012117D02*
X003510Y012117D01*
X003510Y012275D02*
X003588Y012275D01*
X003510Y011958D02*
X005750Y011958D01*
X005750Y011800D02*
X003510Y011800D01*
X003510Y011324D02*
X003510Y011324D01*
X003510Y010849D02*
X003668Y010849D01*
X004192Y010849D02*
X004226Y010849D01*
X005350Y012434D02*
X005750Y012434D01*
X005750Y012592D02*
X005350Y012592D01*
X005328Y012751D02*
X005750Y012751D01*
X005750Y012909D02*
X005170Y012909D01*
X006210Y012909D02*
X008384Y012909D01*
X008542Y013068D02*
X007440Y013068D01*
X007598Y013226D02*
X008701Y013226D01*
X008859Y013385D02*
X008010Y013385D01*
X008010Y013543D02*
X009018Y013543D01*
X009176Y013702D02*
X008010Y013702D01*
X008010Y013860D02*
X008416Y013860D01*
X008470Y013821D01*
X008529Y013791D01*
X008592Y013770D01*
X008657Y013760D01*
X008930Y013760D01*
X008930Y014180D01*
X008270Y014180D01*
X008270Y014147D01*
X008280Y014082D01*
X008301Y014019D01*
X008331Y013960D01*
X008370Y013906D01*
X008416Y013860D01*
X008301Y014019D02*
X008010Y014019D01*
X008010Y014177D02*
X008270Y014177D01*
X008299Y014336D02*
X008010Y014336D01*
X008010Y014494D02*
X008410Y014494D01*
X008437Y014811D02*
X008010Y014811D01*
X008010Y014970D02*
X008301Y014970D01*
X008250Y015128D02*
X008010Y015128D01*
X008112Y015287D02*
X008258Y015287D01*
X008270Y015445D02*
X008333Y015445D01*
X008429Y015604D02*
X008563Y015604D01*
X007795Y015921D02*
X005996Y015921D01*
X006451Y016079D02*
X006909Y016079D01*
X006750Y016238D02*
X006610Y016238D01*
X006620Y016396D02*
X006740Y016396D01*
X006740Y016555D02*
X006620Y016555D01*
X006519Y016713D02*
X006841Y016713D01*
X009435Y017823D02*
X009650Y017823D01*
X009650Y017981D02*
X009564Y017981D01*
X009610Y018140D02*
X009650Y018140D01*
X009650Y018298D02*
X009597Y018298D01*
X009650Y018457D02*
X009516Y018457D01*
X009650Y018615D02*
X009270Y018615D01*
X009338Y018774D02*
X009650Y018774D01*
X009650Y018932D02*
X009544Y018932D01*
X009609Y019091D02*
X009765Y019091D01*
X009610Y019249D02*
X009924Y019249D01*
X010082Y019408D02*
X009552Y019408D01*
X009388Y019566D02*
X010241Y019566D01*
X010399Y019725D02*
X007508Y019725D01*
X007620Y019612D02*
X007362Y019870D01*
X006998Y019870D01*
X006740Y019612D01*
X006740Y019248D01*
X006998Y018990D01*
X007362Y018990D01*
X007620Y019248D01*
X007620Y019612D01*
X007620Y019566D02*
X008472Y019566D01*
X008308Y019408D02*
X007620Y019408D01*
X007620Y019249D02*
X008250Y019249D01*
X008251Y019091D02*
X007463Y019091D01*
X006897Y019091D02*
X006463Y019091D01*
X006620Y019249D02*
X006740Y019249D01*
X006740Y019408D02*
X006620Y019408D01*
X006620Y019566D02*
X006740Y019566D01*
X006852Y019725D02*
X006508Y019725D01*
X005852Y019725D02*
X005193Y019725D01*
X005350Y019883D02*
X008365Y019883D01*
X008271Y020042D02*
X005350Y020042D01*
X005350Y020200D02*
X008250Y020200D01*
X008267Y021310D02*
X007423Y021310D01*
X005221Y021627D02*
X013111Y021627D01*
X012504Y021468D02*
X017856Y021468D01*
X017384Y021310D02*
X016923Y021310D01*
X017559Y020834D02*
X017914Y020834D01*
X017008Y019725D02*
X023120Y019725D01*
X023120Y019883D02*
X021995Y019883D01*
X022089Y020042D02*
X023120Y020042D01*
X023120Y020200D02*
X022110Y020200D01*
X022072Y020359D02*
X023120Y020359D01*
X023120Y020517D02*
X021955Y020517D01*
X021888Y019566D02*
X023120Y019566D01*
X023120Y019408D02*
X022052Y019408D01*
X022110Y019249D02*
X023120Y019249D01*
X023120Y019091D02*
X022109Y019091D01*
X022044Y018932D02*
X023120Y018932D01*
X023120Y018774D02*
X021838Y018774D01*
X021768Y018590D02*
X021703Y018600D01*
X021430Y018600D01*
X021430Y018180D01*
X021430Y018180D01*
X022090Y018180D01*
X022090Y018213D01*
X022080Y018278D01*
X022059Y018341D01*
X022029Y018400D01*
X021990Y018454D01*
X021944Y018500D01*
X021890Y018539D01*
X021831Y018569D01*
X021768Y018590D01*
X021987Y018457D02*
X023120Y018457D01*
X023120Y018615D02*
X020740Y018615D01*
X020610Y018457D02*
X020873Y018457D01*
X020870Y018454D02*
X020831Y018400D01*
X020801Y018341D01*
X020780Y018278D01*
X020770Y018213D01*
X020770Y018180D01*
X021430Y018180D01*
X021430Y018180D01*
X021430Y017760D01*
X021703Y017760D01*
X021768Y017770D01*
X021831Y017791D01*
X021890Y017821D01*
X021944Y017860D01*
X021990Y017906D01*
X022029Y017960D01*
X022059Y018019D01*
X022080Y018082D01*
X022090Y018147D01*
X022090Y018180D01*
X021430Y018180D01*
X021430Y018180D01*
X021430Y018180D01*
X021430Y018600D01*
X021157Y018600D01*
X021092Y018590D01*
X021029Y018569D01*
X020970Y018539D01*
X020916Y018500D01*
X020870Y018454D01*
X020787Y018298D02*
X020610Y018298D01*
X020610Y018140D02*
X020771Y018140D01*
X020770Y018147D02*
X020780Y018082D01*
X020801Y018019D01*
X020831Y017960D01*
X020870Y017906D01*
X020916Y017860D01*
X020970Y017821D01*
X021029Y017791D01*
X021092Y017770D01*
X021157Y017760D01*
X021430Y017760D01*
X021430Y018180D01*
X020770Y018180D01*
X020770Y018147D01*
X020820Y017981D02*
X020610Y017981D01*
X020610Y017823D02*
X020967Y017823D01*
X021102Y017620D02*
X020941Y017553D01*
X020817Y017429D01*
X020750Y017268D01*
X020750Y017092D01*
X020817Y016931D01*
X020941Y016807D01*
X021102Y016740D01*
X021758Y016740D01*
X021919Y016807D01*
X022043Y016931D01*
X022110Y017092D01*
X022110Y017268D01*
X022043Y017429D01*
X021919Y017553D01*
X021758Y017620D01*
X021102Y017620D01*
X020893Y017506D02*
X020610Y017506D01*
X020610Y017664D02*
X023120Y017664D01*
X023120Y017506D02*
X021967Y017506D01*
X022077Y017347D02*
X023120Y017347D01*
X023120Y017189D02*
X022110Y017189D01*
X022084Y017030D02*
X023120Y017030D01*
X023120Y016872D02*
X021984Y016872D01*
X021916Y016555D02*
X023120Y016555D01*
X023120Y016713D02*
X020610Y016713D01*
X020610Y016555D02*
X020944Y016555D01*
X020941Y016553D02*
X020817Y016429D01*
X020750Y016268D01*
X020750Y016092D01*
X020817Y015931D01*
X020941Y015807D01*
X021102Y015740D01*
X021758Y015740D01*
X021919Y015807D01*
X022043Y015931D01*
X022110Y016092D01*
X022110Y016268D01*
X022043Y016429D01*
X021919Y016553D01*
X021758Y016620D01*
X021102Y016620D01*
X020941Y016553D01*
X020803Y016396D02*
X020610Y016396D01*
X020610Y016238D02*
X020750Y016238D01*
X020756Y016079D02*
X020610Y016079D01*
X020610Y015921D02*
X020827Y015921D01*
X020610Y015762D02*
X021049Y015762D01*
X021102Y015620D02*
X020941Y015553D01*
X020817Y015429D01*
X020750Y015268D01*
X020750Y015092D01*
X020817Y014931D01*
X020941Y014807D01*
X021102Y014740D01*
X021758Y014740D01*
X021919Y014807D01*
X022043Y014931D01*
X022110Y015092D01*
X022110Y015268D01*
X022043Y015429D01*
X021919Y015553D01*
X021758Y015620D01*
X021102Y015620D01*
X021063Y015604D02*
X020610Y015604D01*
X020610Y015445D02*
X020833Y015445D01*
X020758Y015287D02*
X020610Y015287D01*
X020610Y015128D02*
X020750Y015128D01*
X020801Y014970D02*
X020610Y014970D01*
X020610Y014811D02*
X020937Y014811D01*
X021102Y014620D02*
X020941Y014553D01*
X020817Y014429D01*
X020750Y014268D01*
X020750Y014092D01*
X020817Y013931D01*
X020941Y013807D01*
X021102Y013740D01*
X021758Y013740D01*
X021919Y013807D01*
X022043Y013931D01*
X022110Y014092D01*
X022110Y014268D01*
X022043Y014429D01*
X021919Y014553D01*
X021758Y014620D01*
X021102Y014620D01*
X020882Y014494D02*
X020519Y014494D01*
X020610Y014653D02*
X023120Y014653D01*
X023120Y014811D02*
X021923Y014811D01*
X022059Y014970D02*
X023120Y014970D01*
X023120Y015128D02*
X022110Y015128D01*
X022102Y015287D02*
X023120Y015287D01*
X023120Y015445D02*
X022027Y015445D01*
X021797Y015604D02*
X023120Y015604D01*
X023120Y015762D02*
X021811Y015762D01*
X022033Y015921D02*
X023120Y015921D01*
X023120Y016079D02*
X022104Y016079D01*
X022110Y016238D02*
X023120Y016238D01*
X023120Y016396D02*
X022057Y016396D01*
X020876Y016872D02*
X020610Y016872D01*
X020610Y017030D02*
X020776Y017030D01*
X020750Y017189D02*
X020610Y017189D01*
X020610Y017347D02*
X020783Y017347D01*
X020150Y017347D02*
X019077Y017347D01*
X019110Y017189D02*
X020150Y017189D01*
X020150Y017030D02*
X019084Y017030D01*
X018984Y016872D02*
X020150Y016872D01*
X020150Y016713D02*
X018060Y016713D01*
X018916Y016555D02*
X020150Y016555D01*
X020150Y016396D02*
X019057Y016396D01*
X019110Y016238D02*
X020150Y016238D01*
X020150Y016079D02*
X019104Y016079D01*
X019033Y015921D02*
X020150Y015921D01*
X020150Y015762D02*
X018811Y015762D01*
X018758Y015620D02*
X018919Y015553D01*
X019043Y015429D01*
X019110Y015268D01*
X019110Y015092D01*
X019043Y014931D01*
X018919Y014807D01*
X018758Y014740D01*
X018102Y014740D01*
X017941Y014807D01*
X017817Y014931D01*
X017750Y015092D01*
X017750Y015268D01*
X017817Y015429D01*
X017941Y015553D01*
X018102Y015620D01*
X018758Y015620D01*
X018797Y015604D02*
X020150Y015604D01*
X020150Y015445D02*
X019027Y015445D01*
X019102Y015287D02*
X020150Y015287D01*
X020150Y015128D02*
X019110Y015128D01*
X019059Y014970D02*
X020150Y014970D01*
X020150Y014811D02*
X018923Y014811D01*
X018831Y014569D02*
X018768Y014590D01*
X018703Y014600D01*
X018430Y014600D01*
X018430Y014180D01*
X018430Y014180D01*
X019090Y014180D01*
X019090Y014213D01*
X019080Y014278D01*
X019059Y014341D01*
X019029Y014400D01*
X018990Y014454D01*
X018944Y014500D01*
X018890Y014539D01*
X018831Y014569D01*
X018950Y014494D02*
X019869Y014494D01*
X020027Y014653D02*
X017610Y014653D01*
X017610Y014811D02*
X017937Y014811D01*
X017801Y014970D02*
X017610Y014970D01*
X017610Y015128D02*
X017750Y015128D01*
X017758Y015287D02*
X017610Y015287D01*
X017610Y015445D02*
X017833Y015445D01*
X017729Y015604D02*
X018063Y015604D01*
X018049Y015762D02*
X017887Y015762D01*
X017150Y015287D02*
X017072Y015287D01*
X017104Y015128D02*
X017150Y015128D01*
X017150Y014970D02*
X017120Y014970D01*
X017120Y014811D02*
X017150Y014811D01*
X017150Y014653D02*
X017025Y014653D01*
X017610Y014494D02*
X017910Y014494D01*
X017916Y014500D02*
X017870Y014454D01*
X017831Y014400D01*
X017801Y014341D01*
X017780Y014278D01*
X017770Y014213D01*
X017770Y014180D01*
X018430Y014180D01*
X018430Y014180D01*
X018430Y013760D01*
X018703Y013760D01*
X018768Y013770D01*
X018831Y013791D01*
X018890Y013821D01*
X018944Y013860D01*
X019235Y013860D01*
X019393Y014019D02*
X019059Y014019D01*
X019080Y014082D01*
X019090Y014147D01*
X019090Y014180D01*
X018430Y014180D01*
X018430Y014180D01*
X018430Y014180D01*
X018430Y014600D01*
X018157Y014600D01*
X018092Y014590D01*
X018029Y014569D01*
X017970Y014539D01*
X017916Y014500D01*
X017799Y014336D02*
X017610Y014336D01*
X017610Y014177D02*
X017770Y014177D01*
X017770Y014180D02*
X017770Y014147D01*
X017780Y014082D01*
X017801Y014019D01*
X017831Y013960D01*
X017870Y013906D01*
X017916Y013860D01*
X017610Y013860D01*
X017610Y013702D02*
X019076Y013702D01*
X018944Y013860D02*
X018990Y013906D01*
X019029Y013960D01*
X019059Y014019D01*
X019090Y014177D02*
X019552Y014177D01*
X019710Y014336D02*
X019061Y014336D01*
X018430Y014336D02*
X018430Y014336D01*
X018430Y014180D02*
X017770Y014180D01*
X017801Y014019D02*
X017610Y014019D01*
X017916Y013860D02*
X017970Y013821D01*
X018029Y013791D01*
X018092Y013770D01*
X018157Y013760D01*
X018430Y013760D01*
X018430Y014180D01*
X018430Y014177D02*
X018430Y014177D01*
X018430Y014019D02*
X018430Y014019D01*
X018430Y013860D02*
X018430Y013860D01*
X018759Y013385D02*
X017610Y013385D01*
X017610Y013543D02*
X018918Y013543D01*
X018650Y013226D02*
X017098Y013226D01*
X016940Y013068D02*
X018650Y013068D01*
X018650Y012909D02*
X016776Y012909D01*
X016443Y012592D02*
X015910Y012592D01*
X015910Y012751D02*
X016284Y012751D01*
X016126Y012909D02*
X015910Y012909D01*
X015940Y013068D02*
X015967Y013068D01*
X015809Y012434D02*
X016601Y012434D01*
X014723Y010849D02*
X014721Y010849D01*
X013726Y010849D02*
X013692Y010849D01*
X013168Y010849D02*
X010410Y010849D01*
X010410Y011007D02*
X013010Y011007D01*
X013010Y011166D02*
X010410Y011166D01*
X010410Y011324D02*
X013010Y011324D01*
X010733Y009105D02*
X010410Y009105D01*
X010410Y008947D02*
X010574Y008947D01*
X010490Y008788D02*
X010410Y008788D01*
X010410Y008630D02*
X010490Y008630D01*
X010517Y008471D02*
X010410Y008471D01*
X010410Y008313D02*
X010675Y008313D01*
X009787Y007362D02*
X012820Y007362D01*
X012978Y007203D02*
X009628Y007203D01*
X009696Y005777D02*
X010164Y005777D01*
X010036Y005618D02*
X009824Y005618D01*
X009870Y005460D02*
X009990Y005460D01*
X009990Y005301D02*
X009870Y005301D01*
X009870Y005143D02*
X009990Y005143D01*
X009990Y004984D02*
X009870Y004984D01*
X009859Y004826D02*
X010001Y004826D01*
X010081Y004667D02*
X009779Y004667D01*
X008206Y005777D02*
X008202Y005777D01*
X008060Y005618D02*
X008043Y005618D01*
X008010Y005460D02*
X008011Y005460D01*
X008010Y005301D02*
X008010Y005301D01*
X008010Y005143D02*
X008010Y005143D01*
X008010Y004984D02*
X008010Y004984D01*
X008010Y004826D02*
X008026Y004826D01*
X007992Y004667D02*
X008109Y004667D01*
X007526Y004192D02*
X015870Y004192D01*
X015716Y004033D02*
X007370Y004033D01*
X007215Y003875D02*
X015562Y003875D01*
X015408Y003716D02*
X007060Y003716D01*
X006905Y003558D02*
X015254Y003558D01*
X015100Y003399D02*
X006750Y003399D01*
X006594Y003241D02*
X014946Y003241D01*
X014792Y003082D02*
X006439Y003082D01*
X006284Y002924D02*
X014638Y002924D01*
X014153Y002765D02*
X013707Y002765D01*
X013679Y002793D02*
X013518Y002860D01*
X013342Y002860D01*
X013181Y002793D01*
X013057Y002669D01*
X012990Y002508D01*
X012990Y001852D01*
X013057Y001691D01*
X013181Y001567D01*
X013342Y001500D01*
X013518Y001500D01*
X013679Y001567D01*
X013803Y001691D01*
X013870Y001852D01*
X013870Y002508D01*
X013803Y002669D01*
X013679Y002793D01*
X013829Y002607D02*
X014031Y002607D01*
X013990Y002448D02*
X013870Y002448D01*
X013870Y002290D02*
X013990Y002290D01*
X013990Y002131D02*
X013870Y002131D01*
X013870Y001973D02*
X013990Y001973D01*
X014006Y001814D02*
X013854Y001814D01*
X013768Y001656D02*
X014092Y001656D01*
X013092Y001656D02*
X012768Y001656D01*
X012803Y001691D02*
X012870Y001852D01*
X012870Y002508D01*
X012803Y002669D01*
X012679Y002793D01*
X012518Y002860D01*
X012342Y002860D01*
X012181Y002793D01*
X012057Y002669D01*
X011990Y002508D01*
X011990Y001852D01*
X012057Y001691D01*
X012181Y001567D01*
X012342Y001500D01*
X012518Y001500D01*
X012679Y001567D01*
X012803Y001691D01*
X012854Y001814D02*
X013006Y001814D01*
X012990Y001973D02*
X012870Y001973D01*
X012870Y002131D02*
X012990Y002131D01*
X012990Y002290D02*
X012870Y002290D01*
X012870Y002448D02*
X012990Y002448D01*
X013031Y002607D02*
X012829Y002607D01*
X012707Y002765D02*
X013153Y002765D01*
X012153Y002765D02*
X011707Y002765D01*
X011679Y002793D02*
X011518Y002860D01*
X011342Y002860D01*
X011181Y002793D01*
X011057Y002669D01*
X010990Y002508D01*
X010990Y001852D01*
X011057Y001691D01*
X011181Y001567D01*
X011342Y001500D01*
X011518Y001500D01*
X011679Y001567D01*
X011803Y001691D01*
X011870Y001852D01*
X011870Y002508D01*
X011803Y002669D01*
X011679Y002793D01*
X011829Y002607D02*
X012031Y002607D01*
X011990Y002448D02*
X011870Y002448D01*
X011870Y002290D02*
X011990Y002290D01*
X011990Y002131D02*
X011870Y002131D01*
X011870Y001973D02*
X011990Y001973D01*
X012006Y001814D02*
X011854Y001814D01*
X011768Y001656D02*
X012092Y001656D01*
X011092Y001656D02*
X010768Y001656D01*
X010803Y001691D02*
X010870Y001852D01*
X010870Y002508D01*
X010803Y002669D01*
X010679Y002793D01*
X010518Y002860D01*
X010342Y002860D01*
X010181Y002793D01*
X010057Y002669D01*
X009990Y002508D01*
X009990Y001852D01*
X010057Y001691D01*
X010181Y001567D01*
X010342Y001500D01*
X010518Y001500D01*
X010679Y001567D01*
X010803Y001691D01*
X010854Y001814D02*
X011006Y001814D01*
X010990Y001973D02*
X010870Y001973D01*
X010870Y002131D02*
X010990Y002131D01*
X010990Y002290D02*
X010870Y002290D01*
X010870Y002448D02*
X010990Y002448D01*
X011031Y002607D02*
X010829Y002607D01*
X010707Y002765D02*
X011153Y002765D01*
X010153Y002765D02*
X009670Y002765D01*
X009650Y002779D02*
X009591Y002809D01*
X009528Y002830D01*
X009463Y002840D01*
X009430Y002840D01*
X009430Y002180D01*
X009430Y002180D01*
X009850Y002180D01*
X009850Y002453D01*
X009840Y002518D01*
X009819Y002581D01*
X009789Y002640D01*
X009750Y002694D01*
X009704Y002740D01*
X009650Y002779D01*
X009430Y002765D02*
X009430Y002765D01*
X009430Y002840D02*
X009397Y002840D01*
X009332Y002830D01*
X009269Y002809D01*
X009210Y002779D01*
X009156Y002740D01*
X009110Y002694D01*
X009071Y002640D01*
X009041Y002581D01*
X009020Y002518D01*
X009010Y002453D01*
X009010Y002180D01*
X009430Y002180D01*
X009430Y002180D01*
X009430Y002180D01*
X009430Y002840D01*
X009430Y002607D02*
X009430Y002607D01*
X009430Y002448D02*
X009430Y002448D01*
X009430Y002290D02*
X009430Y002290D01*
X009430Y002180D02*
X009010Y002180D01*
X009010Y001907D01*
X009020Y001842D01*
X009041Y001779D01*
X009071Y001720D01*
X009110Y001666D01*
X009156Y001620D01*
X009210Y001581D01*
X009269Y001551D01*
X009332Y001530D01*
X009397Y001520D01*
X009430Y001520D01*
X009463Y001520D01*
X009528Y001530D01*
X009591Y001551D01*
X009650Y001581D01*
X009704Y001620D01*
X009750Y001666D01*
X009789Y001720D01*
X009819Y001779D01*
X009840Y001842D01*
X009850Y001907D01*
X009850Y002180D01*
X009430Y002180D01*
X009430Y001520D01*
X009430Y002180D01*
X009430Y002180D01*
X009430Y002131D02*
X009430Y002131D01*
X009430Y001973D02*
X009430Y001973D01*
X009430Y001814D02*
X009430Y001814D01*
X009430Y001656D02*
X009430Y001656D01*
X009739Y001656D02*
X010092Y001656D01*
X010006Y001814D02*
X009831Y001814D01*
X009850Y001973D02*
X009990Y001973D01*
X009990Y002131D02*
X009850Y002131D01*
X009850Y002290D02*
X009990Y002290D01*
X009990Y002448D02*
X009850Y002448D01*
X009806Y002607D02*
X010031Y002607D01*
X009190Y002765D02*
X008707Y002765D01*
X008679Y002793D02*
X008518Y002860D01*
X008342Y002860D01*
X008181Y002793D01*
X008057Y002669D01*
X007990Y002508D01*
X007990Y001852D01*
X008057Y001691D01*
X008181Y001567D01*
X008342Y001500D01*
X008518Y001500D01*
X008679Y001567D01*
X008803Y001691D01*
X008870Y001852D01*
X008870Y002508D01*
X008803Y002669D01*
X008679Y002793D01*
X008829Y002607D02*
X009054Y002607D01*
X009010Y002448D02*
X008870Y002448D01*
X008870Y002290D02*
X009010Y002290D01*
X009010Y002131D02*
X008870Y002131D01*
X008870Y001973D02*
X009010Y001973D01*
X009029Y001814D02*
X008854Y001814D01*
X008768Y001656D02*
X009121Y001656D01*
X008092Y001656D02*
X007768Y001656D01*
X007803Y001691D02*
X007870Y001852D01*
X007870Y002508D01*
X007803Y002669D01*
X007679Y002793D01*
X007518Y002860D01*
X007342Y002860D01*
X007181Y002793D01*
X007057Y002669D01*
X006990Y002508D01*
X006990Y001852D01*
X007057Y001691D01*
X007181Y001567D01*
X007342Y001500D01*
X007518Y001500D01*
X007679Y001567D01*
X007803Y001691D01*
X007854Y001814D02*
X008006Y001814D01*
X007990Y001973D02*
X007870Y001973D01*
X007870Y002131D02*
X007990Y002131D01*
X007990Y002290D02*
X007870Y002290D01*
X007870Y002448D02*
X007990Y002448D01*
X008031Y002607D02*
X007829Y002607D01*
X007707Y002765D02*
X008153Y002765D01*
X007153Y002765D02*
X006707Y002765D01*
X006679Y002793D02*
X006518Y002860D01*
X006342Y002860D01*
X006181Y002793D01*
X006057Y002669D01*
X005990Y002508D01*
X005990Y001852D01*
X006057Y001691D01*
X006181Y001567D01*
X006342Y001500D01*
X006518Y001500D01*
X006679Y001567D01*
X006803Y001691D01*
X006870Y001852D01*
X006870Y002508D01*
X006803Y002669D01*
X006679Y002793D01*
X006829Y002607D02*
X007031Y002607D01*
X006990Y002448D02*
X006870Y002448D01*
X006870Y002290D02*
X006990Y002290D01*
X006990Y002131D02*
X006870Y002131D01*
X006870Y001973D02*
X006990Y001973D01*
X007006Y001814D02*
X006854Y001814D01*
X006768Y001656D02*
X007092Y001656D01*
X006092Y001656D02*
X005768Y001656D01*
X005854Y001814D02*
X006006Y001814D01*
X005990Y001973D02*
X005870Y001973D01*
X005870Y002131D02*
X005990Y002131D01*
X005990Y002290D02*
X005870Y002290D01*
X005870Y002448D02*
X005990Y002448D01*
X005974Y002607D02*
X006031Y002607D01*
X006129Y002765D02*
X006153Y002765D01*
X005951Y003241D02*
X005637Y003241D01*
X005795Y003082D02*
X005475Y003082D01*
X005313Y002924D02*
X005640Y002924D01*
X005153Y002765D02*
X005152Y002765D01*
X005031Y002607D02*
X004990Y002607D01*
X004990Y002448D02*
X004870Y002448D01*
X004870Y002290D02*
X004990Y002290D01*
X004990Y002131D02*
X004870Y002131D01*
X004870Y001973D02*
X004990Y001973D01*
X005006Y001814D02*
X004854Y001814D01*
X004768Y001656D02*
X005092Y001656D01*
X004092Y001656D02*
X003768Y001656D01*
X003803Y001691D02*
X003870Y001852D01*
X003870Y002508D01*
X003803Y002669D01*
X003679Y002793D01*
X003518Y002860D01*
X003342Y002860D01*
X003181Y002793D01*
X003057Y002669D01*
X002990Y002508D01*
X002990Y001852D01*
X003057Y001691D01*
X003181Y001567D01*
X003342Y001500D01*
X003518Y001500D01*
X003679Y001567D01*
X003803Y001691D01*
X003854Y001814D02*
X004006Y001814D01*
X003990Y001973D02*
X003870Y001973D01*
X003870Y002131D02*
X003990Y002131D01*
X003990Y002290D02*
X003870Y002290D01*
X003870Y002448D02*
X003990Y002448D01*
X004031Y002607D02*
X003829Y002607D01*
X003707Y002765D02*
X004153Y002765D01*
X004696Y003558D02*
X005303Y003558D01*
X005465Y003716D02*
X004778Y003716D01*
X004783Y003875D02*
X005627Y003875D01*
X005789Y004033D02*
X004716Y004033D01*
X004779Y004667D02*
X005081Y004667D01*
X005001Y004826D02*
X004859Y004826D01*
X004870Y004984D02*
X004990Y004984D01*
X004990Y005143D02*
X004870Y005143D01*
X004870Y005301D02*
X004990Y005301D01*
X004990Y005460D02*
X004870Y005460D01*
X004824Y005618D02*
X005036Y005618D01*
X005164Y005777D02*
X004696Y005777D01*
X006608Y004192D02*
X006882Y004192D01*
X006770Y004350D02*
X007037Y004350D01*
X006932Y004509D02*
X007192Y004509D01*
X006727Y004033D02*
X006446Y004033D01*
X006571Y003875D02*
X006284Y003875D01*
X006416Y003716D02*
X006123Y003716D01*
X006261Y003558D02*
X005961Y003558D01*
X006106Y003399D02*
X005799Y003399D01*
X003153Y002765D02*
X002707Y002765D01*
X002829Y002607D02*
X003031Y002607D01*
X002990Y002448D02*
X002870Y002448D01*
X002870Y002290D02*
X002990Y002290D01*
X002990Y002131D02*
X002870Y002131D01*
X002870Y001973D02*
X002990Y001973D01*
X003006Y001814D02*
X002854Y001814D01*
X002768Y001656D02*
X003092Y001656D01*
X005685Y008313D02*
X006350Y008313D01*
X006350Y008471D02*
X005843Y008471D01*
X005870Y008630D02*
X006350Y008630D01*
X006350Y008788D02*
X005870Y008788D01*
X005786Y008947D02*
X006350Y008947D01*
X006350Y009105D02*
X005627Y009105D01*
X006210Y011483D02*
X006357Y011483D01*
X006210Y011641D02*
X007116Y011641D01*
X007274Y011800D02*
X006210Y011800D01*
X006210Y011958D02*
X006564Y011958D01*
X006603Y011942D02*
X006757Y011942D01*
X006900Y012001D01*
X007009Y012110D01*
X007068Y012253D01*
X007068Y012407D01*
X007009Y012550D01*
X006900Y012659D01*
X006757Y012718D01*
X006603Y012718D01*
X006460Y012659D01*
X006351Y012550D01*
X006292Y012407D01*
X006292Y012253D01*
X006351Y012110D01*
X006460Y012001D01*
X006603Y011942D01*
X006796Y011958D02*
X007433Y011958D01*
X007591Y012117D02*
X007012Y012117D01*
X007068Y012275D02*
X007750Y012275D01*
X007908Y012434D02*
X007057Y012434D01*
X006967Y012592D02*
X008067Y012592D01*
X008225Y012751D02*
X006210Y012751D01*
X006210Y012592D02*
X006393Y012592D01*
X006303Y012434D02*
X006210Y012434D01*
X006210Y012275D02*
X006292Y012275D01*
X006348Y012117D02*
X006210Y012117D01*
X006440Y013068D02*
X006920Y013068D01*
X006762Y013226D02*
X006598Y013226D01*
X006620Y013385D02*
X006740Y013385D01*
X006740Y013543D02*
X006620Y013543D01*
X006531Y013702D02*
X006829Y013702D01*
X006988Y013860D02*
X006372Y013860D01*
X007372Y013860D02*
X007550Y013860D01*
X008930Y013860D02*
X008930Y013860D01*
X008930Y014019D02*
X008930Y014019D01*
X008930Y014177D02*
X008930Y014177D01*
X008930Y014336D02*
X008930Y014336D01*
X008930Y014494D02*
X008930Y014494D01*
X009450Y014494D02*
X009650Y014494D01*
X009650Y014336D02*
X009561Y014336D01*
X009590Y014177D02*
X009650Y014177D01*
X005450Y014336D02*
X004870Y014336D01*
X004744Y014494D02*
X004738Y014494D01*
X004585Y014653D02*
X004246Y014653D01*
X004350Y014756D02*
X004350Y014930D01*
X003930Y014930D01*
X003930Y014510D01*
X004104Y014510D01*
X004350Y014756D01*
X004350Y014811D02*
X004490Y014811D01*
X004465Y014970D02*
X004350Y014970D01*
X003930Y014970D02*
X003930Y014970D01*
X003930Y014930D02*
X003930Y015350D01*
X003756Y015350D01*
X003510Y015104D01*
X003510Y014930D01*
X003930Y014930D01*
X003930Y014930D01*
X003930Y014930D01*
X003930Y014510D01*
X003756Y014510D01*
X003510Y014756D01*
X003510Y014930D01*
X003930Y014930D01*
X003930Y014811D02*
X003930Y014811D01*
X003930Y014653D02*
X003930Y014653D01*
X004122Y014494D02*
X003510Y014494D01*
X003510Y014336D02*
X003990Y014336D01*
X003990Y014177D02*
X003510Y014177D01*
X003510Y014019D02*
X003990Y014019D01*
X004128Y013860D02*
X003510Y013860D01*
X003510Y013702D02*
X004204Y013702D01*
X003614Y014653D02*
X003510Y014653D01*
X003510Y014970D02*
X003510Y014970D01*
X003510Y015128D02*
X003534Y015128D01*
X003510Y015287D02*
X003693Y015287D01*
X003930Y015287D02*
X003930Y015287D01*
X003930Y015128D02*
X003930Y015128D01*
X003990Y015445D02*
X003510Y015445D01*
X003510Y015604D02*
X003831Y015604D01*
X003673Y015762D02*
X003510Y015762D01*
X003510Y015921D02*
X003514Y015921D01*
X003672Y016713D02*
X003716Y016713D01*
X003050Y020517D02*
X002850Y020517D01*
X003050Y020676D02*
X002590Y020676D01*
X002841Y020834D02*
X003050Y020834D01*
X003050Y020993D02*
X002944Y020993D01*
X002980Y021151D02*
X003050Y021151D01*
X003050Y021310D02*
X002968Y021310D01*
X002899Y021468D02*
X003050Y021468D01*
X003050Y021627D02*
X002709Y021627D01*
X002792Y021785D02*
X003050Y021785D01*
X003050Y021944D02*
X002923Y021944D01*
X002980Y022102D02*
X003050Y022102D01*
X003050Y022261D02*
X002980Y022261D01*
X002922Y022419D02*
X003050Y022419D01*
X003052Y022578D02*
X002790Y022578D01*
X003031Y022895D02*
X003369Y022895D01*
X003269Y023053D02*
X003528Y023053D01*
X003417Y023212D02*
X003650Y023212D01*
X003650Y023370D02*
X003482Y023370D01*
X003540Y023529D02*
X003703Y023529D01*
X003540Y023687D02*
X017929Y023687D01*
X017929Y023757D02*
X017929Y023603D01*
X017988Y023460D01*
X018098Y023351D01*
X018240Y023292D01*
X018395Y023292D01*
X018537Y023351D01*
X018647Y023460D01*
X018706Y023603D01*
X018706Y023757D01*
X018647Y023900D01*
X018537Y024009D01*
X018395Y024068D01*
X018240Y024068D01*
X018098Y024009D01*
X017988Y023900D01*
X017929Y023757D01*
X017966Y023846D02*
X003540Y023846D01*
X003477Y024004D02*
X018093Y024004D01*
X018542Y024004D02*
X021383Y024004D01*
X021320Y023846D02*
X018669Y023846D01*
X018706Y023687D02*
X021320Y023687D01*
X021320Y023529D02*
X018675Y023529D01*
X018556Y023370D02*
X021378Y023370D01*
X021443Y023212D02*
X012474Y023212D01*
X012315Y023370D02*
X018079Y023370D01*
X017960Y023529D02*
X012157Y023529D01*
X012632Y023053D02*
X013681Y023053D01*
X014179Y023053D02*
X021591Y023053D01*
X021829Y022895D02*
X015192Y022895D01*
X014167Y022261D02*
X014133Y022261D01*
X014430Y020359D02*
X014430Y020359D01*
X013247Y019091D02*
X012995Y019091D01*
X014210Y016713D02*
X014244Y016713D01*
X014616Y016713D02*
X015341Y016713D01*
X015240Y016555D02*
X014774Y016555D01*
X014850Y016396D02*
X015240Y016396D01*
X015250Y016238D02*
X014850Y016238D01*
X014798Y016079D02*
X015354Y016079D01*
X015345Y015921D02*
X014639Y015921D01*
X015951Y016079D02*
X016409Y016079D01*
X016250Y016238D02*
X016110Y016238D01*
X016120Y016396D02*
X016240Y016396D01*
X016240Y016555D02*
X016120Y016555D01*
X016019Y016713D02*
X016341Y016713D01*
X018967Y017506D02*
X020150Y017506D01*
X021430Y017823D02*
X021430Y017823D01*
X021430Y017981D02*
X021430Y017981D01*
X021430Y018140D02*
X021430Y018140D01*
X021430Y018298D02*
X021430Y018298D01*
X021430Y018457D02*
X021430Y018457D01*
X021022Y018774D02*
X020899Y018774D01*
X022073Y018298D02*
X023120Y018298D01*
X023120Y018140D02*
X022089Y018140D01*
X022040Y017981D02*
X023120Y017981D01*
X023120Y017823D02*
X021893Y017823D01*
X021978Y014494D02*
X023120Y014494D01*
X023120Y014336D02*
X022082Y014336D01*
X022110Y014177D02*
X023120Y014177D01*
X023120Y014019D02*
X022079Y014019D01*
X021972Y013860D02*
X023120Y013860D01*
X023120Y013702D02*
X019727Y013702D01*
X019885Y013860D02*
X020888Y013860D01*
X020781Y014019D02*
X020044Y014019D01*
X020202Y014177D02*
X020750Y014177D01*
X020778Y014336D02*
X020361Y014336D01*
X019568Y013543D02*
X023120Y013543D01*
X023120Y013385D02*
X019410Y013385D01*
X018430Y014494D02*
X018430Y014494D01*
X017150Y013860D02*
X016872Y013860D01*
X016488Y013860D02*
X016410Y013860D01*
X019680Y011680D02*
X019680Y011680D01*
X022049Y011958D02*
X023120Y011958D01*
X023120Y011800D02*
X022277Y011800D01*
X022420Y011641D02*
X023120Y011641D01*
X023120Y011483D02*
X022485Y011483D01*
X022540Y011324D02*
X023120Y011324D01*
X023120Y011166D02*
X022540Y011166D01*
X022539Y011007D02*
X023120Y011007D01*
X023120Y010849D02*
X022473Y010849D01*
X022406Y010690D02*
X023120Y010690D01*
X023120Y010532D02*
X022248Y010532D01*
X023120Y021944D02*
X020665Y021944D01*
X020823Y022102D02*
X023120Y022102D01*
X023120Y022261D02*
X020922Y022261D01*
X020922Y022419D02*
X023120Y022419D01*
X023120Y022578D02*
X020922Y022578D01*
X020785Y022736D02*
X023120Y022736D01*
X023120Y022895D02*
X022531Y022895D01*
X022769Y023053D02*
X023120Y023053D01*
X023120Y023212D02*
X022917Y023212D01*
X022982Y023370D02*
X023120Y023370D01*
X023120Y023529D02*
X023040Y023529D01*
X023040Y023687D02*
X023120Y023687D01*
X023120Y023846D02*
X023040Y023846D01*
X022977Y024004D02*
X023120Y024004D01*
X023120Y024163D02*
X022911Y024163D01*
X022755Y024321D02*
X023120Y024321D01*
X021605Y024321D02*
X003255Y024321D01*
X003411Y024163D02*
X021449Y024163D01*
X003611Y021627D02*
X003510Y021627D01*
X003211Y022736D02*
X001490Y022736D01*
X001490Y022578D02*
X001570Y022578D01*
X001490Y022895D02*
X002329Y022895D01*
X002091Y023053D02*
X001490Y023053D01*
X001490Y023212D02*
X001943Y023212D01*
X001878Y023370D02*
X001490Y023370D01*
X001490Y023529D02*
X001820Y023529D01*
X001820Y023687D02*
X001490Y023687D01*
X001490Y023846D02*
X001820Y023846D01*
X001883Y024004D02*
X001490Y024004D01*
X001490Y024163D02*
X001949Y024163D01*
X002105Y024321D02*
X001490Y024321D01*
X001490Y021785D02*
X001568Y021785D01*
X001490Y021627D02*
X001651Y021627D01*
X001519Y020834D02*
X001490Y020834D01*
X001490Y020676D02*
X001770Y020676D01*
X001510Y020517D02*
X001490Y020517D01*
X001490Y012751D02*
X001610Y012751D01*
X001585Y012592D02*
X001490Y012592D01*
X001490Y011800D02*
X001553Y011800D01*
X001490Y011641D02*
X001686Y011641D01*
X001504Y010849D02*
X001490Y010849D01*
X001490Y010690D02*
X001756Y010690D01*
X001524Y010532D02*
X001490Y010532D01*
X001490Y009739D02*
X001638Y009739D01*
X001573Y009581D02*
X001490Y009581D01*
D20*
X003280Y009580D02*
X003280Y013180D01*
X002980Y013480D01*
X002980Y013780D01*
X002380Y014380D01*
X002180Y014180D01*
X002180Y015180D02*
X001480Y015580D01*
X001480Y019780D01*
X002680Y019780D01*
X003280Y020380D01*
X003280Y022480D01*
X003880Y023080D01*
X003880Y023380D01*
X011980Y023380D01*
X013430Y021930D01*
X013480Y021880D01*
X013930Y022680D02*
X014080Y022780D01*
X014880Y022780D01*
X015680Y022430D01*
X015580Y020980D02*
X014080Y020980D01*
X013930Y020805D01*
X013480Y020080D02*
X013430Y020055D01*
X013480Y020080D02*
X012880Y020680D01*
X011680Y020680D01*
X009880Y018880D01*
X009880Y014080D01*
X007180Y011380D01*
X006580Y011380D01*
X004780Y009580D01*
X003280Y009580D01*
X004430Y010430D02*
X004480Y010480D01*
X005380Y010480D01*
X005980Y011080D01*
X005980Y013480D01*
X006180Y013430D01*
X005680Y014080D02*
X005680Y015930D01*
X006180Y016430D01*
X007780Y015280D02*
X008680Y016180D01*
X008930Y016180D01*
X008680Y016780D02*
X008680Y017080D01*
X008930Y017180D01*
X008680Y016780D02*
X008080Y016180D01*
X008080Y015880D01*
X007180Y014980D01*
X007180Y014930D01*
X007780Y015280D02*
X007780Y013480D01*
X007180Y013480D01*
X007180Y013430D01*
X005680Y014080D02*
X004480Y014080D01*
X004430Y014180D01*
X004780Y014980D02*
X004930Y014930D01*
X004780Y014980D02*
X003580Y016180D01*
X003580Y016480D01*
X003280Y016780D01*
X003280Y017680D01*
X002780Y018180D01*
X002180Y018180D01*
X002180Y017180D02*
X002430Y017180D01*
X003280Y016480D01*
X003280Y013480D01*
X003880Y012880D01*
X003880Y012580D01*
X003930Y012555D01*
X006880Y011080D02*
X009580Y011080D01*
X009580Y013480D01*
X010180Y014080D01*
X010180Y015880D01*
X011680Y017380D01*
X011930Y017180D01*
X011680Y016780D02*
X012880Y016780D01*
X012880Y018880D01*
X012580Y019180D01*
X011930Y019180D01*
X013930Y017930D02*
X014080Y017980D01*
X014980Y017980D01*
X014980Y018280D01*
X015580Y018880D01*
X015580Y019480D01*
X015680Y019430D01*
X016680Y017930D02*
X016780Y017980D01*
X017380Y017980D01*
X017380Y018580D01*
X017980Y019180D01*
X018430Y019180D01*
X018430Y018180D02*
X017380Y017380D01*
X017380Y016480D01*
X017080Y016480D01*
X016680Y016430D01*
X015680Y016430D02*
X015580Y015980D01*
X015580Y015580D01*
X014230Y014180D01*
X013930Y014180D01*
X013780Y013780D02*
X013330Y014180D01*
X011930Y014180D01*
X010780Y014080D02*
X010780Y015280D01*
X011680Y016180D01*
X011930Y016180D01*
X011680Y016780D02*
X010480Y015580D01*
X010480Y014080D01*
X009880Y013480D01*
X009880Y010780D01*
X008680Y010780D01*
X006880Y008980D01*
X006880Y004780D01*
X004430Y002380D01*
X004430Y002180D01*
X005430Y002180D02*
X005430Y002380D01*
X007780Y004780D01*
X007780Y005680D01*
X010180Y008080D01*
X010180Y013480D01*
X010780Y014080D01*
X013780Y013780D02*
X016180Y013780D01*
X016180Y013180D01*
X016780Y012580D01*
X018880Y012580D01*
X018880Y013180D01*
X020380Y014680D01*
X020380Y018580D01*
X020980Y019180D01*
X021430Y019180D01*
X018430Y021180D02*
X017580Y021180D01*
X017380Y020980D01*
X016680Y020930D01*
X015680Y020930D02*
X015580Y020980D01*
X017830Y017030D02*
X018430Y017180D01*
X017830Y017030D02*
X017830Y016680D01*
X016780Y015280D01*
X016780Y014980D01*
X016680Y014930D01*
X017380Y015580D02*
X017980Y016180D01*
X018430Y016180D01*
X017380Y015580D02*
X017380Y013480D01*
X016780Y013480D01*
X016680Y013430D01*
X015680Y013430D02*
X015680Y012630D01*
X014980Y011980D01*
X014980Y010780D01*
X014680Y010480D01*
X014080Y010480D01*
X013930Y010430D01*
X014680Y010180D02*
X014680Y009430D01*
X014680Y009280D01*
X015280Y009280D01*
X016180Y008380D01*
X016180Y004180D01*
X014430Y002380D01*
X014430Y002180D01*
X016780Y005980D02*
X020680Y002130D01*
X020930Y002130D01*
X016780Y005980D02*
X016780Y007480D01*
X017680Y008380D01*
X017680Y008430D01*
X018280Y008680D02*
X018280Y008080D01*
X017680Y007480D01*
X017680Y007430D01*
X017680Y006430D02*
X018230Y006430D01*
X019180Y007480D01*
X019180Y008430D01*
X018280Y008680D02*
X019180Y009430D01*
X016780Y008680D02*
X016780Y011380D01*
X017380Y011380D01*
X017430Y011430D01*
X015930Y011430D02*
X015880Y011380D01*
X015280Y011380D01*
X015280Y010780D01*
X014680Y010180D01*
X006880Y011080D02*
X004780Y008980D01*
X004780Y007780D01*
X002430Y005380D01*
X002430Y005180D01*
X006430Y005180D02*
X006580Y005730D01*
X006580Y010180D01*
X007180Y017930D02*
X007180Y017980D01*
X007780Y017980D01*
X007780Y018280D01*
X008680Y019180D01*
X008930Y019180D01*
X008680Y020980D02*
X007180Y020980D01*
X007180Y020930D01*
X006180Y020930D02*
X005130Y020930D01*
X004430Y020805D01*
X005230Y022680D02*
X005980Y022480D01*
X006180Y022430D01*
X005230Y022680D02*
X004430Y022680D01*
X008680Y020980D02*
X008930Y021180D01*
D21*
X006580Y010180D03*
X016780Y008680D03*
D22*
X018293Y002055D03*
X006680Y012330D03*
X010180Y020330D03*
X018318Y023680D03*
X019730Y020430D03*
X004395Y003805D03*
M02*
