G75*
G70*
%OFA0B0*%
%FSLAX24Y24*%
%IPPOS*%
%LPD*%
%AMOC8*
5,1,8,0,0,1.08239X$1,22.5*
%
%ADD10C,0.0000*%
%ADD11C,0.0160*%
%ADD12R,0.0550X0.0050*%
%ADD13R,0.1050X0.0050*%
%ADD14R,0.1450X0.0050*%
%ADD15R,0.1650X0.0050*%
%ADD16R,0.1900X0.0050*%
%ADD17R,0.2050X0.0050*%
%ADD18R,0.2150X0.0050*%
%ADD19R,0.2300X0.0050*%
%ADD20R,0.2450X0.0050*%
%ADD21R,0.2600X0.0050*%
%ADD22R,0.2700X0.0050*%
%ADD23R,0.2750X0.0050*%
%ADD24R,0.2850X0.0050*%
%ADD25R,0.2950X0.0050*%
%ADD26R,0.3000X0.0050*%
%ADD27R,0.3050X0.0050*%
%ADD28R,0.1550X0.0050*%
%ADD29R,0.3100X0.0050*%
%ADD30R,0.5700X0.0050*%
%ADD31R,0.5850X0.0050*%
%ADD32R,0.6100X0.0050*%
%ADD33R,0.6150X0.0050*%
%ADD34R,0.6350X0.0050*%
%ADD35R,0.6400X0.0050*%
%ADD36R,0.7100X0.0050*%
%ADD37R,0.0050X0.0050*%
%ADD38R,0.7550X0.0050*%
%ADD39R,0.1800X0.0050*%
%ADD40R,1.0550X0.0050*%
%ADD41R,1.0850X0.0050*%
%ADD42R,1.1100X0.0050*%
%ADD43R,1.1200X0.0050*%
%ADD44R,0.6800X0.0050*%
%ADD45R,0.4200X0.0050*%
%ADD46R,0.6750X0.0050*%
%ADD47R,0.3850X0.0050*%
%ADD48R,0.6700X0.0050*%
%ADD49R,0.3750X0.0050*%
%ADD50R,0.3400X0.0050*%
%ADD51R,0.6650X0.0050*%
%ADD52R,0.6600X0.0050*%
%ADD53R,0.6550X0.0050*%
%ADD54R,0.2100X0.0050*%
%ADD55R,0.6450X0.0050*%
%ADD56R,0.1300X0.0050*%
%ADD57R,0.1100X0.0050*%
%ADD58R,0.0900X0.0050*%
%ADD59R,0.0750X0.0050*%
%ADD60R,0.6300X0.0050*%
%ADD61R,0.0650X0.0050*%
%ADD62R,0.6250X0.0050*%
%ADD63R,0.0600X0.0050*%
%ADD64R,0.6050X0.0050*%
%ADD65R,0.5950X0.0050*%
%ADD66R,0.5800X0.0050*%
%ADD67R,0.5600X0.0050*%
%ADD68R,0.5500X0.0050*%
%ADD69R,0.5400X0.0050*%
%ADD70R,0.5300X0.0050*%
%ADD71R,0.5200X0.0050*%
%ADD72R,0.5100X0.0050*%
%ADD73R,0.1200X0.0050*%
%ADD74R,0.3500X0.0050*%
%ADD75R,0.0800X0.0050*%
%ADD76R,0.3550X0.0050*%
%ADD77R,0.0700X0.0050*%
%ADD78R,0.1350X0.0050*%
%ADD79R,0.2350X0.0050*%
%ADD80R,0.1600X0.0050*%
%ADD81R,0.2250X0.0050*%
%ADD82R,0.1500X0.0050*%
%ADD83R,0.0400X0.0050*%
%ADD84R,0.0300X0.0050*%
%ADD85R,0.0500X0.0050*%
%ADD86R,0.0250X0.0050*%
%ADD87R,0.0450X0.0050*%
%ADD88R,0.0200X0.0050*%
%ADD89R,0.0350X0.0050*%
%ADD90R,0.1000X0.0050*%
%ADD91R,0.2800X0.0050*%
%ADD92R,0.4650X0.0050*%
%ADD93R,0.2550X0.0050*%
%ADD94R,0.1250X0.0050*%
%ADD95R,0.1950X0.0050*%
%ADD96R,0.0950X0.0050*%
%ADD97R,0.0850X0.0050*%
%ADD98R,0.1150X0.0050*%
%ADD99R,0.2400X0.0050*%
%ADD100R,0.2000X0.0050*%
%ADD101R,0.3150X0.0050*%
%ADD102R,0.1850X0.0050*%
%ADD103R,0.3300X0.0050*%
%ADD104R,0.1700X0.0050*%
%ADD105R,0.3600X0.0050*%
%ADD106R,0.3700X0.0050*%
%ADD107R,0.0100X0.0050*%
%ADD108R,0.3950X0.0050*%
%ADD109R,0.0150X0.0050*%
%ADD110R,0.4150X0.0050*%
%ADD111R,0.4350X0.0050*%
%ADD112R,0.4500X0.0050*%
%ADD113R,0.4700X0.0050*%
%ADD114R,0.1750X0.0050*%
%ADD115R,0.4800X0.0050*%
%ADD116R,0.5450X0.0050*%
%ADD117R,0.5650X0.0050*%
%ADD118R,0.5900X0.0050*%
%ADD119R,0.6000X0.0050*%
%ADD120R,0.2200X0.0050*%
%ADD121R,0.4100X0.0050*%
%ADD122R,0.4050X0.0050*%
%ADD123R,0.3800X0.0050*%
%ADD124R,0.1400X0.0050*%
%ADD125R,0.3350X0.0050*%
%ADD126R,0.3200X0.0050*%
%ADD127R,0.2900X0.0050*%
%ADD128R,0.3250X0.0050*%
%ADD129R,0.2650X0.0050*%
%ADD130R,0.3650X0.0050*%
%ADD131R,0.2500X0.0050*%
%ADD132R,0.3450X0.0050*%
D10*
X016300Y002180D02*
X016302Y002230D01*
X016308Y002280D01*
X016318Y002329D01*
X016332Y002377D01*
X016349Y002424D01*
X016370Y002469D01*
X016395Y002513D01*
X016423Y002554D01*
X016455Y002593D01*
X016489Y002630D01*
X016526Y002664D01*
X016566Y002694D01*
X016608Y002721D01*
X016652Y002745D01*
X016698Y002766D01*
X016745Y002782D01*
X016793Y002795D01*
X016843Y002804D01*
X016892Y002809D01*
X016943Y002810D01*
X016993Y002807D01*
X017042Y002800D01*
X017091Y002789D01*
X017139Y002774D01*
X017185Y002756D01*
X017230Y002734D01*
X017273Y002708D01*
X017314Y002679D01*
X017353Y002647D01*
X017389Y002612D01*
X017421Y002574D01*
X017451Y002534D01*
X017478Y002491D01*
X017501Y002447D01*
X017520Y002401D01*
X017536Y002353D01*
X017548Y002304D01*
X017556Y002255D01*
X017560Y002205D01*
X017560Y002155D01*
X017556Y002105D01*
X017548Y002056D01*
X017536Y002007D01*
X017520Y001959D01*
X017501Y001913D01*
X017478Y001869D01*
X017451Y001826D01*
X017421Y001786D01*
X017389Y001748D01*
X017353Y001713D01*
X017314Y001681D01*
X017273Y001652D01*
X017230Y001626D01*
X017185Y001604D01*
X017139Y001586D01*
X017091Y001571D01*
X017042Y001560D01*
X016993Y001553D01*
X016943Y001550D01*
X016892Y001551D01*
X016843Y001556D01*
X016793Y001565D01*
X016745Y001578D01*
X016698Y001594D01*
X016652Y001615D01*
X016608Y001639D01*
X016566Y001666D01*
X016526Y001696D01*
X016489Y001730D01*
X016455Y001767D01*
X016423Y001806D01*
X016395Y001847D01*
X016370Y001891D01*
X016349Y001936D01*
X016332Y001983D01*
X016318Y002031D01*
X016308Y002080D01*
X016302Y002130D01*
X016300Y002180D01*
X021050Y011180D02*
X021052Y011230D01*
X021058Y011280D01*
X021068Y011329D01*
X021082Y011377D01*
X021099Y011424D01*
X021120Y011469D01*
X021145Y011513D01*
X021173Y011554D01*
X021205Y011593D01*
X021239Y011630D01*
X021276Y011664D01*
X021316Y011694D01*
X021358Y011721D01*
X021402Y011745D01*
X021448Y011766D01*
X021495Y011782D01*
X021543Y011795D01*
X021593Y011804D01*
X021642Y011809D01*
X021693Y011810D01*
X021743Y011807D01*
X021792Y011800D01*
X021841Y011789D01*
X021889Y011774D01*
X021935Y011756D01*
X021980Y011734D01*
X022023Y011708D01*
X022064Y011679D01*
X022103Y011647D01*
X022139Y011612D01*
X022171Y011574D01*
X022201Y011534D01*
X022228Y011491D01*
X022251Y011447D01*
X022270Y011401D01*
X022286Y011353D01*
X022298Y011304D01*
X022306Y011255D01*
X022310Y011205D01*
X022310Y011155D01*
X022306Y011105D01*
X022298Y011056D01*
X022286Y011007D01*
X022270Y010959D01*
X022251Y010913D01*
X022228Y010869D01*
X022201Y010826D01*
X022171Y010786D01*
X022139Y010748D01*
X022103Y010713D01*
X022064Y010681D01*
X022023Y010652D01*
X021980Y010626D01*
X021935Y010604D01*
X021889Y010586D01*
X021841Y010571D01*
X021792Y010560D01*
X021743Y010553D01*
X021693Y010550D01*
X021642Y010551D01*
X021593Y010556D01*
X021543Y010565D01*
X021495Y010578D01*
X021448Y010594D01*
X021402Y010615D01*
X021358Y010639D01*
X021316Y010666D01*
X021276Y010696D01*
X021239Y010730D01*
X021205Y010767D01*
X021173Y010806D01*
X021145Y010847D01*
X021120Y010891D01*
X021099Y010936D01*
X021082Y010983D01*
X021068Y011031D01*
X021058Y011080D01*
X021052Y011130D01*
X021050Y011180D01*
X021550Y023680D02*
X021552Y023730D01*
X021558Y023780D01*
X021568Y023829D01*
X021582Y023877D01*
X021599Y023924D01*
X021620Y023969D01*
X021645Y024013D01*
X021673Y024054D01*
X021705Y024093D01*
X021739Y024130D01*
X021776Y024164D01*
X021816Y024194D01*
X021858Y024221D01*
X021902Y024245D01*
X021948Y024266D01*
X021995Y024282D01*
X022043Y024295D01*
X022093Y024304D01*
X022142Y024309D01*
X022193Y024310D01*
X022243Y024307D01*
X022292Y024300D01*
X022341Y024289D01*
X022389Y024274D01*
X022435Y024256D01*
X022480Y024234D01*
X022523Y024208D01*
X022564Y024179D01*
X022603Y024147D01*
X022639Y024112D01*
X022671Y024074D01*
X022701Y024034D01*
X022728Y023991D01*
X022751Y023947D01*
X022770Y023901D01*
X022786Y023853D01*
X022798Y023804D01*
X022806Y023755D01*
X022810Y023705D01*
X022810Y023655D01*
X022806Y023605D01*
X022798Y023556D01*
X022786Y023507D01*
X022770Y023459D01*
X022751Y023413D01*
X022728Y023369D01*
X022701Y023326D01*
X022671Y023286D01*
X022639Y023248D01*
X022603Y023213D01*
X022564Y023181D01*
X022523Y023152D01*
X022480Y023126D01*
X022435Y023104D01*
X022389Y023086D01*
X022341Y023071D01*
X022292Y023060D01*
X022243Y023053D01*
X022193Y023050D01*
X022142Y023051D01*
X022093Y023056D01*
X022043Y023065D01*
X021995Y023078D01*
X021948Y023094D01*
X021902Y023115D01*
X021858Y023139D01*
X021816Y023166D01*
X021776Y023196D01*
X021739Y023230D01*
X021705Y023267D01*
X021673Y023306D01*
X021645Y023347D01*
X021620Y023391D01*
X021599Y023436D01*
X021582Y023483D01*
X021568Y023531D01*
X021558Y023580D01*
X021552Y023630D01*
X021550Y023680D01*
X002050Y023680D02*
X002052Y023730D01*
X002058Y023780D01*
X002068Y023829D01*
X002082Y023877D01*
X002099Y023924D01*
X002120Y023969D01*
X002145Y024013D01*
X002173Y024054D01*
X002205Y024093D01*
X002239Y024130D01*
X002276Y024164D01*
X002316Y024194D01*
X002358Y024221D01*
X002402Y024245D01*
X002448Y024266D01*
X002495Y024282D01*
X002543Y024295D01*
X002593Y024304D01*
X002642Y024309D01*
X002693Y024310D01*
X002743Y024307D01*
X002792Y024300D01*
X002841Y024289D01*
X002889Y024274D01*
X002935Y024256D01*
X002980Y024234D01*
X003023Y024208D01*
X003064Y024179D01*
X003103Y024147D01*
X003139Y024112D01*
X003171Y024074D01*
X003201Y024034D01*
X003228Y023991D01*
X003251Y023947D01*
X003270Y023901D01*
X003286Y023853D01*
X003298Y023804D01*
X003306Y023755D01*
X003310Y023705D01*
X003310Y023655D01*
X003306Y023605D01*
X003298Y023556D01*
X003286Y023507D01*
X003270Y023459D01*
X003251Y023413D01*
X003228Y023369D01*
X003201Y023326D01*
X003171Y023286D01*
X003139Y023248D01*
X003103Y023213D01*
X003064Y023181D01*
X003023Y023152D01*
X002980Y023126D01*
X002935Y023104D01*
X002889Y023086D01*
X002841Y023071D01*
X002792Y023060D01*
X002743Y023053D01*
X002693Y023050D01*
X002642Y023051D01*
X002593Y023056D01*
X002543Y023065D01*
X002495Y023078D01*
X002448Y023094D01*
X002402Y023115D01*
X002358Y023139D01*
X002316Y023166D01*
X002276Y023196D01*
X002239Y023230D01*
X002205Y023267D01*
X002173Y023306D01*
X002145Y023347D01*
X002120Y023391D01*
X002099Y023436D01*
X002082Y023483D01*
X002068Y023531D01*
X002058Y023580D01*
X002052Y023630D01*
X002050Y023680D01*
D11*
X001180Y001180D02*
X023430Y001180D01*
X023430Y024680D01*
X001180Y024680D01*
X001180Y001180D01*
D12*
X009680Y008030D03*
X010030Y007630D03*
X012330Y007680D03*
X017130Y007280D03*
X019080Y008480D03*
X019080Y008530D03*
X019080Y008580D03*
X019030Y008730D03*
X019130Y008380D03*
X019130Y008330D03*
X019430Y007580D03*
X019480Y007480D03*
X019630Y007130D03*
X019630Y007080D03*
X019630Y007030D03*
X019580Y005580D03*
X019530Y005480D03*
X019530Y005430D03*
X018030Y011080D03*
X017980Y011130D03*
X016780Y012830D03*
X018430Y015330D03*
X013480Y015930D03*
X013130Y016280D03*
X012430Y015980D03*
X012280Y016930D03*
X011180Y017630D03*
X010780Y017380D03*
X008280Y017680D03*
X008230Y017630D03*
X008230Y019230D03*
X009330Y020080D03*
X010330Y020130D03*
X010830Y019880D03*
X010930Y019830D03*
X007730Y015780D03*
X007630Y015080D03*
X008580Y014280D03*
X009280Y013480D03*
X009280Y013430D03*
X010180Y012030D03*
X010980Y013680D03*
X006680Y011130D03*
X006680Y011080D03*
X006230Y014030D03*
X006230Y014080D03*
X006230Y014130D03*
X012830Y003180D03*
D13*
X012830Y003230D03*
X012330Y006380D03*
X013080Y010080D03*
X012630Y013480D03*
X013080Y016180D03*
X011830Y018380D03*
X011880Y020030D03*
X009430Y020380D03*
X009630Y017580D03*
X008480Y016980D03*
X007930Y014880D03*
X007880Y014780D03*
X007830Y014680D03*
X007830Y014630D03*
X007830Y014580D03*
X007780Y014530D03*
X007780Y014480D03*
X007730Y014430D03*
X007730Y014380D03*
D14*
X009480Y010180D03*
X013130Y010230D03*
X015280Y010330D03*
X015280Y010380D03*
X015280Y010430D03*
X016830Y012430D03*
X018230Y013030D03*
X013730Y017280D03*
X013580Y019380D03*
X011180Y021880D03*
X012830Y003280D03*
D15*
X012830Y003330D03*
X006830Y008430D03*
X006780Y008480D03*
X006980Y009430D03*
X009530Y009480D03*
X007830Y013530D03*
X007830Y013580D03*
X007930Y013980D03*
X011480Y018130D03*
X013880Y018080D03*
X013980Y018380D03*
X013980Y018430D03*
X018780Y013880D03*
X018880Y013180D03*
X014980Y011880D03*
X015230Y009980D03*
X015230Y009930D03*
X015230Y009880D03*
X015230Y009830D03*
D16*
X018555Y007830D03*
X012805Y003380D03*
X009705Y004080D03*
X009755Y010530D03*
X012855Y012830D03*
X007755Y013430D03*
X013905Y017430D03*
X014105Y017730D03*
X014105Y017780D03*
D17*
X012830Y012780D03*
X014880Y009180D03*
X018480Y007730D03*
X012780Y003430D03*
X010080Y009180D03*
D18*
X010180Y009130D03*
X012780Y012680D03*
X012780Y003480D03*
D19*
X012755Y003530D03*
X012405Y007330D03*
X014655Y008980D03*
X012905Y011980D03*
X012355Y020380D03*
X012305Y020430D03*
X012255Y020480D03*
D20*
X011930Y020930D03*
X012680Y012330D03*
X012730Y012230D03*
X012330Y006130D03*
X012730Y003580D03*
X018230Y004980D03*
D21*
X018055Y004930D03*
X012705Y003630D03*
X013305Y011480D03*
X012505Y020230D03*
X011305Y021630D03*
D22*
X012705Y003680D03*
D23*
X012680Y003730D03*
X010630Y008980D03*
X012880Y010830D03*
X012880Y010880D03*
X012930Y011080D03*
X013380Y011630D03*
X007280Y013680D03*
X011730Y021030D03*
D24*
X007330Y013880D03*
X007330Y013330D03*
X012830Y010780D03*
X013380Y011680D03*
X012680Y003780D03*
D25*
X012680Y003830D03*
X012680Y003880D03*
X012230Y007230D03*
X012330Y012580D03*
X011330Y021530D03*
D26*
X011605Y021080D03*
X015905Y012080D03*
X015855Y012030D03*
X013405Y011730D03*
X012705Y010680D03*
X012655Y003930D03*
D27*
X012680Y003980D03*
X012280Y012530D03*
X011330Y021480D03*
D28*
X013330Y019980D03*
X013380Y019880D03*
X013430Y019780D03*
X013430Y019730D03*
X013480Y019680D03*
X013480Y019630D03*
X013480Y019580D03*
X013530Y019480D03*
X013930Y018580D03*
X014030Y018280D03*
X013930Y018180D03*
X012930Y016080D03*
X012930Y016030D03*
X013330Y013130D03*
X015280Y010280D03*
X015280Y010230D03*
X015280Y010180D03*
X018730Y007980D03*
X012430Y006330D03*
X010130Y006180D03*
X009980Y006280D03*
X009930Y006380D03*
X009930Y006430D03*
X009680Y004030D03*
X006730Y008680D03*
X006730Y008730D03*
X006730Y008780D03*
X006780Y008880D03*
X006780Y008930D03*
X006830Y008980D03*
X006830Y009030D03*
X006830Y009080D03*
X006880Y009130D03*
X006880Y009180D03*
X006880Y009230D03*
X006880Y009280D03*
X006930Y009330D03*
X009680Y009430D03*
X009730Y009380D03*
X007430Y014280D03*
X007430Y014330D03*
X019030Y013280D03*
D29*
X013105Y011430D03*
X012605Y010630D03*
X010305Y010330D03*
X010305Y010280D03*
X010905Y008930D03*
X012705Y004080D03*
X012705Y004030D03*
D30*
X011455Y004130D03*
D31*
X011380Y004180D03*
X010780Y005530D03*
D32*
X011305Y004230D03*
X012605Y008780D03*
D33*
X012580Y008830D03*
X010780Y005380D03*
X011280Y004280D03*
D34*
X011180Y004330D03*
X010780Y005230D03*
D35*
X010805Y005180D03*
X011155Y004380D03*
D36*
X011455Y004430D03*
D37*
X015180Y004430D03*
X015930Y004480D03*
X016380Y004430D03*
X016530Y004430D03*
X008130Y009830D03*
X012180Y013980D03*
X011730Y015130D03*
X010380Y016530D03*
X009180Y017430D03*
X008530Y015230D03*
X017580Y014030D03*
D38*
X011580Y004480D03*
D39*
X006905Y008280D03*
X009905Y009280D03*
X009705Y010680D03*
X009705Y010730D03*
X009705Y010780D03*
X009755Y011630D03*
X008305Y012430D03*
X007855Y013930D03*
X015105Y011930D03*
X015055Y009430D03*
X015055Y009380D03*
X016955Y004480D03*
D40*
X012930Y004530D03*
D41*
X013030Y004580D03*
D42*
X013105Y004630D03*
D43*
X013155Y004680D03*
D44*
X010955Y004730D03*
D45*
X016905Y004730D03*
D46*
X010930Y004780D03*
D47*
X008230Y009730D03*
X017180Y004780D03*
D48*
X010905Y004830D03*
X010905Y004880D03*
D49*
X017330Y004830D03*
X007780Y013180D03*
D50*
X007605Y012730D03*
X007605Y012680D03*
X010455Y010380D03*
X017555Y004880D03*
D51*
X010880Y004930D03*
D52*
X010855Y004980D03*
D53*
X010830Y005030D03*
D54*
X014805Y009130D03*
X016405Y012180D03*
X012805Y012730D03*
X007755Y014130D03*
X018455Y005030D03*
D55*
X010830Y005080D03*
X010830Y005130D03*
D56*
X009805Y007230D03*
X012505Y007430D03*
X009355Y009980D03*
X009405Y010130D03*
X011105Y010230D03*
X013105Y010180D03*
X015255Y010630D03*
X015255Y010680D03*
X012905Y013330D03*
X008805Y017830D03*
X008355Y018480D03*
X007305Y015880D03*
X006555Y012430D03*
X011705Y018330D03*
X018705Y013930D03*
X018905Y005080D03*
D57*
X019055Y005130D03*
X019055Y007680D03*
X015155Y010880D03*
X012705Y013430D03*
X012155Y015030D03*
X012205Y015080D03*
X013905Y017080D03*
X013905Y017130D03*
X013905Y017180D03*
X013905Y017230D03*
X011855Y020080D03*
X007955Y014930D03*
X007905Y014830D03*
X009205Y007480D03*
D58*
X009805Y007880D03*
X010705Y012280D03*
X010855Y013730D03*
X010905Y013830D03*
X007755Y015580D03*
X008455Y016930D03*
X009605Y017530D03*
X011355Y017680D03*
X011855Y018480D03*
X011855Y018530D03*
X011905Y018680D03*
X011905Y018730D03*
X011105Y019380D03*
X011105Y019430D03*
X012055Y019780D03*
X009455Y020430D03*
X009305Y019480D03*
X008055Y018880D03*
X012405Y016830D03*
X012455Y016780D03*
X017455Y014580D03*
X017455Y014530D03*
X017505Y014630D03*
X018605Y014030D03*
X019255Y013780D03*
X016905Y011980D03*
X015055Y010980D03*
X017755Y007680D03*
X019205Y005180D03*
D59*
X019330Y005230D03*
X017330Y007430D03*
X017080Y011930D03*
X017680Y012830D03*
X017630Y014780D03*
X017680Y014830D03*
X017730Y014880D03*
X017830Y014980D03*
X013380Y015980D03*
X013130Y016230D03*
X011980Y014930D03*
X011530Y014680D03*
X009880Y016180D03*
X009880Y016230D03*
X009130Y017180D03*
X008680Y018230D03*
X008630Y018330D03*
X008380Y018630D03*
X008280Y018780D03*
X009330Y019230D03*
X009330Y019980D03*
X009580Y021080D03*
X011130Y019480D03*
X010880Y018930D03*
X010830Y018880D03*
X012130Y019680D03*
X014030Y018730D03*
X010830Y017330D03*
X008380Y015980D03*
X006580Y011380D03*
D60*
X012555Y008880D03*
X010755Y005280D03*
D61*
X009980Y007730D03*
X006830Y010180D03*
X006630Y011230D03*
X006830Y012030D03*
X006230Y013530D03*
X006230Y013580D03*
X006230Y013630D03*
X006280Y013930D03*
X007580Y015230D03*
X007580Y015280D03*
X008380Y016880D03*
X008730Y017030D03*
X008830Y017080D03*
X009030Y017130D03*
X009380Y017330D03*
X010830Y018530D03*
X012130Y018880D03*
X012130Y018930D03*
X012180Y019480D03*
X012180Y019530D03*
X013930Y019180D03*
X013930Y019130D03*
X013930Y019080D03*
X013930Y019030D03*
X013930Y018980D03*
X013930Y018930D03*
X013980Y018830D03*
X014030Y018780D03*
X010130Y020230D03*
X009930Y020280D03*
X009330Y020030D03*
X009130Y019630D03*
X008780Y019830D03*
X009330Y019280D03*
X008230Y019180D03*
X008230Y018830D03*
X009280Y020930D03*
X009330Y020980D03*
X009430Y021030D03*
X017930Y015030D03*
X018380Y015280D03*
X017380Y011780D03*
X017480Y011730D03*
X017780Y011380D03*
X017830Y011330D03*
X019680Y006880D03*
X019730Y006730D03*
X019730Y006680D03*
X019730Y006630D03*
X019730Y006580D03*
X019730Y006530D03*
X019730Y006480D03*
X019730Y006030D03*
X019730Y005980D03*
X019680Y005780D03*
X019630Y005680D03*
X019380Y005280D03*
X010380Y012130D03*
X012380Y013530D03*
X006430Y008080D03*
D62*
X010780Y005330D03*
D63*
X010555Y006930D03*
X010005Y007680D03*
X006655Y011180D03*
X009255Y013330D03*
X009255Y013380D03*
X010255Y012080D03*
X011505Y014580D03*
X012505Y015130D03*
X010305Y016580D03*
X007605Y015180D03*
X007605Y015130D03*
X007355Y016130D03*
X006255Y013980D03*
X010955Y019030D03*
X012155Y019030D03*
X012155Y018980D03*
X012205Y019080D03*
X012205Y019130D03*
X012205Y019180D03*
X012205Y019230D03*
X012205Y019280D03*
X012205Y019330D03*
X012205Y019380D03*
X012205Y019430D03*
X013955Y018880D03*
X010205Y020180D03*
X009355Y019330D03*
X008855Y019880D03*
X008905Y019930D03*
X017605Y012780D03*
X017205Y011880D03*
X017305Y011830D03*
X017505Y011680D03*
X017555Y011630D03*
X017605Y011580D03*
X017655Y011530D03*
X017705Y011480D03*
X017755Y011430D03*
X017855Y011280D03*
X017905Y011230D03*
X017955Y011180D03*
X019505Y013580D03*
X018555Y014130D03*
X014805Y012230D03*
X014755Y012180D03*
X014705Y012130D03*
X019155Y008030D03*
X019655Y006980D03*
X019655Y006930D03*
X019705Y006830D03*
X019705Y006780D03*
X019705Y005930D03*
X019705Y005880D03*
X019705Y005830D03*
X019655Y005730D03*
X019605Y005630D03*
X019555Y005530D03*
X019505Y005380D03*
X019455Y005330D03*
D64*
X010780Y005430D03*
D65*
X010780Y005480D03*
D66*
X010755Y005580D03*
X012655Y008630D03*
D67*
X012705Y008530D03*
X010755Y005630D03*
D68*
X010805Y005680D03*
D69*
X010855Y005730D03*
D70*
X010905Y005780D03*
X012755Y008430D03*
X011405Y010430D03*
X011405Y010480D03*
D71*
X010955Y005830D03*
D72*
X011005Y005880D03*
X012755Y008380D03*
D73*
X013105Y010130D03*
X015205Y010780D03*
X009805Y007280D03*
X009755Y007330D03*
X008155Y007830D03*
X009305Y005930D03*
X009355Y010030D03*
X009355Y010080D03*
X006555Y012130D03*
X006555Y012180D03*
X007305Y015930D03*
X011455Y017780D03*
X011705Y018030D03*
X011705Y018080D03*
D74*
X011305Y021230D03*
X007605Y012880D03*
X007605Y012830D03*
X011805Y005980D03*
X011805Y005930D03*
D75*
X009255Y005980D03*
X009755Y007980D03*
X006805Y010030D03*
X006805Y010080D03*
X006755Y012080D03*
X006305Y013430D03*
X007855Y015680D03*
X008355Y016030D03*
X007005Y015780D03*
X008655Y018280D03*
X008605Y018380D03*
X009355Y019180D03*
X010855Y017280D03*
X010405Y016680D03*
X012355Y016880D03*
X009955Y012980D03*
X013055Y010030D03*
X016805Y012780D03*
X019405Y013680D03*
X018355Y015180D03*
X017755Y014930D03*
X017405Y007480D03*
D76*
X011780Y006080D03*
X011780Y006030D03*
X007630Y012930D03*
X007630Y012980D03*
X007630Y013030D03*
X011330Y021180D03*
D77*
X011155Y021980D03*
X012155Y019630D03*
X012155Y019580D03*
X010905Y018980D03*
X010805Y018630D03*
X010805Y018580D03*
X009305Y017280D03*
X009205Y017230D03*
X010305Y016630D03*
X009855Y016130D03*
X011505Y014630D03*
X009955Y012930D03*
X009255Y013230D03*
X009255Y013280D03*
X010455Y012180D03*
X009205Y011730D03*
X006605Y011330D03*
X006605Y011280D03*
X006805Y010130D03*
X006255Y013480D03*
X008355Y018680D03*
X008305Y018730D03*
X008205Y019080D03*
X008255Y019130D03*
X018355Y015230D03*
X018555Y014080D03*
X019455Y013630D03*
X017255Y007380D03*
X017205Y007330D03*
X019755Y006430D03*
X019755Y006380D03*
X019755Y006330D03*
X019755Y006280D03*
X019755Y006230D03*
X019755Y006180D03*
X019755Y006130D03*
X019755Y006080D03*
D78*
X015280Y010530D03*
X015280Y010580D03*
X016880Y012530D03*
X016880Y012580D03*
X016930Y012630D03*
X013030Y013280D03*
X009380Y009930D03*
X009380Y009880D03*
X010280Y006130D03*
X009630Y017680D03*
X008780Y017780D03*
X008330Y018530D03*
X011780Y017980D03*
X013630Y019280D03*
X013880Y018680D03*
D79*
X012230Y020530D03*
X011430Y017880D03*
X012830Y012080D03*
X012880Y012030D03*
X014580Y008930D03*
X012530Y006230D03*
X012430Y006180D03*
D80*
X010855Y007030D03*
X010055Y006230D03*
X006755Y008530D03*
X006755Y008580D03*
X006755Y008630D03*
X006755Y008830D03*
X006955Y009380D03*
X009555Y010230D03*
X008405Y012380D03*
X012905Y012930D03*
X013305Y013080D03*
X016705Y012330D03*
X018955Y013230D03*
X015255Y010130D03*
X015255Y010080D03*
X015255Y010030D03*
X013155Y010330D03*
X013905Y018130D03*
X014005Y018330D03*
X013955Y018480D03*
X013955Y018530D03*
X013405Y019830D03*
X013355Y019930D03*
D81*
X012930Y011930D03*
X012980Y011880D03*
X014680Y009030D03*
X012630Y006280D03*
X010280Y009080D03*
D82*
X013155Y010280D03*
X013305Y013180D03*
X017005Y012680D03*
X017055Y012730D03*
X012905Y016130D03*
X014005Y018230D03*
X013905Y018630D03*
X013555Y019430D03*
X013505Y019530D03*
X013305Y020030D03*
X013255Y020080D03*
X013205Y020130D03*
X009955Y006330D03*
D83*
X009305Y006530D03*
X009255Y006630D03*
X009305Y006930D03*
X010505Y006880D03*
X010505Y006830D03*
X010505Y006780D03*
X013605Y006330D03*
X017055Y007230D03*
X018955Y008930D03*
X018955Y008980D03*
X018805Y009330D03*
X018755Y009530D03*
X018755Y009580D03*
X018705Y009680D03*
X018705Y009730D03*
X018705Y009780D03*
X018655Y009880D03*
X018655Y009930D03*
X018605Y010030D03*
X018555Y010130D03*
X018505Y010230D03*
X018455Y010330D03*
X018255Y010730D03*
X015055Y013080D03*
X015055Y013130D03*
X015055Y013230D03*
X015055Y013280D03*
X015055Y013330D03*
X015055Y013380D03*
X015055Y013430D03*
X015005Y013530D03*
X015005Y013580D03*
X014955Y013630D03*
X014955Y013680D03*
X014905Y013730D03*
X014855Y013830D03*
X014805Y013880D03*
X014805Y013930D03*
X014755Y013980D03*
X014705Y014030D03*
X014655Y014130D03*
X014605Y014180D03*
X014605Y014230D03*
X014555Y014280D03*
X014505Y014330D03*
X014455Y014380D03*
X014355Y014530D03*
X014205Y014730D03*
X014105Y014830D03*
X014055Y014930D03*
X013855Y015230D03*
X013805Y015380D03*
X013655Y015680D03*
X013655Y015730D03*
X013605Y015780D03*
X013605Y015830D03*
X012855Y016680D03*
X012405Y015930D03*
X011005Y016980D03*
X010955Y016930D03*
X010705Y016780D03*
X009655Y017430D03*
X010755Y017980D03*
X010905Y019080D03*
X011105Y019730D03*
X010555Y020030D03*
X009105Y020880D03*
X008155Y017580D03*
X008105Y016130D03*
X008555Y016130D03*
X009105Y016030D03*
X009405Y015830D03*
X008405Y015030D03*
X008755Y014430D03*
X009405Y013830D03*
X007405Y015330D03*
X007405Y015380D03*
X007455Y015430D03*
X006755Y015730D03*
X006655Y015580D03*
X006605Y015480D03*
X006405Y014630D03*
X006355Y014580D03*
X006905Y011880D03*
X006905Y011830D03*
X006905Y011780D03*
X006855Y011580D03*
X006355Y011430D03*
X006255Y011630D03*
X006755Y010980D03*
X006755Y010930D03*
X006755Y010880D03*
X006755Y010830D03*
X006805Y010630D03*
X006805Y010580D03*
X006855Y010480D03*
X006855Y010430D03*
X006905Y010330D03*
X006905Y010280D03*
X008405Y009830D03*
X011755Y011480D03*
X014655Y011180D03*
X014955Y012530D03*
X014955Y012580D03*
X014955Y012630D03*
X014955Y012680D03*
X016855Y014030D03*
X016905Y014080D03*
X016905Y014130D03*
X017005Y014230D03*
X018005Y013630D03*
X018055Y013680D03*
X018655Y014830D03*
X018655Y014880D03*
X018455Y015430D03*
X014205Y017030D03*
X013305Y019180D03*
D84*
X012605Y017680D03*
X012605Y017180D03*
X012555Y017130D03*
X012505Y017080D03*
X012905Y016630D03*
X012955Y016580D03*
X012555Y015830D03*
X012455Y015880D03*
X012655Y015180D03*
X011755Y014880D03*
X011755Y014730D03*
X012155Y013880D03*
X010605Y013930D03*
X010255Y013080D03*
X010505Y011730D03*
X010505Y011680D03*
X009005Y011780D03*
X009005Y011830D03*
X009005Y011880D03*
X006205Y011780D03*
X006155Y011930D03*
X006455Y014680D03*
X006455Y014730D03*
X006455Y014780D03*
X006455Y014830D03*
X006455Y014880D03*
X006455Y014930D03*
X006455Y014980D03*
X006455Y015030D03*
X006455Y015080D03*
X006455Y015130D03*
X006455Y015180D03*
X007855Y015380D03*
X007905Y015430D03*
X008255Y015780D03*
X008305Y015880D03*
X008305Y015930D03*
X008805Y015780D03*
X008705Y016330D03*
X008305Y016730D03*
X008255Y016680D03*
X008205Y016630D03*
X008105Y017080D03*
X008055Y017180D03*
X008055Y017230D03*
X008055Y017280D03*
X008055Y017330D03*
X008055Y017380D03*
X009405Y015780D03*
X010155Y016530D03*
X011105Y017030D03*
X011155Y017080D03*
X010805Y018380D03*
X010855Y018430D03*
X010855Y019130D03*
X010805Y019180D03*
X011255Y019630D03*
X011305Y019580D03*
X011505Y019180D03*
X011505Y019130D03*
X009655Y019130D03*
X009605Y019930D03*
X008855Y020680D03*
X008805Y020630D03*
X008705Y020530D03*
X008655Y020480D03*
X008605Y020430D03*
X008505Y020330D03*
X008355Y020180D03*
X008355Y020130D03*
X008305Y020080D03*
X008255Y020030D03*
X008205Y019980D03*
X008155Y019930D03*
X008105Y019880D03*
X008005Y019780D03*
X007855Y019630D03*
X008205Y019430D03*
X008255Y019480D03*
X008305Y019530D03*
X008355Y019580D03*
X008405Y019630D03*
X008905Y020730D03*
X008955Y020780D03*
X013905Y015130D03*
X013955Y015080D03*
X014005Y015030D03*
X016705Y013630D03*
X016705Y013580D03*
X016655Y013380D03*
X016655Y013330D03*
X016655Y013280D03*
X016655Y013230D03*
X016655Y013180D03*
X016655Y013130D03*
X016655Y013080D03*
X016655Y013030D03*
X016655Y012980D03*
X016655Y012930D03*
X016655Y012880D03*
X016755Y013780D03*
X016755Y013830D03*
X017605Y014230D03*
X017655Y014380D03*
X017655Y014430D03*
X018605Y015080D03*
X015005Y012880D03*
X012905Y009980D03*
X013455Y007480D03*
X013655Y006380D03*
X017005Y007180D03*
X018855Y009180D03*
X010505Y006730D03*
X010505Y006680D03*
X009255Y006880D03*
D85*
X010055Y007530D03*
X010055Y007580D03*
X012255Y006430D03*
X011055Y010130D03*
X010055Y011930D03*
X010105Y011980D03*
X009955Y012880D03*
X009305Y013530D03*
X009305Y013580D03*
X009355Y013630D03*
X009355Y013680D03*
X008655Y014330D03*
X007605Y015030D03*
X008805Y015830D03*
X008805Y015880D03*
X009105Y015980D03*
X009405Y015880D03*
X008405Y016780D03*
X008405Y016830D03*
X010205Y017730D03*
X010805Y017430D03*
X010905Y017480D03*
X011005Y017530D03*
X011105Y017580D03*
X010855Y018480D03*
X009455Y019380D03*
X009055Y020280D03*
X008205Y019280D03*
X010755Y019930D03*
X013655Y017030D03*
X011455Y014530D03*
X014855Y012280D03*
X017155Y014430D03*
X018105Y015080D03*
X018605Y014630D03*
X018605Y014580D03*
X018605Y014280D03*
X018605Y014230D03*
X018605Y014180D03*
X019555Y013530D03*
X018055Y011030D03*
X018105Y010980D03*
X019005Y008830D03*
X019005Y008780D03*
X019055Y008680D03*
X019055Y008630D03*
X019105Y008430D03*
X019155Y008280D03*
X019155Y008230D03*
X019205Y008180D03*
X019205Y008130D03*
X019205Y008080D03*
X019405Y007630D03*
X019455Y007530D03*
X019505Y007430D03*
X019555Y007330D03*
X019555Y007280D03*
X019605Y007230D03*
X019605Y007180D03*
X006905Y010230D03*
X006255Y014180D03*
X006255Y014230D03*
X006255Y014280D03*
X006255Y014330D03*
X006305Y014380D03*
X006305Y014430D03*
D86*
X007830Y015330D03*
X007930Y015480D03*
X008030Y016280D03*
X008080Y016430D03*
X008130Y016530D03*
X008180Y016580D03*
X008780Y016430D03*
X008780Y016380D03*
X009080Y016230D03*
X009080Y016180D03*
X009080Y016130D03*
X009580Y016030D03*
X009630Y016330D03*
X009580Y016480D03*
X010130Y016480D03*
X010180Y016380D03*
X010180Y016330D03*
X010180Y016280D03*
X011180Y017130D03*
X011630Y017630D03*
X012530Y017780D03*
X012580Y017730D03*
X012630Y017630D03*
X012680Y017480D03*
X012680Y017430D03*
X012680Y017380D03*
X012680Y017330D03*
X012630Y017230D03*
X012980Y016530D03*
X013030Y016380D03*
X013030Y016330D03*
X012680Y015680D03*
X012730Y015630D03*
X012780Y015430D03*
X012780Y015380D03*
X012730Y015230D03*
X011780Y014830D03*
X011780Y014780D03*
X011330Y014480D03*
X011330Y014430D03*
X011330Y014380D03*
X011380Y014330D03*
X011380Y014280D03*
X011380Y014080D03*
X011330Y013930D03*
X011280Y013880D03*
X010580Y013980D03*
X010580Y014030D03*
X010480Y013530D03*
X010480Y013480D03*
X010430Y013380D03*
X010380Y013280D03*
X010380Y013230D03*
X010330Y013180D03*
X010280Y013130D03*
X009430Y013930D03*
X009030Y012230D03*
X009030Y012180D03*
X009030Y012130D03*
X009030Y012080D03*
X009030Y012030D03*
X009030Y011980D03*
X009030Y011930D03*
X010530Y011880D03*
X011680Y011830D03*
X011680Y011780D03*
X013930Y012930D03*
X012180Y013930D03*
X015230Y011080D03*
X017980Y013530D03*
X017580Y014080D03*
X017580Y014130D03*
X018480Y015480D03*
X011580Y018880D03*
X011580Y018930D03*
X011580Y018980D03*
X011530Y019080D03*
X010780Y019230D03*
X010780Y019280D03*
X010580Y018830D03*
X010580Y018680D03*
X010780Y018330D03*
X009830Y018330D03*
X009830Y018380D03*
X009830Y018430D03*
X009830Y018480D03*
X009830Y018280D03*
X009830Y018230D03*
X009830Y018180D03*
X009780Y017830D03*
X009730Y017730D03*
X008930Y018630D03*
X008980Y018980D03*
X009030Y019080D03*
X009030Y019130D03*
X008930Y019680D03*
X008930Y019730D03*
X008930Y019780D03*
X008780Y019980D03*
X008780Y020030D03*
X008830Y020080D03*
X008880Y020180D03*
X008930Y020230D03*
X008730Y020580D03*
X008530Y020380D03*
X008480Y020280D03*
X008430Y020230D03*
X008080Y019830D03*
X007830Y019580D03*
X007780Y019530D03*
X007780Y019480D03*
X007730Y019230D03*
X008130Y019330D03*
X008180Y019380D03*
X007980Y018380D03*
X009730Y018930D03*
X009730Y018980D03*
X009680Y019080D03*
X009780Y018780D03*
X009680Y019630D03*
X009680Y019730D03*
X009680Y019780D03*
X009680Y019830D03*
X009630Y019880D03*
X006330Y008030D03*
X010530Y006630D03*
X010580Y006580D03*
X010580Y006530D03*
X010580Y006480D03*
X013430Y007430D03*
X013480Y007530D03*
X013530Y007630D03*
X013530Y007680D03*
X013530Y007730D03*
X013630Y007080D03*
X013680Y007030D03*
X013730Y006980D03*
X013730Y006930D03*
X013730Y006430D03*
D87*
X010080Y007430D03*
X010080Y007480D03*
X009330Y007030D03*
X009330Y006980D03*
X009330Y006480D03*
X006730Y011030D03*
X006930Y011930D03*
X006930Y011980D03*
X009380Y013730D03*
X009380Y013780D03*
X008680Y014380D03*
X008330Y014980D03*
X007630Y014980D03*
X007480Y015480D03*
X006330Y014530D03*
X006330Y014480D03*
X009680Y017480D03*
X010330Y017780D03*
X010830Y016830D03*
X010930Y016880D03*
X010630Y016730D03*
X012330Y016980D03*
X012730Y016730D03*
X013630Y016980D03*
X013580Y015880D03*
X014680Y014080D03*
X014880Y013780D03*
X014930Y012480D03*
X014930Y012430D03*
X014930Y012380D03*
X014880Y012330D03*
X016980Y014180D03*
X017030Y014280D03*
X017080Y014330D03*
X017130Y014380D03*
X017180Y014480D03*
X018080Y013730D03*
X018130Y013780D03*
X018580Y014330D03*
X018580Y014380D03*
X018580Y014430D03*
X018580Y014480D03*
X018580Y014530D03*
X018630Y014680D03*
X018630Y014730D03*
X018630Y014780D03*
X018430Y015380D03*
X019580Y013480D03*
X019580Y013430D03*
X018130Y010930D03*
X018180Y010880D03*
X018180Y010830D03*
X018230Y010780D03*
X018280Y010680D03*
X018330Y010630D03*
X018330Y010580D03*
X018380Y010530D03*
X018380Y010480D03*
X018430Y010430D03*
X018430Y010380D03*
X018480Y010280D03*
X018530Y010180D03*
X018580Y010080D03*
X018630Y009980D03*
X018980Y008880D03*
X019530Y007380D03*
X012280Y013580D03*
X010030Y011880D03*
X009530Y019430D03*
X009330Y020130D03*
X010430Y020080D03*
X010630Y019980D03*
X011030Y019780D03*
D88*
X011555Y019030D03*
X010555Y018780D03*
X010555Y018730D03*
X009805Y018730D03*
X009805Y018680D03*
X009805Y018630D03*
X009805Y018580D03*
X009805Y018530D03*
X009755Y018830D03*
X009755Y018880D03*
X009705Y019030D03*
X009705Y019680D03*
X009005Y019030D03*
X008955Y018930D03*
X008955Y018880D03*
X008955Y018830D03*
X008955Y018780D03*
X008955Y018730D03*
X008955Y018680D03*
X009805Y018130D03*
X009805Y018080D03*
X009805Y018030D03*
X009805Y017980D03*
X009805Y017930D03*
X009805Y017880D03*
X009755Y017780D03*
X008755Y017680D03*
X007755Y018630D03*
X007755Y018680D03*
X007755Y018730D03*
X007705Y018780D03*
X007705Y018830D03*
X007705Y019080D03*
X007705Y019130D03*
X007705Y019180D03*
X007755Y019280D03*
X007755Y019330D03*
X007755Y019380D03*
X007755Y019430D03*
X008855Y020130D03*
X010855Y018080D03*
X010605Y017180D03*
X010155Y016430D03*
X009605Y016430D03*
X009605Y016380D03*
X009605Y016080D03*
X009555Y015980D03*
X009105Y016280D03*
X009105Y016330D03*
X008105Y016480D03*
X008055Y016380D03*
X008055Y016330D03*
X008005Y016230D03*
X008005Y016180D03*
X008505Y015180D03*
X008855Y014580D03*
X009455Y013980D03*
X010505Y013680D03*
X010505Y013630D03*
X010505Y013580D03*
X010455Y013430D03*
X010405Y013330D03*
X010555Y014080D03*
X011355Y014030D03*
X011355Y013980D03*
X011405Y014130D03*
X011405Y014180D03*
X011405Y014230D03*
X011305Y014730D03*
X012755Y015280D03*
X012755Y015330D03*
X012755Y015480D03*
X012755Y015530D03*
X012755Y015580D03*
X013005Y016430D03*
X013005Y016480D03*
X012655Y017280D03*
X012655Y017530D03*
X012655Y017580D03*
X006805Y014380D03*
X010505Y011930D03*
X013505Y007580D03*
X013755Y006880D03*
X013755Y006830D03*
X013755Y006780D03*
X013755Y006730D03*
X013755Y006680D03*
X013755Y006630D03*
X013755Y006580D03*
X013755Y006530D03*
X013755Y006480D03*
X017005Y007130D03*
D89*
X018930Y009030D03*
X018880Y009080D03*
X018880Y009130D03*
X018830Y009230D03*
X018830Y009280D03*
X018780Y009380D03*
X018780Y009430D03*
X018780Y009480D03*
X018730Y009630D03*
X018680Y009830D03*
X014730Y011080D03*
X014680Y011130D03*
X014980Y012730D03*
X014980Y012780D03*
X014980Y012830D03*
X015030Y012930D03*
X015030Y012980D03*
X015030Y013030D03*
X015080Y013180D03*
X015030Y013480D03*
X014430Y014430D03*
X014380Y014480D03*
X014330Y014580D03*
X014280Y014630D03*
X014230Y014680D03*
X014180Y014780D03*
X014080Y014880D03*
X014030Y014980D03*
X013880Y015180D03*
X013830Y015280D03*
X013830Y015330D03*
X013780Y015430D03*
X013780Y015480D03*
X013730Y015530D03*
X013680Y015580D03*
X013680Y015630D03*
X012630Y015730D03*
X012580Y015780D03*
X012430Y017030D03*
X013630Y016930D03*
X011130Y017180D03*
X009580Y017380D03*
X009680Y016280D03*
X009980Y016080D03*
X009080Y016080D03*
X008680Y016280D03*
X008630Y016230D03*
X008580Y016180D03*
X008280Y015830D03*
X008480Y015130D03*
X008430Y015080D03*
X008830Y014530D03*
X008780Y014480D03*
X009430Y013880D03*
X010630Y013880D03*
X012180Y013830D03*
X012180Y013780D03*
X012180Y013730D03*
X012180Y013680D03*
X012230Y013630D03*
X011680Y011730D03*
X011680Y011680D03*
X011680Y011630D03*
X011730Y011580D03*
X011730Y011530D03*
X010530Y011780D03*
X010530Y011830D03*
X009980Y011830D03*
X009930Y011780D03*
X009930Y011730D03*
X009030Y012280D03*
X009030Y012330D03*
X006880Y011730D03*
X006880Y011680D03*
X006880Y011630D03*
X006830Y011530D03*
X006830Y011480D03*
X006780Y011430D03*
X006330Y011480D03*
X006330Y011530D03*
X006280Y011580D03*
X006230Y011680D03*
X006230Y011730D03*
X006180Y011830D03*
X006180Y011880D03*
X006130Y011980D03*
X006130Y012030D03*
X006130Y012080D03*
X006780Y010780D03*
X006780Y010730D03*
X006780Y010680D03*
X006830Y010530D03*
X006880Y010380D03*
X009630Y008080D03*
X009230Y006830D03*
X009230Y006780D03*
X009230Y006730D03*
X009230Y006680D03*
X009280Y006580D03*
X012430Y007630D03*
X016680Y013430D03*
X016680Y013480D03*
X016680Y013530D03*
X016730Y013680D03*
X016730Y013730D03*
X016780Y013880D03*
X016780Y013930D03*
X016830Y013980D03*
X017580Y014180D03*
X017630Y014280D03*
X017630Y014330D03*
X017680Y014480D03*
X017980Y013580D03*
X018680Y014930D03*
X018630Y014980D03*
X018630Y015030D03*
X011480Y019230D03*
X011430Y019280D03*
X011330Y019530D03*
X011180Y019680D03*
X010930Y018680D03*
X008580Y019780D03*
X008530Y019730D03*
X008480Y019680D03*
X007980Y019730D03*
X007930Y019680D03*
X009030Y020830D03*
X008130Y017530D03*
X008080Y017480D03*
X008080Y017430D03*
X008080Y017130D03*
X008130Y017030D03*
X007330Y016180D03*
X006730Y015680D03*
X006680Y015630D03*
X006630Y015530D03*
X006580Y015430D03*
X006530Y015380D03*
X006530Y015330D03*
X006480Y015280D03*
X006480Y015230D03*
D90*
X007305Y016030D03*
X007855Y014730D03*
X010805Y012330D03*
X011155Y010180D03*
X007905Y007930D03*
X007805Y007980D03*
X010705Y006980D03*
X015105Y010930D03*
X017905Y012930D03*
X019305Y013380D03*
X012105Y014980D03*
X011405Y017730D03*
X011855Y018430D03*
X011955Y019930D03*
X011905Y019980D03*
X008905Y018030D03*
X008955Y017930D03*
X008955Y017880D03*
X008855Y018130D03*
X008055Y018980D03*
X008055Y019030D03*
D91*
X011305Y021580D03*
X007305Y013830D03*
X007305Y013780D03*
X007305Y013730D03*
X007305Y013380D03*
X012405Y012630D03*
X012955Y011180D03*
X012955Y011130D03*
X012905Y011030D03*
X012905Y010980D03*
X012905Y010930D03*
X012805Y007830D03*
X010505Y007080D03*
D92*
X011430Y007130D03*
X011430Y007180D03*
D93*
X012330Y007280D03*
X013280Y011530D03*
X011880Y020980D03*
D94*
X009480Y020330D03*
X008380Y018430D03*
X009630Y017630D03*
X013680Y019230D03*
X012830Y013380D03*
X015230Y010730D03*
X018030Y012980D03*
X019180Y013330D03*
X012530Y007730D03*
X009730Y007380D03*
X009080Y007530D03*
X008980Y007580D03*
X008580Y007680D03*
X008430Y007730D03*
X008330Y007780D03*
X009480Y011680D03*
X006580Y012230D03*
X006580Y012280D03*
X006580Y012330D03*
X006580Y012380D03*
D95*
X009980Y009230D03*
X012580Y007380D03*
X014930Y009230D03*
X007030Y008180D03*
X007030Y008130D03*
X013930Y017480D03*
X014030Y017580D03*
X014030Y017630D03*
X014080Y017680D03*
X013980Y017980D03*
X011180Y021780D03*
D96*
X011980Y019880D03*
X012030Y019830D03*
X011130Y019330D03*
X011930Y018830D03*
X011930Y018780D03*
X011880Y018630D03*
X011880Y018580D03*
X009280Y019530D03*
X009280Y019580D03*
X008030Y018930D03*
X008780Y018180D03*
X008880Y018080D03*
X008930Y017980D03*
X007780Y015630D03*
X010880Y013780D03*
X006830Y009880D03*
X007630Y008080D03*
X007730Y008030D03*
X009280Y007430D03*
D97*
X009830Y007830D03*
X009880Y007780D03*
X009780Y007930D03*
X006780Y009930D03*
X006780Y009980D03*
X009930Y013030D03*
X010580Y012230D03*
X007680Y015530D03*
X007880Y015730D03*
X008330Y016080D03*
X007330Y016080D03*
X010880Y017230D03*
X012080Y019730D03*
X017530Y014680D03*
X017580Y014730D03*
X018330Y015130D03*
X019330Y013730D03*
X017780Y012880D03*
X015030Y011030D03*
X017680Y007630D03*
X017630Y007580D03*
X017530Y007530D03*
D98*
X015180Y010830D03*
X018680Y013980D03*
X011830Y020130D03*
X011180Y021930D03*
X009080Y015930D03*
X007330Y015980D03*
X008030Y007880D03*
X008780Y007630D03*
D99*
X010405Y009030D03*
X012805Y007780D03*
X012805Y012130D03*
X012755Y012180D03*
X012405Y020330D03*
X012205Y020580D03*
X012155Y020630D03*
X012155Y020680D03*
X012105Y020730D03*
X012055Y020780D03*
X012005Y020830D03*
X012005Y020880D03*
X011255Y021680D03*
D100*
X014005Y017930D03*
X014005Y017880D03*
X014055Y017830D03*
X013955Y017530D03*
X007805Y014080D03*
X015305Y011980D03*
X016455Y012230D03*
X018505Y007780D03*
D101*
X013480Y011780D03*
X013130Y011380D03*
X012830Y007880D03*
X011330Y021430D03*
D102*
X013930Y018030D03*
X013880Y017380D03*
X018580Y013080D03*
X016580Y012280D03*
X013180Y012980D03*
X009730Y010630D03*
X009730Y010580D03*
X006980Y008230D03*
X007730Y013630D03*
X014980Y009280D03*
X015030Y009330D03*
X018580Y007880D03*
D103*
X012855Y007930D03*
X012205Y012430D03*
X007555Y012480D03*
X011355Y021380D03*
D104*
X011155Y021830D03*
X011505Y018280D03*
X011505Y018230D03*
X011505Y018180D03*
X007805Y013480D03*
X009705Y011530D03*
X009705Y011480D03*
X009705Y011430D03*
X009655Y011330D03*
X009655Y011280D03*
X009655Y011230D03*
X009655Y011180D03*
X009655Y011130D03*
X009655Y011080D03*
X009655Y011030D03*
X009805Y009330D03*
X007005Y009480D03*
X006855Y008380D03*
X012855Y012880D03*
X013255Y013030D03*
X013155Y010380D03*
X015155Y009630D03*
X015155Y009580D03*
X015205Y009680D03*
X015205Y009730D03*
X015205Y009780D03*
X015105Y009480D03*
X018655Y007930D03*
X018755Y013130D03*
X018805Y013830D03*
D105*
X012855Y007980D03*
D106*
X012855Y008030D03*
D107*
X018755Y008030D03*
X009105Y016380D03*
X008355Y017880D03*
X011055Y019530D03*
X011605Y017580D03*
X014255Y016980D03*
D108*
X007830Y013080D03*
X008230Y009680D03*
X012830Y008080D03*
D109*
X009630Y008130D03*
X008880Y014630D03*
X008780Y016480D03*
X009580Y016530D03*
X009180Y017380D03*
X010830Y018030D03*
X008980Y019430D03*
X013130Y017230D03*
X013580Y016880D03*
X017980Y013480D03*
D110*
X012780Y008130D03*
D111*
X012730Y008180D03*
D112*
X012705Y008230D03*
D113*
X012705Y008280D03*
D114*
X015130Y009530D03*
X009680Y010830D03*
X009680Y010880D03*
X009680Y010930D03*
X009680Y010980D03*
X009680Y011380D03*
X009730Y011580D03*
X007180Y009830D03*
X006880Y008330D03*
X007930Y014030D03*
X013830Y017330D03*
D115*
X012755Y008330D03*
D116*
X012730Y008480D03*
D117*
X012680Y008580D03*
D118*
X012655Y008680D03*
D119*
X012605Y008730D03*
D120*
X014755Y009080D03*
X016305Y012130D03*
X011455Y017930D03*
X011205Y021730D03*
X007755Y014230D03*
X007755Y014180D03*
D121*
X008255Y009530D03*
D122*
X008230Y009580D03*
X008230Y009630D03*
D123*
X008205Y009780D03*
X007805Y013130D03*
X011205Y021130D03*
D124*
X013605Y019330D03*
X008755Y017730D03*
X008355Y018580D03*
X007305Y015830D03*
X013255Y013230D03*
X015305Y010480D03*
X016805Y012380D03*
X016855Y012480D03*
X009405Y009830D03*
D125*
X012430Y010530D03*
X007580Y012530D03*
X007580Y012580D03*
X007580Y012630D03*
X011330Y021330D03*
D126*
X012255Y012480D03*
X013155Y011330D03*
X012555Y010580D03*
D127*
X012755Y010730D03*
X007355Y013230D03*
X007355Y013280D03*
D128*
X013180Y011280D03*
X013180Y011230D03*
D129*
X013330Y011580D03*
X012580Y020180D03*
D130*
X013730Y011830D03*
D131*
X012705Y012280D03*
X011405Y017830D03*
X012455Y020280D03*
D132*
X011330Y021280D03*
X007630Y012780D03*
X012180Y012380D03*
M02*
